<svg width="1035" height="810" viewBox="0 0 1035 810" fill="none" xmlns="http://www.w3.org/2000/svg">
<path d="M0.485429 183.675L144.001 146.117C180.988 297.207 210.576 404.895 233.863 481.63L234.909 445.532C237.446 357.159 240.039 265.831 248.795 192.326C254.13 148.462 261.331 114.376 270.798 88.2017C292.99 26.3229 330.25 7.18862 357.333 2.03045C405.952 -6.99987 444.915 23.186 469.031 50.3092C492.127 77.7911 512.237 107.863 528.988 139.966C545.606 170.129 562.536 204.668 579.186 240.507L579.001 237.904C577.874 195.948 574.928 84.358 652.463 44.3717C676.326 32.0935 716.119 23.135 770.173 50.0747C796.705 63.3292 825.443 84.3885 858.06 114.358C907.528 159.831 965.224 225.207 1034.55 314.197L919.863 411.448C816.75 279.042 757.869 224.664 727.453 202.443C726.631 222.143 726.953 241.885 728.418 261.559C731.768 312.321 740.438 372.058 748.085 424.907C754.594 469.988 760.767 512.586 763.126 545.713L763.161 546.212C764.78 563.893 764.603 581.692 762.634 599.31C755.023 656.03 718.386 673.449 703.04 678.328C686.338 683.582 643.354 690.318 604.117 639.106C591.283 621.555 579.996 602.828 570.394 583.158C549.833 543.199 526.45 489.02 501.088 431.697C473.112 367.545 444.179 301.179 415.923 245.788C408.623 231.442 402.008 219.219 396.1 208.727C394.719 219.961 393.364 232.306 392.053 246.764C386.757 307.607 384.666 380.581 382.617 451.159C380.482 525.751 378.478 596.214 372.776 651.351C370.64 678.129 365.875 704.588 358.556 730.312C350.462 756.332 329.546 801.028 280.32 808.264C254.685 812.094 216.97 806.15 183.038 756.23C167.644 733.552 152.564 701.833 135.171 656.303C98.4382 559.591 54.2895 405.057 0.118824 183.757" fill="#DA1075" fill-opacity="0.03"/>
</svg>
