<svg width="122" height="77" viewBox="0 0 122 77" fill="none" xmlns="http://www.w3.org/2000/svg">
<path d="M101.531 42.4823C100.363 41.8984 99.4195 40.5585 98.7109 39.5132C97.7015 38.024 96.8481 36.311 96.6095 34.5104C96.4302 33.1579 96.4189 31.5768 96.7586 30.2533C97.4326 27.6269 99.5109 25.238 101.199 23.2033C103.21 20.7784 105.586 18.243 108.242 16.5058C109.477 15.6983 111.173 14.9733 112.628 15.6178C113.926 16.1927 114.638 17.5781 115.048 18.8648C115.81 21.2578 115.915 23.8381 115.977 26.3283C116.05 29.2999 115.787 32.1594 114.736 34.9578C114.201 36.3839 113.492 37.755 112.187 38.6184C110.926 39.4528 109.212 39.6494 107.74 39.7437C104.694 39.9388 101.321 40.0095 98.3516 39.2488C95.9706 38.6389 93.4263 37.2195 92.2168 34.9849C91.2214 33.146 91.2166 30.6165 91.6473 28.6196C92.2358 25.8913 94.047 23.5719 96.0129 21.6713C97.6104 20.1268 99.3506 18.9256 101.572 18.5327C103.592 18.1752 105.937 18.1471 107.923 18.6954C110.339 19.3622 112.516 21.1356 114.018 23.1084C115.384 24.9034 116.005 26.9853 116.282 29.1958C116.651 32.1508 116.483 35.7847 114.451 38.171C113.578 39.1969 112.277 39.541 111.021 39.8182C108.978 40.2694 106.9 40.407 104.812 40.3876C101.976 40.3614 98.8719 40.1748 96.5146 38.4014C94.6542 37.0019 93.7983 34.7065 93.5115 32.47C93.2356 30.3179 93.0579 27.6468 93.8301 25.5759C95.2777 21.6937 99.8802 18.1226 103.863 17.3057C105.39 16.9923 107.183 16.9744 108.601 17.6989C110.263 18.548 111.658 20.2015 112.757 21.6713C115.405 25.2133 115.956 29.2279 115.78 33.5478C115.692 35.7164 115.192 37.6409 113.902 39.4115C112.711 41.0477 111.113 42.0993 109.462 43.2144" stroke="black" stroke-width="0.669737" stroke-linecap="round"/>
<path d="M103.73 26.0097C103.73 27.6773 103.73 29.3449 103.73 31.0125C103.73 32.729 103.834 27.313 104.951 26.0097" stroke="black" stroke-width="0.669737" stroke-linecap="round"/>
<path d="M109.098 26.1317C109.098 28.1179 109.098 30.1041 109.098 32.0903C109.098 32.538 109.857 31.3066 109.925 31.1074C110.29 30.0255 110.654 27.8861 110.196 26.7418" stroke="black" stroke-width="0.669737" stroke-linecap="round"/>
<path d="M100.312 32.4767C100.312 34.2104 101.374 35.8771 103.187 36.0221C105.439 36.2023 107.859 36.4901 109.884 35.3781C110.212 35.1983 110.875 34.4426 110.501 34.4426C110.388 34.4426 110.398 35.3498 110.508 35.4594C110.673 35.6243 110.054 34.7211 109.884 34.5511C109.684 34.3505 110.191 35.0295 110.318 35.2832" stroke="black" stroke-width="0.669737" stroke-linecap="round"/>
<path d="M95.1882 38.8218C94.9911 39.4786 93.2199 39.3364 92.7614 39.3098C90.514 39.1798 88.9654 35.3823 87.9823 33.8258C87.1141 32.4512 86.2217 31.0574 85.1962 29.7923C84.6401 29.1064 83.7794 28.2329 82.8914 27.9892C82.2095 27.802 82.4982 29.5379 82.4982 29.8737C82.4982 32.4402 82.8229 35.0975 84.8505 36.883C85.9989 37.8944 87.228 38.8272 88.328 39.8928C89.2497 40.7857 90.2744 41.5748 91.1887 42.4552C92.108 43.3405 92.0216 44.249 92.2123 45.4989C92.5541 47.7399 93.1401 49.9379 93.6291 52.149C94.0642 54.1167 94.5182 56.2154 95.3034 58.0805C95.3391 58.1652 95.7346 59.2084 96.0423 58.9007C96.3094 58.6336 96.4612 58.0962 96.5982 57.7618C97.1174 56.4949 97.5706 55.2067 98.1234 53.9521C99.2503 51.3951 100.693 48.7381 102.333 46.4683C102.915 45.6638 103.495 45.3309 103.669 46.509C104.41 51.5341 106.326 56.1833 108.224 60.8801C109.161 63.1989 110.153 65.4944 111.335 67.6996C111.577 68.1501 111.993 69.2826 112.515 69.5435C112.795 69.6837 112.744 68.9483 112.759 68.6351C112.825 67.2908 112.969 65.9472 112.996 64.6017C113.049 62.002 113.062 59.3815 112.908 56.7857C112.791 54.8029 112.371 52.9059 111.729 51.0372C111.566 50.5631 110.631 48.6336 111.668 48.8409C112.376 48.9826 113.124 49.6414 113.803 49.9255C114.678 50.2918 115.712 50.6541 116.664 50.7525C117.36 50.8246 118.419 51.0003 118.86 50.339C119.122 49.9462 119.959 49.0356 119.904 48.5155C119.88 48.29 116.776 47.4536 116.521 47.3495C114.425 46.492 112.427 45.3658 110.956 43.6076C109.964 42.4227 109.708 41.2936 109.708 39.7979" stroke="black" stroke-width="0.669737" stroke-linecap="round"/>
<path d="M18.8379 10.0318H19.6789L21.6561 14.8613H21.7243L23.7016 10.0318H24.5425V15.85H23.8834V11.4295H23.8266L22.0084 15.85H21.372L19.5539 11.4295H19.497V15.85H18.8379V10.0318ZM26.4438 13.0659H27.6938C28.2051 13.0659 28.5962 13.1956 28.8671 13.4551C29.1379 13.7146 29.2733 14.0432 29.2733 14.4409C29.2733 14.7022 29.2127 14.9399 29.0915 15.154C28.9703 15.3661 28.7923 15.5356 28.5574 15.6625C28.3226 15.7875 28.0347 15.85 27.6938 15.85H25.8642V11.4863H26.5347V15.225H27.6938C27.9589 15.225 28.1767 15.1549 28.3472 15.0147C28.5176 14.8746 28.6029 14.6947 28.6029 14.475C28.6029 14.2439 28.5176 14.0555 28.3472 13.9096C28.1767 13.7638 27.9589 13.6909 27.6938 13.6909H26.4438V13.0659ZM29.9665 15.85V11.4863H30.6369V15.85H29.9665ZM34.1142 15.85V11.4863H34.7847V13.3841H35.2279L36.796 11.4863H37.6597L35.8983 13.5886L37.6824 15.85H36.8188L35.3869 14.0091H34.7847V15.85H34.1142ZM38.0247 15.85V15.225H38.1838C38.3145 15.225 38.4234 15.1994 38.5105 15.1483C38.5976 15.0952 38.6677 15.0034 38.7208 14.8727C38.7757 14.7401 38.8173 14.5564 38.8458 14.3216C38.8761 14.0848 38.8978 13.7837 38.9111 13.4182L38.9906 11.4863H41.8997V15.85H41.2293V12.1113H39.627L39.5588 13.6682C39.5437 14.0261 39.5115 14.3415 39.4622 14.6142C39.4149 14.885 39.342 15.1123 39.2435 15.296C39.1469 15.4797 39.0181 15.618 38.8571 15.7108C38.6961 15.8036 38.4944 15.85 38.252 15.85H38.0247ZM44.9594 15.9409C44.5389 15.9409 44.1762 15.8481 43.8713 15.6625C43.5683 15.475 43.3344 15.2136 43.1696 14.8784C43.0067 14.5413 42.9253 14.1492 42.9253 13.7022C42.9253 13.2553 43.0067 12.8613 43.1696 12.5204C43.3344 12.1776 43.5636 11.9106 43.8571 11.7193C44.1526 11.5261 44.4973 11.4295 44.8912 11.4295C45.1185 11.4295 45.3429 11.4674 45.5645 11.5432C45.7861 11.6189 45.9878 11.742 46.1696 11.9125C46.3514 12.081 46.4963 12.3045 46.6043 12.5829C46.7122 12.8613 46.7662 13.2041 46.7662 13.6113V13.8954H43.4026V13.3159H46.0844C46.0844 13.0697 46.0351 12.85 45.9367 12.6568C45.8401 12.4636 45.7018 12.3111 45.5219 12.1994C45.3439 12.0877 45.1336 12.0318 44.8912 12.0318C44.6242 12.0318 44.3931 12.0981 44.198 12.2307C44.0048 12.3613 43.8562 12.5318 43.752 12.742C43.6478 12.9522 43.5958 13.1776 43.5958 13.4182V13.8045C43.5958 14.1341 43.6526 14.4134 43.7662 14.6426C43.8817 14.8699 44.0418 15.0432 44.2463 15.1625C44.4509 15.2799 44.6886 15.3386 44.9594 15.3386C45.1355 15.3386 45.2946 15.314 45.4367 15.2647C45.5806 15.2136 45.7047 15.1379 45.8088 15.0375C45.913 14.9352 45.9935 14.8083 46.0503 14.6568L46.698 14.8386C46.6298 15.0583 46.5153 15.2515 46.3543 15.4182C46.1933 15.5829 45.9944 15.7117 45.7577 15.8045C45.5209 15.8954 45.2548 15.9409 44.9594 15.9409ZM47.7861 15.85V11.4863H49.5702C50.0399 11.4863 50.413 11.5924 50.6895 11.8045C50.966 12.0166 51.1043 12.2969 51.1043 12.6454C51.1043 12.9106 51.0257 13.1161 50.8685 13.2619C50.7113 13.4058 50.5096 13.5034 50.2634 13.5545C50.4244 13.5772 50.5806 13.6341 50.7321 13.725C50.8855 13.8159 51.0124 13.9409 51.1128 14.1C51.2132 14.2572 51.2634 14.4504 51.2634 14.6795C51.2634 14.903 51.2065 15.1028 51.0929 15.279C50.9793 15.4551 50.8164 15.5943 50.6043 15.6966C50.3922 15.7988 50.1384 15.85 49.8429 15.85H47.7861ZM48.4225 15.2363H49.8429C50.074 15.2363 50.2548 15.1814 50.3855 15.0716C50.5162 14.9617 50.5815 14.8121 50.5815 14.6227C50.5815 14.3973 50.5162 14.2202 50.3855 14.0915C50.2548 13.9608 50.074 13.8954 49.8429 13.8954H48.4225V15.2363ZM48.4225 13.3159H49.5702C49.7501 13.3159 49.9045 13.2913 50.0333 13.242C50.162 13.1909 50.2605 13.1189 50.3287 13.0261C50.3988 12.9314 50.4338 12.8197 50.4338 12.6909C50.4338 12.5072 50.3571 12.3632 50.2037 12.2591C50.0503 12.153 49.8391 12.1 49.5702 12.1H48.4225V13.3159ZM52.8578 13.0659H54.1078C54.6192 13.0659 55.0103 13.1956 55.2811 13.4551C55.552 13.7146 55.6874 14.0432 55.6874 14.4409C55.6874 14.7022 55.6268 14.9399 55.5056 15.154C55.3843 15.3661 55.2063 15.5356 54.9715 15.6625C54.7366 15.7875 54.4487 15.85 54.1078 15.85H52.2783V11.4863H52.9487V15.225H54.1078C54.373 15.225 54.5908 15.1549 54.7612 15.0147C54.9317 14.8746 55.0169 14.6947 55.0169 14.475C55.0169 14.2439 54.9317 14.0555 54.7612 13.9096C54.5908 13.7638 54.373 13.6909 54.1078 13.6909H52.8578V13.0659ZM56.3806 15.85V11.4863H57.051V15.85H56.3806ZM60.1078 15.9409C59.6874 15.9409 59.3247 15.8481 59.0198 15.6625C58.7167 15.475 58.4828 15.2136 58.3181 14.8784C58.1552 14.5413 58.0737 14.1492 58.0737 13.7022C58.0737 13.2553 58.1552 12.8613 58.3181 12.5204C58.4828 12.1776 58.712 11.9106 59.0056 11.7193C59.301 11.5261 59.6457 11.4295 60.0396 11.4295C60.2669 11.4295 60.4914 11.4674 60.7129 11.5432C60.9345 11.6189 61.1362 11.742 61.3181 11.9125C61.4999 12.081 61.6448 12.3045 61.7527 12.5829C61.8607 12.8613 61.9146 13.2041 61.9146 13.6113V13.8954H58.551V13.3159H61.2328C61.2328 13.0697 61.1836 12.85 61.0851 12.6568C60.9885 12.4636 60.8503 12.3111 60.6703 12.1994C60.4923 12.0877 60.2821 12.0318 60.0396 12.0318C59.7726 12.0318 59.5415 12.0981 59.3465 12.2307C59.1533 12.3613 59.0046 12.5318 58.9004 12.742C58.7963 12.9522 58.7442 13.1776 58.7442 13.4182V13.8045C58.7442 14.1341 58.801 14.4134 58.9146 14.6426C59.0302 14.8699 59.1902 15.0432 59.3948 15.1625C59.5993 15.2799 59.837 15.3386 60.1078 15.3386C60.284 15.3386 60.4431 15.314 60.5851 15.2647C60.729 15.2136 60.8531 15.1379 60.9573 15.0375C61.0614 14.9352 61.1419 14.8083 61.1987 14.6568L61.8465 14.8386C61.7783 15.0583 61.6637 15.2515 61.5027 15.4182C61.3417 15.5829 61.1429 15.7117 60.9061 15.8045C60.6694 15.8954 60.4033 15.9409 60.1078 15.9409Z" fill="black"/>
<path d="M76.6634 18.5712C76.6634 17.5519 75.2977 15.8389 77.1506 15.8389C78.5554 15.8389 80.3249 14.3405 80.5426 13.3412C80.9012 11.6957 78.3973 9.76192 76.6454 9.00823C74.9689 8.287 72.8308 8.07352 70.9618 7.83528C68.5053 7.52216 65.9721 7.06247 63.492 6.91072C58.1802 6.58572 52.9573 5.90336 47.6142 5.90336C43.0336 5.90336 38.4903 5.90891 33.9376 5.66877C28.5698 5.38565 23.0516 5.1582 17.6808 5.1582C12.0548 5.1582 8.13025 4.99903 4.72594 8.75984C2.94967 10.7221 2.63798 13.856 4.38312 15.8389C7.53566 19.4211 12.6748 19.9155 17.8071 21.0551C23.5658 22.3338 29.478 22.0487 35.4171 22.0487C42.8064 22.0487 50.7738 22.7071 58.043 21.5519C60.0514 21.2327 61.9861 21.2197 63.8348 20.4341C64.7814 20.032 65.6625 19.5196 66.5954 19.1232C68.2823 18.4065 69.8349 17.8261 71.7918 17.8261C73.8771 17.8261 74.3975 18.715 75.7612 19.758C77.3927 21.0057 76.9882 18.2495 76.9882 17.5777" stroke="black" stroke-width="0.669737" stroke-linecap="round"/>
</svg>
