<svg width="122" height="77" viewBox="0 0 122 77" fill="none" xmlns="http://www.w3.org/2000/svg">
<g clip-path="url(#clip0_1535_633)">
<path d="M22.19 49.0168C22.19 42.7991 21.5208 35.6791 25.3609 30.3787C28.1713 26.4995 31.6036 24.2011 36.4767 24.9705C43.0774 26.0128 44.8426 40.2368 38.3617 42.3578C36.7169 42.8961 34.8517 42.6749 33.1473 42.6749C30.1031 42.6749 26.9244 42.9277 23.9868 41.9702C21.0097 40.9999 18.2555 39.0374 16.5527 36.4035C14.7901 33.6769 14.8968 30.9346 14.8968 27.8068C14.8968 25.6422 14.9131 23.6354 16.8522 22.2576C19.3511 20.4821 23.0251 20.2907 25.9598 20.0204C31.6929 19.4923 37.011 19.0076 41.2155 23.3322C44.6982 26.9144 46.3115 33.6727 44.5626 38.4822C43.5901 41.1566 41.0126 42.241 38.3969 42.6749C31.5573 43.8094 21.3791 44.464 16.2709 38.6936C14.233 36.3915 13.2514 32.7562 13.3642 29.7093C13.4784 26.627 15.9894 24.9211 18.5962 23.8255C22.3309 22.2559 26.4174 21.539 30.452 21.4473C34.3016 21.3598 38.5212 21.1327 41.4622 24.0369C44.1923 26.7329 44.6492 30.9163 43.4352 34.4305C41.7987 39.1678 33.461 39.5419 29.4655 39.4511C22.6688 39.2967 17.7617 35.5767 18.0854 28.6171C18.2185 25.755 20.318 25.6474 22.507 24.9177" stroke="black" stroke-width="0.633048" stroke-linecap="round"/>
<path d="M30.5487 30.0247C30.5487 31.2755 30.483 32.5449 30.5487 33.7938C30.6282 35.3025 31.2357 30.8507 31.532 29.3692" stroke="black" stroke-width="0.633048" stroke-linecap="round"/>
<path d="M34.4812 29.0414C34.4812 30.1339 34.4812 31.2264 34.4812 32.3189C34.4812 32.53 34.385 34.0356 34.727 33.6936C35.3708 33.0499 36.3584 29.3941 35.3006 29.0414" stroke="black" stroke-width="0.633048" stroke-linecap="round"/>
<path d="M26.9414 33.6299C26.9414 34.6608 29.0091 35.3755 29.8001 35.7603C30.9485 36.319 32.0175 37.0713 33.3324 37.0713C35.2812 37.0713 38.0847 35.7379 38.0847 33.4661" stroke="black" stroke-width="0.633048" stroke-linecap="round"/>
<path d="M21.1535 44.7996C15.9609 44.7996 10.6307 44.4365 5.45188 44.8201C4.54432 44.8873 -0.564018 47.9044 2.00368 49.0277C3.57008 49.713 6.1634 49.233 7.83277 49.233C9.65346 49.233 10.6367 48.9716 12.2867 48.3299C13.2529 47.9541 14.6029 47.5349 15.6323 47.4063C16.5698 47.2891 18.0904 46.8907 17.0485 47.8168C15.1996 49.4603 13.7026 51.4342 11.9993 53.2148C11.0772 54.1789 10.4394 54.9863 10.4394 56.3346C10.4394 57.6079 10.482 58.0312 11.6299 56.9093C13.2186 55.3568 14.7386 53.3348 16.7201 52.2707C17.5692 51.8147 22.6352 48.6623 23.6575 49.6845C25.1163 51.1433 20.0591 56.1495 19.3062 57.2788C18.1505 59.0125 18.5673 61.6589 18.5673 63.6415C18.5673 65.31 21.5548 64.2756 22.0771 63.231C23.6212 60.1429 25.9156 56.6217 28.3372 54.2C28.638 53.8993 30.4067 51.4126 30.6771 51.9833C32.0345 54.849 29.4599 59.235 31.1286 62.0816C32.7961 64.9262 33.6566 62.8779 34.4537 60.768C35.4569 58.1126 36.2462 55.0348 36.3009 52.1886C36.3136 51.5299 36.3709 49.5735 36.8756 49.0688C37.6916 48.2529 38.1825 50.8971 38.3534 51.2855C40.3715 55.8721 46.1245 58.2981 50.1348 60.8501C50.7097 61.216 51.4767 61.1889 51.6126 60.4191C52.0443 57.9723 49.5311 54.7511 47.7539 53.2969C46.1523 51.9866 45.1554 50.6342 43.8746 49.0688C43.3813 48.4658 42.5655 48.437 42.0479 47.9194C41.2769 47.1484 43.3832 47.4229 43.6078 47.4678C46.0996 47.9662 48.3428 49.3724 50.7916 50.054C51.8383 50.3454 62.2737 52.3174 62.0803 51.737C61.0339 48.5977 57.9303 46.7124 55.0608 45.5385C52.9997 44.6953 51.7664 45.169 49.9706 45.169C48.8219 45.169 51.2608 43.9451 51.4689 43.8965C53.5096 43.4203 55.6598 43.8298 57.729 43.5065C58.9827 43.3106 65.045 41.6992 64.3381 39.4015C63.5753 36.9226 58.2277 38.1789 56.4359 38.7242C54.2146 39.4002 52.2815 40.5217 49.8269 39.9762C49.1587 39.8277 49.229 39.1642 49.7653 38.8884C51.5357 37.9779 53.6919 37.5847 55.5944 37.0412C56.1069 36.8947 62.2047 34.1343 58.7553 33.4288C55.4108 32.7447 50.1469 32.9338 47.015 34.455C45.7814 35.0542 44.3678 36.3023 42.951 36.3023" stroke="black" stroke-width="0.633048" stroke-linecap="round"/>
<path d="M25.1349 58.0735C25.1349 61.4955 24.8929 63.6837 25.1349 67.0984C25.238 68.5534 25.6047 69.9269 25.9097 71.3441C26.0705 72.0915 25.9708 73.0929 26.2506 73.7923C26.3773 74.1092 26.4575 75.3773 27.0253 75.1249C28.0134 74.6858 28.1064 72.3071 28.2804 71.4371C28.6512 69.5832 28.3302 67.806 29.4116 66.1067C29.9734 65.2238 30.2665 63.386 31.209 62.9147" stroke="black" stroke-width="0.633048" stroke-linecap="round"/>
<path d="M35.293 58.4357C35.4748 62.0715 37.8579 65.1164 38.8569 68.4767C39.2173 69.689 39.5456 70.8272 39.7556 72.0871C40.1396 74.3912 40.7868 73.6583 41.0107 71.7772C41.6613 66.3123 41.1502 60.605 41.1502 55.0887" stroke="black" stroke-width="0.633048" stroke-linecap="round"/>
<path d="M9.42241 36.6937C8.46534 36.6937 7.86607 36.8119 7.26346 37.6751C6.64329 38.5634 5.30078 39.8522 5.30078 41.0116" stroke="black" stroke-width="0.633048" stroke-linecap="round"/>
<path d="M4.51562 51.6101V52.7877" stroke="black" stroke-width="0.633048" stroke-linecap="round"/>
<path d="M47.6914 28.6467C49.1288 28.6467 50.2005 28.699 51.5186 29.3337C52.7488 29.926 53.7348 31.1034 54.9533 31.5908" stroke="black" stroke-width="0.633048" stroke-linecap="round"/>
<path d="M53.7812 58.087C55.0617 57.9522 56.2587 56.3947 57.1178 55.5355C57.7535 54.8999 58.5084 54.2744 58.688 53.3766" stroke="black" stroke-width="0.633048" stroke-linecap="round"/>
<path d="M8.4375 61.6198C9.53121 61.8187 10.7108 63.3248 11.5778 63.975C12.3568 64.5593 13.0049 64.9206 13.933 65.1526" stroke="black" stroke-width="0.633048" stroke-linecap="round"/>
<path d="M77.0234 15.5497H76.2847L78.4211 9.73156H79.1484L81.2847 15.5497H80.5461L78.8075 10.652H78.762L77.0234 15.5497ZM77.2961 13.277H80.2734V13.902H77.2961V13.277ZM84.3501 15.5497V11.1861H85.0205V13.0838H85.4637L87.0319 11.1861H87.8955L86.1342 13.2884L87.9183 15.5497H87.0546L85.6228 13.7088H85.0205V15.5497H84.3501ZM89.931 15.652C89.6545 15.652 89.4036 15.5999 89.1782 15.4958C88.9528 15.3897 88.7739 15.2372 88.6413 15.0384C88.5087 14.8376 88.4424 14.5952 88.4424 14.3111C88.4424 14.0611 88.4917 13.8585 88.5901 13.7032C88.6886 13.546 88.8203 13.4228 88.985 13.3338C89.1498 13.2448 89.3316 13.1785 89.5305 13.135C89.7312 13.0895 89.9329 13.0535 90.1356 13.027C90.4007 12.9929 90.6157 12.9674 90.7805 12.9503C90.9471 12.9314 91.0684 12.9001 91.1441 12.8566C91.2218 12.813 91.2606 12.7372 91.2606 12.6293V12.6066C91.2606 12.3263 91.1839 12.1085 91.0305 11.9532C90.879 11.7978 90.6489 11.7202 90.3401 11.7202C90.0201 11.7202 89.7691 11.7903 89.5873 11.9304C89.4055 12.0706 89.2776 12.2202 89.2038 12.3793L88.5674 12.152C88.681 11.8869 88.8326 11.6804 89.022 11.5327C89.2132 11.3831 89.4216 11.2789 89.647 11.2202C89.8742 11.1596 90.0977 11.1293 90.3174 11.1293C90.4576 11.1293 90.6185 11.1463 90.8004 11.1804C90.9841 11.2126 91.1612 11.2799 91.3316 11.3821C91.504 11.4844 91.647 11.6388 91.7606 11.8452C91.8742 12.0516 91.931 12.3282 91.931 12.6747V15.5497H91.2606V14.9588H91.2265C91.181 15.0535 91.1053 15.1549 90.9992 15.2628C90.8932 15.3708 90.7521 15.4626 90.5759 15.5384C90.3998 15.6141 90.1848 15.652 89.931 15.652ZM90.0333 15.0497C90.2985 15.0497 90.522 14.9977 90.7038 14.8935C90.8875 14.7893 91.0257 14.6549 91.1185 14.4901C91.2132 14.3253 91.2606 14.152 91.2606 13.9702V13.3566C91.2322 13.3907 91.1697 13.4219 91.0731 13.4503C90.9784 13.4768 90.8685 13.5005 90.7435 13.5213C90.6204 13.5403 90.5002 13.5573 90.3828 13.5725C90.2672 13.5857 90.1735 13.5971 90.1015 13.6066C89.9273 13.6293 89.7644 13.6662 89.6129 13.7174C89.4632 13.7666 89.342 13.8414 89.2492 13.9418C89.1583 14.0403 89.1129 14.1747 89.1129 14.3452C89.1129 14.5782 89.199 14.7543 89.3714 14.8736C89.5456 14.991 89.7663 15.0497 90.0333 15.0497ZM93.1548 15.5497V11.1861H93.8252V13.0838H94.2684L95.8366 11.1861H96.7002L94.9389 13.2884L96.723 15.5497H95.8593L94.4275 13.7088H93.8252V15.5497H93.1548ZM98.3266 13.9134V13.8793C98.3304 13.5175 98.3683 13.2297 98.4403 13.0157C98.5123 12.8016 98.6145 12.6283 98.7471 12.4958C98.8797 12.3632 99.0388 12.241 99.2244 12.1293C99.3361 12.0611 99.4365 11.9806 99.5255 11.8878C99.6145 11.7931 99.6846 11.6842 99.7357 11.5611C99.7888 11.438 99.8153 11.3016 99.8153 11.152C99.8153 10.9664 99.7717 10.8054 99.6846 10.6691C99.5975 10.5327 99.481 10.4276 99.3352 10.3537C99.1893 10.2799 99.0274 10.2429 98.8494 10.2429C98.6941 10.2429 98.5444 10.2751 98.4005 10.3395C98.2566 10.4039 98.1363 10.5052 98.0397 10.6435C97.9431 10.7818 97.8873 10.9626 97.8721 11.1861H97.1562C97.1713 10.8641 97.2547 10.5886 97.4062 10.3594C97.5596 10.1302 97.7613 9.95505 98.0113 9.83383C98.2632 9.71262 98.5426 9.65202 98.8494 9.65202C99.1827 9.65202 99.4725 9.7183 99.7187 9.85088C99.9668 9.98346 100.158 10.1653 100.293 10.3963C100.429 10.6274 100.497 10.8907 100.497 11.1861C100.497 11.3944 100.465 11.5829 100.401 11.7514C100.338 11.92 100.247 12.0706 100.128 12.2032C100.01 12.3357 99.8683 12.4532 99.7016 12.5554C99.535 12.6596 99.4015 12.7694 99.3011 12.885C99.2007 12.9986 99.1278 13.134 99.0823 13.2912C99.0369 13.4484 99.0123 13.6444 99.0085 13.8793V13.9134H98.3266ZM98.6903 15.5952C98.5501 15.5952 98.4299 15.545 98.3295 15.4446C98.2291 15.3443 98.1789 15.224 98.1789 15.0838C98.1789 14.9437 98.2291 14.8234 98.3295 14.723C98.4299 14.6227 98.5501 14.5725 98.6903 14.5725C98.8304 14.5725 98.9507 14.6227 99.0511 14.723C99.1515 14.8234 99.2016 14.9437 99.2016 15.0838C99.2016 15.1766 99.178 15.2619 99.1306 15.3395C99.0852 15.4172 99.0236 15.4797 98.946 15.527C98.8702 15.5725 98.785 15.5952 98.6903 15.5952Z" fill="black"/>
<path d="M60.0307 23.3574C60.6779 22.6457 61.0599 21.7542 61.5789 20.9389C61.9179 20.4065 62.7603 19.7618 62.8937 19.1015C62.9654 18.7468 61.9412 17.2095 61.751 16.7911C61.3979 16.0148 61.191 14.6374 61.3701 13.7512C61.5494 12.8637 62.5782 12.0445 63.1272 11.4408C63.9898 10.4923 64.8308 9.23644 66.0024 8.76571C74.0614 5.52794 82.8905 5.84739 91.3885 5.84739C94.0221 5.84739 96.6557 5.84739 99.2893 5.84739C101.573 5.84739 104.055 5.57865 106.269 6.34729C108.726 7.20059 111.792 9.00091 113.432 11.3193C115.419 14.1285 116.954 19.54 112.535 20.3309C110.228 20.744 107.908 20.8197 105.593 21.1686C103.074 21.5483 100.608 22.0855 98.0729 22.3305C93.4875 22.7738 89.327 22.0037 84.9129 20.8173C79.8219 19.449 74.3127 19.008 69.1112 19.723C67.4563 19.9504 66.0442 21.1267 64.5771 21.8982C63.4062 22.5139 61.8 22.4257 60.7434 23.1142C60.3027 23.4013 59.8479 23.6676 59.3672 23.8437" stroke="black" stroke-width="0.633048" stroke-linecap="round"/>
</g>
<defs>
<clipPath id="clip0_1535_633">
<rect width="121.194" height="76.7131" fill="white" transform="translate(0.644531)"/>
</clipPath>
</defs>
</svg>
