<svg width="122" height="77" viewBox="0 0 122 77" fill="none" xmlns="http://www.w3.org/2000/svg">
<g clip-path="url(#clip0_1535_632)">
<path d="M69.4344 38.8462C69.4344 35.3084 69.4344 31.7705 69.4344 28.2327C69.4344 23.6815 68.7262 18.7322 72.2396 15.2188C75.9702 11.4882 83.3574 10.6953 86.5404 15.7683C89.6289 20.6906 89.6387 28.2463 89.9385 33.8431C90.0373 35.6882 90.4201 38.4539 89.1577 40.0319C88.0174 41.4572 85.752 41.6418 84.0822 41.6948C77.9451 41.8896 69.1969 41.9573 65.5881 35.8675C64.3943 33.853 63.7458 31.2813 63.7083 28.9557C63.664 26.2086 63.4064 23.1932 64.547 20.6268C66.1047 17.1219 69.1313 14.1957 72.0516 11.8063C75.1568 9.2657 78.6105 6.73381 82.5929 5.84884C84.0798 5.51841 86.4403 5.11022 87.8563 5.90668C89.4039 6.77721 90.8408 9.23485 91.558 10.7796C93.7916 15.5904 94.9299 21.3043 94.0451 26.6132C93.3243 30.9379 89.6514 34.2018 85.9331 36.0989C83.8298 37.172 81.2257 37.5752 78.949 38.022C76.0884 38.5834 72.6928 39.3978 69.8248 38.3835C66.2947 37.135 65.4673 32.6715 64.4891 29.5341C63.6396 26.8093 62.9485 24.0599 62.725 21.2052C62.5915 19.4991 62.3858 17.446 63.3468 15.9418C64.634 13.9271 66.6822 12.8274 68.6825 11.6328C72.0831 9.60189 75.6455 7.39572 79.5852 6.62967C81.1463 6.32613 83.847 5.86364 85.2535 6.94779C86.9441 8.25096 87.6736 11.339 88.2901 13.2378C90.0291 18.5939 90.7678 23.9449 91.558 29.4762" stroke="black" stroke-width="0.755675" stroke-linecap="round"/>
<path d="M76.979 21.9282C75.5066 21.9282 75.882 24.1937 76.5741 23.9959C77.5536 23.7161 76.1982 16.7581 76.1982 21.9282" stroke="black" stroke-width="0.755675" stroke-linecap="round"/>
<path d="M81.6641 20.1063C81.6641 20.5401 81.6641 20.9739 81.6641 21.4077C81.6641 22.2166 81.8307 21.3236 82.0689 21.0172C82.4864 20.4805 82.5959 20.5163 82.8353 19.846C83.0106 19.3551 82.6616 17.9871 82.3871 18.9206C82.0972 19.9062 81.6641 20.6168 81.6641 21.6679C81.6641 22.2078 81.6641 23.8273 81.6641 23.2874C81.6641 21.8553 81.9243 20.4452 81.9243 19.0073C81.9243 18.2887 82.083 20.436 82.1846 21.1474" stroke="black" stroke-width="0.755675" stroke-linecap="round"/>
<path d="M75.6784 31.2983C74.5843 31.2983 77.869 31.3542 78.9608 31.2838C80.2482 31.2007 82.1527 30.632 82.4312 29.1004C82.4987 28.7291 81.6188 30.3421 81.0864 30.7777C79.4605 32.108 77.7633 32.3394 75.7363 32.3394C75.3407 32.3394 74.0944 31.4687 74.7964 31.3127C75.8962 31.0683 77.1614 31.4082 78.2812 31.2838C79.4096 31.1584 80.6859 30.3743 81.607 29.7366C82.1742 29.3439 82.5148 28.4006 82.9662 28.1749" stroke="black" stroke-width="0.755675" stroke-linecap="round"/>
<path d="M110.079 59.5576C110.079 61.0771 110.1 56.5183 110.079 54.9989C110.061 53.6699 109.359 52.4362 109.359 51.16" stroke="black" stroke-width="0.755675" stroke-linecap="round"/>
<path d="M109.361 51.1599C112.82 51.1599 115.696 52.6672 118.958 53.5059C119.825 53.7287 121.897 55.0632 120.931 53.3726C120.343 52.3442 119.483 50.9793 119.438 49.7737C119.397 48.6673 118.552 49.0222 117.572 48.7073C116.57 48.3854 115.229 48.2986 114.4 47.561C113.368 46.6438 113.456 47.6723 112.48 48.1741C111.413 48.7228 110.141 48.9703 109.121 49.4804" stroke="black" stroke-width="0.755675" stroke-linecap="round"/>
<path d="M109.84 62.6767C109.84 61.9616 110.672 61.6858 111.199 61.3304C113.449 59.8156 115.633 58.2111 117.878 56.6918C119.106 55.8603 120.424 54.99 121.836 54.519" stroke="black" stroke-width="0.755675" stroke-linecap="round"/>
<path d="M112.479 53.0795C112.479 54.7416 112.819 56.8407 112.185 58.4113C111.985 58.9085 111.482 60.5357 111.039 60.7573" stroke="black" stroke-width="0.755675" stroke-linecap="round"/>
<path d="M116.798 53.3193C115.67 53.545 114.407 55.7799 113.732 56.5717C112.969 57.4672 111.753 58.3904 111.52 59.5576" stroke="black" stroke-width="0.755675" stroke-linecap="round"/>
<path d="M90.7753 52.6409C90.7753 45.4238 95.8076 40.1203 99.6247 34.4215C101.943 30.9599 104.377 27.3072 106.074 23.4899C106.839 21.7687 103.207 26.1159 102.488 27.8568C101.328 30.6641 100.16 33.4544 98.4534 35.9832C94.9357 41.1946 85.1918 57.3515 88.5918 52.0626C89.6289 50.4493 90.2743 48.6017 91.1801 46.9148C92.2897 44.8489 93.6388 43.0835 95.1855 41.3333C97.6505 38.544 99.9868 35.652 102.227 32.6863C103.787 30.6225 104.099 28.3078 105.148 26.0927C105.424 25.5107 106.089 24.4634 106.016 23.808C105.998 23.6446 103.427 23.7502 103.124 23.7502C102.343 23.7502 97.488 24.2109 97.5425 23.2296C97.6143 21.9363 100.1 21.4346 101.071 21.4077C102.792 21.3599 104.698 22.2166 106.262 22.8536C109.775 24.2851 113.68 28.2291 113.68 32.2092C113.68 34.133 113.563 32.3186 113.289 31.2837C112.827 29.5393 112.136 27.7214 110.441 26.8735C109.378 26.3421 107.805 25.8101 106.912 25.0515C106.44 24.6501 104.659 23.3531 106.392 24.2707C108.091 25.1704 109.133 27.4942 110.556 28.7533C112.115 30.1321 113.215 32.0267 114.316 33.7564C114.658 34.2946 114.923 35.1156 115.371 35.5639C116.698 36.8899 113.477 32.2965 112.884 30.5174C112.266 28.6618 110.107 26.8551 108.865 25.3263C108.357 24.7013 107.458 24.4219 106.782 24.0104C105.858 23.4476 104.853 22.4672 103.789 22.2463C99.9639 21.4524 95.6965 22.7208 91.961 21.6535C89.7925 21.0339 96.4919 20.5842 98.6993 21.0462C100.173 21.3546 101.596 22.0688 103.008 22.5789C103.656 22.8128 105.307 23.142 105.611 23.7502" stroke="black" stroke-width="0.755675" stroke-linecap="round"/>
<path d="M93.8978 39.1065C95.8639 39.1065 98.0741 38.7782 99.8263 39.8295C100.95 40.5038 101.431 42.3222 100.116 43.1264C97.9401 44.4558 94.3756 43.2839 92.0759 42.6926C90.9329 42.3987 89.2957 42.878 88.3018 42.2154C87.2371 41.5056 87.712 40.1948 88.5766 39.6415C89.7708 38.8772 92.1019 39.1991 92.7988 37.8051C93.2963 36.8103 90.8076 35.8591 90.1382 35.7374C89.703 35.6582 89.306 35.7857 88.9525 36.041C87.9279 36.781 87.1015 37.1727 85.887 37.5448C85.2093 37.7525 79.5248 40.2999 79.8862 41.5647C80.0128 42.0078 91.9365 41.2512 91.4975 42.6781C91.0831 44.0247 88.432 43.5565 88.432 44.7314C88.432 50.8145 87.9359 56.9014 87.1884 62.9364C86.8356 65.7853 86.3709 68.5614 85.6991 71.352C85.4342 72.4523 85.2837 74.0224 84.6579 74.9959C84.2562 75.6208 83.5848 75.0213 83.2843 74.591C81.9234 72.6425 81.9116 70.1206 81.7226 67.8527C81.5359 65.6119 80.7075 63.6607 80.3055 61.4904C79.7873 58.692 79.7825 55.8851 79.4524 53.0458C79.2671 51.4522 79.1382 49.019 77.963 47.7535C76.9601 46.6734 76.1556 45.4159 75.5482 44.0662C74.5371 41.8192 73.8419 46.5856 73.5962 47.3052C73.1988 48.4691 72.8743 49.7861 72.1791 50.819C71.8105 51.3667 71.0629 51.4477 70.9355 52.0336C70.1337 55.722 68.7675 60.5065 65.4263 62.7339C64.3976 63.4198 64.1433 62.5533 63.9659 61.635C63.4895 59.1687 63.7996 56.7762 64.7467 54.4629C66.4159 50.3862 68.4488 46.5383 70.415 42.6058C70.8038 41.8282 71.2869 41.0918 71.6296 40.2922C71.7331 40.0508 70.4738 40.1448 70.3282 40.1332C67.5655 39.9121 64.9491 39.6008 62.144 39.6271C60.3371 39.644 58.6145 39.9868 56.8372 40.2633C56.3262 40.3428 54.3704 40.777 53.9597 40.2488C52.9052 38.893 55.2786 37.1702 56.2877 36.9086C58.2632 36.3964 60.4807 36.7969 62.4042 37.2846C65.1358 37.9771 67.657 39.6271 70.4728 39.6271" stroke="black" stroke-width="0.755675" stroke-linecap="round"/>
<path d="M48.7832 23.9954C48.6683 22.6587 47.1952 22.123 47.1952 20.7463C47.1952 19.7515 47.8934 19.8699 48.1951 19.2073C48.503 18.5308 48.4113 18.0354 48.5332 17.3263C48.8359 15.5666 48.9518 13.8499 48.3862 12.0632C47.4717 9.17459 45.5804 8.22492 43.6075 7.06606C41.8312 6.02275 39.7795 5.581 37.9318 4.84302C36.0405 4.08761 34.128 3.99146 32.1827 3.608C28.4952 2.88114 24.9744 2.38345 21.2578 2.03097C15.6832 1.50227 8.69035 -0.113404 3.73093 4.15901C2.05742 5.6007 2.58223 7.7883 2.08411 10.0871C1.62432 12.2091 2.22496 14.2442 3.78975 15.2552C4.83295 15.9292 6.17236 16.0522 7.28924 16.4712C9.27813 17.2174 11.2984 17.7651 13.3178 18.3523C17.2631 19.4994 21.3391 19.8913 25.3748 19.8913C28.1686 19.8913 30.9623 19.8913 33.756 19.8913C35.8539 19.8913 38.2373 19.4713 40.255 20.3093C42.0647 21.061 43.9021 21.26 45.2837 23.0454C45.8842 23.8213 46.9929 23.8647 47.7245 24.3374" stroke="black" stroke-width="0.755675" stroke-linecap="round"/>
<path d="M16.763 7.89434L18.263 10.3148H18.3084L19.8084 7.89434H20.638L18.8084 10.8034L20.638 13.7125H19.8084L18.3084 11.3375H18.263L16.763 13.7125H15.9334L17.8084 10.8034L15.9334 7.89434H16.763ZM23.0101 13.8034C22.6162 13.8034 22.2706 13.7097 21.9732 13.5222C21.6778 13.3347 21.4467 13.0724 21.28 12.7353C21.1153 12.3981 21.0329 12.0042 21.0329 11.5534C21.0329 11.0989 21.1153 10.7021 21.28 10.3631C21.4467 10.0241 21.6778 9.76082 21.9732 9.57332C22.2706 9.38582 22.6162 9.29207 23.0101 9.29207C23.4041 9.29207 23.7488 9.38582 24.0442 9.57332C24.3416 9.76082 24.5726 10.0241 24.7374 10.3631C24.9041 10.7021 24.9874 11.0989 24.9874 11.5534C24.9874 12.0042 24.9041 12.3981 24.7374 12.7353C24.5726 13.0724 24.3416 13.3347 24.0442 13.5222C23.7488 13.7097 23.4041 13.8034 23.0101 13.8034ZM23.0101 13.2012C23.3094 13.2012 23.5556 13.1245 23.7488 12.971C23.942 12.8176 24.0849 12.6159 24.1778 12.3659C24.2706 12.1159 24.317 11.8451 24.317 11.5534C24.317 11.2618 24.2706 10.99 24.1778 10.7381C24.0849 10.4862 23.942 10.2826 23.7488 10.1273C23.5556 9.97199 23.3094 9.89434 23.0101 9.89434C22.7109 9.89434 22.4647 9.97199 22.2715 10.1273C22.0783 10.2826 21.9353 10.4862 21.8425 10.7381C21.7497 10.99 21.7033 11.2618 21.7033 11.5534C21.7033 11.8451 21.7497 12.1159 21.8425 12.3659C21.9353 12.6159 22.0783 12.8176 22.2715 12.971C22.4647 13.1245 22.7109 13.2012 23.0101 13.2012ZM29.3745 9.34889V13.7125H28.704V9.34889H29.3745ZM29.1131 11.4284V12.0534C28.9616 12.1103 28.811 12.1604 28.6614 12.204C28.5118 12.2457 28.3546 12.2788 28.1898 12.3034C28.0251 12.3262 27.8442 12.3375 27.6472 12.3375C27.1529 12.3375 26.7561 12.204 26.4569 11.937C26.1595 11.6699 26.0108 11.2693 26.0108 10.7353V9.33752H26.6813V10.7353C26.6813 10.9587 26.7239 11.1424 26.8091 11.2864C26.8944 11.4303 27.0099 11.5373 27.1557 11.6074C27.3016 11.6775 27.4654 11.7125 27.6472 11.7125C27.9313 11.7125 28.1879 11.687 28.4171 11.6358C28.6482 11.5828 28.8802 11.5137 29.1131 11.4284ZM30.8802 15.3489C30.7665 15.3489 30.6652 15.3394 30.5762 15.3205C30.4872 15.3034 30.4256 15.2864 30.3915 15.2693L30.562 14.6784C30.7249 14.7201 30.8688 14.7353 30.9938 14.7239C31.1188 14.7125 31.2296 14.6567 31.3262 14.5563C31.4247 14.4578 31.5146 14.2978 31.5961 14.0762L31.7211 13.7353L30.1074 9.34889H30.8347L32.0393 12.8262H32.0847L33.2893 9.34889H34.0165L32.1643 14.3489C32.0809 14.5743 31.9777 14.7608 31.8546 14.9085C31.7315 15.0582 31.5885 15.169 31.4256 15.2409C31.2646 15.3129 31.0828 15.3489 30.8802 15.3489ZM35.7878 7.89434L35.731 12.0762H35.0719L35.0151 7.89434H35.7878ZM35.4015 13.758C35.2613 13.758 35.1411 13.7078 35.0407 13.6074C34.9403 13.507 34.8901 13.3868 34.8901 13.2466C34.8901 13.1065 34.9403 12.9862 35.0407 12.8858C35.1411 12.7854 35.2613 12.7353 35.4015 12.7353C35.5416 12.7353 35.6619 12.7854 35.7623 12.8858C35.8626 12.9862 35.9128 13.1065 35.9128 13.2466C35.9128 13.3394 35.8892 13.4246 35.8418 13.5023C35.7964 13.5799 35.7348 13.6424 35.6572 13.6898C35.5814 13.7353 35.4962 13.758 35.4015 13.758Z" fill="black"/>
</g>
<defs>
<clipPath id="clip0_1535_632">
<rect width="121.194" height="76.7131" fill="white" transform="translate(0.644531)"/>
</clipPath>
</defs>
</svg>
