<svg width="130" height="75" viewBox="0 0 130 75" fill="none" xmlns="http://www.w3.org/2000/svg">
<path d="M40.7712 28.3877C40.7712 21.0063 42.2314 13.0939 45.8853 6.58793C46.2662 5.90969 48.0027 3 48.7759 3C49.2664 3 50.6702 9.34853 51.0241 10.1016C52.0822 12.3537 54.3206 14.4196 55.0017 16.8073C55.3732 18.1094 55.1979 19.6253 55.7923 20.8159C56.1377 21.5077 56.622 23.2202 57.4723 23.4636C59.3542 24.0021 62.0861 23.4644 63.9946 23.4883C68.3955 23.5434 72.7203 24.3791 77.1381 24.3791C78.5075 24.3791 80.5437 24.4664 81.8816 24.8492C82.9019 25.1412 77.0092 29.0576 76.3475 29.2785C73.9057 30.0937 70.8959 30.0983 68.3182 30.6147C66.3783 31.0032 63.6775 32.573 61.8946 33.5345C60.9259 34.0569 59.1207 34.6265 60.7829 35.4151C64.7636 37.3036 66.5802 43.3696 68.7876 46.8964C71.6731 51.5067 73.2775 56.2228 75.0134 61.3471C75.231 61.9895 77.7937 66.2617 75.7052 65.1577C71.9868 63.1922 68.9748 58.8695 65.6499 56.225C62.7508 53.9192 59.2213 51.437 56.0394 49.5688C54.2281 48.5054 52.8983 47.4806 51.6417 49.0987C47.0609 54.9975 41.4158 60.1102 37.2135 66.3455C36.6782 67.1398 31.0765 74.2805 31.0124 73.9915C30.7813 72.95 31.5392 71.8227 31.9759 70.9479C33.906 67.0817 35.5462 63.0468 37.1147 59.0211C38.6306 55.1306 40.0378 51.1947 41.5865 47.3171C42.1059 46.0165 42.9417 44.6183 42.9947 43.1848C43.0864 40.7054 42.0718 41.2794 39.8571 41.9971C33.8907 43.9304 28.3565 44.422 22.0936 44.422C17.4664 44.422 12.4556 44.9878 7.91244 43.9766C6.67111 43.7003 5.6191 42.9193 6.13362 41.5022C7.03537 39.0185 13.4427 39.0635 15.5218 38.6318C22.2016 37.2448 29.0793 36.2986 35.5829 34.1778C36.9932 33.718 40.4708 32.998 41.2159 31.5055" stroke="#876DFF" stroke-linecap="round"/>
<path d="M64 18.0156C69.4119 18.0156 74.8246 17.9805 80.2363 18.0156C85.6437 18.0508 90.9498 19.2946 96.3512 19.2946C99.2167 19.2946 104.57 19.1048 107 21" stroke="#876DFF" stroke-linecap="round"/>
<path d="M73 37C79.6339 37 85.8464 35.3199 92.2931 33.713C95.504 32.9126 98.7741 32.618 102 32" stroke="#876DFF" stroke-linecap="round"/>
<path d="M67 13C67.1681 11.1094 90.7471 12.4801 93.2603 12.4801C102.507 12.4801 111.753 12.4801 121 12.4801" stroke="#876DFF" stroke-linecap="round"/>
<path d="M78 47C91.1296 46.2202 103.899 42.1317 117 41" stroke="#876DFF" stroke-linecap="round"/>
</svg>
