<svg width="130" height="75" viewBox="0 0 130 75" fill="none" xmlns="http://www.w3.org/2000/svg">
<path d="M23.4874 5.45403C21.2206 5.45403 16.7926 4.5571 14.7893 5.56173C13.6306 6.14282 12.6788 9.78581 12.3448 10.8932C11.6432 13.2191 11.9621 16.3468 13.766 18.0556C15.3693 19.5743 18.237 19.3327 20.3891 19.5366C21.4758 19.6395 22.3694 20.0531 23.4874 19.9943C24.6513 19.933 24.1454 19.011 24.7665 18.5403C25.6572 17.8653 26.2848 15.9458 26.5289 14.9052C27.2347 11.8964 27.8268 4 22.9758 4" stroke="#876DFF" stroke-linecap="round"/>
<path d="M34.47 17C34.47 15.4959 34.47 13.9917 34.47 12.4876C34.47 11.8277 33.7097 8.49356 34.1231 8.07546C34.4143 7.78084 36.3141 8.43785 36.7006 8.5267C44.9847 10.4311 53.5838 9.78015 62.0296 9.78015C75.0113 9.78015 87.9617 10.3518 100.94 10.2314C106.322 10.1814 111.611 8.87767 117 8.87767" stroke="#876DFF" stroke-linecap="round"/>
<path d="M36 15C44.9686 15 53.9373 15 62.9059 15C67.5512 15 72.1964 15 76.8416 15C78.2302 15 79.9076 15 81 15" stroke="#876DFF" stroke-linecap="round"/>
<path d="M25.7598 31.4653C21.8343 31.4653 18.2523 30.8916 14.8602 33.3266C12.7554 34.8375 12.3122 37.9566 12.0273 40.513C11.7069 43.388 14.2741 42.8802 16.2527 43.9253C20.2778 46.0514 24.3302 49.5731 27.0562 44.0287C28.7627 40.558 28.4583 31 23.5991 31" stroke="#876DFF" stroke-linecap="round"/>
<path d="M17 34C19.0695 36.6248 21.0264 39.3115 23 42" stroke="#876DFF" stroke-linecap="round"/>
<path d="M17 42C17.1905 40.1437 19.266 38.691 20 36.9972C20.4629 35.9289 21.1602 34.8613 22 34" stroke="#876DFF" stroke-linecap="round"/>
<path d="M34 43C34.6884 42.7465 34.1955 37.7566 34.2101 36.9929C34.2219 36.3794 34.2348 34.7601 34.467 34.2187C34.5412 34.0456 34.6737 34.2939 34.7238 34.3333C35.0127 34.5603 35.4765 34.5497 35.8213 34.5855C41.5385 35.18 47.5061 34.6383 53.2166 34.4021C70.9116 33.6703 88.5595 32.5046 106.22 31.2152C111.137 30.8562 116.119 30.7189 121 30" stroke="#876DFF" stroke-linecap="round"/>
<path d="M35 40H95" stroke="#876DFF" stroke-linecap="round"/>
<path d="M35 44H60" stroke="#876DFF" stroke-linecap="round"/>
<path d="M29.1016 60.9663C29.1016 59.4342 26.2503 58.6368 25.025 58.2395C22.764 57.5062 20.6955 57 18.3439 57C15.7182 57 14.1578 58.9118 13.3614 61.1591C12.547 63.4569 10.7651 65.3843 11.0258 67.921C11.3204 70.7869 16.0563 73.4689 18.7402 73.8291C20.1832 74.0227 22.3124 74.2648 23.3831 73.2231C24.7243 71.9182 26.214 70.8325 27.672 69.6562C28.5852 68.9195 30.7385 67.668 30.871 66.3786C31.0864 64.2829 31.3037 60.3022 29.1016 59.231" stroke="#876DFF" stroke-linecap="round"/>
<path d="M15 62.1856C16.6778 62.494 17.3821 65.3017 18.7831 66.0376C19.6704 66.5037 20.6621 68.0105 21.5622 68.6725C22.8248 69.601 22.623 68.3527 22.7262 67.442C22.9801 65.201 23.1089 62.9387 23.7011 60.741C24.2764 58.606 26 56.1968 26 54" stroke="#876DFF" stroke-linecap="round"/>
<path d="M16 13.361C16.8147 14.4141 17.3417 15.775 18.3448 16.6714C20.0498 18.1949 19.9956 13.9935 20.1992 12.7975C20.6643 10.0665 21.8465 7.68209 22.7586 5.12034C23.2076 3.85937 24 2.37567 24 1" stroke="#876DFF" stroke-linecap="round"/>
<path d="M35.5512 70C35.5512 68.575 35.753 67.0102 35.4613 65.6115C35.4186 65.4068 34.738 63.5579 35.1116 63.4555C35.9785 63.218 37.2342 63.3998 38.109 63.3309C48.2091 62.5358 58.2872 61.4794 68.4224 61.1462C72.9233 60.9983 77.428 61.0313 81.9306 61.0313C84.9484 61.0313 87.9995 60.9164 91.0126 61.1271C92.0166 61.1973 93.0455 61.7212 94 61.7212" stroke="#876DFF" stroke-linecap="round"/>
<path d="M36 67H69.0111" stroke="#876DFF" stroke-linecap="round"/>
</svg>
