<svg width="130" height="75" viewBox="0 0 130 75" fill="none" xmlns="http://www.w3.org/2000/svg">
<path d="M59.4593 30.1523C59.4593 32.4147 59.4593 25.6276 59.4593 23.3653C59.4593 20.7376 58.3887 15.5701 61.0019 13.7736C63.2248 12.2453 65.792 11.8509 68.434 11.9787C73.1051 12.2047 75.6627 19.9224 76.0063 23.7018C76.3857 27.8752 75.3898 31.6284 71.3507 33.4056C69.6499 34.154 67.9728 34.7323 66.8073 32.9008C65.1778 30.3401 65.2375 25.7216 64.788 22.8324C64.3131 19.7795 63.7056 15.5567 65.7696 13.0164C69.2896 8.68408 72.7626 15.3455 73.5944 18.0366C74.8721 22.1703 73.9386 31.6851 69.0229 33.4056C66.1358 34.4161 62.5557 33.7091 61.4786 30.601C59.8811 25.9911 58.626 16.8287 62.9931 13.381C65.6123 11.3132 75.1088 7.52759 75.1088 13.998" stroke="#876DFF" stroke-linecap="round"/>
<path d="M61.8256 33.655C61.8256 41.0528 61.8256 48.4507 61.8256 55.8485C61.8256 60.0803 61.2231 64.8323 62.1065 68.9898C62.2007 69.4331 62.6199 71.9461 63.6516 71.1436C65.2575 69.8946 65.611 67.9205 66.18 66.0869C67.1007 63.1201 67.3257 59.9388 68.5055 57.0346C68.5586 56.904 69.9332 53.7229 69.9726 54.7872C70.0933 58.0453 72.141 60.5814 74.0461 63.1215C74.3899 63.5799 75.7284 65.8535 76.5744 65.6655C77.5022 65.4593 76.9958 61.3282 76.9958 60.6087C76.9958 56.5785 76.8669 52.583 76.6993 48.5599C76.6126 46.4799 76.542 43.833 76.0906 41.802C75.6437 39.7909 75.8721 37.5587 75.8721 35.4966C75.8721 34.5654 75.9536 32.1506 75.0293 31.6885" stroke="#876DFF" stroke-linecap="round"/>
<path d="M67.4453 19.8894C67.4453 21.293 67.4385 22.5979 67.7419 23.9629C67.9427 24.8667 68.0072 22.9137 68.0072 22.6987C68.0072 21.8559 68.0072 21.0131 68.0072 20.1703" stroke="#876DFF" stroke-linecap="round"/>
<path d="M71.1777 22.1299C71.2312 23.1705 71.5613 23.1562 71.5613 22.0378C71.5613 21.1739 71.6981 19.6667 71.4334 18.9518C71.1441 18.1702 70.9219 21.9275 70.9219 22.4062" stroke="#876DFF" stroke-linecap="round"/>
<path d="M67.2539 27.4378C67.2539 27.7716 67.9144 27.9771 68.1817 28.0853C68.8288 28.3472 69.2696 28.039 69.8633 27.7422C70.3546 27.4965 70.9486 27.055 71.2936 26.6115C71.4682 26.3869 71.4657 25.8972 71.6898 25.7852" stroke="#876DFF" stroke-linecap="round"/>
<path d="M62.7852 33.7815C63.9892 34.9856 64.8318 36.1442 65.6812 37.6053C65.9242 38.0232 66.4057 39.3488 66.9596 39.4719C67.993 39.7016 67.9306 38.3757 68.1248 37.6958C68.3289 36.9817 68.7048 36.4296 68.9054 35.7274C69.0047 35.3797 71.0126 37.6676 71.2245 37.8542C71.4209 38.027 72.9468 39.8214 72.9667 39.4832C73.0924 37.3472 73.3078 35.202 73.9849 33.1707" stroke="#876DFF" stroke-linecap="round"/>
<path d="M60.7885 38.6856C59.4745 38.6856 57.9743 38.8862 56.7064 38.5296C53.8493 37.7261 52.0769 33.1972 50.5975 30.9041C50.3466 30.5152 48.452 26.0425 48.2872 26.0425C48.2733 26.0425 48.2805 28.3313 48.3439 28.5371C49.5519 32.4631 50.7268 36.2485 53.1346 39.5927C54.8793 42.0158 57.7869 45.8292 61.0436 45.8292" stroke="#876DFF" stroke-linecap="round"/>
<path d="M42.9219 17.9754C42.9219 19.0093 43.2277 19.9256 43.4463 20.9094C43.5077 21.1858 43.6958 21.414 43.8857 21.6039C44.018 21.7362 43.5362 20.9607 43.4888 20.7818C42.9101 18.5955 45.9834 20.7227 45.9834 19.251C45.9834 18.6068 45.8456 18.1841 45.7141 17.5927C45.4232 16.2837 45.4732 18.3185 45.4732 18.6841C45.4732 20.4182 46.0879 20.4805 46.7488 21.8023" stroke="#876DFF" stroke-linecap="round"/>
<path d="M48.0312 21.5913C48.5994 21.5203 48.0312 19.2729 48.0312 18.7849" stroke="#876DFF" stroke-linecap="round"/>
<path d="M47.7266 16.4404V16.7632" stroke="#876DFF" stroke-linecap="round"/>
<path d="M49.6641 16.4389C49.6641 15.8098 49.6641 17.6969 49.6641 18.326C49.6641 18.7833 49.9061 19.238 49.9061 19.6662" stroke="#876DFF" stroke-linecap="round"/>
<path d="M49.9883 21.5225C50.0065 21.5043 50.227 21.3092 50.1855 21.4059C50.1682 21.4464 50.1496 21.6249 50.1496 21.5225" stroke="#876DFF" stroke-linecap="round"/>
<path d="M49.629 16.0247C49.629 16.1774 49.6191 16.3335 49.6304 16.4858C49.6324 16.5123 49.6523 16.6341 49.6795 16.5797" stroke="#876DFF" stroke-linecap="round"/>
<path d="M95.2523 4.48202C95.1332 4.00546 93.4957 4.24101 93.0832 4.24101C92.0903 4.24101 91.9436 4.5106 91.5167 5.45944C90.6998 7.27471 91.072 10.022 91.1685 11.9533C91.2494 13.5706 91.2158 16.3253 92.4807 17.5902C93.3933 18.5028 96.5183 18.0287 97.6624 17.9651C99.6754 17.8533 101.961 16.3387 102.59 14.3634C103.322 12.0629 101.94 8.65559 100.903 6.66448C99.6516 4.26252 97.8827 4 95.3862 4C93.9571 4 93.5445 4.13039 93.2707 5.49961C92.851 7.59818 93.0895 9.83998 93.2707 11.9533C93.4355 13.8768 93.3521 17.2294 95.1987 18.4605C96.1265 19.079 98.1841 18.7954 98.9745 18.1659C100.757 16.7467 101.465 14.2563 102.054 12.1407C102.697 9.83154 103.533 6.59141 101.331 4.83014C99.0668 3.01869 96.5266 5.55502 94.2883 5.92807" stroke="#876DFF" stroke-linecap="round"/>
<path d="M95.7344 8.5791C95.7344 9.5676 95.9754 10.6003 95.9754 11.4712C95.9754 12.4386 96.2164 9.54648 96.2164 8.5791" stroke="#876DFF" stroke-linecap="round"/>
<path d="M98.1445 10.0262C98.1445 11.1062 98.6265 11.3691 98.6265 10.1467C98.6265 9.32721 99.025 8.895 98.6265 8.09814" stroke="#876DFF" stroke-linecap="round"/>
<path d="M95.6328 13.6508C95.6328 14.2172 97.0714 14.0526 97.4556 13.9673C98.2942 13.7809 98.8386 13.4123 99.5061 12.9673" stroke="#876DFF" stroke-linecap="round"/>
<path d="M93.6406 17.6183C93.6406 27.1905 93.6406 36.7627 93.6406 46.3349C93.6406 48.2935 93.6406 50.2522 93.6406 52.2108C93.6406 52.4107 95.0161 49.2467 95.2678 48.5195C96.3846 45.2933 97.3468 42.0171 98.5824 38.8318C99.3106 36.9547 99.8593 34.7407 100.812 32.971C101.456 31.7761 100.942 34.034 101.023 34.8241C101.45 38.9729 103.924 42.6803 105.814 46.2897C105.865 46.3855 107.304 48.8947 107.457 47.6758C107.712 45.6359 107.575 43.2464 107.411 41.2123C107.133 37.7621 105.868 34.3084 105.151 30.9219C104.719 28.8781 104.395 26.4082 103.675 24.4584C103.228 23.2496 102.901 20.3381 102.108 19.4564C101.545 18.8314 101.865 17.1202 101.234 16.8047" stroke="#876DFF" stroke-linecap="round"/>
<path d="M91.4688 18.4312C91.4688 23.8752 91.4688 29.3192 91.4688 34.7632C91.4688 34.9657 91.5014 36.9488 91.8002 36.2698C92.3593 34.9992 93.3465 33.6456 94.1807 32.5333" stroke="#876DFF" stroke-linecap="round"/>
<path d="M102.047 15.1777C102.099 15.5913 102.794 16.2405 103.026 16.5638C104.115 18.0786 105.279 19.5968 106.1 21.2796C107.453 24.0528 108.551 26.9813 109.776 29.8072C110.262 30.929 111.028 32.6802 111.81 33.619C112.465 34.405 111.043 33.3978 110.876 33.2273C108.863 31.1772 107.207 28.9182 105.572 26.568" stroke="#876DFF" stroke-linecap="round"/>
<path d="M20.9162 8.35067C20.9162 13.1195 20.8675 17.8907 20.9162 22.6593C20.9312 24.1308 21.3961 24.7338 22.8538 25.1335C23.8103 25.3957 25.5397 25.5046 26.267 24.6863C27.2589 23.5704 27.5619 21.6492 27.8916 20.2596C28.4332 17.9771 28.6703 15.418 28.3835 13.0755C28.1391 11.0798 25.1613 7.5208 23.599 10.2883C21.6086 13.8141 21.1287 19.4396 23.0624 23.0468C24.46 25.6538 26.7451 25.9368 28.4133 23.643C29.3511 22.3536 29.233 20.717 29.233 19.2014C29.233 16.5271 28.9686 14.0416 28.1599 11.4807C27.8206 10.4062 27.4822 8.46069 26.103 8.36557C24.5438 8.25804 23.455 8.12308 22.5259 9.42381" stroke="#876DFF" stroke-linecap="round"/>
<path d="M23.9844 14.9903C24.3085 15.0308 23.982 16.8469 24.1297 16.0342C24.3094 15.0459 24.4601 14.0922 24.4601 13.0874" stroke="#876DFF" stroke-linecap="round"/>
<path d="M26.1267 16.1795C26.1267 15.565 26.1267 14.9506 26.1267 14.3361C26.1267 13.6067 26.2204 13.7577 26.0078 14.3956" stroke="#876DFF" stroke-linecap="round"/>
<path d="M23.5078 19.0337C23.5078 19.9643 23.5433 20.4608 24.5782 20.4608C25.4368 20.4608 25.7821 19.7181 26.1243 19.0337" stroke="#876DFF" stroke-linecap="round"/>
<path d="M21.7453 25.5C21.7453 32.2624 21.7453 39.0248 21.7453 45.7872C21.7453 48.6084 21.7453 51.4296 21.7453 54.2508C21.7453 55.2286 21.4544 56.793 22.0306 57.6743C22.4482 58.313 22.7989 57.2882 22.8865 56.9769C23.4702 54.9012 23.5626 52.6934 24.0435 50.5896C24.5239 48.4878 25.0796 46.3976 25.7394 44.3449C26.1886 42.9473 26.3832 40.9123 27.1658 39.6693C27.4033 39.2921 27.7496 41.9335 27.7998 42.1419C28.26 44.0509 29.3428 45.7144 30.4466 47.3088C31.3357 48.5929 32.6262 50.5656 32.5863 47.9744C32.5029 42.5556 30.9591 37.0435 30.4466 31.6337C30.1623 28.6321 30.1242 25.2459 29.1628 22.3618" stroke="#876DFF" stroke-linecap="round"/>
<path d="M29.4453 21.7915C29.4952 23.4888 30.5668 24.7022 30.8559 26.3403C31.163 28.0804 31.4774 29.7679 31.8544 31.4913C32.2289 33.2032 32.6107 34.9965 33.1541 36.6265" stroke="#876DFF" stroke-linecap="round"/>
<path d="M20.2798 24.3081C20.2798 26.6019 19.6622 28.825 19.6622 31.1102C19.6622 33.0555 19.4748 34.9852 19.1218 36.8915C18.9605 37.7626 19.0446 38.6954 19.0446 39.5763C19.0446 39.7131 18.8269 41.2007 19.3534 40.6742C19.9072 40.1204 20.1891 39.5934 21.0518 39.5934" stroke="#876DFF" stroke-linecap="round"/>
</svg>
