<svg width="130" height="75" viewBox="0 0 130 75" fill="none" xmlns="http://www.w3.org/2000/svg">
<path d="M3.05108 54.7435C3.05108 50.3486 3.47403 45.5325 2.13949 41.2828C1.71049 39.9167 3.41313 40.4227 4.60079 40.4227C8.3839 40.4227 12.167 40.4227 15.9501 40.4227C20.2954 40.4227 24.6406 40.4227 28.9859 40.4227C31.8381 40.4227 35.1224 40.762 37.7372 40.0571C40.1859 39.397 38.7399 44.6482 38.7399 46.0349C38.7399 48.1258 39.9706 50.2648 39.9706 52.2277C39.9706 53.395 40.3053 54.5347 38.7171 54.722C33.5228 55.3347 27.947 54.7435 22.7415 54.7435C17.4239 54.7435 12.1062 54.7435 6.78861 54.7435C5.80228 54.7435 1.51726 55.3326 1 54.3565" stroke="#876DFF" stroke-linecap="round"/>
<path d="M42.4073 54.8532C42.4073 53.5269 41.9533 20 42.8147 20C43.8747 20 45.2633 20.5071 46.3224 20.7469C50.0528 21.5912 53.8852 21.4937 57.6602 21.4937C62.4679 21.4937 67.1554 22.4895 71.9173 22.4895C76.0283 22.4895 80.07 22.9874 84.1603 22.9874C85.6473 22.9874 88.4031 22.0426 88.0074 24.7024C87.6265 27.2634 86.808 29.2733 86.808 32.0603C86.808 35.5278 86.7936 38.5995 87.419 41.963C87.809 44.0603 90.0807 52.5251 88.3695 54.3553C86.163 56.7151 78.8078 55.4993 76.217 55.7383C70.6318 56.2536 64.9148 55.849 59.3122 55.849C55.0351 55.849 50.7579 55.849 46.4808 55.849C44.6486 55.849 43.6069 55.8352 42 54.8532" stroke="#876DFF" stroke-linecap="round"/>
<path d="M91.4221 55.4877C91.4221 53.4325 91.4221 51.3773 91.4221 49.3221C91.4221 46.8205 90.6099 44.6467 90.6099 42.2431C90.6099 40.9945 89.2376 34.5648 90.6099 34.479C100.727 33.847 110.928 34.0223 121.069 34.0223C122.317 34.0223 123.566 34.0223 124.814 34.0223C126.498 34.0223 126.437 34.5046 126.348 36.3059C126.223 38.8463 125.825 41.3691 125.965 44.0446C126.118 46.9815 127.153 49.6594 127.544 52.5191C127.69 53.5856 128.69 55.8461 127.161 55.9444C122.103 56.2694 117.399 55.0644 112.315 55.031C105.612 54.9869 98.9343 54.5743 92.2344 54.5743" stroke="#876DFF" stroke-linecap="round"/>
<path d="M57 36.4696C60.0827 36.4696 64.0566 33.4922 66 31.0289C66.335 30.6042 65.6538 34.9905 65.6538 35.5726C65.6538 37.1948 65.4428 38.9975 65.7308 40.6038C65.8852 41.4652 66.3462 42.4845 66.3462 43.3339C66.3462 43.7723 67.3474 46.5122 66.8269 46.6295C65.2752 46.9791 63.7876 47 62.1923 47C58.4637 47 64.8141 46.649 65.7885 46.649C68.9029 46.649 71.9355 45.947 75 45.947" stroke="#876DFF" stroke-linecap="round"/>
<path d="M101 42.4438C102.099 42.4438 104.149 41.4985 105.059 42.3671C105.835 43.1074 106.191 45.0188 105.26 45.8177C104.849 46.1711 100.926 47.6802 102.085 48.2332C103.926 49.1115 108.043 48.3099 110.063 48.3099C112.115 48.3099 116.224 47.8706 118 49" stroke="#876DFF" stroke-linecap="round"/>
<path d="M13.346 44.3636C17.5263 44.3636 21.7621 44 25.9765 44C28.0187 44 26.5989 45.1937 26.1495 46.0202C25.6114 47.0098 23.8861 47.2727 22.9006 47.2727C21.6446 47.2727 25.4126 47.2727 26.6685 47.2727C30.6535 47.2727 28.951 51.1486 25.8803 51.2727C24.3609 51.3341 22.8256 51.2727 21.3049 51.2727C18.5149 51.2727 15.6882 52 13 52" stroke="#876DFF" stroke-linecap="round"/>
</svg>
