<svg width="134" height="120" viewBox="0 0 134 120" fill="none" xmlns="http://www.w3.org/2000/svg">
<path d="M61.6477 18.7607H60.7244L63.3949 11.488H64.304L66.9744 18.7607H66.0511L63.8778 12.6386H63.821L61.6477 18.7607ZM61.9886 15.9198H65.7102V16.7011H61.9886V15.9198ZM75.0107 13.3062V18.7607H74.1726V13.3062H75.0107ZM74.6839 15.9056V16.6869C74.4946 16.7579 74.3063 16.8206 74.1193 16.8751C73.9323 16.9272 73.7358 16.9686 73.5298 16.9994C73.3239 17.0278 73.0978 17.042 72.8516 17.042C72.2337 17.042 71.7377 16.8751 71.3636 16.5413C70.992 16.2075 70.8061 15.7068 70.8061 15.0392V13.292H71.6442V15.0392C71.6442 15.3185 71.6974 15.5481 71.804 15.7281C71.9105 15.908 72.0549 16.0418 72.2372 16.1294C72.4195 16.2169 72.6243 16.2607 72.8516 16.2607C73.2067 16.2607 73.5275 16.2288 73.8139 16.1649C74.1027 16.0986 74.3928 16.0122 74.6839 15.9056ZM75.8061 14.0874V13.3062H80.2379V14.0874H78.4482V18.7607H77.6101V14.0874H75.8061ZM83.3931 18.8744C82.9007 18.8744 82.4686 18.7572 82.0969 18.5228C81.7276 18.2884 81.4388 17.9606 81.2305 17.5392C81.0245 17.1177 80.9215 16.6253 80.9215 16.0619C80.9215 15.4937 81.0245 14.9977 81.2305 14.574C81.4388 14.1502 81.7276 13.8211 82.0969 13.5867C82.4686 13.3524 82.9007 13.2352 83.3931 13.2352C83.8855 13.2352 84.3164 13.3524 84.6857 13.5867C85.0574 13.8211 85.3462 14.1502 85.5522 14.574C85.7605 14.9977 85.8647 15.4937 85.8647 16.0619C85.8647 16.6253 85.7605 17.1177 85.5522 17.5392C85.3462 17.9606 85.0574 18.2884 84.6857 18.5228C84.3164 18.7572 83.8855 18.8744 83.3931 18.8744ZM83.3931 18.1215C83.7672 18.1215 84.0749 18.0257 84.3164 17.8339C84.5579 17.6421 84.7366 17.39 84.8526 17.0775C84.9686 16.765 85.0266 16.4265 85.0266 16.0619C85.0266 15.6973 84.9686 15.3576 84.8526 15.0427C84.7366 14.7278 84.5579 14.4733 84.3164 14.2792C84.0749 14.0851 83.7672 13.988 83.3931 13.988C83.0191 13.988 82.7113 14.0851 82.4698 14.2792C82.2283 14.4733 82.0496 14.7278 81.9336 15.0427C81.8176 15.3576 81.7596 15.6973 81.7596 16.0619C81.7596 16.4265 81.8176 16.765 81.9336 17.0775C82.0496 17.39 82.2283 17.6421 82.4698 17.8339C82.7113 18.0257 83.0191 18.1215 83.3931 18.1215ZM89.3741 20.3232V17.9795H89.8287C89.9399 17.8635 90.0358 17.738 90.1163 17.6031C90.1968 17.4681 90.2666 17.3083 90.3258 17.1237C90.3874 16.9366 90.4395 16.7094 90.4821 16.4419C90.5247 16.172 90.5626 15.8464 90.5957 15.4653L90.7804 13.3062H94.2463V17.9795H95.0843V20.3232H94.2463V18.7607H90.2122V20.3232H89.3741ZM90.7804 17.9795H93.4082V14.0874H91.5616L91.4196 15.4653C91.3604 16.0358 91.287 16.5342 91.1994 16.9603C91.1118 17.3865 90.9721 17.7262 90.7804 17.9795ZM98.4837 18.8744C97.9581 18.8744 97.5047 18.7584 97.1236 18.5264C96.7448 18.292 96.4524 17.9653 96.2464 17.5463C96.0429 17.1249 95.9411 16.6348 95.9411 16.0761C95.9411 15.5174 96.0429 15.0249 96.2464 14.5988C96.4524 14.1703 96.7389 13.8365 97.1058 13.5974C97.4751 13.3559 97.906 13.2352 98.3984 13.2352C98.6825 13.2352 98.9631 13.2825 99.2401 13.3772C99.517 13.4719 99.7692 13.6258 99.9964 13.8389C100.224 14.0496 100.405 14.3289 100.54 14.6769C100.675 15.0249 100.742 15.4535 100.742 15.9624V16.3176H96.5376V15.5931H99.8899C99.8899 15.2854 99.8284 15.0107 99.7053 14.7693C99.5845 14.5278 99.4117 14.3372 99.1868 14.1975C98.9643 14.0579 98.7015 13.988 98.3984 13.988C98.0646 13.988 97.7758 14.0709 97.532 14.2366C97.2905 14.3999 97.1046 14.613 96.9744 14.8758C96.8442 15.1386 96.7791 15.4203 96.7791 15.721V16.2039C96.7791 16.6159 96.8501 16.9651 96.9922 17.2515C97.1366 17.5356 97.3366 17.7522 97.5923 17.9014C97.848 18.0481 98.1451 18.1215 98.4837 18.1215C98.7038 18.1215 98.9027 18.0908 99.0803 18.0292C99.2602 17.9653 99.4152 17.8706 99.5455 17.7451C99.6757 17.6173 99.7763 17.4587 99.8473 17.2693L100.657 17.4965C100.572 17.7712 100.429 18.0126 100.227 18.221C100.026 18.4269 99.7775 18.5879 99.4815 18.7039C99.1856 18.8176 98.853 18.8744 98.4837 18.8744ZM101.534 18.7607V17.9795H101.733C101.896 17.9795 102.032 17.9475 102.141 17.8836C102.25 17.8173 102.338 17.7025 102.404 17.5392C102.473 17.3734 102.525 17.1438 102.56 16.8502C102.598 16.5543 102.625 16.1779 102.642 15.721L102.741 13.3062H106.378V18.7607H105.54V14.0874H103.537L103.452 16.0335C103.433 16.4809 103.393 16.8751 103.331 17.216C103.272 17.5545 103.181 17.8386 103.058 18.0683C102.937 18.2979 102.776 18.4707 102.575 18.5867C102.373 18.7027 102.121 18.7607 101.818 18.7607H101.534ZM109.521 18.8886C109.175 18.8886 108.861 18.8235 108.58 18.6933C108.298 18.5607 108.074 18.3701 107.908 18.1215C107.743 17.8706 107.66 17.5676 107.66 17.2124C107.66 16.8999 107.721 16.6466 107.844 16.4525C107.968 16.256 108.132 16.1021 108.338 15.9909C108.544 15.8796 108.771 15.7967 109.02 15.7423C109.271 15.6855 109.523 15.6405 109.776 15.6073C110.108 15.5647 110.376 15.5328 110.582 15.5115C110.791 15.4878 110.942 15.4487 111.037 15.3943C111.134 15.3398 111.183 15.2451 111.183 15.1102V15.0818C111.183 14.7314 111.087 14.4591 110.895 14.265C110.705 14.0709 110.418 13.9738 110.032 13.9738C109.632 13.9738 109.318 14.0614 109.091 14.2366C108.864 14.4118 108.704 14.5988 108.612 14.7977L107.816 14.5136C107.958 14.1821 108.147 13.9241 108.384 13.7394C108.623 13.5524 108.884 13.4222 109.165 13.3488C109.45 13.2731 109.729 13.2352 110.004 13.2352C110.179 13.2352 110.38 13.2565 110.607 13.2991C110.837 13.3393 111.058 13.4234 111.271 13.5512C111.487 13.6791 111.665 13.872 111.808 14.1301C111.95 14.3881 112.021 14.7338 112.021 15.167V18.7607H111.183V18.0221H111.14C111.083 18.1405 110.988 18.2671 110.856 18.4021C110.723 18.537 110.547 18.6518 110.327 18.7465C110.107 18.8412 109.838 18.8886 109.521 18.8886ZM109.648 18.1357C109.98 18.1357 110.259 18.0706 110.487 17.9404C110.716 17.8102 110.889 17.6421 111.005 17.4362C111.123 17.2302 111.183 17.0136 111.183 16.7863V16.0193C111.147 16.0619 111.069 16.1009 110.948 16.1365C110.83 16.1696 110.692 16.1992 110.536 16.2252C110.382 16.2489 110.232 16.2702 110.085 16.2892C109.941 16.3057 109.824 16.3199 109.734 16.3318C109.516 16.3602 109.312 16.4063 109.123 16.4703C108.936 16.5318 108.784 16.6253 108.668 16.7508C108.555 16.8739 108.498 17.042 108.498 17.2551C108.498 17.5463 108.606 17.7664 108.821 17.9156C109.039 18.0624 109.315 18.1357 109.648 18.1357ZM112.808 14.0874V13.3062H117.24V14.0874H115.45V18.7607H114.612V14.0874H112.808ZM119.187 15.2806H120.749C121.388 15.2806 121.877 15.4428 122.216 15.7671C122.554 16.0915 122.724 16.5022 122.724 16.9994C122.724 17.3261 122.648 17.6232 122.496 17.8907C122.345 18.1559 122.122 18.3677 121.829 18.5264C121.535 18.6826 121.175 18.7607 120.749 18.7607H118.462V13.3062H119.3V17.9795H120.749C121.081 17.9795 121.353 17.8919 121.566 17.7167C121.779 17.5415 121.886 17.3166 121.886 17.042C121.886 16.7532 121.779 16.5176 121.566 16.3353C121.353 16.153 121.081 16.0619 120.749 16.0619H119.187V15.2806ZM125.093 16.7153V16.6727C125.098 16.2205 125.145 15.8606 125.235 15.5931C125.325 15.3256 125.453 15.109 125.619 14.9433C125.785 14.7776 125.983 14.6249 126.215 14.4852C126.355 14.3999 126.481 14.2993 126.592 14.1833C126.703 14.065 126.791 13.9288 126.855 13.7749C126.921 13.6211 126.954 13.4506 126.954 13.2636C126.954 13.0316 126.9 12.8303 126.791 12.6599C126.682 12.4894 126.536 12.358 126.354 12.2657C126.172 12.1734 125.969 12.1272 125.747 12.1272C125.552 12.1272 125.365 12.1675 125.186 12.248C125.006 12.3285 124.855 12.4551 124.735 12.6279C124.614 12.8008 124.544 13.0268 124.525 13.3062H123.63C123.649 12.9037 123.753 12.5593 123.943 12.2728C124.134 11.9864 124.387 11.7674 124.699 11.6159C125.014 11.4643 125.363 11.3886 125.747 11.3886C126.163 11.3886 126.526 11.4714 126.833 11.6372C127.143 11.8029 127.383 12.0302 127.551 12.319C127.721 12.6078 127.806 12.9369 127.806 13.3062C127.806 13.5666 127.766 13.8022 127.686 14.0129C127.607 14.2236 127.494 14.4118 127.345 14.5775C127.198 14.7432 127.02 14.89 126.812 15.0178C126.604 15.1481 126.437 15.2854 126.311 15.4298C126.186 15.5718 126.095 15.7411 126.038 15.9376C125.981 16.1341 125.95 16.3791 125.945 16.6727V16.7153H125.093ZM125.548 18.8176C125.373 18.8176 125.222 18.7548 125.097 18.6294C124.971 18.5039 124.909 18.3535 124.909 18.1784C124.909 18.0032 124.971 17.8528 125.097 17.7274C125.222 17.6019 125.373 17.5392 125.548 17.5392C125.723 17.5392 125.873 17.6019 125.999 17.7274C126.124 17.8528 126.187 18.0032 126.187 18.1784C126.187 18.2944 126.157 18.4009 126.098 18.498C126.041 18.595 125.964 18.6731 125.867 18.7323C125.773 18.7892 125.666 18.8176 125.548 18.8176Z" fill="#100F0F"/>
<path d="M9.88907 51.2793C9.67582 50.4796 9.13265 49.7159 8.74953 49.0003C7.36568 46.4153 6.02066 43.7943 4.91652 41.0752C2.60588 35.3851 2.21956 29.5875 2.19715 23.5159C2.18637 20.5936 1.4449 16.1542 3.67338 13.8039C7.44151 9.82969 15.2841 9.25775 20.3263 9.88024C26.0218 10.5834 31.3326 14.4384 34.195 19.3851C37.9541 25.8814 39.4887 35.1768 34.4929 41.4637C31.6728 45.0125 26.9058 46.0297 22.5794 45.5298C14.2096 44.5628 10.6553 36.959 8.03731 29.874C4.92079 21.4398 0.882048 4.11838 13.735 1.23007C17.9433 0.284378 21.4548 2.38575 24.483 5.12782C32.1851 12.1021 35.4843 22.0708 36.8496 32.1402C37.9617 40.3416 37.8806 51.0713 32.2138 57.8058C28.5966 62.1044 21.3805 62.0197 17.0501 58.9454C10.3866 54.2148 8.55794 44.5386 7.54524 37.0221C6.38752 28.4293 5.97388 19.4362 7.79127 10.955" stroke="black" stroke-width="1.08983" stroke-linecap="round"/>
<path d="M14.082 21.9091C15.0871 23.8277 16.3603 26.2592 17.9021 27.801C18.1184 28.0174 18.0131 26.6471 17.9927 26.519C17.8166 25.4095 17.3665 24.2137 16.8791 23.204C16.4936 22.4054 16.4013 21.5834 15.7137 20.9767C15.29 20.6029 15.8877 22.6728 15.9467 22.8414C16.2252 23.6369 16.506 24.4262 16.8791 25.1723" stroke="black" stroke-width="1.08983" stroke-linecap="round"/>
<path d="M24.1069 20.7433C24.1069 19.5209 24.0381 23.2418 24.4436 24.395C25.0456 26.1069 25.6232 27.5673 25.2723 24.8483C25.0122 22.8322 23.9914 19.8116 22.2422 18.6455" stroke="black" stroke-width="1.08983" stroke-linecap="round"/>
<path d="M15.9453 34.264C17.4208 34.264 19.0119 35.9517 20.374 36.5949C21.7254 37.2331 24.3414 37.0274 25.5019 36.1805C27.4887 34.7307 27.9188 32.4851 29.4644 30.7677C29.773 30.4249 30.0497 30.2902 29.9177 30.8842C29.7406 31.681 27.7099 31.467 27.1336 31.467" stroke="black" stroke-width="1.08983" stroke-linecap="round"/>
<path d="M12.4392 57.6865C12.3823 58.8831 11.9806 60.0378 11.5919 61.1607C10.3859 64.6446 8.98019 68.0767 7.60934 71.4984C5.59363 76.5296 3.64037 81.3668 2.27103 86.6095C1.87368 88.1307 1 90.1023 1 91.6936C1 91.9507 1.79983 90.4352 1.83323 90.3802C3.24043 88.0624 4.76873 85.8255 6.33831 83.6155C8.85422 80.073 11.3285 76.3374 14.4164 73.2495C15.9893 71.6767 15.267 77.0031 15.292 77.7405C15.61 87.1213 16.0931 96.4844 16.8172 105.844C17.121 109.77 17.5127 113.696 18.2295 117.566C18.3558 118.248 18.7573 119.247 18.7944 117.877C18.9885 110.693 20.2814 103.624 21.2799 96.5235C22.1463 90.363 22.9801 84.1652 24.5281 78.1359C24.9125 76.6389 24.9635 77.0445 25.5167 78.1359C26.368 79.8156 27.4964 81.3707 28.5107 82.9517C30.5053 86.061 32.2564 89.2814 33.9902 92.5409C35.291 94.9864 36.5339 97.459 37.8174 99.9129C38.1924 100.63 38.5606 101.712 39.1308 102.314C39.5681 102.775 39.2724 101.037 39.1873 100.407C38.4256 94.7702 37.1899 89.1905 36.0803 83.6155C34.4621 75.4846 33.2016 67.2061 30.9962 59.2118" stroke="black" stroke-width="1.08983" stroke-linecap="round"/>
<path d="M34.4375 73.1959C37.6613 75.0971 40.5486 78.1812 42.3786 81.4668C42.6715 81.9927 42.7359 83.047 43.571 82.786C44.4164 82.5219 39.4868 72.6724 39.3848 72.4348C37.6695 68.4389 36.6031 64.0552 34.6658 60.1807" stroke="black" stroke-width="1.08983" stroke-linecap="round"/>
<path d="M63.9145 28.1466C66.0847 30.9088 58.8798 31.4251 58.8798 35.0605C58.8798 33.7298 69.5825 32.7199 70.2266 31.5605C73.7266 30.5605 77.5041 30.4936 81.7063 29.5306C85.9084 28.5676 89.9754 28.1667 94.2829 28.1667C100.961 28.1667 107.761 26.4127 114.241 24.9172C117.616 24.1384 120.954 23.9791 124.37 23.473C126.17 23.2064 128.2 23.3682 129.947 22.9314C132.673 22.2499 134.141 19.597 132.975 16.9741C132.773 16.5181 133.029 15.9808 132.815 15.5299C132.492 14.8478 132.039 14.2825 131.812 13.5441C131.513 12.5722 130.603 12.29 130.348 11.3978C129.965 10.0566 128.09 7.42163 127.118 6.5036C125.194 4.68576 121.761 3.77511 119.336 2.8931C113.536 0.784231 106.793 1.80994 100.681 1.80994C95.6436 1.80994 90.6645 1.9576 85.6377 2.15094C82.6735 2.26494 79.887 2.74053 76.9524 2.91315C71.4438 3.23719 65.9493 5.44081 60.6851 6.94489C53.583 8.97405 56.5335 19.5119 58.8798 23.834C59.782 25.496 62.6683 26.5605 63.9145 28.1466Z" stroke="black" stroke-width="1.08983" stroke-linecap="round"/>
</svg>
