<svg width="83" height="120" viewBox="0 0 83 120" fill="none" xmlns="http://www.w3.org/2000/svg">
<path d="M36.5434 25.7829C36.5434 13.8494 25.2391 6.50094 18.3487 6.50094C7.57863 6.50094 6.44669 17.3711 7.44414 31.9308C8.97997 54.3493 30.6491 61.438 40.893 48.9772C50.5674 37.2091 43.9615 15.6897 34.7668 8.17764C29.2976 3.70925 21.4799 0.857803 17.9199 10.1804C16.6489 13.5086 16.8227 18.562 16.4496 22.2898C15.8993 27.7882 16.1433 33.4663 16.1433 39.0102C16.1433 44.141 15.792 49.8804 16.8172 54.8456C17.5365 58.3297 20.7254 58.3853 22.7595 58.3853C29.0015 58.3853 35.3429 51.5267 38.1975 43.3882C41.3474 34.408 42.5533 25.3693 38.1669 17.12C35.0166 11.1955 28.9771 1.21886 23.4947 1.00511C17.0395 0.753437 14.2674 9.84031 13.9685 18.7036C13.617 29.1242 13.9379 39.657 13.9379 50.095" stroke="black" stroke-width="1.45279" stroke-linecap="round"/>
<path d="M12.9024 23.5389C19.426 23.5389 25.9497 23.5389 32.4733 23.5389C34.3279 23.5389 36.1494 24.2206 37.982 24.2206C38.5912 24.2206 39.8091 24.4881 39.8398 25.6595C39.9245 28.8933 38.9579 30.9248 37.6208 33.4224C36.1734 36.126 33.5614 35.8054 31.4799 35.1265C29.3802 34.4417 27.3389 31.2509 25.1584 33.4224C22.819 35.7522 18.2849 38.9967 15.5729 36.3004C12.7041 33.4482 10.5384 31.4805 10.8125 25.8489C10.8849 24.3603 13.7002 22.4726 14.2957 24.2206" stroke="black" stroke-width="1.45279" stroke-linecap="round"/>
<path d="M21.6875 45.232C22.6745 45.232 23.7292 45.4362 24.7074 45.1826C25.9475 44.8612 27.0683 44.5656 28.3257 44.5656C29.1324 44.5656 31.1632 45.296 31.8217 44.0719C32.1186 43.52 32.3902 42.379 32.5834 41.6777" stroke="black" stroke-width="1.45279" stroke-linecap="round"/>
<path d="M33.1204 27.7968C31.8117 27.7968 30.503 27.7968 29.1942 27.7968C28.0664 27.7968 29.1223 28.9258 29.5646 29.1961C30.1441 29.5502 30.6154 30.3559 31.3425 30.3155C31.6736 30.2971 31.1631 28.5627 31.3425 28.2577C31.6216 27.7833 33.6812 28.7256 34.0094 28.3153C34.2637 27.9974 34.3057 29.1395 34.3057 29.1549C34.3057 30.2365 34.6141 32.7729 34.0094 33.7231C33.2568 34.9058 34.8412 30.0194 35.6392 28.8668C36.3231 27.8789 35.8865 29.4992 35.7544 29.871C35.4231 30.8033 34.0488 33.4173 34.635 32.6202C35.8021 31.0329 36.2206 28.7954 37.7051 27.4346C38.2203 26.9624 37.9936 27.9173 37.9274 28.2577C37.6839 29.5102 37.2588 30.7063 36.915 31.9288C36.9025 31.9732 36.7023 32.9186 36.7092 32.9165C36.9744 32.8369 37.2574 31.9651 37.343 31.7641C37.6999 30.9261 37.8975 30.0334 38.1579 29.1631C38.4302 28.2526 39.2147 26.26 38.0097 25.6402C36.3751 24.7996 34.2165 26.2394 32.5278 26.307C30.2877 26.3966 28.0393 26.0513 25.943 26.9737C25.526 27.1572 24.7077 27.4556 25.5973 26.8996C27.7866 25.5312 30.7852 25.1299 33.3262 25.1299C33.4075 25.1299 34.7336 25.0226 34.7914 25.1381C34.8845 25.3245 30.5849 25.3481 30.5194 25.3439C28.779 25.2342 27.0571 24.9737 25.3339 24.7184C24.3375 24.5708 25.9117 24.5407 26.1899 24.5373C27.7154 24.5184 29.4521 24.3094 30.8981 24.8665C32.0826 25.3229 33.2392 25.8527 34.421 26.3152C34.8673 26.4898 35.9355 26.762 35.9355 27.3605C35.9355 28.0657 35.7199 28.5327 35.277 29.0561C34.9192 29.479 34.9107 30.2332 34.8243 30.7517C34.6907 31.553 34.0458 31.0699 32.9723 30.3155C32.2035 29.7753 31.4094 31.1774 30.6347 30.6447C29.9202 30.1535 29.0791 29.9042 28.3794 29.3936C27.6528 28.8634 26.3103 28.084 26.017 27.2041C25.9924 27.1303 25.7871 26.1431 26.0829 26.5704C26.5903 27.3032 26.9177 28.496 27.2599 29.336C27.7372 30.5075 29.554 31.1553 30.5688 31.7641C31.8837 32.5531 33.177 32.6205 34.6843 32.8671C35.1606 32.945 35.6011 32.9823 36.0836 32.9823C36.2302 32.9823 36.7979 32.8321 36.8162 32.933C37.1926 35.0033 34.3859 35.6893 32.9723 34.9825C32.4188 34.7058 32.08 34.2565 31.6059 33.8713C30.4239 32.9109 29.1224 32.1193 27.9678 31.1221C26.317 29.6965 25.4488 27.6475 24.8235 25.6073C24.5772 24.8035 24.5207 24.5034 24.198 25.4592C23.7979 26.6441 24.198 27.7483 24.198 28.9903C24.198 30.7745 23.3729 31.7796 21.8274 32.6531C20.3896 33.4658 18.5039 33.6146 16.9711 34.2417C16.2123 34.5521 15.4331 34.7603 14.6088 34.7603C13.7744 34.7603 13.831 34.2878 13.868 33.4927C13.9302 32.156 14.5736 30.595 16.1151 30.941C17.4834 31.2482 18.6817 31.8001 20.1154 31.9123C20.8831 31.9724 21.659 31.9452 22.4283 31.9452C22.9341 31.9452 23.4875 31.9288 22.6176 31.9452C20.2184 31.9905 17.8852 32.4832 15.4978 31.9123C13.5936 31.457 11.57 30.2316 10.1805 28.8421C9.29906 27.9607 8.93808 26.5796 9.12692 25.3522C9.19887 24.8844 9.77809 24.6854 10.1887 24.6854C11.4173 24.6854 12.182 25.8741 12.6416 26.8749C13.5072 28.7601 13.0384 30.7727 14.3043 32.5049C15.191 33.7183 14.8728 29.4201 14.7405 28.9903C14.6404 28.6649 12.9919 24.7747 13.7939 24.5455C14.8821 24.2346 14.6006 28.5339 14.6006 29.0973C14.6006 29.2732 14.7501 30.3155 14.4524 30.3155C14.1517 30.3155 13.6857 28.9206 13.5964 28.6857C13.3173 27.9518 12.578 26.0757 13.5717 25.5168C13.9539 25.3018 14.6198 25.4262 15.045 25.4262C16.2331 25.4262 17.92 27.1583 19.1112 27.2041C20.7068 27.2655 24.9964 25.739 23.3996 25.739C21.3109 25.739 22.7381 29.1236 20.6751 29.336C19.9411 29.4115 15.4234 27.1112 14.6829 26.8996C14.2975 26.7895 15.2103 26.198 15.2591 26.167C16.3462 25.4752 17.5351 25.4262 18.7819 25.4262C20.4959 25.4262 22.3753 25.6669 23.9346 24.8007C24.4484 24.5153 22.1795 24.5373 22.0661 24.5373C20.4007 24.5373 18.7353 24.5373 17.0699 24.5373C16.2059 24.5373 17.0018 24.5373 17.3497 24.5373C18.3371 24.5373 19.331 24.499 20.3129 24.6196C21.4067 24.7539 24.9717 24.8239 24.9717 26.4633C24.9717 27.8736 21.7523 29.0501 21.1196 30.3155C20.7895 30.9756 17.2874 30.9432 16.9711 29.9039C16.5258 28.4409 23.5797 28.89 23.7782 27.5005C23.7929 27.3976 23.8069 26.6542 23.7864 26.9407C23.6906 28.2823 22.9896 29.8977 22.5682 31.1715C22.127 32.5051 21.6707 33.7459 20.6751 34.7603C20.2051 35.2392 18.6367 36.5023 19.1112 36.0278C20.7353 34.4037 22.717 32.5549 24.733 31.4349C24.907 31.3382 26.4662 30.0546 26.371 30.0274C26.3306 30.0159 25.7589 30.0387 25.8936 29.9039C26.2714 29.5261 26.9986 30.9967 27.0789 31.1715C27.2706 31.5892 27.9414 32.168 27.2764 32.3897C25.8537 32.8639 24.258 32.759 22.7822 32.9494C22.0827 33.0397 21.594 32.9095 21.1196 33.5421C20.7661 34.0134 20.3608 34.2565 19.8191 34.4639C18.489 34.9733 15.7721 35.4599 15.1932 33.7231" stroke="black" stroke-width="1.45279" stroke-linecap="round"/>
<path d="M8.76837 47.1855C8.76837 52.2413 3.50849 56.518 2.27139 61.3977C1.38712 64.8856 1.0532 67.7487 1.0532 71.3462C1.0532 73.691 0.603938 76.5269 2.3165 78.4297C3.97192 80.2691 6.59715 81.5445 8.61046 82.9415C11.7986 85.1537 15.4852 87.4149 19.2357 88.5136C25.6726 90.3991 32.0322 90.8471 38.3206 88.1075C42.9276 86.1005 49.8945 84.0747 53.0065 79.8735C54.3225 78.0969 55.7797 75.9217 56.255 73.7826C56.634 72.0773 53.7521 71.8315 52.623 71.5492" stroke="black" stroke-width="1.45279" stroke-linecap="round"/>
<path d="M53.032 71.9559C46.7721 71.9559 40.4518 71.7331 34.1952 71.9785C31.4635 72.0856 28.6786 73.202 26.2319 74.3923C24.5429 75.214 22.7591 75.2493 20.9531 75.6105" stroke="black" stroke-width="1.45279" stroke-linecap="round"/>
<path d="M42.4688 48.8105C44.9839 56.0765 53.4324 62.3225 53.4324 70.3318" stroke="black" stroke-width="1.45279" stroke-linecap="round"/>
<path d="M38.0052 71.1436C35.5341 71.1436 32.9552 71.3612 30.5156 70.9406C27.0395 70.3412 23.7659 68.8085 20.3415 68.3012C17.952 67.9472 8.64804 64.0717 6.94148 67.1055C5.43918 69.7763 5.16646 73.2696 8.36269 74.7079C10.2833 75.5722 13.189 74.4394 15.2657 74.8884C16.5199 75.1596 17.6419 75.2042 18.9203 75.2042" stroke="black" stroke-width="1.45279" stroke-linecap="round"/>
<path d="M8.36402 84.1387C8.36402 92.5306 8.36402 100.923 8.36402 109.314C8.36402 110.782 6.9532 119.298 10.0108 118.992C11.5735 118.836 13.1233 117.02 14.0714 115.947C16.9583 112.68 19.7755 109.317 22.5762 105.976C25.5105 102.476 28.1836 98.8343 31.4193 95.5986C33.0704 93.9475 32.9612 93.6505 33.224 95.7791C34.072 102.648 37.7199 107.81 42.4281 112.518C45.058 115.148 44.8365 109.83 44.887 108.187C45.0953 101.416 46.1278 94.6484 46.1278 87.8835C46.1278 86.5111 46.04 86.0374 45.3156 84.9508" stroke="black" stroke-width="1.45279" stroke-linecap="round"/>
<path d="M70.008 22.5281C70.008 20.3152 69.8915 18.7044 67.877 17.3446C65.1836 15.5265 61.7327 14.7418 58.518 15.0409C55.4757 15.3239 56.2718 19.5275 56.2718 21.6066C56.2718 24.0064 56.2718 26.4061 56.2718 28.8059C56.2718 31.3859 55.8709 34.3715 56.5886 36.8835C57.6658 40.6538 61.8716 43.1294 65.2133 44.6587C69.1969 46.4817 72.8224 46.5451 76.2282 43.4636C81.7101 38.5038 82.1892 32.0602 82.1892 25.0335C82.1892 20.6814 82.665 13.8894 77.2073 12.4779C74.2197 11.7052 71.0478 11.902 67.9922 11.902C65.1896 11.902 63.9162 14.6921 62.6072 16.8839C59.1402 22.689 56.5716 31.1702 58.4604 37.9058C59.1612 40.4049 60.8595 42.6536 62.78 44.3563C64.251 45.6607 66.8347 48.1185 69.0289 47.8552C71.35 47.5767 72.7346 45.432 73.5501 43.4492C75.6817 38.2666 76.4072 32.6682 76.473 27.1068C76.5289 22.3855 78.1899 12.7152 72.283 10.4621C69.6765 9.46788 68.0825 10.2451 66.8835 12.5931C65.1245 16.0379 62.8245 19.308 60.6778 22.5281" stroke="black" stroke-width="1.45279" stroke-linecap="round"/>
<path d="M57.3297 21.4161C62.2235 21.4161 67.5271 20.8099 72.3185 22.0077C74.3536 22.5165 77.8611 22.8593 78.9145 24.9661C79.2025 25.5422 79.024 26.51 79.024 27.1355C79.024 28.4839 78.749 29.3179 77.4024 29.6994C75.786 30.1574 73.8085 30.291 72.1213 30.291C71.238 30.291 70.8817 29.9542 70.1052 29.6555C69.5148 29.4285 69.3405 28.9105 68.6699 28.9105C68.142 28.9105 67.4815 29.6592 66.9935 29.8966C66.0703 30.3457 65.0282 30.7808 64.0352 31.0361C61.7631 31.6203 59.2792 31.3094 57.8227 29.283C56.7167 27.7442 55.388 24.9049 56.3436 22.9938" stroke="black" stroke-width="1.45279" stroke-linecap="round"/>
<path d="M64.5621 25.6977C63.3714 25.6977 61.8554 24.4316 60.739 25.0595C60.2455 25.3371 59.0245 26.8515 59.7625 27.3259C60.3712 27.7172 61.4003 27.9342 62.1087 27.983C62.9537 28.0413 63.4255 27.7714 64.0433 27.2153C64.7129 26.6127 65.8183 26.1491 65.8183 25.1148" stroke="black" stroke-width="1.45279" stroke-linecap="round"/>
<path d="M72.7831 25.6678C73.5385 25.6678 71.2722 25.6678 70.5168 25.6678C69.4244 25.6678 70.3154 27.2451 70.7686 27.5472C71.5438 28.0639 73.9896 29.144 74.7116 28.0938C75.603 26.7972 73.7539 26.2293 72.7831 26.3372C72.1921 26.4029 71.952 26.6972 71.5117 26.1591C71.3084 25.9106 71.0965 25.8104 70.8546 25.6125C70.4613 25.2907 72.2949 25.3353 72.4146 25.3361C73.5926 25.3439 74.7553 25.4665 75.9154 25.6678C76.2634 25.7281 77.3647 25.8458 76.3699 25.5511C74.8134 25.0898 73.1799 24.8821 71.61 24.4578C71.5657 24.4458 69.9169 23.8231 70.4001 23.7024C71.8414 23.342 73.3329 24.12 74.7485 24.12C75.4391 24.12 73.4853 23.5286 72.8077 23.3953C71.9576 23.228 70.759 23.3477 69.9824 22.9039C69.9005 22.8571 70.9215 22.8434 71.0265 22.8609C72.3983 23.0896 73.6569 23.8478 74.945 24.3411C75.4875 24.5489 77.2436 24.8761 77.0885 25.7292C76.9862 26.2922 76.3689 26.9726 76.0997 27.4919C75.8113 28.048 75.5961 28.4193 75.0801 28.7632C74.4379 29.1914 73.3238 28.9962 72.5866 28.9843C71.6573 28.9694 70.6755 28.4122 70.0254 27.7621C69.7542 27.4909 69.4842 27.0628 69.3068 26.7241C69.1764 26.4751 69.0033 26.3386 69.2515 26.6075C70.1169 27.5449 71.6477 26.4957 72.7831 27.019C74.0152 27.5868 75.8882 30.0899 77.2052 29.2484C77.8188 28.8564 78.3814 28.3715 78.9679 27.9402C79.2752 27.7143 79.7287 27.425 79.8339 27.019C80.0012 26.3739 77.7931 25.7406 77.4263 25.5572C76.6455 25.1668 76.0392 24.8714 75.4978 24.1753C75.2808 23.8963 75.9516 24.4311 76.0444 24.5684C76.4396 25.1525 76.7241 25.7669 76.9841 26.4171C77.1253 26.7699 77.4884 27.6654 77.9238 27.7621C78.5891 27.91 77.9472 26.2849 77.8685 26.0547C77.3167 24.4386 75.9225 24.0426 74.4414 23.4567C72.9767 22.8773 71.6342 22.7578 70.0745 23.0698C68.9885 23.287 68.3406 23.2005 67.3414 22.8794C66.4059 22.5786 65.1365 22.7853 64.1845 22.8794C64.0195 22.8957 63.2352 22.8986 63.3001 22.8794C64.0332 22.6622 64.8965 22.6828 65.6524 22.6828C66.7181 22.6828 68.5515 22.3518 69.5156 22.9653C70.6032 23.6574 67.4561 25.3328 67.0835 25.5572C66.3063 26.0253 62.7853 25.9602 62.3911 26.7978C62.2809 27.0321 66.0333 26.8612 66.0762 26.8224C66.8577 26.1157 67.5286 25.3943 68.189 24.5745C68.3394 24.3878 69.7982 22.8684 69.7982 23.9235C69.7982 25.4263 68.3966 26.9112 67.151 27.5963C66.9177 27.7246 66.737 27.8445 66.5491 28.0324C66.2812 28.3003 67.178 27.6084 67.4765 27.3752C67.588 27.2881 69.0243 26.0995 69.0243 26.7978C69.0243 28.4042 66.0366 28.7768 64.8233 29.316C64.1406 29.6194 62.9115 29.4816 62.1946 29.402C61.0722 29.2773 60.0067 28.8436 58.9087 28.6527C58.5961 28.5983 58.3763 28.4179 58.0857 28.321C57.757 28.2115 58.6632 28.4117 58.7429 28.4316C59.6164 28.65 60.4772 28.8861 61.347 29.1195C62.5504 29.4423 64.0244 30.0661 65.2901 29.8012C65.8718 29.6794 66.3181 29.1244 66.7088 28.7141C66.9172 28.4953 67.2303 28.4115 67.409 28.1613C67.4423 28.1146 66.1847 28.1419 66.0332 28.1798C65.1575 28.3987 64.0467 27.6636 63.3001 28.1613C62.6867 28.5702 62.0423 30.2437 61.3101 30.397C60.6691 30.5311 60.163 30.3558 59.6273 30.0285C57.9866 29.0258 57.0846 26.4322 57.0846 24.5622C57.0846 22.0903 59.2257 22.451 61.1136 22.4617C62.5112 22.4696 63.904 22.5723 65.3023 22.5723C65.4883 22.5723 66.7703 22.4917 65.9657 22.6828C64.7544 22.9705 63.6031 23.4624 62.3911 23.7392C60.963 24.0654 59.4503 24.0742 58.0427 24.4639C57.9344 24.4939 55.4387 25.5881 55.7825 25.9748C55.9649 26.18 56.7624 25.6238 56.888 25.5572C57.8578 25.0426 60.3173 26.7155 61.347 26.3372C63.471 25.557 64.166 23.2356 66.414 23.2356C66.8617 23.2356 68.6356 23.0619 68.8892 23.6778C69.1113 24.2173 65.3469 24.4517 64.897 24.4517C64.1967 24.4517 66.4286 24.5093 66.9238 25.0044" stroke="black" stroke-width="1.45279" stroke-linecap="round"/>
<path d="M71.0309 38.0417C70.1166 37.9503 69.368 37.5705 68.4259 37.5705C67.7627 37.5705 67.0994 37.5705 66.4362 37.5705C65.6115 37.5705 64.7868 37.5705 63.9621 37.5705C63.4209 37.5705 62.1426 37.3742 61.7368 36.9683C61.3685 36.6001 61.0139 35.2717 61.8415 35.6855" stroke="black" stroke-width="1.45279" stroke-linecap="round"/>
<path d="M57.132 41.3389C53.3486 41.6828 50.9881 46.0999 49.2646 48.9967C47.5883 51.8143 47 54.6309 47 57.8328" stroke="black" stroke-width="1.45279" stroke-linecap="round"/>
<path d="M75.0134 46.5234C74.7153 58.7452 78.0738 70.5907 78.0738 82.832C78.0738 89.8006 74.1945 80.4497 72.9732 78.2226C72.2809 76.9603 71.563 76.1229 70.2529 75.5023C69.0648 74.9395 69.2328 77.6759 69.2328 78.1848C69.2328 84.6031 69.3784 91.0393 69.1572 97.4537C68.982 102.536 68.6922 108.359 66.1913 112.944C65.4661 114.274 65.1407 110.874 65.1334 110.734C64.8877 106.067 64.3332 101.446 63.1121 96.9248C62.3282 94.0222 61.4018 90.5195 60.0517 87.8193C59.1609 86.0376 57.1553 89.6953 56.8402 90.2373C55.1613 93.1251 54.3832 96.5705 53.2698 99.7017C53.0132 100.424 51.2511 104.288 51.2107 101.459C51.119 95.0387 51.8908 88.6595 51.8908 82.2275" stroke="black" stroke-width="1.45279" stroke-linecap="round"/>
</svg>
