<svg width="37" height="18" viewBox="0 0 37 18" fill="none" xmlns="http://www.w3.org/2000/svg">
<path d="M4.38234 12.5566H1.8942L0 17.4721H1.69836L2.036 16.5023H4.19185C4.33632 16.8916 4.45136 17.215 4.53698 17.4721H6.28884L4.38287 12.5572L4.38234 12.5566ZM2.41965 15.4462C2.72786 14.6162 2.95795 13.9966 3.11687 13.5853L3.27846 14.0261C3.45932 14.4989 3.6359 14.9739 3.80712 15.4462H2.41965Z" fill="#8469FF"/>
<path d="M9.09478 14.6679V15.7652H10.4138C10.2816 15.9098 10.1227 16.0126 9.92951 16.0688C9.73848 16.1277 9.5405 16.1572 9.33984 16.1572C8.87004 16.1572 8.52277 16.0468 8.29483 15.8268C8.06474 15.6061 7.95237 15.3148 7.95237 14.9523C7.95237 14.6192 8.05778 14.3375 8.27075 14.1099C8.48104 13.8823 8.80423 13.7699 9.23711 13.7699C9.49876 13.7699 9.74597 13.8138 9.98088 13.9021C10.2158 13.9905 10.4212 14.1228 10.5973 14.2963L10.7664 14.2031C11.356 13.892 11.7525 13.6837 11.9559 13.5787C11.645 13.1819 11.2683 12.8906 10.8231 12.6994C10.38 12.5109 9.86637 12.415 9.2842 12.415C8.26647 12.415 7.51521 12.6501 7.0331 13.1182C6.55099 13.5883 6.30859 14.2277 6.30859 15.0358C6.30859 15.5403 6.40919 15.9837 6.60931 16.3607C6.80997 16.7403 7.08875 17.0316 7.44137 17.2351C7.79613 17.4386 8.20012 17.5388 8.65494 17.5388C9.15631 17.5388 9.5801 17.436 9.92737 17.2276C10.2746 17.0193 10.5149 16.7012 10.6519 16.2723L10.7937 17.4724H11.9826V14.6685H9.09531L9.09478 14.6679Z" fill="#8469FF"/>
<path d="M14.1191 16.2329V15.5276C14.3368 15.5228 14.6574 15.5228 15.0806 15.5228C15.7976 15.5228 16.5392 15.5351 17.305 15.5619V14.3988C16.5392 14.4256 15.7976 14.4379 15.0806 14.4379C14.6574 14.4379 14.3368 14.4352 14.1191 14.4331V13.7813H17.7796V12.5566H12.5234C12.5604 13.4333 12.5775 14.2515 12.5775 15.013C12.5775 15.7745 12.5604 16.5949 12.5234 17.4715H17.7796C17.7796 17.1727 17.7822 16.9253 17.7892 16.7293C17.794 16.5333 17.8138 16.3421 17.8454 16.1563C17.0749 16.1981 15.8313 16.2227 14.1185 16.2324L14.1191 16.2329Z" fill="#8469FF"/>
<path d="M24.0613 12.5635H22.4047L22.5197 16.3591L20.8754 12.5635H18.3867C18.4236 13.4374 18.4408 14.2557 18.4408 15.0123C18.4408 15.769 18.4236 16.5942 18.3867 17.4709H20.1241L20.0043 13.7753L21.6411 17.4709H24.0613C24.0292 16.7067 24.0147 15.889 24.0147 15.0123C24.0147 14.1357 24.0292 13.325 24.0613 12.5635Z" fill="#8469FF"/>
<path d="M28.5243 15.9928C28.3038 16.1154 28.0052 16.1786 27.6312 16.1786C27.1614 16.1786 26.8141 16.0634 26.5862 15.8359C26.3588 15.6083 26.2459 15.3143 26.2459 14.9517C26.2459 14.6186 26.3513 14.337 26.5616 14.1094C26.7745 13.8818 27.0972 13.7693 27.5306 13.7693C27.8217 13.7693 28.1106 13.8304 28.3921 13.9503C28.6736 14.073 28.879 14.2615 29.0112 14.5137C29.557 14.2347 30.0316 14.0237 30.4377 13.8845C29.9556 12.905 29.0016 12.415 27.5772 12.415C26.5594 12.415 25.8082 12.6501 25.3261 13.1182C24.844 13.5883 24.6016 14.2277 24.6016 15.0358C24.6016 15.8439 24.844 16.456 25.3261 16.8897C25.8082 17.323 26.5594 17.5388 27.5772 17.5388C28.1989 17.5388 28.7736 17.4311 29.3023 17.2153C29.8283 16.9974 30.2055 16.6156 30.4302 16.0693C29.8529 15.8219 29.3804 15.5992 29.0112 15.401C28.9058 15.6704 28.7442 15.8685 28.5243 15.9938V15.9928Z" fill="#8469FF"/>
<path d="M35.1591 12.5566C35.0515 12.7821 34.8413 13.1762 34.5304 13.7348C34.2639 14.2124 34.0531 14.6162 33.8942 14.9471C33.7818 14.7217 33.571 14.3324 33.2654 13.7813C32.9594 13.2399 32.7394 12.8314 32.6025 12.5566H30.7109C30.8822 12.8308 31.1294 13.2084 31.4547 13.6882C31.8683 14.3152 32.1888 14.8074 32.4141 15.1646C32.6394 15.5244 32.8352 15.8725 33.0016 16.2104V17.4715H34.7685V16.3255C34.9986 15.843 35.2848 15.314 35.63 14.7388C35.9751 14.1658 36.3887 13.5023 36.8708 12.7526L37.0003 12.5566H35.1602H35.1591Z" fill="#8469FF"/>
<path d="M10.8539 4.91918C9.99031 4.4806 8.60498 4.26265 6.69901 4.26265C5.92582 4.26265 5.33348 4.19892 4.92467 4.06665C4.51587 3.93653 4.3104 3.76302 4.3104 3.54721C4.3104 3.3314 4.45968 3.16754 4.75559 3.05508C5.05149 2.94262 5.62938 2.88586 6.48337 2.88586C7.19289 2.88586 8.01264 3.00849 8.9378 3.25804C9.8651 3.50544 10.5575 3.81122 11.0155 4.18125C11.0525 4.09075 11.0963 3.9558 11.1504 3.77748C11.4393 2.92281 11.7133 2.19773 11.9749 1.60279C11.1819 1.18884 10.2937 0.863251 9.31022 0.623344C8.32406 0.385579 7.36466 0.265625 6.42986 0.265625C4.8198 0.265625 3.51045 0.554799 2.50235 1.12993C1.49692 1.7056 0.99234 2.60204 0.99234 3.81657C0.99234 4.67392 1.40596 5.29082 2.2332 5.67264C3.06044 6.05713 4.39119 6.24831 6.22653 6.24831C7.90028 6.24831 8.73715 6.52249 8.73715 7.07138C8.73715 7.22561 8.58304 7.36538 8.27697 7.49764C7.97091 7.62777 7.44492 7.69364 6.69848 7.69364C5.95203 7.69364 5.18365 7.58815 4.33715 7.38251C3.49279 7.1742 2.74902 6.8877 2.11281 6.5182C1.92178 7.03979 1.72594 7.50032 1.52528 7.89446C1.32195 8.29127 1.06779 8.71967 0.761719 9.17753C1.58896 9.60112 2.52108 9.92189 3.55379 10.1425C4.58864 10.3631 5.60691 10.4729 6.6027 10.4729C8.46479 10.4729 9.85494 10.1961 10.7726 9.64289C11.6903 9.08917 12.1478 8.18309 12.1478 6.92198C12.1478 6.0234 11.717 5.35455 10.8534 4.91864L10.8539 4.91918Z" fill="#8469FF"/>
<path d="M33.9366 6.96514C34.8639 6.72256 35.5172 6.3311 35.9014 5.78971C36.2829 5.25099 36.4739 4.58964 36.4739 3.80619C36.4739 2.80693 36.1144 2.01331 35.3947 1.428C34.6755 0.845372 33.4052 0.551379 31.5897 0.551379H28.8244V0.539062H25.6406C25.7118 2.28535 25.7482 3.91865 25.7482 5.43949C25.7482 6.96032 25.7113 8.59362 25.6406 10.3399H28.8244V7.20773H30.8063C31.6603 8.55721 32.2869 9.60305 32.6834 10.3399H36.3514L34.1661 7.30305C34.1222 7.22219 34.0463 7.10973 33.936 6.96514H33.9366ZM33.1949 4.37168C33.043 4.47932 32.769 4.56018 32.38 4.60891C31.9883 4.65818 31.411 4.68228 30.6453 4.68228H28.8249V3.1443H30.6453C31.4185 3.1443 32.0033 3.16626 32.3998 3.21017C32.7963 3.25676 33.0655 3.3328 33.2099 3.44044C33.3517 3.54807 33.425 3.7023 33.425 3.8983C33.425 4.10661 33.349 4.26298 33.1949 4.37115V4.37168Z" fill="#8469FF"/>
<path d="M24.5623 0.526367V5.89911C24.5425 7.22395 24.0925 8.31639 23.2064 9.18069C22.3203 10.045 20.828 10.4761 18.7331 10.4761C16.6383 10.4761 15.1582 10.0648 14.3749 9.24174C13.592 8.41867 13.21 7.33641 13.2271 5.99443V0.526367H17.511C17.2493 0.964412 15.97 3.01915 15.97 3.01915L16.5746 2.88474L18.4469 2.47186L16.5746 5.77915L18.8942 5.12048L17.6854 7.64058L17.2183 8.6152L17.9942 7.70644L21.2143 3.93005L21.8821 3.1466L19.5267 3.79617L21.728 0.526367H24.5618H24.5623Z" fill="#8469FF"/>
</svg>
