<svg width="122" height="77" viewBox="0 0 122 77" fill="none" xmlns="http://www.w3.org/2000/svg">
<path d="M19.7907 49.0465C19.7907 40.8862 18.4437 30.5229 28.9456 28.8351C34.3448 27.9674 36.063 31.3265 37.3043 35.9998C37.9996 38.6171 38.1307 42.3518 37.6139 45.0219C37.1349 47.4968 33.1345 48.2504 31.1127 48.2504C25.2106 48.2504 15.3709 46.81 12.8693 40.2676C10.9459 35.2371 11.2004 30.4243 16.6065 28.1717C21.6063 26.0885 28.5386 25.4648 32.7048 29.3437C37.1403 33.4734 40.6379 38.7794 40.0021 45.0662C39.3755 51.263 34.7114 53.3483 28.9456 51.3463C23.5459 49.4714 17.5733 46.2159 16.6949 39.8917C15.5775 31.8464 19.9064 26.4582 27.6188 24.1029C32.6195 22.5758 36.7697 24.5373 39.0734 29.1447C40.6734 32.3448 40.4886 37.6099 40.4886 41.0858C40.4886 43.3748 40.8481 45.9943 40.2896 48.2283C39.9715 49.5006 39.332 50.414 38.8965 51.6116C38.3561 53.0977 36.0307 53.2967 34.7171 53.0048C32.509 52.5141 30.0723 52.2308 27.7515 52.2308" stroke="black" stroke-width="0.710271" stroke-linecap="round"/>
<path d="M26.1801 36.6585C26.1801 36.4112 26.3603 34.2255 25.9929 34.2255C24.8585 34.2255 25.6716 37.355 26.0761 37.875C26.5855 38.53 27.0594 37.0237 27.199 36.5649C27.4459 35.7538 27.4564 34.9674 26.5544 34.787" stroke="black" stroke-width="0.710271" stroke-linecap="round"/>
<path d="M30.6755 34.2255C30.6755 35.0539 30.3966 36.4587 30.7171 37.2199C31.1116 38.1569 31.695 36.4219 31.788 36.0034C31.8914 35.5379 31.954 34.3744 31.3305 34.2359C30.4665 34.0439 30.4883 34.4584 30.4883 35.1613" stroke="black" stroke-width="0.710271" stroke-linecap="round"/>
<path d="M27.1172 43.0215C27.196 42.391 31.7488 43.3298 32.6381 42.2625C32.7877 42.083 32.8171 41.7093 32.9605 41.5659C33.0686 41.4578 32.918 41.8306 32.7317 41.9402C32.0788 42.3243 32.1008 42.8344 31.2345 42.8344" stroke="black" stroke-width="0.710271" stroke-linecap="round"/>
<path d="M20.567 48.636C18.2256 48.636 15.9535 48.317 13.6632 47.8043C11.1284 47.2368 7.87183 46.6088 5.78212 44.9762C5.06373 44.415 5.32224 43.5018 4.24332 42.9799C2.78928 42.2766 1.2905 44.3983 1.2905 45.2569C1.2905 46.9389 1.21142 48.0583 2.22625 49.4678C3.27718 50.9274 4.99929 51.1501 6.6243 51.5473C10.0682 52.3891 13.1582 54.1407 16.7408 54.4273C18.563 54.5731 19.6457 54.2795 20.567 56.1221C22.1314 59.2507 24.5771 62.0425 25.8073 65.3341C26.8145 68.0292 27.1837 70.8168 28.0531 73.5271C28.4451 74.7494 28.5064 74.1216 28.6561 73.2984C28.879 72.0725 28.891 70.8207 29.176 69.5969C29.5737 67.889 30.453 65.2108 32.2432 64.4815C33.7483 63.8683 34.6117 66.0286 35.4663 66.8833C36.5545 67.9714 37.8376 68.8623 39.095 69.7425C39.7668 70.2128 40.5198 70.8915 41.3304 71.0941C42.5689 71.4038 41.9887 69.5751 41.8087 68.7548C41.251 66.2142 40.3298 63.8264 40.2283 61.1855C40.1965 60.3585 39.7782 58.3625 40.7897 57.9832C41.3158 57.7859 41.8021 57.3565 42.2765 57.0578C43.0702 56.5581 44.0111 56.3163 44.8966 56.0285C47.4404 55.2018 48.9713 53.3776 50.9375 51.6617C52.4384 50.3518 54.0585 49.4125 55.793 48.4489C56.781 47.9 57.8818 47.4085 58.1428 46.1615C58.4017 44.9246 57.9799 43.97 57.6645 42.8344C57.3807 41.8126 57.2509 41.5618 56.0841 41.7531C54.6522 41.9878 53.4368 43.0976 52.5282 44.1444C51.1455 45.7375 49.2581 46.8404 47.3712 47.7003C46.0661 48.295 44.6826 49.1975 43.2123 49.1975C42.801 49.1975 41.7179 49.3903 41.5279 49.0103" stroke="black" stroke-width="0.710271" stroke-linecap="round"/>
<path d="M19.8219 10.2702C19.8219 9.83114 19.7083 9.15907 20.1443 8.87695C21.2865 8.13787 23.6376 8.69977 24.8022 9.00172C25.807 9.26222 27.0867 9.64043 27.5887 10.6445C28.5459 12.5588 27.4546 14.1603 25.3325 14.2004C24.8926 14.2087 22.6091 14.2094 23.8561 15.2297C24.7843 15.9891 26.3769 16.2683 26.9337 17.3819" stroke="black" stroke-width="0.710271" stroke-linecap="round"/>
<path d="M28.9896 20.7506C28.8868 20.7506 28.1236 20.7774 28.1786 20.6674C28.4395 20.1456 29.0033 19.547 29.3639 19.0662" stroke="black" stroke-width="0.710271" stroke-linecap="round"/>
<path d="M49.4961 25.9118C50.1162 25.2172 52.1962 23.7113 52.2566 22.562C52.2969 21.794 51.7664 21.6879 51.3875 21.2163C51.1374 20.905 51.1064 20.1329 51.1064 19.7275C51.1064 18.1309 52.5303 16.4433 53.4579 15.4042C55.7523 12.8342 58.4536 11.1931 61.5093 9.9357C69.2234 6.76147 78.4295 6.43322 86.4303 8.01742C89.1601 8.55794 91.8853 9.50919 94.5839 10.2506C96.7167 10.8366 98.858 11.3366 100.974 11.9971C102.267 12.4008 103.614 12.2085 104.936 12.4552C106.391 12.7269 107.85 12.9661 109.306 13.2283C110.663 13.4724 112.413 13.6055 113.626 14.3735C114.65 15.0215 116.253 15.4312 117 16.5065C117.877 17.7695 116.831 20.4542 115.735 21.1448C114.861 21.6953 114.06 21.7941 113.102 22.0466C111.311 22.5188 109.566 23.3559 107.811 23.9792C105.54 24.786 103.324 25.5221 101.012 26.1695C98.6973 26.8178 96.3384 26.6505 94.0088 27.0714C89.1744 27.9448 84.0177 26.4376 79.299 25.4824C75.6729 24.7483 72.0826 23.9303 68.5766 22.9485C67.2415 22.5746 65.4895 22.562 64.1164 22.562C63.2147 22.562 61.9687 22.3222 61.1131 22.6908C58.8836 23.6514 56.1538 22.9126 53.9819 24.2226C53.3202 24.6217 52.5721 24.5972 51.9115 24.9956C51.3532 25.3324 50.5877 25.6541 49.9562 25.6541" stroke="black" stroke-width="0.710271" stroke-linecap="round"/>
<path d="M63.2935 14.0205V14.6455H60.4867V19.8387H59.7821V14.0205H63.2935ZM63.8269 21.0887V19.2137H64.1905C64.2795 19.1209 64.3562 19.0205 64.4206 18.9125C64.485 18.8046 64.5409 18.6768 64.5882 18.529C64.6375 18.3794 64.6791 18.1976 64.7132 17.9836C64.7473 17.7677 64.7776 17.5072 64.8041 17.2023L64.9519 15.475H67.7246V19.2137H68.395V21.0887H67.7246V19.8387H64.4973V21.0887H63.8269ZM64.9519 19.2137H67.0541V16.1H65.5769L65.4632 17.2023C65.4159 17.6588 65.3572 18.0574 65.2871 18.3983C65.217 18.7393 65.1053 19.011 64.9519 19.2137ZM71.1145 19.9296C70.694 19.9296 70.3314 19.8368 70.0264 19.6512C69.7234 19.4637 69.4895 19.2023 69.3247 18.8671C69.1618 18.53 69.0804 18.1379 69.0804 17.691C69.0804 17.244 69.1618 16.85 69.3247 16.5091C69.4895 16.1663 69.7187 15.8993 70.0122 15.708C70.3077 15.5148 70.6524 15.4182 71.0463 15.4182C71.2736 15.4182 71.498 15.4561 71.7196 15.5319C71.9412 15.6076 72.1429 15.7307 72.3247 15.9012C72.5065 16.0697 72.6514 16.2932 72.7594 16.5716C72.8673 16.85 72.9213 17.1929 72.9213 17.6V17.8841H69.5577V17.3046H72.2395C72.2395 17.0584 72.1903 16.8387 72.0918 16.6455C71.9952 16.4523 71.8569 16.2999 71.677 16.1881C71.499 16.0764 71.2887 16.0205 71.0463 16.0205C70.7793 16.0205 70.5482 16.0868 70.3531 16.2194C70.16 16.35 70.0113 16.5205 69.9071 16.7307C69.8029 16.941 69.7509 17.1663 69.7509 17.4069V17.7932C69.7509 18.1228 69.8077 18.4021 69.9213 18.6313C70.0368 18.8586 70.1969 19.0319 70.4014 19.1512C70.606 19.2686 70.8437 19.3273 71.1145 19.3273C71.2906 19.3273 71.4497 19.3027 71.5918 19.2535C71.7357 19.2023 71.8598 19.1266 71.9639 19.0262C72.0681 18.9239 72.1486 18.797 72.2054 18.6455L72.8531 18.8273C72.785 19.047 72.6704 19.2402 72.5094 19.4069C72.3484 19.5716 72.1495 19.7004 71.9128 19.7932C71.6761 19.8841 71.41 19.9296 71.1145 19.9296ZM79.1117 17.35V17.975H76.7026V17.35H79.1117ZM76.8617 15.475V19.8387H76.1912V15.475H76.8617ZM79.623 15.475V19.8387H78.9526V15.475H79.623ZM82.1315 19.941C81.855 19.941 81.6041 19.8889 81.3787 19.7847C81.1533 19.6786 80.9743 19.5262 80.8418 19.3273C80.7092 19.1266 80.6429 18.8841 80.6429 18.6C80.6429 18.35 80.6922 18.1474 80.7906 17.9921C80.8891 17.8349 81.0207 17.7118 81.1855 17.6228C81.3503 17.5338 81.5321 17.4675 81.731 17.4239C81.9317 17.3785 82.1334 17.3425 82.3361 17.316C82.6012 17.2819 82.8162 17.2563 82.981 17.2393C83.1476 17.2203 83.2689 17.1891 83.3446 17.1455C83.4223 17.1019 83.4611 17.0262 83.4611 16.9182V16.8955C83.4611 16.6152 83.3844 16.3974 83.231 16.2421C83.0795 16.0868 82.8493 16.0091 82.5406 16.0091C82.2206 16.0091 81.9696 16.0792 81.7878 16.2194C81.606 16.3595 81.4781 16.5091 81.4043 16.6682L80.7679 16.441C80.8815 16.1758 81.0331 15.9694 81.2225 15.8216C81.4137 15.672 81.6221 15.5679 81.8475 15.5091C82.0747 15.4485 82.2982 15.4182 82.5179 15.4182C82.6581 15.4182 82.819 15.4353 83.0009 15.4694C83.1846 15.5016 83.3617 15.5688 83.5321 15.6711C83.7045 15.7733 83.8475 15.9277 83.9611 16.1341C84.0747 16.3406 84.1315 16.6171 84.1315 16.9637V19.8387H83.4611V19.2478H83.427C83.3815 19.3425 83.3058 19.4438 83.1997 19.5518C83.0937 19.6597 82.9526 19.7516 82.7764 19.8273C82.6003 19.9031 82.3853 19.941 82.1315 19.941ZM82.2338 19.3387C82.499 19.3387 82.7225 19.2866 82.9043 19.1824C83.088 19.0783 83.2262 18.9438 83.319 18.779C83.4137 18.6143 83.4611 18.441 83.4611 18.2591V17.6455C83.4327 17.6796 83.3702 17.7108 83.2736 17.7393C83.1789 17.7658 83.069 17.7894 82.944 17.8103C82.8209 17.8292 82.7007 17.8463 82.5833 17.8614C82.4677 17.8747 82.374 17.886 82.302 17.8955C82.1278 17.9182 81.9649 17.9552 81.8134 18.0063C81.6637 18.0555 81.5425 18.1304 81.4497 18.2307C81.3588 18.3292 81.3134 18.4637 81.3134 18.6341C81.3134 18.8671 81.3995 19.0432 81.5719 19.1625C81.7461 19.28 81.9668 19.3387 82.2338 19.3387ZM88.7189 15.475V19.8387H88.0484V15.475H88.7189ZM88.4575 17.5546V18.1796C88.306 18.2364 88.1555 18.2866 88.0058 18.3302C87.8562 18.3718 87.699 18.405 87.5342 18.4296C87.3695 18.4523 87.1886 18.4637 86.9916 18.4637C86.4973 18.4637 86.1005 18.3302 85.8013 18.0631C85.5039 17.7961 85.3553 17.3955 85.3553 16.8614V15.4637H86.0257V16.8614C86.0257 17.0849 86.0683 17.2686 86.1536 17.4125C86.2388 17.5565 86.3543 17.6635 86.5002 17.7336C86.646 17.8036 86.8098 17.8387 86.9916 17.8387C87.2757 17.8387 87.5324 17.8131 87.7615 17.762C87.9926 17.7089 88.2246 17.6398 88.4575 17.5546ZM91.2331 19.941C90.9566 19.941 90.7056 19.8889 90.4803 19.7847C90.2549 19.6786 90.0759 19.5262 89.9433 19.3273C89.8108 19.1266 89.7445 18.8841 89.7445 18.6C89.7445 18.35 89.7937 18.1474 89.8922 17.9921C89.9907 17.8349 90.1223 17.7118 90.2871 17.6228C90.4519 17.5338 90.6337 17.4675 90.8325 17.4239C91.0333 17.3785 91.235 17.3425 91.4377 17.316C91.7028 17.2819 91.9178 17.2563 92.0825 17.2393C92.2492 17.2203 92.3704 17.1891 92.4462 17.1455C92.5238 17.1019 92.5627 17.0262 92.5627 16.9182V16.8955C92.5627 16.6152 92.4859 16.3974 92.3325 16.2421C92.181 16.0868 91.9509 16.0091 91.6422 16.0091C91.3221 16.0091 91.0712 16.0792 90.8894 16.2194C90.7075 16.3595 90.5797 16.5091 90.5058 16.6682L89.8695 16.441C89.9831 16.1758 90.1346 15.9694 90.324 15.8216C90.5153 15.672 90.7236 15.5679 90.949 15.5091C91.1763 15.4485 91.3998 15.4182 91.6195 15.4182C91.7596 15.4182 91.9206 15.4353 92.1024 15.4694C92.2861 15.5016 92.4632 15.5688 92.6337 15.6711C92.806 15.7733 92.949 15.9277 93.0627 16.1341C93.1763 16.3406 93.2331 16.6171 93.2331 16.9637V19.8387H92.5627V19.2478H92.5286C92.4831 19.3425 92.4074 19.4438 92.3013 19.5518C92.1952 19.6597 92.0541 19.7516 91.878 19.8273C91.7019 19.9031 91.4869 19.941 91.2331 19.941ZM91.3354 19.3387C91.6005 19.3387 91.824 19.2866 92.0058 19.1824C92.1895 19.0783 92.3278 18.9438 92.4206 18.779C92.5153 18.6143 92.5627 18.441 92.5627 18.2591V17.6455C92.5342 17.6796 92.4717 17.7108 92.3752 17.7393C92.2805 17.7658 92.1706 17.7894 92.0456 17.8103C91.9225 17.8292 91.8022 17.8463 91.6848 17.8614C91.5693 17.8747 91.4755 17.886 91.4036 17.8955C91.2293 17.9182 91.0664 17.9552 90.9149 18.0063C90.7653 18.0555 90.6441 18.1304 90.5513 18.2307C90.4604 18.3292 90.4149 18.4637 90.4149 18.6341C90.4149 18.8671 90.5011 19.0432 90.6734 19.1625C90.8477 19.28 91.0683 19.3387 91.3354 19.3387ZM94.0705 19.8387V19.2137H94.2296C94.3602 19.2137 94.4691 19.1881 94.5563 19.137C94.6434 19.0839 94.7135 18.9921 94.7665 18.8614C94.8214 18.7288 94.8631 18.5451 94.8915 18.3103C94.9218 18.0735 94.9436 17.7724 94.9568 17.4069L95.0364 15.475H97.9455V19.8387H97.275V16.1H95.6727L95.6046 17.6569C95.5894 18.0148 95.5572 18.3302 95.508 18.6029C95.4606 18.8737 95.3877 19.101 95.2892 19.2847C95.1926 19.4684 95.0638 19.6067 94.9029 19.6995C94.7419 19.7923 94.5402 19.8387 94.2977 19.8387H94.0705ZM100.948 19.9296C100.554 19.9296 100.209 19.8358 99.9114 19.6483C99.6159 19.4608 99.3849 19.1985 99.2182 18.8614C99.0534 18.5243 98.971 18.1304 98.971 17.6796C98.971 17.225 99.0534 16.8283 99.2182 16.4893C99.3849 16.1502 99.6159 15.887 99.9114 15.6995C100.209 15.512 100.554 15.4182 100.948 15.4182C101.342 15.4182 101.687 15.512 101.982 15.6995C102.28 15.887 102.511 16.1502 102.676 16.4893C102.842 16.8283 102.926 17.225 102.926 17.6796C102.926 18.1304 102.842 18.5243 102.676 18.8614C102.511 19.1985 102.28 19.4608 101.982 19.6483C101.687 19.8358 101.342 19.9296 100.948 19.9296ZM100.948 19.3273C101.248 19.3273 101.494 19.2506 101.687 19.0972C101.88 18.9438 102.023 18.7421 102.116 18.4921C102.209 18.2421 102.255 17.9713 102.255 17.6796C102.255 17.3879 102.209 17.1161 102.116 16.8643C102.023 16.6124 101.88 16.4088 101.687 16.2535C101.494 16.0982 101.248 16.0205 100.948 16.0205C100.649 16.0205 100.403 16.0982 100.21 16.2535C100.016 16.4088 99.8735 16.6124 99.7807 16.8643C99.6879 17.1161 99.6415 17.3879 99.6415 17.6796C99.6415 17.9713 99.6879 18.2421 99.7807 18.4921C99.8735 18.7421 100.016 18.9438 100.21 19.0972C100.403 19.2506 100.649 19.3273 100.948 19.3273ZM104.824 18.2023V18.1682C104.828 17.8065 104.866 17.5186 104.938 17.3046C105.01 17.0906 105.112 16.9173 105.244 16.7847C105.377 16.6521 105.536 16.53 105.722 16.4182C105.833 16.35 105.934 16.2696 106.023 16.1768C106.112 16.0821 106.182 15.9732 106.233 15.85C106.286 15.7269 106.313 15.5906 106.313 15.441C106.313 15.2554 106.269 15.0944 106.182 14.958C106.095 14.8216 105.978 14.7165 105.833 14.6427C105.687 14.5688 105.525 14.5319 105.347 14.5319C105.191 14.5319 105.042 14.5641 104.898 14.6285C104.754 14.6929 104.634 14.7942 104.537 14.9324C104.44 15.0707 104.385 15.2516 104.369 15.475H103.654C103.669 15.1531 103.752 14.8775 103.904 14.6483C104.057 14.4192 104.259 14.244 104.509 14.1228C104.761 14.0016 105.04 13.941 105.347 13.941C105.68 13.941 105.97 14.0072 106.216 14.1398C106.464 14.2724 106.655 14.4542 106.79 14.6853C106.926 14.9163 106.994 15.1796 106.994 15.475C106.994 15.6834 106.962 15.8718 106.898 16.0404C106.835 16.2089 106.744 16.3595 106.625 16.4921C106.508 16.6247 106.366 16.7421 106.199 16.8444C106.032 16.9485 105.899 17.0584 105.798 17.1739C105.698 17.2875 105.625 17.423 105.58 17.5802C105.534 17.7374 105.51 17.9334 105.506 18.1682V18.2023H104.824ZM105.188 19.8841C105.048 19.8841 104.927 19.8339 104.827 19.7336C104.726 19.6332 104.676 19.5129 104.676 19.3728C104.676 19.2326 104.726 19.1124 104.827 19.012C104.927 18.9116 105.048 18.8614 105.188 18.8614C105.328 18.8614 105.448 18.9116 105.548 19.012C105.649 19.1124 105.699 19.2326 105.699 19.3728C105.699 19.4656 105.675 19.5508 105.628 19.6285C105.583 19.7061 105.521 19.7686 105.443 19.816C105.368 19.8614 105.282 19.8841 105.188 19.8841Z" fill="black"/>
</svg>
