<svg width="350" height="350" viewBox="0 0 350 350" fill="none" xmlns="http://www.w3.org/2000/svg">
<g filter="url(#filter0_f_1535_344)">
<ellipse cx="174.833" cy="175.156" rx="71.5561" ry="71.877" fill="#876DFF"/>
</g>
<path d="M128.768 131.228C128.768 114.578 128.768 97.9285 128.768 81.2788C128.768 61.6664 127.769 46.2216 140.704 30.4114C146.862 22.8859 152.839 18.0735 162.741 17.2814C175.424 16.2667 183.062 27.5523 188.174 38.0323C196.735 55.5824 196.673 75.4342 196.53 94.5006C196.441 106.332 196.209 128.152 182.482 133.523C152.589 145.22 139.186 115.768 133.359 91.5624C130.682 80.4434 126.387 59.8921 131.431 48.6832C136.231 38.0156 152.335 29.4065 161.822 23.8005C170.826 18.4803 182.695 12.1839 192.398 18.9341C204.595 27.419 211.396 43.2362 213.7 57.3142C218.059 83.9507 214.354 115.748 186.613 127.096C167.093 135.082 142.93 135.251 138.684 111.028C136.135 96.4794 137.032 81.4857 137.032 66.7715C137.032 55.6141 136.221 45.5988 142.357 35.7369C151.907 20.3889 166.76 20.4009 183.308 22.2396C195.319 23.5741 198.183 49.3617 198.183 58.5078C198.183 73.4609 199.835 88.2585 199.835 103.132C199.835 109.207 196.53 113.887 196.53 119.659C196.53 122.373 197.184 126.047 196.438 128.657C196.2 129.49 189.027 128.047 188.266 127.096C180.563 117.467 151.846 144.271 146.948 129.575" stroke="black" stroke-width="1.28352" stroke-linecap="round"/>
<path d="M43.9219 285.035C43.9219 265.146 52.1503 254.902 60.3207 237.254C63.9643 229.383 65.3503 220.029 69.8208 212.485C76.3737 201.427 76.7286 184.711 85.9372 175.503C87.9256 173.514 96.6777 172.403 99.5088 173.212M99.5088 173.212C103.074 174.231 105.68 181.45 106.549 184.494C107.301 187.126 114.108 189.419 116.389 190.686C122.58 194.125 119.436 198.416 116.813 203.664C108.783 219.723 107.205 233.315 106.521 251.106C106.348 255.597 104.991 262.523 103.128 266.714C100.208 273.285 100.108 281.006 96.5969 287.326C90.4029 298.475 74.9565 290.003 64.1097 289.616C62.1259 289.545 46.9755 287.619 46.9755 288.089C46.9755 294.01 61.5736 289.858 63.7704 289.701M99.5088 173.212C94.2122 201.834 79.6493 265.203 63.7704 289.701M63.7704 289.701C86.5245 288.075 63.9587 308.537 72.2527 310.906C85.4974 314.691 86.5192 295.723 74.4581 295.723C67.112 295.723 79.6501 295.579 82.0922 295.723C83.5701 295.81 85.3205 298.768 86.6726 296.402C88.5302 293.151 89.1541 289.271 90.4896 285.799C95.7252 272.186 99.9651 258.176 105.758 244.66C109.046 236.986 110.746 236.121 111.045 227.753C111.494 215.177 115.207 201.859 117.491 189.583C119.262 180.065 120.962 170.479 123.598 161.252C125.112 155.955 127.84 150.554 127.84 145.051C127.84 143.111 126.608 148.731 125.974 150.565C124.745 154.114 122.672 156.15 121.054 159.386C118.261 164.972 118.679 170.031 118.679 176.181C118.679 182.229 118.432 183.045 114.098 186.869C112.226 188.52 112.166 171.498 113.42 168.632C115.116 164.754 116.214 154.335 119.442 151.752C125.324 147.047 124.213 153.187 123.344 157.096C121.736 164.332 129.822 152.948 130.893 151.074C133.09 147.23 142.417 137.922 146.221 136.513C151.044 134.726 156.318 135.444 155.721 130.066C155.183 125.226 151.398 121.226 151.14 116.325C150.378 101.85 146.221 91.3866 146.221 76.646C146.221 72.0819 146.6 59.3187 154.621 52.9011C189.106 35.2353 189.678 98.2665 194.23 110.557C198.966 123.344 209.774 136.416 218.32 146.861C223.731 153.475 228.804 160.596 233.249 167.897C236.157 172.675 241.109 177.41 242.749 182.741C244.832 189.511 251.342 197.246 239.865 197.246C221.835 197.246 216.022 173.573 204.579 162.129C200.529 158.079 190.837 147.063 190.837 157.549C190.837 162.329 191.468 166.806 193.212 171.29C197.267 181.716 199.045 192.459 200.762 203.523C204.386 226.883 211.562 267.773 209.923 291.544C209.309 300.451 202.637 290.779 200.847 287.557C196.167 279.134 195.462 269.119 191.347 260.414C187.073 251.372 180.527 225.722 177.859 216.077C177.409 214.447 172.827 193.033 169.801 196.059C164.894 200.966 166.408 216.898 166.408 223.287C166.408 238.84 159.224 249.745 154.194 263.578C149.927 275.311 143.841 256.378 143.591 252.126C142.27 229.665 145.033 207.21 145.033 185.032C145.033 180.174 146.052 162.101 134.71 170.922C130.332 174.328 129.043 180.263 124.023 183.052C117.12 186.886 112.572 186.367 112.572 177.708" stroke="black" stroke-width="1.28352" stroke-linecap="round"/>
<path d="M162.394 84.1404C161.957 86.1844 161.519 92.2531 160.949 90.2422C160.093 87.2228 159.062 82.2298 159.103 79.1043C159.149 75.5858 159.829 81.3083 159.499 82.8523C159.198 84.2625 158.45 87.0229 159.668 87.9958" stroke="black" stroke-width="1.28352" stroke-linecap="round"/>
<path d="M169.75 88.6593C169.75 92.1613 169.75 81.6554 169.75 78.1534C169.75 72.5938 171.383 78.806 171.576 81.1158C171.752 83.2382 171.61 85.4274 171.61 87.5571C171.61 89.7851 170.37 90.8182 170.37 88.0393" stroke="black" stroke-width="1.28352" stroke-linecap="round"/>
<path d="M162.93 110.98C166.236 110.98 169.543 110.98 172.85 110.98C173.545 110.98 178.121 109.431 177.431 109.155C175.859 108.526 174.266 110.046 172.85 110.36C170.23 110.942 168.127 111.6 165.41 111.6" stroke="black" stroke-width="1.28352" stroke-linecap="round"/>
<path d="M41.9506 215.854C41.4774 207.337 36.8496 199.958 35.7754 191.634C33.0764 170.716 29.3055 148.186 32.825 127.069C34.7483 115.529 41.926 104.244 47.5769 94.2714C53.9994 82.9377 60.7845 71.5214 69.1215 61.4743C78.9498 49.6299 93.2992 41.0078 107.133 34.5779C109.637 33.4144 112.027 31.8334 114.818 31.8334" stroke="black" stroke-width="1.28352" stroke-linecap="round"/>
<path d="M107.102 297.367C127.839 297.367 146.826 308.206 167.344 310.678C192.17 313.669 221.3 317.801 245.426 309.443C307.9 287.798 323.233 221.124 323.233 162.061C323.233 147.866 321.178 136.414 312.53 124.942C301.596 110.438 291.402 95.4295 280.419 80.9605C273.645 72.037 266.369 66.4038 256.541 61.7487C248.518 57.9481 240.968 53.07 233.076 49.1239" stroke="black" stroke-width="1.28352" stroke-linecap="round"/>
<path d="M224.433 41.7136C248.266 41.7136 264.081 54.9465 281.245 70.394C292.02 80.0909 300.41 90.5951 309.034 102.093C315.824 111.146 318.806 119.983 323.237 130.362C333.82 155.157 338.042 191.199 329.412 217.089C323.201 235.723 312.27 250.896 298.261 264.295C289.973 272.223 279.694 277.859 270.747 285.016C263.066 291.161 254.711 301.274 245.429 304.777C225.475 312.307 208.345 320.832 186.422 320.832C178.113 320.832 169.675 321.252 161.378 320.764C151.003 320.153 140.427 316.172 130.571 313.148C125.374 311.553 108.34 306.053 108.34 298.602" stroke="black" stroke-width="1.28352" stroke-linecap="round"/>
<path d="M34.538 233.145C30.5141 222.93 23.3346 214.162 20.4036 203.504C16.9742 191.033 16.4969 177.011 16.081 164.12C15.4736 145.29 18.1315 130.409 29.1861 114.718C43.1635 94.8793 57.1282 78.7631 77.7643 65.8655C86.2536 60.5597 95.6596 56.2592 104.523 51.594C108.886 49.2982 114.644 46.6538 119.756 46.6538" stroke="black" stroke-width="1.28352" stroke-linecap="round"/>
<path d="M66.4551 237.305L65.0388 241.342L71.7907 247.162L72.7573 244.406L71.4045 243.317L72.6314 239.819C73.3334 239.802 73.9142 239.796 74.3728 239.801L75.3699 236.958L66.4551 237.305ZM69.9413 242.104C68.7944 241.14 67.9386 240.42 67.3742 239.932L68.1688 239.916C69.0249 239.886 69.8817 239.866 70.7321 239.853L69.9423 242.104L69.9413 242.104Z" fill="black"/>
<path d="M72.4987 230.837L74.246 231.45L74.9968 229.31C75.1515 229.605 75.2257 229.92 75.2051 230.265C75.1906 230.608 75.1245 230.945 75.0101 231.271C74.7427 232.034 74.3689 232.536 73.8888 232.782C73.407 233.032 72.878 233.052 72.301 232.849C71.7705 232.663 71.3815 232.336 71.1395 231.863C70.8971 231.394 70.9014 230.807 71.1478 230.104C71.2968 229.68 71.508 229.303 71.782 228.972C72.0565 228.64 72.3836 228.38 72.7614 228.192L72.7091 227.866C72.5495 226.735 72.4434 225.976 72.3914 225.588C71.5824 225.87 70.904 226.319 70.3463 226.935C69.7937 227.549 69.3494 228.328 69.0178 229.274C68.4384 230.925 68.3854 232.276 68.8565 233.319C69.3314 234.363 70.2114 235.114 71.4986 235.566C72.3019 235.848 73.0653 235.933 73.7805 235.818C74.4995 235.704 75.1219 235.415 75.6467 234.956C76.1728 234.494 76.5623 233.895 76.8212 233.157C77.1067 232.344 77.1841 231.599 77.0502 230.919C76.9163 230.238 76.546 229.672 75.9415 229.21L77.9341 229.65L78.6108 227.721L74.1417 226.153L72.4984 230.838L72.4987 230.837Z" fill="black"/>
<path d="M77.8529 223.561L76.7292 223.167C76.8455 222.811 77.0281 222.29 77.269 221.603C77.677 220.44 78.1182 219.243 78.5977 218.016L76.7449 217.366C76.3519 218.624 75.9496 219.834 75.5417 220.997C75.3007 221.684 75.1146 222.203 74.9866 222.555L73.9485 222.191L76.032 216.251L74.0812 215.567L71.0898 224.095C72.5074 224.525 73.8203 224.955 75.0334 225.381C76.2464 225.806 77.5438 226.293 78.9196 226.842L81.911 218.314C81.4347 218.147 81.0425 218.005 80.7347 217.884C80.4256 217.766 80.1326 217.628 79.854 217.473C79.4817 218.747 78.8134 220.777 77.8539 223.561L77.8529 223.561Z" fill="black"/>
<path d="M77.6668 205.38L76.724 208.068L82.8358 210.002L75.8538 210.548L74.4375 214.586C75.8513 215.015 77.1632 215.444 78.3687 215.867C79.5741 216.29 80.879 216.779 82.2549 217.328L83.2435 214.51L77.2887 212.639L84.1069 212.048L85.4842 208.122C84.2493 207.746 82.9375 207.313 81.5409 206.824C80.1444 206.334 78.8619 205.857 77.6668 205.38Z" fill="black"/>
<path d="M85.6695 200.054C85.7391 200.479 85.6708 200.999 85.4577 201.607C85.1902 202.369 84.8089 202.869 84.3174 203.111C83.8246 203.353 83.293 203.371 82.716 203.168C82.1855 202.982 81.7968 202.654 81.5532 202.186C81.3121 201.713 81.3164 201.126 81.5628 200.423C81.7284 199.951 81.9909 199.516 82.3419 199.128C82.6969 198.739 83.1145 198.511 83.5916 198.438C83.4572 197.397 83.3918 196.509 83.4005 195.772C81.5662 196.006 80.2423 197.282 79.4318 199.592C78.8525 201.244 78.7994 202.594 79.2705 203.638C79.7454 204.682 80.6255 205.433 81.9127 205.885C83.1999 206.336 84.3131 206.285 85.2778 205.745C86.2423 205.205 87.0131 204.106 87.5924 202.455C87.9461 201.447 88.1015 200.452 88.059 199.475C88.0114 198.5 87.6174 197.675 86.8758 197.004C86.1537 197.803 85.5294 198.444 85.0033 198.933C85.3724 199.254 85.597 199.627 85.6701 200.055L85.6695 200.054Z" fill="black"/>
<path d="M83.9697 187.371C84.2667 187.672 84.7756 188.233 85.4883 189.05C86.0971 189.749 86.6209 190.316 87.057 190.76C86.6335 190.816 85.8938 190.94 84.8422 191.129C83.8059 191.323 83.0294 191.452 82.514 191.521L81.4375 194.59C81.9722 194.465 82.7139 194.275 83.6632 194.015C84.8966 193.695 85.8635 193.45 86.5609 193.285C87.2624 193.12 87.928 192.997 88.5608 192.916L90.5696 193.62L91.5752 190.754L89.7499 190.113C89.1127 189.47 88.4324 188.71 87.7121 187.83C86.996 186.949 86.174 185.908 85.2542 184.707L85.016 184.388L83.9687 187.374L83.9697 187.371Z" fill="black"/>
<path d="M59.2509 269.031C58.6533 269.612 58.0836 270.679 57.5392 272.231C57.3183 272.861 57.0989 273.325 56.8757 273.62C56.6553 273.917 56.4578 274.036 56.2848 273.975C56.1117 273.914 56.0243 273.747 56.0185 273.474C56.0127 273.201 56.1329 272.716 56.3769 272.02C56.5796 271.442 56.9116 270.809 57.3757 270.125C57.8385 269.439 58.2803 268.962 58.707 268.692C58.6453 268.636 58.5504 268.563 58.4221 268.469C57.8211 267.994 57.3205 267.568 56.9189 267.188C56.3617 267.717 55.8473 268.349 55.3743 269.083C54.904 269.821 54.5341 270.568 54.267 271.33C53.8071 272.641 53.6641 273.788 53.8361 274.771C54.0091 275.751 54.582 276.413 55.5526 276.753C56.2381 276.993 56.8496 276.83 57.391 276.263C57.9343 275.698 58.4678 274.667 58.9918 273.173C59.47 271.81 59.9285 271.205 60.3668 271.359C60.4904 271.403 60.5575 271.567 60.5758 271.853C60.5922 272.138 60.4951 272.585 60.2819 273.193C60.0688 273.801 59.7646 274.397 59.3585 275.028C58.9508 275.658 58.5092 276.183 58.032 276.597C58.3947 276.899 58.707 277.187 58.9643 277.461C59.2238 277.738 59.4934 278.065 59.7718 278.443C60.3465 277.888 60.8696 277.218 61.3404 276.439C61.8119 275.658 62.1911 274.86 62.4756 274.049C63.0074 272.533 63.183 271.323 63.0029 270.421C62.8219 269.519 62.2282 268.892 61.2204 268.539C60.5017 268.287 59.8446 268.45 59.249 269.031L59.2509 269.031Z" fill="black"/>
<path d="M67.4794 250.808C67.5505 249.985 67.4241 249.344 67.1005 248.878C66.7788 248.416 66.3049 248.075 65.6784 247.856C64.8798 247.575 64.1419 247.646 63.4689 248.067C62.7977 248.489 62.2001 249.441 61.6812 250.92L60.8914 253.172L60.8819 253.169L59.9727 255.761C61.3886 256.192 62.7054 256.62 63.9213 257.047C65.1372 257.473 66.4329 257.961 67.8081 258.509L68.7173 255.917L66.2133 255.039L66.7794 253.425C68.1024 253.108 69.1169 252.891 69.8197 252.774L70.8674 249.788L67.8152 250.715C67.738 250.728 67.626 250.759 67.4794 250.808ZM65.1942 250.685C65.2372 250.839 65.2229 251.084 65.1515 251.415C65.0785 251.748 64.9335 252.225 64.7149 252.848L64.195 254.331L62.9658 253.9L63.4857 252.417C63.7066 251.787 63.8917 251.318 64.0402 251.007C64.1907 250.697 64.3282 250.499 64.4561 250.412C64.583 250.327 64.7267 250.31 64.8836 250.365C65.0499 250.423 65.1537 250.529 65.1961 250.685L65.1942 250.685Z" fill="black"/>
<path d="M59.652 256.636L63.9481 258.143C65.0017 258.53 65.7467 259.203 66.1847 260.167C66.6227 261.132 66.5415 262.468 65.9431 264.174C65.3448 265.879 64.593 266.97 63.7114 267.376C62.8299 267.783 61.8559 267.79 60.7873 267.4L56.4142 265.866L57.6381 262.377C57.9142 262.713 59.1914 264.332 59.1914 264.332L59.2567 263.801L59.4617 262.161L61.5716 264.613L61.7075 262.54L63.3768 264.231L64.0229 264.884L63.5183 263.998L61.4187 260.317L60.9829 259.553L60.8293 261.653L58.8425 258.944L59.652 256.636Z" fill="black"/>
<defs>
<filter id="filter0_f_1535_344" x="0.595955" y="0.597786" width="348.476" height="349.117" filterUnits="userSpaceOnUse" color-interpolation-filters="sRGB">
<feFlood flood-opacity="0" result="BackgroundImageFix"/>
<feBlend mode="normal" in="SourceGraphic" in2="BackgroundImageFix" result="shape"/>
<feGaussianBlur stdDeviation="51.3407" result="effect1_foregroundBlur_1535_344"/>
</filter>
</defs>
</svg>
