<svg width="130" height="75" viewBox="0 0 130 75" fill="none" xmlns="http://www.w3.org/2000/svg">
<path d="M44.0185 30.2701C47.2067 30.2701 51.6504 33.2612 54.6725 34.4202C62.7629 37.5227 71.2872 37.5656 79.6584 39.1082C86.1583 40.306 92.8384 39.9536 99.45 39.9536C103.469 39.9536 108.656 39.8615 112.265 38.0323C115.699 36.292 122.502 37.0986 122.502 31.9993C122.502 25.6384 119.071 21.3094 112.948 18.8959C105.48 15.9524 97.9875 11.5948 89.7059 11.5948C76.282 11.5948 56.3745 8.14098 46.0659 19.2033C42.8047 22.7029 44.7009 27.1812 44.7009 30.9618C44.7009 33.8626 41.5982 39.9536 45.3834 39.9536C49.9012 39.9536 53.7488 41.964 57.6678 43.95C62.7368 46.5186 68.6906 46.9633 73.7437 49.2912C78.9329 51.6818 86.146 51.0204 91.7533 51.0204C96.7189 51.0204 102.182 51.6477 107.109 50.982C110.197 50.5647 113.251 49.8121 116.36 49.6371C118.202 49.5333 119.202 47.9743 120.758 47.5236C122.122 47.1286 123.185 36.5797 123.185 35.1119" stroke="#876DFF" stroke-linecap="round"/>
<path d="M78.3146 33.7283C78.3146 26.944 73.45 24.2579 70.125 19.2031" stroke="#876DFF" stroke-linecap="round"/>
<path d="M69.4408 19.203C74.4466 19.203 78.4856 17.1279 83.4693 17.1279C88.981 17.1279 92.5964 17.9873 97.422 20.4326C99.9051 21.6909 100.907 23.4319 98.4078 25.0438C95.8255 26.7092 86.4148 26.0704 83.4314 24.3905C79.7469 22.316 70.4639 24.1602 66.7109 25.4281" stroke="#876DFF" stroke-linecap="round"/>
<path d="M68.7578 29.5786C78.1145 29.5786 86.9504 30.2703 96.0565 30.2703" stroke="#876DFF" stroke-linecap="round"/>
<path d="M52.9691 43.0722C50.9421 43.0722 48.8831 42.7547 47.1024 43.8911C45.5257 44.8972 43.9463 45.8379 43.0975 47.5583C42.3815 49.0097 42.5355 50.5309 42.5355 52.1156C42.5355 53.4216 42.1102 55.6526 42.8516 56.7798C44.1674 58.78 46.6697 60.7114 48.8589 61.5863C53.326 63.3718 58.3695 64.6491 63.0866 65.5028C74.1342 67.5022 86.5277 69.1148 97.3911 65.2002C104.858 62.5096 112.785 60.9413 119.98 57.5097C122.629 56.2461 127.057 53.6446 127.568 50.282C127.916 47.9871 128.628 46.3717 126.795 44.5141C126.157 43.8675 125.644 42.553 124.88 42.1109C124.08 41.6473 123.296 41.2188 122.527 40.8291" stroke="#876DFF" stroke-linecap="round"/>
<path d="M41.9023 58.1327C41.9023 60.5659 42.754 63.2792 43.7291 65.5028C44.1616 66.4889 44.1464 66.919 45.2046 67.4254C48.015 68.7705 51.2766 69.5988 54.2154 70.6298C57.7286 71.8623 61.2753 73.1163 65.0004 73.5137C68.9939 73.9398 72.9834 73.8342 76.9973 73.8342C81.0915 73.8342 84.8947 73.3626 88.9415 72.9441C93.122 72.5117 97.1341 71.2536 101.325 70.9502C109.58 70.3526 118.472 66.449 125.301 61.6576C126.629 60.726 128.293 59.5195 127.883 57.6521C127.632 56.5082 126.916 52.5064 126.004 52.0444" stroke="#876DFF" stroke-linecap="round"/>
<path d="M78.2637 63.2603C75.2663 62.9565 72.7446 59.4887 70.4297 57.8128C68.2528 56.2369 66.0595 54.6972 63.8779 53.1665C62.9516 52.5166 62.2089 51.9162 61.6647 50.9234C61.3342 50.3205 61.6661 49.6466 61.4891 49.0186C61.0951 47.6211 61.0577 46.918 62.7713 46.918" stroke="#876DFF" stroke-linecap="round"/>
<path d="M59.9219 57.4921C60.0162 56.7272 66.9543 57.1717 67.8437 57.1717C71.249 57.1717 74.5918 56.538 77.9436 55.9611C79.9864 55.6096 82.2082 55.1439 84.1089 54.2877C84.9146 53.9248 87.4018 53.3811 87.7449 52.6855" stroke="#876DFF" stroke-linecap="round"/>
<path d="M68.7773 61.0169C70.6155 61.0169 72.5365 61.1878 74.3455 60.8211C77.7013 60.1409 80.8955 58.6194 84.1643 57.6345C88.1472 56.4344 92.6699 53.9673 96.9166 53.9673" stroke="#876DFF" stroke-linecap="round"/>
<path d="M6.69531 49.1953H32.0387" stroke="#876DFF" stroke-linecap="round"/>
<path d="M19.3649 32.5464C12.4752 32.5464 6.10297 27.28 2 22.082" stroke="#876DFF" stroke-linecap="round"/>
<path d="M31.099 20.18C27.3381 20.18 23.6646 17.8091 20.6696 15.7934C14.4662 11.6183 9.13153 6.88377 4.34766 1.15381" stroke="#876DFF" stroke-linecap="round"/>
</svg>
