<svg width="287" height="376" viewBox="0 0 287 376" fill="none" xmlns="http://www.w3.org/2000/svg">
<path d="M1 72.5815C3.4577 72.5815 5.16034 70.6666 7.11778 69.3616C9.87173 67.5257 12.7877 66.5204 15.7757 65.1758C20.5409 63.0315 24.8175 62.9219 29.979 62.9219C39.4157 62.9219 45.7445 68.3946 53.9492 71.9376C61.1278 75.0374 66.9273 79.4722 72.8035 84.1731C75.274 86.1495 76.1308 86.1051 79.5652 86.1051C81.0831 86.1051 85.5909 86.749 84.0731 86.749" stroke="#876DFF" stroke-width="0.775424" stroke-linecap="round"/>
<path d="M73.1273 82.8858C73.1273 73.2855 75.0592 64.2324 75.0592 54.5508C75.0592 47.9629 72.612 41.6422 70.2294 35.5535C68.878 32.0998 67.4615 28.5216 65.3996 25.4287C64.4183 23.9568 62.929 22.5627 62.1797 21.064" stroke="#876DFF" stroke-width="0.775424" stroke-linecap="round"/>
<path d="M62.1752 21.0643C62.1752 22.9797 59.0096 24.8739 57.6674 26.2161C55.7656 28.1179 53.1333 27.504 50.5837 27.504C47.7153 27.504 45.8734 25.2984 43.3568 24.4273C40.6066 23.4753 37.0461 21.6766 35.7722 18.8104C34.3158 15.5334 29.5771 8.19188 34.4842 5.46571C36.9635 4.08834 37.7875 2.38893 40.924 2.38893C45.5472 2.38893 50.06 1.10098 54.7695 1.10098C57.5229 1.10098 60.618 0.623545 63.1412 1.74496C66.7986 3.37045 69.652 5.93049 73.0871 7.86274C77.1043 10.1224 80.8392 14.6859 83.7843 18.1664C86.6922 21.603 88.8261 25.7375 89.7232 30.2231C92.3072 43.143 97.6162 55.7344 101.172 68.4324C104.26 79.463 110.615 90.1826 116.913 99.6295" stroke="#876DFF" stroke-width="0.775424" stroke-linecap="round"/>
<path d="M23.0703 105.356C29.3404 105.356 34.5543 110.829 40.3555 114.921C46.3723 119.165 51.2984 121.936 57.7129 121.936C66.137 121.936 73.7911 116.834 82.3027 116.834C91.4057 116.834 99.9814 120.66 108.99 120.66C114.188 120.66 124.337 107.838 116.801 98.9785" stroke="#876DFF" stroke-width="0.775424" stroke-linecap="round"/>
<path d="M35.3125 17.2937C35.3125 13.7522 36.451 13.0847 37.8884 10.21" stroke="#876DFF" stroke-width="0.775424" stroke-linecap="round"/>
<path d="M39.9062 23.817C39.9062 19.8519 40.3349 18.0222 42.4822 14.8013" stroke="#876DFF" stroke-width="0.775424" stroke-linecap="round"/>
<path d="M47.6817 26.3929C47.6817 22.5871 47.1301 18.3882 48.3257 14.8013" stroke="#876DFF" stroke-width="0.775424" stroke-linecap="round"/>
<path d="M33.3573 15.4502C31.4874 15.4502 30.4397 15.5115 29.0729 16.8783C28.3063 17.6449 28.4937 19.7534 29.2027 20.3837C29.8466 20.9561 30.9963 21.0033 31.7993 21.2204C33.702 21.7346 35.6778 22.4113 37.5118 23.1245C39.3809 23.8514 41.2942 24.3154 43.2243 24.7979" stroke="#876DFF" stroke-width="0.775424" stroke-linecap="round"/>
<path d="M209.301 123.428C208.684 123.527 210.688 124.937 210.835 125.059C212.661 126.587 214.152 128.274 215.815 129.949C217.167 131.311 218.851 132.279 220.212 133.651C224.415 137.886 232.097 141.518 237.908 141.448C244.968 141.362 255.305 140.283 255.193 131.077" stroke="#876DFF" stroke-width="0.775424" stroke-linecap="round"/>
<path d="M255.18 130.026C253.304 130.049 251.53 129.679 249.635 129.702C247.736 129.725 248.073 130.573 247.066 131.887C245.095 134.457 241.772 135.279 238.707 135.317C226.929 135.46 217.116 126.552 209.126 118.839" stroke="#876DFF" stroke-width="0.775424" stroke-linecap="round"/>
<path d="M236.875 134.984C236.827 131.034 239.492 127.955 242.31 125.643C244.141 124.141 245.499 122.963 247.817 122.251C250.678 121.372 253.616 121.308 256.607 121.357C258.479 121.388 260.608 122.642 262.37 123.256C264.58 124.026 266.846 125.151 268.828 126.415C272.782 128.936 275.898 132.564 279.168 135.849C280.73 137.418 280.64 139.137 281.76 140.98C282.733 142.58 284.278 146.128 286 146.988" stroke="#876DFF" stroke-width="0.775424" stroke-linecap="round"/>
<path d="M281.41 147.045C281.126 145.709 278.705 144.806 277.759 143.883C276.639 142.791 275.041 141.876 274.106 140.631C272.847 138.954 270.515 136.999 268.522 136.289C266.37 135.523 264.427 133.585 262.365 132.534C260.817 131.744 258.485 130.487 256.72 130.509" stroke="#876DFF" stroke-width="0.775424" stroke-linecap="round"/>
<path d="M238.501 143.012C238.497 142.697 239.399 144.252 239.634 144.611C240.607 146.1 241.598 147.502 242.471 149.054C243.889 151.575 246.403 153.735 248.305 155.858C250.465 158.269 253.173 159.621 255.873 161.22C258.254 162.628 260.659 164.769 263.266 165.628" stroke="#876DFF" stroke-width="0.775424" stroke-linecap="round"/>
<path d="M267.82 162.515C267.039 162.427 265.469 160.579 264.887 160.056C262.993 158.359 261.227 156.591 259.295 154.944C257.062 153.041 255.321 150.714 253.241 148.687C251.73 147.215 250.15 145.738 249.062 143.942C248.21 142.534 246.567 139.287 248.754 143.178" stroke="#876DFF" stroke-width="0.775424" stroke-linecap="round"/>
<path d="M256.605 121.324C256.557 117.309 254.342 114.118 251.67 111.053C248.8 107.76 245.755 104.6 242.59 101.597" stroke="#876DFF" stroke-width="0.775424" stroke-linecap="round"/>
<path d="M250.484 121.398C250.441 117.859 248.043 115.834 246.386 112.864C245.289 110.897 243.769 108.827 242.124 107.259C240.957 106.146 239.539 105.436 238.514 104.181C237.511 102.952 238.097 102.821 239.696 102.802C241.007 102.786 243.203 102.63 241.057 101.615" stroke="#876DFF" stroke-width="0.775424" stroke-linecap="round"/>
<path d="M210.218 118.827C210.235 120.236 210.69 121.694 210.706 122.972C210.725 124.549 207.896 121.446 207.622 121.165" stroke="#876DFF" stroke-width="0.775424" stroke-linecap="round"/>
<path d="M233.319 94.2125C233.332 95.285 231.825 95.0797 231.281 94.409C230.384 93.3046 230.775 95.3637 230.275 95.6236" stroke="#876DFF" stroke-width="0.775424" stroke-linecap="round"/>
<path d="M230.273 95.6221C228.177 95.6475 225.057 92.865 223.523 91.4409C221.833 89.8711 218.423 88.3898 216.204 87.8153C213.608 87.1436 211.693 85.5908 208.79 85.626C207.292 85.6442 203.442 84.4429 202.607 86.081" stroke="#876DFF" stroke-width="0.775424" stroke-linecap="round"/>
<path d="M233.297 92.5254C230.94 90.4176 228.119 88.6765 225.342 87.2649C223.781 86.4717 222.502 85.2814 220.986 84.4479C220.03 83.9223 218.971 83.4875 218.147 82.7605C214.523 79.5588 208.762 77.5174 203.889 77.5766C199.343 77.6318 194.708 78.7177 191.542 82.0207C190.656 82.9456 188.938 85.2698 188.884 86.5598C188.802 88.4894 188.93 90.3422 188.953 92.2987" stroke="#876DFF" stroke-width="0.775424" stroke-linecap="round"/>
<path d="M203.79 86.3707C203.832 89.8473 205.557 93.5856 201.581 95.5982C197.606 97.6108 193.76 99.0275 189.249 99.0823C186.581 99.1147 183.578 99.5747 181.037 98.7177C177.947 97.6758 175.253 95.8027 172.854 93.6681C170.959 91.981 168.926 90.3874 167.079 88.7158C166.219 87.937 164.351 86.9573 164.336 85.7104" stroke="#876DFF" stroke-width="0.775424" stroke-linecap="round"/>
<path d="M202.59 84.6394C201.384 84.654 199.509 84.3393 198.585 85.0421C197.682 85.7284 197.261 86.8346 196.323 87.5479C195.295 88.3302 193.94 89.6146 193.114 90.5964C192.29 91.5746 189.556 91.5247 188.351 91.5394C185.952 91.5685 185.179 90.9804 183.094 90.2657C181.889 89.8524 180.913 89.0859 179.804 88.4567C178.632 87.7915 177.355 87.62 176.261 86.7295C174.238 85.0835 170.98 83.9703 168.656 82.5732C167.602 81.9396 166.412 81.277 165.49 80.4873C164.903 79.9845 163.999 78.9416 164.34 80.1472" stroke="#876DFF" stroke-width="0.775424" stroke-linecap="round"/>
<path d="M188.995 99.5829C189.012 101.026 190.117 103.698 190.938 104.912C192.054 106.561 193.241 109.272 195.081 110.258C196.298 110.91 197.451 112.214 198.642 112.914C198.87 113.048 200.196 114.556 200.286 114.331C200.491 113.819 199.897 112.686 200.7 112.579C201.39 112.487 200.957 111.78 201.927 111.768C202.495 111.761 203.474 112.27 202.523 111.761C201.046 110.969 199.778 109.25 198.766 108.024C196.835 105.686 194.388 102.238 194.35 99.1197" stroke="#876DFF" stroke-width="0.775424" stroke-linecap="round"/>
<path d="M200.957 76.0815C197.543 72.2857 194.145 68.6421 190.458 65.1122C187.625 62.3983 183.161 58.925 179.309 57.9772" stroke="#876DFF" stroke-width="0.775424" stroke-linecap="round"/>
<path d="M194.871 79.2183C188.747 72.7157 181.85 67.6291 174.772 62.6258" stroke="#876DFF" stroke-width="0.775424" stroke-linecap="round"/>
<path d="M25.3052 279.857C23.0564 276.416 19.5649 273.931 15.4297 274.41C16.0073 279.4 17.6879 288.153 24.752 287.335C27.8667 286.975 26.4056 281.541 25.3052 279.857Z" stroke="#876DFF" stroke-width="0.775424" stroke-linecap="round"/>
<path d="M16.004 274.147C19.1838 273.416 23.0125 270.211 25.8999 268.699C28.9049 267.126 34.4337 263.498 36.7296 261.038C39.0328 258.571 43.8903 257.388 46.8062 255.57C49.7167 253.755 53.5632 252.718 56.1117 250.557" stroke="#876DFF" stroke-width="0.775424" stroke-linecap="round"/>
<path d="M27.3835 286.592C33.2414 285.914 38.0998 280.948 42.8474 277.845C47.6508 274.706 52.7917 271.992 57.2131 268.31C60.3494 265.699 71.3571 260.907 67.3031 261.376" stroke="#876DFF" stroke-width="0.775424" stroke-linecap="round"/>
<path d="M51.1406 250.31C58.5348 249.454 66.7485 257.043 67.5609 264.062" stroke="#876DFF" stroke-width="0.775424" stroke-linecap="round"/>
<path d="M50.326 250.403C54.8267 249.882 58.4701 246.102 61.8611 243.302C66.5996 239.388 71.5004 234.806 76.8098 231.686C80.6613 229.422 85.4192 223.275 89.9632 222.749" stroke="#876DFF" stroke-width="0.775424" stroke-linecap="round"/>
<path d="M68.0899 261.528C78.4336 260.331 87.6663 250.16 96.256 245.087C98.5367 243.74 99.1099 241.621 101.049 240.23C103.301 238.614 104.943 238.055 102.63 235.699C99.7584 232.775 98.1564 229.818 94.5925 227.156C92.9693 225.943 91.3857 224.695 89.651 223.609C88.2792 222.75 85.5507 222.687 84.8976 221.687" stroke="#876DFF" stroke-width="0.775424" stroke-linecap="round"/>
<path d="M83.9876 220.972C87.2473 220.223 89.0294 216.768 91.5313 214.973C95.2717 212.29 98.3059 208.548 102.013 205.888C105.19 203.609 108.668 201.332 111.429 198.665C114.613 195.59 120.836 192.473 123.107 188.847C125.194 185.514 133.845 192.363 136.458 193.48C140.772 195.324 143.447 202.909 145.736 206.411" stroke="#876DFF" stroke-width="0.775424" stroke-linecap="round"/>
<path d="M105.136 239.945C110.84 239.284 115.988 233.56 120.294 230.135C124.088 227.118 128.854 224.26 131.908 220.553C134.716 217.143 142.237 209.288 146.836 208.756" stroke="#876DFF" stroke-width="0.775424" stroke-linecap="round"/>
<path d="M18.9402 279.299C19.0695 280.417 19.6567 281.256 20.3297 282.062C20.8275 282.659 21.9735 283.94 22.8179 283.843C23.2066 283.798 23.0814 283.039 23.0476 282.746C22.9792 282.155 22.7717 282.043 22.4556 281.602C21.7545 280.625 20.5433 278.543 19.1565 278.704" stroke="#876DFF" stroke-width="0.775424" stroke-linecap="round"/>
<path d="M192.788 303.349C182.727 303.349 176.692 318.043 176.555 326.387C176.431 333.953 176.555 341.53 176.555 349.097C176.555 357.249 186.795 361.963 192.952 365.331C200.07 369.223 209.728 373.197 217.712 374.759C220.925 375.388 227.376 375.721 230.584 374.759C238.136 372.493 246.47 370.271 252.392 364.757C257.831 359.693 263.055 354.672 268.011 349.097C279.31 336.386 273.807 315.329 261.78 305.153C254.243 298.775 248.443 292.281 237.758 292.281C230.897 292.281 224.069 291.543 217.138 291.543" stroke="#876DFF" stroke-width="0.775424" stroke-linecap="round"/>
<path d="M184.672 295.971C188.419 296.387 192.816 303.077 194.428 306.301C196.088 309.62 196.032 313.082 199.798 312.245C205.159 311.054 210.405 311.579 215.663 309.089C217.577 308.182 218.879 306.827 220.459 305.563C222.595 303.855 217.543 300.484 216.81 299.332C214.891 296.317 212.788 291.706 212.014 288.223C211.223 284.663 211.35 280.782 207.382 283.427C200.502 288.014 193.967 291.151 186.148 293.757" stroke="#876DFF" stroke-width="0.775424" stroke-linecap="round"/>
<path d="M186.145 293.757C186.145 291.485 186.097 289.067 188.03 287.486C189.696 286.123 192.516 283.122 194.671 282.73C198.151 282.098 205.963 279.914 209.019 281.951" stroke="#876DFF" stroke-width="0.775424" stroke-linecap="round"/>
<path d="M195.736 286.378C195.253 281.545 188.029 279.327 185.078 276.376C183.222 274.52 179.307 268.669 184.299 268.669C185.547 268.669 188.688 275.104 190.571 276.212C193.189 277.752 198.051 282.153 199.426 284.903" stroke="#876DFF" stroke-width="0.775424" stroke-linecap="round"/>
<path d="M199.424 284.904C198.276 286.051 197.056 286.457 195.734 287.117" stroke="#876DFF" stroke-width="0.775424" stroke-linecap="round"/>
<path d="M183.932 277.525C183.649 280.07 180.27 283.345 178.603 285.068C174.479 289.329 170.698 293.874 167.125 298.595C161.97 305.407 168.025 288.642 169.01 286.707C170.52 283.744 174.34 276.609 167.699 281.542C165.332 283.301 150.025 296.314 153.515 285.068C155.673 278.115 160.784 274.726 166.797 271.458C167.248 271.213 173.017 269.284 171.962 268.097C171.574 267.66 169.813 267.908 169.338 267.81C166.626 267.248 163.671 265.586 162.288 263.095C161.483 261.648 161.078 251.913 164.747 255.389C165.311 255.923 172.767 262.185 173.561 259.406C174.126 257.426 173.746 254.536 175.446 253.175C178.059 251.085 177.982 256.356 179.874 258.668C182.535 261.921 185.124 261.948 188.359 259.406C192.948 255.801 199.07 252.179 205.289 253.216C206.637 253.441 196.766 264.691 195.082 266.375C193.968 267.489 190.411 270.547 191.762 269.736C195.709 267.368 202.619 264.774 207.134 266.826C207.484 266.985 210.629 267.717 210.045 268.302C208.501 269.845 205.458 270.596 203.486 271.253C201.222 272.008 191.652 274.915 189.835 273.098" stroke="#876DFF" stroke-width="0.775424" stroke-linecap="round"/>
</svg>
