<svg width="77" height="102" viewBox="0 0 77 102" fill="none" xmlns="http://www.w3.org/2000/svg">
<path d="M61.922 0L64.5482 14.548C49.7801 17.1579 39.2321 19.3391 31.7063 21.1073C32.9151 21.2343 34.0758 21.3561 35.167 21.4673C43.6396 22.3461 52.3957 23.2513 59.3973 24.6596C63.5801 25.5013 66.8001 26.4595 69.2499 27.5925C75.0374 30.2659 76.626 34.0829 76.9362 36.8147C77.4925 41.7169 74.3046 45.3804 71.5339 47.588C69.3783 49.3032 66.431 51.0503 62.5157 52.9191C59.4989 54.359 56.0703 55.799 52.5133 57.202C52.5936 57.2072 52.6791 57.2073 52.7594 57.2126C56.8031 57.3978 67.5436 57.8902 70.8492 65.8947C71.8655 68.3565 72.4592 72.3746 69.4959 77.5628C68.041 80.1092 65.8266 82.825 62.7189 85.8585C58.0173 90.4537 51.3419 95.7372 42.3131 102L33.7389 89.8979C47.1698 80.5751 52.7968 75.1011 55.145 72.2317C53.8345 72.0623 51.9945 71.9246 49.4645 71.9087C44.5649 71.8823 38.7507 72.3217 33.6319 72.7081C29.2565 73.0364 25.1219 73.3487 21.9232 73.3487C21.9072 73.3487 21.8965 73.3487 21.8804 73.3487C19.7623 73.3487 18.1416 73.2111 16.7776 72.9199C11.386 71.7605 9.95784 67.9965 9.59947 66.4294C9.20901 64.7301 8.85598 60.4048 14.0444 56.8631C15.403 55.9367 17.1841 54.9944 19.6446 53.9038C23.6295 52.1409 28.9944 50.1768 34.6749 48.0909C41.0293 45.7615 47.6031 43.3528 53.1177 40.9334C54.5459 40.3087 55.7708 39.7369 56.8138 39.2234C55.7708 39.0064 54.5673 38.784 53.1873 38.5564C47.3838 37.5929 40.3875 36.8729 33.6212 36.1688C26.4644 35.4276 19.7035 34.7288 14.4562 33.7706C11.2362 33.1829 8.86668 32.5583 6.98923 31.7959C4.5448 30.8059 0.394088 28.4025 0.0250171 23.4578C-0.167542 20.8743 0.661529 17.1632 5.68945 14.1403C7.96806 12.7692 11.1239 11.4827 15.6169 10.0851C25.1432 7.12046 40.2912 3.82229 61.922 0Z" fill="#8469FF"/>
</svg>
