<svg width="111" height="110" viewBox="0 0 111 110" fill="none" xmlns="http://www.w3.org/2000/svg">
<path d="M0.895609 110L8.3316 82.6759C3.43187 74.2766 0.857637 64.7239 0.873609 55C0.873609 24.6235 25.4971 0 55.8736 0C86.25 0 110.874 24.6235 110.874 55C110.874 85.3764 86.25 110 55.8736 110C46.1539 110.016 36.6052 107.443 28.2086 102.547L0.895609 110ZM36.0241 29.194C35.3138 29.2381 34.6198 29.4252 33.9836 29.744C33.387 30.0818 32.8423 30.5042 32.3666 30.998C31.7066 31.6195 31.3326 32.1585 30.9311 32.681C28.8984 35.3265 27.8049 38.5738 27.8236 41.91C27.8346 44.605 28.5386 47.2285 29.6386 49.6815C31.8881 54.6425 35.5896 59.895 40.4791 64.7625C41.6561 65.934 42.8056 67.111 44.0431 68.2055C50.1117 73.5485 57.3435 77.4017 65.1631 79.4585L68.2926 79.937C69.3101 79.992 70.3276 79.9149 71.3506 79.8654C72.9524 79.7828 74.5164 79.349 75.9321 78.5949C76.6523 78.224 77.3552 77.8202 78.0386 77.3849C78.0386 77.3849 78.2751 77.2309 78.7261 76.8899C79.4686 76.34 79.9251 75.9494 80.5411 75.306C80.9976 74.833 81.3936 74.2775 81.6961 73.645C82.1251 72.7485 82.554 71.0379 82.73 69.6134C82.862 68.5245 82.8236 67.9305 82.8071 67.562C82.785 66.9735 82.2956 66.363 81.7621 66.1045L78.5611 64.669C78.5611 64.669 73.7761 62.5845 70.8556 61.2535C70.5476 61.1192 70.2176 61.0428 69.8821 61.028C69.5058 60.9893 69.1255 61.0317 68.7669 61.1521C68.4084 61.2726 68.0797 61.4684 67.8031 61.7265V61.7155C67.7756 61.7155 67.4071 62.029 63.4306 66.847C63.2023 67.1536 62.8879 67.3854 62.5275 67.5128C62.167 67.6401 61.7768 67.6572 61.4066 67.562C61.0482 67.4661 60.6971 67.3448 60.3561 67.199C59.6741 66.913 59.4376 66.803 58.9701 66.5995L58.9426 66.5885C55.7961 65.2147 52.8828 63.3591 50.3076 61.0885C49.6146 60.4835 48.9711 59.8235 48.3111 59.1855C46.1473 57.1133 44.2615 54.769 42.7011 52.2115L42.3766 51.689C42.1435 51.3379 41.9551 50.9591 41.8156 50.5615C41.6066 49.753 42.1511 49.104 42.1511 49.104C42.1511 49.104 43.4876 47.641 44.1091 46.849C44.6266 46.1907 45.1094 45.506 45.5556 44.7975C46.2046 43.7525 46.4081 42.68 46.0671 41.8495C44.5271 38.0875 42.9321 34.342 41.2931 30.624C40.9686 29.887 40.0061 29.359 39.1316 29.2545C38.8346 29.2215 38.5376 29.1885 38.2406 29.1665C37.502 29.1298 36.7618 29.1426 36.0241 29.194Z" fill="#100F0F"/>
</svg>
