<svg width="162" height="162" viewBox="0 0 162 162" fill="none" xmlns="http://www.w3.org/2000/svg">
<path d="M126.053 13.611L91.9176 67.0082L135.588 21.0353L93.92 68.8167L143.883 29.8872L95.6363 70.8155L150.844 39.7861L96.9712 73.0999L156.279 50.6369L97.9247 75.5746L159.902 62.1539L98.5921 78.1445L161.905 74.1469L98.7828 80.8096L162 86.235L98.5921 83.4747L160.284 98.228L98.02 86.0447L156.851 109.84L97.0665 88.5194L151.702 120.786L95.827 90.8989L144.932 130.875L94.206 92.9929L136.828 139.823L92.2037 94.8014L127.388 147.437L90.0106 96.3243L116.995 153.624L87.6268 97.4665L105.743 158.193L85.1477 98.3232L93.92 160.953L82.4779 98.7039L81.8105 162L79.8081 98.7039L69.701 161.239L77.2337 98.4183L57.8776 158.669L74.6592 97.6569L46.5309 154.385L72.2755 96.5147L35.947 148.389L70.0824 94.9918L26.412 140.965L68.0801 93.2785L18.0212 132.208L66.3637 91.1845L11.156 122.214L65.0288 88.9001L5.72101 111.363L64.0753 86.4254L2.0977 99.8461L63.4079 83.8555L0.0953502 87.9483L63.2172 81.1904L0 75.765L63.4079 78.5253L1.7163 63.772L63.98 75.9554L5.14891 52.1598L64.8381 73.4806L10.2978 41.2139L66.173 71.1962L16.9723 31.1246L67.794 69.1022L25.1725 22.1774L69.7963 67.1986L34.6121 14.5629L71.8941 65.6757L45.0053 8.37603L74.2778 64.5335L56.2566 3.80729L76.8523 63.772L68.0801 1.047L79.5221 63.2961L80.1895 0L82.0965 63.2961L92.299 0.761457L84.7663 63.6769L104.122 3.33137L87.3408 64.4383L115.469 7.61457L89.7245 65.5805L126.053 13.611Z" fill="#FF0081"/>
</svg>
