<svg width="858" height="167" viewBox="0 0 858 167" fill="none" xmlns="http://www.w3.org/2000/svg">
<path d="M249.169 2C200.33 4.2375 148.308 8.33676 101.304 22.855C70.1614 32.4744 41.1195 54.5996 20.584 79.8972C5.19751 98.8518 -10.0031 119.892 16.2495 136.362C49.7005 157.349 94.2673 160.577 132.382 162.493C231.172 167.46 330.951 164.563 429.583 158.042C521.593 151.958 613.782 143.138 704.866 128.449C750.083 121.157 802.696 114.902 843.571 92.0145C862.998 81.1359 855.987 69.4029 847.169 53.6017C843.53 47.0815 840.316 39.5092 834.084 34.9724C815.336 21.3249 784.602 19.6816 762.769 17.8267C705.387 12.9516 647.053 16.9045 589.551 16.8376C522.194 16.7592 454.868 14.3968 387.546 12.3863" stroke="#8469FF" stroke-width="3" stroke-linecap="round"/>
</svg>
