<svg width="35" height="35" viewBox="0 0 35 35" fill="none" xmlns="http://www.w3.org/2000/svg">
<circle cx="17.5" cy="17.5" r="16.5" transform="rotate(-180 17.5 17.5)" fill="#E8E8E8" stroke="#8469FF" stroke-width="2"/>
<path d="M15.1375 8.79816L22.5094 16.125C22.5969 16.2122 22.6587 16.3067 22.6949 16.4084C22.7316 16.5102 22.75 16.6192 22.75 16.7355C22.75 16.8518 22.7316 16.9609 22.6949 17.0626C22.6587 17.1644 22.5969 17.2589 22.5094 17.3461L15.1375 24.6947C14.9333 24.8982 14.6781 25 14.3719 25C14.0656 25 13.8031 24.891 13.5844 24.6729C13.3656 24.4548 13.2563 24.2004 13.2563 23.9097C13.2563 23.619 13.3656 23.3646 13.5844 23.1465L20.0156 16.7355L13.5844 10.3246C13.3802 10.1211 13.2781 9.87043 13.2781 9.57271C13.2781 9.2744 13.3875 9.01622 13.6063 8.79816C13.825 8.5801 14.0802 8.47107 14.3719 8.47107C14.6635 8.47107 14.9188 8.5801 15.1375 8.79816Z" fill="#8469FF"/>
</svg>
