<svg width="38" height="131" viewBox="0 0 38 131" fill="none" xmlns="http://www.w3.org/2000/svg">
<path d="M7.08323 1C10.4034 1 12.3719 2.94607 14.8822 4.98141C19.0808 8.38551 23.177 11.9122 26.1128 16.5065C30.9141 24.0203 33.7449 30.4116 35.6276 39.1377C39.9338 59.096 33.5772 80.2947 23.9291 97.6539C19.867 104.963 15.9088 112.369 11.2947 119.342C9.36112 122.264 5.64844 124.952 4.27558 128.065C3.2773 130.328 4.75361 128.396 5.78339 127.462C6.93758 126.415 9.1081 125.359 10.5928 125.026C12.4643 124.607 13.7652 123.614 15.2722 122.433C16.6119 121.383 18.4471 120.926 19.8216 119.918C21.8767 118.412 22.0286 121.091 19.7176 121.228C17.9043 121.336 14.837 123.601 13.4264 124.764C11.5434 126.316 9.03469 128 6.87525 129.243C4.83726 130.417 4.63726 130.401 3.91163 127.934C3.48692 126.489 3.5507 124.735 3.23572 123.219C2.9491 121.839 2.40382 120.521 2.40382 119.106C2.40382 118.341 1.55788 115.38 1 115.099" stroke="#8469FF" stroke-width="2" stroke-linecap="round"/>
</svg>
