<svg width="108" height="108" viewBox="0 0 108 108" fill="none" xmlns="http://www.w3.org/2000/svg">
<path fill-rule="evenodd" clip-rule="evenodd" d="M107.471 53.7356C107.471 83.4111 83.4111 107.471 53.7356 107.471C24.0601 107.471 0 83.4111 0 53.7356C0 24.0601 24.0601 0 53.7356 0C83.4111 0 107.471 24.0601 107.471 53.7356ZM55.6612 39.6703C50.4354 41.8421 39.9883 46.3425 24.3243 53.1669C21.7808 54.1789 20.4464 55.1686 20.3255 56.1358C20.1195 57.7748 22.1704 58.4196 24.9557 59.2928C25.3363 59.4137 25.7304 59.5346 26.1334 59.6689C28.8784 60.5601 32.5683 61.6034 34.4848 61.6437C36.2268 61.6795 38.1702 60.9631 40.3152 59.4943C54.9492 49.6114 62.5035 44.6185 62.9782 44.511C63.314 44.4349 63.7797 44.3364 64.0932 44.6185C64.4066 44.8961 64.3753 45.4245 64.3439 45.5678C64.138 46.4321 56.1045 53.9058 51.94 57.7748C50.6414 58.9793 49.7234 59.8346 49.5353 60.0317C49.1144 60.466 48.6845 60.8825 48.2725 61.281C45.7201 63.7349 43.8124 65.5799 48.38 68.5891C50.5742 70.0354 52.3295 71.2311 54.0804 72.4222C55.9925 73.7253 57.9001 75.0239 60.372 76.6449C60.9989 77.0569 61.5989 77.4823 62.1856 77.8988C64.4111 79.4884 66.4128 80.9124 68.8846 80.6885C70.3176 80.5542 71.8042 79.2063 72.5565 75.1806C74.3343 65.6605 77.8361 45.0439 78.6466 36.5447C78.6959 35.839 78.6659 35.1301 78.557 34.4311C78.4919 33.8666 78.217 33.3471 77.7868 32.9758C77.1465 32.4518 76.1523 32.3399 75.7045 32.3488C73.685 32.3847 70.5862 33.4639 55.6612 39.6703V39.6703Z" fill="#100F0F"/>
</svg>
