<svg width="105" height="105" viewBox="0 0 105 105" fill="none" xmlns="http://www.w3.org/2000/svg">
<g clip-path="url(#clip0_176_35)">
<path d="M99.1708 46.6635C98.6896 46.6661 98.2102 46.7236 97.742 46.835C83.5568 50.093 69.0614 51.8102 54.5076 51.957C67.1853 44.8046 80.5981 39.0418 94.513 34.769C94.9662 34.6365 95.4024 34.4519 95.8131 34.2189C97.1532 33.4447 98.1317 32.1706 98.5335 30.6759C98.9353 29.1812 98.7276 27.5882 97.9562 26.2464C97.182 24.9062 95.9079 23.9279 94.4132 23.5261C92.9186 23.1244 91.3256 23.3319 89.9838 24.1033C89.5764 24.3427 89.1976 24.6279 88.855 24.9533C78.2014 34.8711 66.5056 43.6065 53.9718 51.0069C61.3721 38.4731 70.1075 26.7773 80.0253 16.1237C80.3491 15.7857 80.6364 15.4145 80.8825 15.0163C81.6539 13.6745 81.8614 12.0815 81.4596 10.5868C81.0579 9.09219 80.0796 7.81805 78.7394 7.04388C77.3976 6.27251 75.8046 6.06479 74.3099 6.46658C72.8152 6.86837 71.5411 7.84685 70.7669 9.18703C70.5337 9.59759 70.3491 10.0338 70.2168 10.4871C65.944 24.402 60.1812 37.8148 53.0287 50.4925C53.1755 35.9387 54.8928 21.4433 58.1508 7.25806C58.2626 6.78996 58.3201 6.31055 58.3223 5.82929C58.3223 5.06317 58.1713 4.30456 57.8779 3.59684C57.5845 2.88913 57.1544 2.24625 56.6123 1.70485C56.0703 1.16345 55.4268 0.734302 54.7188 0.441769C54.0107 0.149237 53.2519 -0.000949762 52.4858 -1.08839e-05C50.9398 -1.08839e-05 49.457 0.614244 48.3638 1.70746C47.2706 2.80068 46.6565 4.28325 46.6565 5.82929C46.6565 6.31026 46.7116 6.78964 46.8208 7.25806C50.0823 21.4427 51.7996 35.9385 51.9429 50.4925C44.7898 37.8161 39.0293 24.4029 34.7619 10.4871C34.6238 10.0348 34.4369 9.59899 34.2047 9.18703C33.4319 7.84733 32.159 6.86912 30.6656 6.46728C29.1721 6.06544 27.5801 6.27284 26.2394 7.04388C25.5744 7.42586 24.9913 7.93522 24.5235 8.54293C24.0558 9.15065 23.7124 9.84466 23.5134 10.5853C23.3143 11.3259 23.2633 12.0985 23.3634 12.8589C23.4634 13.6192 23.7124 14.3524 24.0962 15.0163C24.3333 15.4253 24.6186 15.8044 24.9463 16.1451C34.8596 26.8007 43.5924 38.4963 50.9927 51.0283C38.4613 43.6244 26.7658 34.8893 16.1095 24.9748C15.7677 24.6484 15.3888 24.3631 14.9807 24.1247C13.64 23.3537 12.048 23.1463 10.5545 23.5481C9.06103 23.95 7.7882 24.9282 7.0154 26.2679C6.63155 26.9318 6.38237 27.665 6.28235 28.4253C6.18233 29.1857 6.23343 29.9583 6.43252 30.6989C6.63161 31.4395 6.97475 32.1335 7.44253 32.7413C7.91031 33.349 8.49354 33.8583 9.15855 34.2403C9.56849 34.4748 10.0048 34.6595 10.4586 34.7904C24.3736 39.0629 37.7865 44.8257 50.464 51.9785C35.9102 51.8317 21.4148 50.1144 7.22957 46.8564C6.7615 46.7445 6.28207 46.687 5.80081 46.685C4.25287 46.685 2.76848 47.2998 1.67392 48.3944C0.579364 49.4889 -0.0356445 50.9735 -0.0356445 52.5214C-0.0356451 53.2876 0.115352 54.0462 0.408752 54.7539C0.702152 55.4616 1.13221 56.1045 1.67427 56.6459C2.21633 57.1873 2.85976 57.6166 3.56784 57.9091C4.27591 58.2017 5.03468 58.3517 5.80081 58.3507C6.28181 58.3513 6.76126 58.2962 7.22957 58.1864C21.4142 54.9249 35.91 53.2076 50.464 53.0644C37.7878 60.2179 24.3745 65.9784 10.4586 70.2453C10.0054 70.3809 9.56927 70.5678 9.15855 70.8026C8.49379 71.1839 7.91075 71.6926 7.44305 72.2997C6.97536 72.9068 6.63215 73.6001 6.43304 74.3401C6.23393 75.0801 6.18278 75.8523 6.2827 76.6122C6.38263 77.372 6.63172 78.1045 7.0154 78.7679C7.39669 79.4326 7.90545 80.0155 8.51253 80.4832C9.11961 80.9509 9.81293 81.2943 10.553 81.4934C11.293 81.6925 12.0652 81.7435 12.825 81.6435C13.5848 81.5436 14.3173 81.2947 14.9807 80.911C15.3909 80.6758 15.7701 80.3903 16.1095 80.0609C26.7678 70.1509 38.463 61.4184 50.9927 54.0146C43.5889 66.5442 34.8563 78.2394 24.9463 88.8978C24.6177 89.2377 24.3322 89.6169 24.0962 90.0265C23.7126 90.6899 23.4636 91.4224 23.3637 92.1822C23.2638 92.942 23.3148 93.7143 23.5139 94.4543C23.713 95.1943 24.0564 95.8876 24.5241 96.4947C24.9918 97.1018 25.5746 97.6105 26.2394 97.9918C26.9028 98.3755 27.6353 98.6246 28.3951 98.7245C29.1549 98.8245 29.9271 98.7733 30.6671 98.5742C31.4072 98.3751 32.1005 98.0319 32.7075 97.5642C33.3146 97.0965 33.8234 96.5134 34.2047 95.8487C34.4412 95.4389 34.6283 95.0025 34.7619 94.5486C39.0288 80.6327 44.7893 67.2194 51.9429 54.5432C51.7996 69.0972 50.0823 83.5931 46.8208 97.7777C46.7114 98.246 46.6562 98.7254 46.6565 99.2064C46.6556 99.9725 46.8056 100.731 47.0981 101.439C47.3906 102.147 47.82 102.791 48.3614 103.333C48.9028 103.875 49.5456 104.305 50.2534 104.598C50.9611 104.892 51.7197 105.043 52.4858 105.043C54.0337 105.043 55.5183 104.428 56.6129 103.333C57.7074 102.239 58.3223 100.754 58.3223 99.2064C58.3207 98.7251 58.2632 98.2457 58.1508 97.7777C54.8928 83.5925 53.1755 69.097 53.0287 54.5432C60.1816 67.2207 65.9444 80.6336 70.2168 94.5486C70.3467 95.0028 70.5314 95.4392 70.7669 95.8487C71.1489 96.5137 71.6583 97.0969 72.266 97.5647C72.8737 98.0325 73.5677 98.3756 74.3083 98.5747C75.0489 98.7738 75.8216 98.8249 76.5819 98.7249C77.3423 98.6249 78.0754 98.3757 78.7394 97.9918C80.0791 97.219 81.0573 95.9462 81.4591 94.4527C81.861 92.9592 81.6536 91.3673 80.8825 90.0265C80.6425 89.6195 80.3574 89.2408 80.0325 88.8978C70.118 78.2414 61.3829 66.546 53.9789 54.0146C66.511 61.4148 78.2065 70.1476 88.8621 80.0609C89.2035 80.3879 89.5824 80.6732 89.9909 80.911C90.6548 81.2949 91.388 81.5439 92.1484 81.6439C92.9087 81.7439 93.6814 81.693 94.422 81.4939C95.1626 81.2948 95.8566 80.9515 96.4643 80.4837C97.072 80.0159 97.5814 79.4329 97.9634 78.7679C98.7344 77.4272 98.9418 75.8352 98.54 74.3417C98.1381 72.8482 97.1599 71.5754 95.8202 70.8026C95.4098 70.5673 94.9736 70.3803 94.5202 70.2453C80.6044 65.978 67.1912 60.2174 54.5147 53.0644C69.0687 53.2076 83.5646 54.9249 97.7492 58.1864C98.2176 58.2958 98.697 58.3509 99.1779 58.3507C100.724 58.3507 102.207 57.7367 103.3 56.6434C104.393 55.5502 105.007 54.0675 105.007 52.5214C105.008 51.7553 104.858 50.9965 104.565 50.2885C104.273 49.5804 103.844 48.937 103.302 48.3949C102.761 47.8528 102.118 47.4228 101.41 47.1294C100.703 46.836 99.9441 46.685 99.1779 46.685" fill="#FF0081"/>
</g>
<defs>
<clipPath id="clip0_176_35">
<rect width="105" height="105" fill="white"/>
</clipPath>
</defs>
</svg>
