<svg width="238" height="21" viewBox="0 0 238 21" fill="none" xmlns="http://www.w3.org/2000/svg">
<path d="M100.564 0.584137H90.0803L82.0977 20.7274H89.2501L90.6705 16.7552H99.7536C100.364 18.3519 100.844 19.6759 101.204 20.7274H108.587L100.564 0.584137ZM92.2911 12.4228C93.5915 9.02503 94.5618 6.484 95.2321 4.79971L95.9123 6.61056C96.6726 8.54798 97.4128 10.4951 98.1431 12.4325H92.2911V12.4228Z" fill="#100F0F"/>
<path d="M120.421 9.22948V13.7274H125.983C125.422 14.3213 124.752 14.7399 123.942 14.9736C123.142 15.217 122.301 15.3338 121.461 15.3338C119.48 15.3338 118.02 14.886 117.06 13.9805C116.089 13.0751 115.619 11.8873 115.619 10.3978C115.619 9.03477 116.059 7.87622 116.96 6.94159C117.85 6.00695 119.21 5.54937 121.031 5.54937C122.131 5.54937 123.172 5.73435 124.162 6.09458C125.152 6.4548 126.023 7 126.763 7.71071L127.473 7.33102C129.954 6.05563 131.624 5.19889 132.485 4.77051C131.174 3.14465 129.584 1.94715 127.713 1.16829C125.843 0.399166 123.682 0 121.231 0C116.94 0 113.778 0.963839 111.748 2.88178C109.717 4.80946 108.697 7.42837 108.697 10.7385C108.697 12.8025 109.117 14.6231 109.967 16.1711C110.817 17.7288 111.988 18.9166 113.468 19.7538C114.959 20.5911 116.669 21 118.58 21C120.691 21 122.481 20.5814 123.942 19.7246C125.402 18.8679 126.413 17.5633 126.993 15.8108L127.593 20.7274H132.605V9.22948H120.421Z" fill="#100F0F"/>
<path d="M141.587 15.6453V12.7538C142.508 12.7343 143.858 12.7343 145.639 12.7343C148.66 12.7343 151.781 12.783 155.012 12.8901V8.1196C151.781 8.2267 148.66 8.28511 145.639 8.28511C143.858 8.28511 142.508 8.27537 141.587 8.26564V5.59804H157.013V0.584137H134.865C135.015 4.17663 135.095 7.52572 135.095 10.6509C135.095 13.7858 135.025 17.1349 134.865 20.7274H157.013C157.013 19.5007 157.023 18.4882 157.053 17.6898C157.073 16.8915 157.153 16.1029 157.293 15.3435C154.052 15.509 148.81 15.6064 141.587 15.6453Z" fill="#100F0F"/>
<path d="M183.492 0.613342H176.509L176.99 16.1711L170.057 0.613342H159.574C159.724 4.1961 159.804 7.54519 159.804 10.6509C159.804 13.7858 159.734 17.1349 159.574 20.7274H166.896L166.386 5.57857L173.288 20.7274H183.482C183.352 17.5925 183.282 14.2434 183.282 10.6509C183.292 7.08761 183.352 3.73852 183.492 0.613342Z" fill="#100F0F"/>
<path d="M202.298 14.662C201.368 15.1683 200.107 15.4214 198.537 15.4214C196.556 15.4214 195.096 14.9541 194.135 14.0195C193.175 13.0848 192.705 11.8776 192.705 10.3978C192.705 9.03477 193.145 7.87622 194.035 6.94159C194.936 6.00695 196.296 5.54937 198.117 5.54937C199.347 5.54937 200.557 5.8025 201.748 6.28929C202.938 6.79555 203.799 7.56467 204.359 8.59666C206.659 7.44784 208.66 6.5911 210.371 6.01669C208.33 2.00556 204.309 0 198.307 0C194.015 0 190.854 0.963839 188.823 2.88178C186.793 4.80946 185.772 7.42837 185.772 10.7385C185.772 14.0292 186.793 16.5605 188.823 18.3324C190.854 20.1043 194.025 20.9903 198.307 20.9903C200.928 20.9903 203.348 20.5522 205.579 19.6662C207.8 18.7705 209.38 17.2031 210.331 14.9736C207.9 13.9611 205.909 13.0459 204.349 12.2378C203.909 13.338 203.228 14.146 202.298 14.662Z" fill="#100F0F"/>
<path d="M230.248 0.584137C229.798 1.50903 228.907 3.12517 227.597 5.41307C226.477 7.36995 225.586 9.02503 224.916 10.3783C224.446 9.4534 223.556 7.85674 222.265 5.59804C220.975 3.3783 220.044 1.70375 219.474 0.584137H211.501C212.222 1.70375 213.262 3.25173 214.633 5.21835C216.373 7.78859 217.724 9.80389 218.674 11.274C219.624 12.7538 220.444 14.1752 221.145 15.5577V20.7274H228.587V16.0348C229.558 14.0584 230.768 11.8873 232.218 9.53128C233.669 7.18497 235.42 4.45896 237.45 1.3922L238 0.593873H230.248V0.584137Z" fill="#100F0F"/>
<path d="M21.3472 9.57024C19.5166 8.66481 16.5956 8.21697 12.5642 8.21697C10.9237 8.21697 9.67325 8.0904 8.81296 7.8178C7.95267 7.55494 7.51253 7.19471 7.51253 6.74687C7.51253 6.29903 7.83263 5.96801 8.45284 5.73435C9.08305 5.5007 10.3035 5.38387 12.1041 5.38387C13.6046 5.38387 15.3352 5.637 17.2958 6.15299C19.2565 6.65925 20.717 7.29207 21.6873 8.05146C21.7673 7.86648 21.8573 7.58414 21.9674 7.22392C22.5776 5.46175 23.1578 3.97218 23.708 2.75522C22.0274 1.90821 20.1568 1.23644 18.0761 0.739917C15.9954 0.243394 13.9647 0 11.984 0C8.58288 0 5.81195 0.59388 3.68124 1.78164C1.55052 2.95967 0.490165 4.80946 0.490165 7.30181C0.490165 9.06398 1.36046 10.3296 3.11105 11.1182C4.86163 11.9068 7.67258 12.306 11.5539 12.306C15.0951 12.306 16.8657 12.8707 16.8657 14C16.8657 14.3213 16.5356 14.6036 15.8953 14.8762C15.2451 15.1391 14.1348 15.2754 12.5542 15.2754C11.0137 15.2754 9.35314 15.0612 7.56254 14.6328C5.77194 14.2045 4.20141 13.6106 2.86096 12.8512C2.46083 13.9221 2.04069 14.8665 1.62054 15.6843C1.1804 16.5021 0.650219 17.388 0 18.3324C1.75059 19.1989 3.72125 19.8609 5.90198 20.3185C8.09272 20.7663 10.2434 21 12.3542 21C16.2955 21 19.2365 20.4353 21.1771 19.2962C23.1178 18.1572 24.0881 16.2976 24.0881 13.6982C24.0781 11.8387 23.1678 10.4659 21.3472 9.57024Z" fill="#100F0F"/>
<path d="M70.1636 13.7761C72.1242 13.2795 73.5047 12.4715 74.315 11.3616C75.1252 10.2517 75.5254 8.88873 75.5254 7.28233C75.5254 5.22809 74.7651 3.59248 73.2446 2.39499C71.7241 1.18776 69.0432 0.584139 65.2019 0.584139H59.3499V0.554932H52.6177C52.7677 4.14742 52.8478 7.50625 52.8478 10.6314C52.8478 13.7566 52.7677 17.1154 52.6177 20.7079H59.3499V14.2629H63.5414C65.352 17.0375 66.6724 19.1891 67.5127 20.7079H75.2753L70.6537 14.4576C70.5537 14.3018 70.3937 14.0779 70.1636 13.7761ZM68.593 8.44088C68.2729 8.66481 67.6927 8.83031 66.8725 8.92767C66.0422 9.02503 64.8218 9.07371 63.2012 9.07371H59.3499V5.91933H63.2012C64.8418 5.91933 66.0722 5.968 66.9125 6.05563C67.7528 6.15298 68.323 6.30876 68.6231 6.53268C68.9232 6.7566 69.0732 7.06814 69.0732 7.47705C69.0832 7.89568 68.9232 8.21696 68.593 8.44088Z" fill="#100F0F"/>
<path d="M50.3368 0.525726V11.5758C50.2968 14.3018 49.3465 16.5508 47.4658 18.3227C45.5952 20.1043 42.4341 20.9903 38.0026 20.9903C33.5111 20.9903 30.4401 20.1433 28.7895 18.4492C27.129 16.7552 26.3287 14.5257 26.3587 11.7705V0.525726H35.4218C34.8716 1.43115 32.1607 5.65646 32.1607 5.65646L33.4411 5.38386L37.4024 4.53685L33.4411 11.3421L38.3428 9.98887L35.7819 15.1683L34.7916 17.1738L36.4321 15.3046L43.2444 7.53546L44.6549 5.91933L39.6732 7.25313L44.3248 0.525726H50.3368Z" fill="#100F0F"/>
</svg>
