<svg width="343" height="26" viewBox="0 0 343 26" fill="none" xmlns="http://www.w3.org/2000/svg">
<path d="M107.612 15.932H108.76V25.536H102.124V21.476H89.636V25.62H83V15.932H84.4C85.2027 15.7827 85.8187 15.456 86.248 14.952C86.6773 14.448 86.9947 13.6453 87.2 12.544C87.368 11.6293 87.452 9.548 87.452 6.3L87.424 0.588001L107.612 0.616V15.932ZM93.724 14.728C93.612 15.2507 93.5093 15.652 93.416 15.932H100.528V6.076H94.256L94.228 7.7C94.228 9.11867 94.1907 10.3693 94.116 11.452C94.06 12.516 93.9293 13.608 93.724 14.728Z" fill="black"/>
<path d="M134.099 20.916H127.015V6.076H120.743L120.715 7.7C120.715 9.11867 120.678 10.3693 120.603 11.452C120.547 12.516 120.416 13.608 120.211 14.728C119.838 16.7627 118.886 18.396 117.355 19.628C115.843 20.86 113.724 21.476 110.999 21.476V16.016C111.727 15.8667 112.296 15.54 112.707 15.036C113.136 14.5133 113.463 13.6827 113.687 12.544C113.855 11.6293 113.939 9.548 113.939 6.3L113.911 0.588001L134.099 0.616V20.916Z" fill="black"/>
<path d="M158.831 0.588001C158.7 3.74267 158.635 7.13067 158.635 10.752C158.635 14.3733 158.7 17.7613 158.831 20.916H152.223V14.42H148.107C146.333 17.22 145.036 19.3853 144.215 20.916H136.599L141.135 14.616C141.228 14.448 141.387 14.2147 141.611 13.916C139.688 13.412 138.325 12.6 137.523 11.48C136.739 10.36 136.347 8.988 136.347 7.364C136.347 5.292 137.093 3.64933 138.587 2.436C140.08 1.22267 142.712 0.616 146.483 0.616H152.223V0.588001H158.831ZM152.223 9.184V5.992H148.443C146.837 5.992 145.624 6.03867 144.803 6.132C143.981 6.22533 143.421 6.384 143.123 6.608C142.824 6.832 142.675 7.14933 142.675 7.56C142.675 7.98933 142.833 8.316 143.151 8.54C143.468 8.764 144.028 8.932 144.831 9.044C145.652 9.13733 146.856 9.184 148.443 9.184H152.223Z" fill="black"/>
<path d="M178.543 8.232C181.1 8.232 183.107 8.50267 184.563 9.044C186.019 9.56667 187.036 10.2947 187.615 11.228C188.193 12.1613 188.483 13.3093 188.483 14.672C188.483 16.6507 187.755 18.1813 186.299 19.264C184.843 20.3467 182.257 20.888 178.543 20.888H173.559V20.916H166.671C166.82 17.2947 166.895 13.9067 166.895 10.752C166.895 7.59733 166.82 4.20933 166.671 0.588001H187.307V6.216H173.559V8.232H178.543ZM177.423 16.044C178.711 16.044 179.681 15.9973 180.335 15.904C181.007 15.8107 181.473 15.6613 181.735 15.456C182.015 15.2507 182.155 14.9427 182.155 14.532C182.155 14.1213 182.015 13.804 181.735 13.58C181.455 13.356 180.979 13.1973 180.307 13.104C179.635 13.0107 178.673 12.964 177.423 12.964H173.559V16.044H177.423Z" fill="black"/>
<path d="M197.293 0.616L196.816 16.324L203.62 0.616H213.924C213.794 3.77067 213.729 7.14933 213.729 10.752C213.729 14.3733 213.794 17.7613 213.924 20.916H206.729L207.232 5.628L200.456 20.916H190.433C190.582 17.2947 190.657 13.9067 190.657 10.752C190.657 7.616 190.582 4.23733 190.433 0.616H197.293Z" fill="black"/>
<path d="M231.787 10.612C232.459 10.4813 233.122 10.416 233.775 10.416C234.914 10.416 235.838 10.612 236.547 11.004C237.275 11.3773 237.798 11.8627 238.115 12.46C238.432 13.0387 238.591 13.6453 238.591 14.28C238.591 15.7547 238.106 17.0147 237.135 18.06C236.164 19.0867 234.848 19.8707 233.187 20.412C231.526 20.9347 229.678 21.196 227.643 21.196C221.744 21.196 217.927 19.1427 216.191 15.036L217.759 14.644C218.916 14.364 219.896 14.1027 220.699 13.86C221.52 13.5987 222.239 13.3093 222.855 12.992C223.228 13.9253 223.76 14.5973 224.451 15.008C225.16 15.4 226.131 15.596 227.363 15.596C228.67 15.596 229.734 15.4467 230.555 15.148C231.376 14.8493 231.787 14.4013 231.787 13.804C231.787 13.4867 231.628 13.244 231.311 13.076C230.994 12.908 230.49 12.796 229.799 12.74C229.108 12.6653 228.138 12.628 226.887 12.628H224.759V7.728H226.047C227.466 7.728 228.623 7.672 229.519 7.56C230.415 7.42933 230.863 7.15867 230.863 6.748C230.863 6.28133 230.62 5.908 230.135 5.628C229.668 5.32933 228.931 5.18 227.923 5.18C226.616 5.18 225.552 5.45067 224.731 5.992C223.928 6.53333 223.303 7.31733 222.855 8.344C220.858 7.54133 218.73 6.972 216.471 6.636C217.367 4.62 218.739 3.06133 220.587 1.96C222.454 0.858666 224.852 0.308 227.783 0.308C229.687 0.308 231.395 0.56 232.907 1.064C234.438 1.54933 235.632 2.23067 236.491 3.108C237.368 3.98533 237.807 4.96533 237.807 6.048C237.807 6.68267 237.658 7.252 237.359 7.756C237.06 8.24133 236.472 8.72667 235.595 9.212C234.718 9.67867 233.448 10.1453 231.787 10.612Z" fill="black"/>
<path d="M264.291 0.588001C264.16 3.74267 264.095 7.13067 264.095 10.752C264.095 14.3733 264.16 17.7613 264.291 20.916H257.711V13.3H247.407V20.916H240.827C240.976 17.2947 241.051 13.9067 241.051 10.752C241.051 7.59733 240.976 4.20933 240.827 0.588001H247.407V8.204H257.711V0.588001H264.291Z" fill="black"/>
<path d="M273.138 15.792C280.231 15.7547 285.374 15.652 288.566 15.484C288.436 16.2493 288.352 17.0427 288.314 17.864C288.296 18.6667 288.286 19.684 288.286 20.916H266.53C266.679 17.2947 266.754 13.9067 266.754 10.752C266.754 7.59733 266.679 4.20933 266.53 0.588001H288.286V5.656H273.138V8.344C274.034 8.36267 275.359 8.372 277.114 8.372C280.082 8.372 283.153 8.316 286.326 8.204V13.02C283.153 12.908 280.082 12.852 277.114 12.852C275.359 12.852 274.034 12.8613 273.138 12.88V15.792Z" fill="black"/>
<path d="M303.131 21.196C298.913 21.196 295.805 20.3 293.807 18.508C291.81 16.716 290.811 14.1587 290.811 10.836C290.811 7.49467 291.81 4.85333 293.807 2.912C295.805 0.970668 298.913 0 303.131 0C309.03 0 312.978 2.02533 314.975 6.076C313.295 6.65467 311.326 7.52267 309.067 8.68C308.526 7.63467 307.667 6.86 306.491 6.356C305.334 5.852 304.149 5.6 302.935 5.6C301.143 5.6 299.809 6.076 298.931 7.028C298.054 7.96133 297.615 9.11867 297.615 10.5C297.615 11.9933 298.082 13.216 299.015 14.168C299.967 15.1013 301.414 15.568 303.355 15.568C304.905 15.568 306.137 15.316 307.051 14.812C307.966 14.2893 308.638 13.468 309.067 12.348C310.598 13.1693 312.558 14.0933 314.947 15.12C314.014 17.3787 312.455 18.956 310.271 19.852C308.087 20.748 305.707 21.196 303.131 21.196Z" fill="black"/>
<path d="M334.893 20.916C334.539 19.852 334.063 18.5173 333.465 16.912H324.533L323.133 20.916H316.105L323.945 0.588001H334.249L342.145 20.916H334.893ZM331.869 12.544C331.16 10.584 330.432 8.624 329.685 6.664L329.013 4.844C328.36 6.54267 327.399 9.10933 326.129 12.544H331.869Z" fill="black"/>
<path d="M21.3472 9.57024C19.5166 8.66481 16.5956 8.21697 12.5642 8.21697C10.9237 8.21697 9.67325 8.0904 8.81296 7.8178C7.95267 7.55494 7.51253 7.19471 7.51253 6.74687C7.51253 6.29903 7.83263 5.96801 8.45284 5.73435C9.08305 5.5007 10.3035 5.38387 12.1041 5.38387C13.6046 5.38387 15.3352 5.637 17.2958 6.15299C19.2565 6.65925 20.717 7.29207 21.6873 8.05146C21.7673 7.86648 21.8573 7.58414 21.9674 7.22392C22.5776 5.46175 23.1578 3.97218 23.708 2.75522C22.0274 1.90821 20.1568 1.23644 18.0761 0.739917C15.9954 0.243394 13.9647 0 11.984 0C8.58288 0 5.81195 0.59388 3.68124 1.78164C1.55052 2.95967 0.490165 4.80946 0.490165 7.30181C0.490165 9.06398 1.36046 10.3296 3.11105 11.1182C4.86163 11.9068 7.67258 12.306 11.5539 12.306C15.0951 12.306 16.8657 12.8707 16.8657 14C16.8657 14.3213 16.5356 14.6036 15.8953 14.8762C15.2451 15.1391 14.1348 15.2754 12.5542 15.2754C11.0137 15.2754 9.35314 15.0612 7.56254 14.6328C5.77194 14.2045 4.20141 13.6106 2.86096 12.8512C2.46083 13.9221 2.04069 14.8665 1.62054 15.6843C1.1804 16.5021 0.650219 17.388 0 18.3324C1.75059 19.1989 3.72125 19.8609 5.90198 20.3185C8.09272 20.7663 10.2434 21 12.3542 21C16.2955 21 19.2365 20.4353 21.1771 19.2962C23.1178 18.1572 24.0881 16.2976 24.0881 13.6982C24.0781 11.8387 23.1678 10.4659 21.3472 9.57024Z" fill="#100F0F"/>
<path d="M70.1631 13.7761C72.1237 13.2795 73.5042 12.4715 74.3145 11.3616C75.1248 10.2517 75.5249 8.88873 75.5249 7.28233C75.5249 5.22809 74.7646 3.59248 73.2441 2.39499C71.7236 1.18776 69.0427 0.584139 65.2014 0.584139H59.3495V0.554932H52.6172C52.7672 4.14742 52.8473 7.50625 52.8473 10.6314C52.8473 13.7566 52.7672 17.1154 52.6172 20.7079H59.3495V14.2629H63.5409C65.3515 17.0375 66.6719 19.1891 67.5122 20.7079H75.2748L70.6532 14.4576C70.5532 14.3018 70.3932 14.0779 70.1631 13.7761ZM68.5926 8.44088C68.2725 8.66481 67.6923 8.83031 66.872 8.92767C66.0417 9.02503 64.8213 9.07371 63.2007 9.07371H59.3495V5.91933H63.2007C64.8413 5.91933 66.0717 5.968 66.912 6.05563C67.7523 6.15298 68.3225 6.30876 68.6226 6.53268C68.9227 6.7566 69.0727 7.06814 69.0727 7.47705C69.0827 7.89568 68.9227 8.21696 68.5926 8.44088Z" fill="#100F0F"/>
<path d="M50.3363 0.525726V11.5758C50.2963 14.3018 49.346 16.5508 47.4653 18.3227C45.5947 20.1043 42.4336 20.9903 38.0022 20.9903C33.5106 20.9903 30.4396 20.1433 28.7891 18.4492C27.1285 16.7552 26.3282 14.5257 26.3582 11.7705V0.525726H35.4213C34.8711 1.43115 32.1602 5.65646 32.1602 5.65646L33.4406 5.38386L37.4019 4.53685L33.4406 11.3421L38.3423 9.98887L35.7814 15.1683L34.7911 17.1738L36.4316 15.3046L43.2439 7.53546L44.6544 5.91933L39.6727 7.25313L44.3243 0.525726H50.3363Z" fill="#100F0F"/>
</svg>
