<svg width="773" height="126" viewBox="0 0 773 126" fill="none" xmlns="http://www.w3.org/2000/svg">
<path d="M0 90.9847C3.13161 86.2976 5.71058 81.9322 7.73692 77.8884C9.85536 73.8446 11.8817 69.1576 13.8159 63.8271C20.3555 67.5952 27.9542 70.5361 36.6122 72.6499C45.2702 74.7637 53.3295 75.8206 60.7901 75.8206C68.4349 75.8206 73.8231 75.1772 76.9547 73.8906C80.0863 72.512 81.6521 71.0416 81.6521 69.4792C81.6521 63.8731 73.0863 61.07 55.9545 61.07C37.1648 61.07 23.5331 59.1401 15.0594 55.2801C6.58559 51.3282 2.34871 44.9869 2.34871 36.256C2.34871 23.849 7.50665 14.7046 17.8225 8.82276C28.1384 2.94092 41.5399 0 58.0269 0C67.6059 0 77.4152 1.2407 87.4548 3.72211C97.5865 6.1116 106.705 9.42014 114.81 13.6477C112.139 19.7134 109.33 27.1116 106.383 35.8425C105.83 37.6805 105.369 39.0591 105.001 39.9781C100.304 36.2101 93.2114 33.0853 83.7245 30.6039C74.2376 28.0306 65.8559 26.744 58.5795 26.744C49.8294 26.744 43.9346 27.3414 40.8951 28.5361C37.8556 29.639 36.3359 31.2932 36.3359 33.4989C36.3359 35.7046 38.4083 37.4967 42.5531 38.8753C46.7899 40.1619 52.8689 40.8053 60.7901 40.8053C80.3166 40.8053 94.5009 43.0569 103.343 47.5602C112.185 51.9716 116.606 58.7724 116.606 67.9628C116.606 80.8293 111.909 90.1116 102.514 95.8096C93.1193 101.416 78.8889 104.219 59.823 104.219C49.5992 104.219 39.1912 103.116 28.599 100.91C18.0068 98.6127 8.47377 95.3042 0 90.9847Z" fill="#100F0F"/>
<path d="M209.426 2.61926H243.689V57.4858C243.505 70.9956 238.854 82.1619 229.735 90.9847C220.709 99.8074 205.465 104.219 184.004 104.219C162.267 104.219 147.392 100.037 139.379 91.674C131.366 83.2188 127.451 72.1444 127.635 58.4508V2.61926H161.899V56.2451C161.899 60.2888 162.175 63.5974 162.728 66.1707C163.373 68.6521 165.307 70.9956 168.531 73.2013C171.846 75.407 177.143 76.5098 184.419 76.5098C192.34 76.5098 198.143 75.407 201.827 73.2013C205.511 70.9037 207.676 68.3764 208.32 65.6193C209.057 62.8621 209.426 59.3239 209.426 55.0044V2.61926Z" fill="#100F0F"/>
<path d="M365.673 36.1182C365.673 44.1138 363.693 50.8687 359.732 56.3829C355.864 61.8972 349.186 65.895 339.699 68.3764C340.804 69.8468 341.587 70.9956 342.048 71.8228L364.43 102.84H326.85C322.798 95.3042 316.396 84.6433 307.646 70.8578H287.337V102.84H254.731C255.468 85.0109 255.836 68.3304 255.836 52.7987C255.836 37.267 255.468 20.5864 254.731 2.75712H287.337V2.89497H315.659C334.265 2.89497 347.252 5.88184 354.62 11.8556C361.989 17.8293 365.673 25.9169 365.673 36.1182ZM287.337 29.3632V45.0788H305.988C313.817 45.0788 319.712 44.849 323.673 44.3895C327.725 43.8381 330.535 43.0109 332.1 41.9081C333.666 40.8053 334.449 39.1969 334.449 37.0832C334.449 35.0613 333.712 33.4989 332.238 32.3961C330.765 31.2932 328.002 30.512 323.949 30.0525C319.896 29.593 313.909 29.3632 305.988 29.3632H287.337Z" fill="#100F0F"/>
<path d="M520.274 78.302H525.939V125.586H493.195V105.597H431.576V126H398.832V78.302H405.74C409.701 77.5667 412.74 75.9584 414.859 73.477C416.977 70.9956 418.543 67.0438 419.556 61.6214C420.385 57.1182 420.8 46.8709 420.8 30.8797L420.661 2.75712L520.274 2.89497V78.302ZM451.747 72.3742C451.195 74.9475 450.688 76.9234 450.228 78.302H485.32V29.7768H454.372L454.234 37.7724C454.234 44.7571 454.05 50.9147 453.682 56.2451C453.405 61.4836 452.76 66.8599 451.747 72.3742Z" fill="#100F0F"/>
<path d="M650.968 102.84H616.013V29.7768H585.066L584.927 37.7724C584.927 44.7571 584.743 50.9147 584.375 56.2451C584.099 61.4836 583.454 66.8599 582.441 72.3742C580.599 82.3917 575.901 90.4333 568.348 96.4989C560.888 102.565 550.434 105.597 536.986 105.597V78.7155C540.578 77.9803 543.388 76.372 545.414 73.8906C547.532 71.3173 549.144 67.2276 550.25 61.6214C551.078 57.1182 551.493 46.8709 551.493 30.8797L551.355 2.75712L650.968 2.89497V102.84Z" fill="#100F0F"/>
<path d="M773 2.75712C772.355 18.2888 772.033 34.9694 772.033 52.7987C772.033 70.628 772.355 87.3085 773 102.84H740.394V70.8578H720.085C711.335 84.6433 704.934 95.3042 700.881 102.84H663.302L685.683 71.8228C686.144 70.9956 686.927 69.8468 688.032 68.3764C678.545 65.895 671.821 61.8972 667.861 56.3829C663.992 50.8687 662.058 44.1138 662.058 36.1182C662.058 25.9169 665.742 17.8293 673.111 11.8556C680.479 5.88184 693.466 2.89497 712.072 2.89497H740.394V2.75712H773ZM740.394 45.0788V29.3632H721.743C713.822 29.3632 707.835 29.593 703.782 30.0525C699.73 30.512 696.966 31.2932 695.493 32.3961C694.019 33.4989 693.282 35.0613 693.282 37.0832C693.282 39.1969 694.065 40.8053 695.631 41.9081C697.197 43.0109 699.96 43.8381 703.92 44.3895C707.973 44.849 713.914 45.0788 721.743 45.0788H740.394Z" fill="#100F0F"/>
</svg>
