<svg width="143" height="77" viewBox="0 0 143 77" fill="none" xmlns="http://www.w3.org/2000/svg">
<path d="M15.2593 58.707H6.59505L0 75.8097H5.9121L7.08943 72.436H14.5968C15.1013 73.7916 15.4989 74.9128 15.7996 75.8097H21.9003L15.2593 58.707ZM8.42475 68.7617C9.50014 65.8722 10.3003 63.7165 10.8507 62.2896L11.4114 63.8236C12.0434 65.4696 12.655 67.1208 13.2513 68.7668H8.42475V68.7617Z" fill="#100F0F"/>
<path d="M31.6707 66.05V69.867H36.2628C35.8041 70.3715 35.2486 70.7282 34.5758 70.9219C33.9133 71.1257 33.2201 71.2277 32.5219 71.2277C30.8859 71.2277 29.678 70.8455 28.8829 70.0759C28.0827 69.3115 27.6903 68.2974 27.6903 67.0335C27.6903 65.8767 28.0572 64.8932 28.7962 64.1033C29.5301 63.3134 30.6514 62.921 32.16 62.921C33.0723 62.921 33.9336 63.0738 34.7491 63.3796C35.5646 63.6854 36.2832 64.144 36.8948 64.7505L37.4809 64.4243C39.5349 63.3439 40.916 62.6203 41.6245 62.2534C40.544 60.8723 39.2291 59.8582 37.6797 59.1957C36.1354 58.5383 34.3465 58.207 32.318 58.207C28.7758 58.207 26.1562 59.0224 24.4794 60.6532C22.8026 62.289 21.9565 64.511 21.9565 67.324C21.9565 69.0771 22.3082 70.6212 23.0064 71.9309C23.7047 73.2508 24.6781 74.265 25.9013 74.9733C27.1347 75.6817 28.5414 76.0282 30.1265 76.0282C31.8746 76.0282 33.3475 75.6715 34.5554 74.9479C35.7633 74.2242 36.5992 73.1132 37.0783 71.6252L37.5726 75.7989H41.7111V66.0449H31.6707V66.05Z" fill="#100F0F"/>
<path d="M49.1623 71.4981V69.0418C49.9217 69.0265 51.0378 69.0265 52.5108 69.0265C55.0081 69.0265 57.587 69.0673 60.2577 69.1641V65.1178C57.5921 65.2095 55.0081 65.2554 52.5108 65.2554C51.0378 65.2554 49.9217 65.2452 49.1623 65.2401V62.9723H61.909V58.7119H43.6069C43.7343 61.7645 43.7955 64.6081 43.7955 67.2581C43.7955 69.9183 43.7343 72.762 43.6069 75.8095H61.909C61.909 74.7698 61.9192 73.9086 61.9446 73.2257C61.9599 72.5428 62.0313 71.8803 62.1383 71.2331C59.4575 71.3758 55.1253 71.4625 49.1623 71.4981Z" fill="#100F0F"/>
<path d="M83.7839 58.7314H78.0145L78.4171 71.9355L72.6936 58.7314H64.0293C64.1567 61.7738 64.2179 64.6175 64.2179 67.2522C64.2179 69.9124 64.1567 72.756 64.0293 75.8035H70.079L69.6611 62.946L75.3591 75.8035H83.7839C83.6717 73.1433 83.6208 70.2997 83.6208 67.2522C83.6208 64.2302 83.6717 61.3814 83.7839 58.7314Z" fill="#100F0F"/>
<path d="M99.3233 70.6626C98.5588 71.0906 97.5191 71.3098 96.2144 71.3098C94.5784 71.3098 93.3705 70.9072 92.5754 70.1173C91.7803 69.3223 91.393 68.303 91.393 67.0392C91.393 65.8824 91.7599 64.8988 92.4938 64.1089C93.2328 63.319 94.3592 62.9266 95.8678 62.9266C96.882 62.9266 97.8861 63.1406 98.8646 63.5585C99.8432 63.9866 100.562 64.6389 101.021 65.5205C102.922 64.5472 104.573 63.8184 105.99 63.3292C104.313 59.9199 100.99 58.2178 96.0309 58.2178C92.4887 58.2178 89.8691 59.0332 88.1923 60.6639C86.5155 62.2998 85.6694 64.5217 85.6694 67.3348C85.6694 70.1275 86.5155 72.278 88.1923 73.7865C89.8691 75.2949 92.4887 76.0441 96.0309 76.0441C98.197 76.0441 100.2 75.667 102.04 74.9178C103.87 74.1585 105.184 72.8284 105.969 70.9326C103.956 70.0714 102.315 69.2968 101.026 68.6088C100.654 69.5363 100.088 70.2294 99.3233 70.6626Z" fill="#100F0F"/>
<path d="M122.422 58.707C122.044 59.4918 121.316 60.8627 120.23 62.8043C119.302 64.4657 118.568 65.8722 118.013 67.0239C117.62 66.2391 116.887 64.8836 115.821 62.9674C114.756 61.0869 113.992 59.66 113.513 58.707H106.928C107.524 59.66 108.385 60.9748 109.517 62.6413C110.959 64.8224 112.075 66.5347 112.855 67.7782C113.64 69.0318 114.323 70.2396 114.899 71.4168V75.8046H121.051V71.8194C121.851 70.1428 122.85 68.3031 124.047 66.3003C125.25 64.3077 126.687 61.9991 128.369 59.3899L128.823 58.707H122.422Z" fill="#100F0F"/>
<path d="M37.7866 32.1348C34.7796 30.611 29.9582 29.8517 23.3173 29.8517C20.6262 29.8517 18.5621 29.6326 17.1401 29.1688C15.7182 28.7153 14.9995 28.1139 14.9995 27.3648C14.9995 26.6157 15.5194 26.0449 16.5489 25.6525C17.5784 25.2601 19.5916 25.0664 22.563 25.0664C25.0348 25.0664 27.8889 25.4945 31.11 26.3608C34.3413 27.2221 36.752 28.2872 38.3422 29.5714C38.4696 29.2555 38.6225 28.7866 38.8111 28.1649C39.8151 25.1938 40.7733 22.6712 41.6805 20.5971C38.9181 19.1549 35.8295 18.0236 32.3995 17.1878C28.9643 16.3622 25.626 15.9443 22.3693 15.9443C16.763 15.9443 12.2066 16.9483 8.695 18.9511C5.20381 20.9589 3.45056 24.0778 3.45056 28.3025C3.45056 31.2837 4.89291 33.4292 7.77251 34.7593C10.6521 36.0945 15.2901 36.7621 21.6761 36.7621C27.5016 36.7621 30.4169 37.715 30.4169 39.6261C30.4169 40.1612 29.8817 40.6504 28.8165 41.1091C27.7513 41.5575 25.9216 41.7869 23.3224 41.7869C20.7842 41.7869 18.0473 41.4199 15.1015 40.7065C12.1607 39.9828 9.57163 38.984 7.35459 37.6998C6.69203 39.514 6.00908 41.1142 5.31084 42.4901C4.6024 43.8712 3.71559 45.3593 2.65039 46.9543C5.52999 48.4271 8.77655 49.5432 12.3697 50.3127C15.973 51.0771 19.5203 51.4644 22.986 51.4644C29.4689 51.4644 34.3107 50.5013 37.5063 48.5749C40.7019 46.6486 42.2971 43.4992 42.2971 39.1114C42.2971 35.9773 40.7987 33.6534 37.7866 32.1348Z" fill="#100F0F"/>
<path d="M118.161 39.2489C121.392 38.403 123.665 37.0423 125 35.1618C126.331 33.2864 126.993 30.9881 126.993 28.2616C126.993 24.7861 125.739 22.024 123.237 19.9906C120.735 17.9623 116.311 16.9431 109.986 16.9431H100.358V16.9023H89.2729C89.5176 22.9769 89.6501 28.6591 89.6501 33.9489C89.6501 39.2387 89.5227 44.9209 89.2729 50.9955H100.358V40.0898H107.259C110.23 44.7833 112.412 48.422 113.793 50.9853H126.565L118.956 40.421C118.808 40.1407 118.548 39.7534 118.161 39.2489ZM115.582 30.2288C115.052 30.6059 114.099 30.8862 112.743 31.0543C111.382 31.2225 109.369 31.3091 106.703 31.3091H100.363V25.9582H106.703C109.394 25.9582 111.433 26.0346 112.814 26.1875C114.196 26.3506 115.133 26.6156 115.633 26.9876C116.127 27.3647 116.382 27.8998 116.382 28.5827C116.382 29.3064 116.117 29.8516 115.582 30.2288Z" fill="#100F0F"/>
<path d="M93.029 6.03426C92.6009 5.30042 91.9485 5.14753 90.9139 5.31061C90.073 5.43801 89.6448 5.38705 89.3696 4.91821C89.176 4.57676 89.2014 4.02129 89.8742 3.63398C90.3278 3.37917 90.7457 3.33331 90.9547 3.32821L90.8273 2.69629C90.5368 2.70648 90.1035 2.79821 89.5939 3.08869C88.6306 3.64927 88.3146 4.59715 88.7682 5.37176C89.1709 6.06993 89.9201 6.19734 90.8884 6.01897C91.7141 5.89157 92.132 6.00368 92.397 6.46234C92.6875 6.96686 92.5092 7.53762 91.8517 7.90964C91.4083 8.16445 90.9037 8.26637 90.5164 8.25108L90.6591 8.8881C91.026 8.90339 91.6325 8.74541 92.1167 8.47022C93.2838 7.78733 93.4673 6.79868 93.029 6.03426Z" fill="#100F0F"/>
<path d="M97.4172 3.6288C96.9483 2.46179 95.8933 1.95217 94.7925 2.38534C93.7273 2.81342 93.1921 3.8938 93.6916 5.17293C94.1758 6.39091 95.2766 6.83428 96.3062 6.41639C97.2337 6.04947 97.9779 5.04553 97.4172 3.6288ZM96.138 5.88639C95.455 6.15139 94.7211 5.70803 94.3898 4.87226C94.0993 4.13842 94.1605 3.24659 94.9759 2.91534C95.8016 2.58919 96.4489 3.29246 96.7037 3.93967C97.0503 4.79582 96.8005 5.62139 96.138 5.88639Z" fill="#100F0F"/>
<path d="M104.343 1.78962C104.078 0.383082 103.217 0.179236 102.682 0.281159C102.3 0.347409 102.05 0.505389 101.836 0.734716C101.693 0.8876 101.571 1.09145 101.484 1.34625H101.469C101.204 0.902888 100.72 0.637889 100.164 0.750004C99.5016 0.867215 99.1856 1.30548 99.0327 1.72846H99.0072L98.8543 1.08125L98.207 1.19846C98.2988 1.52971 98.3701 1.87116 98.4466 2.28904L99.0021 5.2448L99.7156 5.1174L99.262 2.67125C99.2365 2.54385 99.2264 2.41644 99.2518 2.29413C99.3028 1.90173 99.5678 1.47875 100.027 1.39212C100.587 1.29019 100.964 1.69789 101.082 2.3451L101.535 4.77086L102.249 4.63326L101.78 2.13615C101.764 1.99856 101.764 1.85587 101.77 1.75394C101.831 1.37173 102.101 1.00481 102.519 0.918177C103.115 0.806062 103.482 1.22395 103.625 2.00875L104.053 4.30201L104.777 4.16442L104.343 1.78962Z" fill="#100F0F"/>
<path d="M109.292 1.94171C109.303 1.19258 108.941 7.85014e-05 107.595 7.85014e-05C106.392 -0.0101138 105.664 0.973441 105.653 2.2169C105.653 3.46036 106.403 4.29612 107.672 4.29612C108.329 4.30632 108.778 4.16872 109.043 4.05151L108.925 3.51642C108.645 3.63363 108.314 3.73045 107.784 3.73045C107.035 3.72026 106.387 3.30238 106.367 2.28825L109.262 2.29844C109.277 2.2169 109.292 2.09459 109.292 1.94171ZM106.387 1.74805C106.448 1.22825 106.78 0.530077 107.539 0.540269C108.385 0.540269 108.589 1.27921 108.569 1.75825L106.387 1.74805Z" fill="#100F0F"/>
<path d="M112.565 0.403543C111.438 0.225178 110.419 0.887676 110.215 2.25344C110.011 3.53767 110.735 4.48555 111.841 4.65372C112.83 4.79642 113.971 4.30719 114.211 2.79873C114.394 1.55017 113.742 0.581908 112.565 0.403543ZM113.441 2.71209C113.298 3.6243 112.667 4.21036 111.958 4.09824C111.234 3.98613 110.827 3.2268 110.959 2.34517C111.076 1.57056 111.581 0.811234 112.458 0.94883C113.339 1.08133 113.553 2.01392 113.441 2.71209Z" fill="#100F0F"/>
<path d="M117.992 1.70154C117.345 1.49769 116.774 1.71173 116.458 2.02769L116.443 2.0175L116.606 1.3601L115.974 1.15625C115.898 1.4875 115.796 1.81875 115.668 2.23154L114.756 5.09557L115.469 5.32489L116.219 2.96538C116.259 2.83798 116.31 2.72586 116.371 2.63923C116.616 2.2825 117.095 2.06846 117.564 2.22134C118.237 2.43538 118.303 3.03673 118.099 3.66865L117.376 5.93643L118.089 6.16066L118.838 3.81644C119.277 2.47105 118.538 1.87481 117.992 1.70154Z" fill="#100F0F"/>
<path d="M122.544 3.57261C121.463 3.04261 120.372 3.59809 119.827 4.71414C119.282 5.8302 119.587 6.92077 120.729 7.47625C121.315 7.76673 121.779 7.84317 122.064 7.85846L122.192 7.31317C121.886 7.29789 121.555 7.23673 121.076 7.00741C120.403 6.67616 120 6.00856 120.439 5.10145L123.038 6.38058C123.079 6.31433 123.15 6.21241 123.216 6.07481C123.548 5.38683 123.751 4.16886 122.544 3.57261ZM122.645 5.58049L120.678 4.61732C120.969 4.17395 121.57 3.69491 122.253 4.03126C123.012 4.40328 122.865 5.15241 122.645 5.58049Z" fill="#100F0F"/>
<path d="M129.088 7.89924L126.958 9.32107C126.692 9.48924 126.438 9.68799 126.224 9.84087L126.208 9.83068C126.31 9.59116 126.422 9.27011 126.514 8.99491L127.289 6.51819L126.642 6.01367L125.525 9.95809C125.5 10.0498 125.474 10.111 125.449 10.1466C125.423 10.1823 125.362 10.2129 125.296 10.2486C124.919 10.4524 124.547 10.5187 124.282 10.5289C123.991 10.539 123.726 10.4881 123.543 10.4167L123.303 11.0283C123.471 11.1149 123.838 11.2423 124.333 11.2066C125.006 11.1659 125.739 10.8142 127.024 10.0243L129.71 8.37828L129.088 7.89924Z" fill="#100F0F"/>
<path d="M131.855 10.36C131.055 9.54466 129.842 9.45803 128.858 10.4212C127.931 11.3334 127.936 12.5157 128.721 13.3158C129.409 14.0293 130.627 14.3197 131.718 13.2547C132.62 12.3781 132.681 11.2009 131.855 10.36ZM131.162 12.7298C130.5 13.377 129.638 13.4636 129.144 12.9489C128.634 12.4189 128.751 11.578 129.399 10.9461C129.959 10.4008 130.821 10.1052 131.437 10.7321C132.059 11.3742 131.667 12.2405 131.162 12.7298Z" fill="#100F0F"/>
<path d="M135.698 15.2575L133.629 16.715C133.517 16.7914 133.4 16.8526 133.277 16.8832C132.926 16.9596 132.442 16.873 132.151 16.4653C131.759 15.9098 132.049 15.4104 132.686 14.9568L134.552 13.6369L134.118 13.0254L132.151 14.4217C130.969 15.2575 131.127 16.0984 131.494 16.6284C131.922 17.2246 132.523 17.3265 132.91 17.2909L132.921 17.3061L132.401 17.7342L132.783 18.2693C133.028 18.0655 133.339 17.8412 133.675 17.5966L136.132 15.8588L135.698 15.2575Z" fill="#100F0F"/>
<path d="M138.858 20.9402C138.644 20.4816 138.144 20.2166 137.563 20.2777L137.548 20.242L138.272 19.8853L137.997 19.2891C137.665 19.4674 137.283 19.656 136.845 19.8496L134.261 21.0319L134.567 21.7046L136.559 20.7924C136.677 20.7415 136.799 20.7058 136.891 20.6752C137.446 20.5376 137.966 20.7109 138.185 21.195C138.226 21.2868 138.251 21.3581 138.272 21.4345L138.909 21.1441C138.909 21.0778 138.894 21.0167 138.858 20.9402Z" fill="#100F0F"/>
<path d="M139.883 23.7438C139.506 22.6022 138.349 22.2098 137.166 22.592C135.984 22.9742 135.428 23.9527 135.821 25.1656C136.014 25.7873 136.29 26.1797 136.483 26.3937L136.952 26.1033C136.758 25.8739 136.56 25.5936 136.397 25.0789C136.167 24.3706 136.361 23.6214 137.324 23.3004L138.216 26.0523C138.282 26.037 138.405 26.0166 138.558 25.9657C139.276 25.7363 140.29 25.0331 139.883 23.7438ZM138.512 25.2216L137.839 23.1424C138.349 23.0405 139.118 23.1424 139.358 23.8559C139.607 24.656 138.97 25.084 138.512 25.2216Z" fill="#100F0F"/>
<path d="M142.487 26.3926L136.575 27.636L136.728 28.375L142.64 27.1213L142.487 26.3926Z" fill="#100F0F"/>
<path d="M141.345 31.7034L138.848 31.1479C138.542 31.0817 138.226 31.0307 137.971 30.9798V30.9696C138.211 30.8676 138.516 30.73 138.781 30.6128L141.106 29.456L141.014 28.6406L137.4 30.567C137.314 30.6179 137.258 30.6332 137.212 30.6434C137.171 30.6434 137.11 30.6281 137.023 30.6026C136.621 30.4752 136.31 30.251 136.126 30.0675C135.912 29.8637 135.769 29.6344 135.693 29.456L135.086 29.7108C135.137 29.8892 135.306 30.2408 135.667 30.5721C136.162 31.0307 136.921 31.3212 138.384 31.7034L141.427 32.5035L141.345 31.7034Z" fill="#100F0F"/>
<path d="M139.362 35.4339C138.068 35.2963 137.166 36.0658 137.054 37.1819C136.952 38.1705 137.507 39.2968 139.021 39.4496C140.275 39.577 141.213 38.8687 141.33 37.6966C141.447 36.5499 140.733 35.5715 139.362 35.4339ZM139.072 38.6801C138.144 38.5884 137.528 37.9819 137.604 37.2736C137.681 36.5397 138.415 36.0913 139.306 36.183C140.091 36.2696 140.856 36.7283 140.774 37.615C140.683 38.4916 139.77 38.7464 139.072 38.6801Z" fill="#100F0F"/>
<path d="M140.581 41.7617L140.749 41.1145C140.408 41.0534 140.066 40.9769 139.658 40.8699L136.753 40.1055L136.56 40.8291L138.96 41.461C139.077 41.4967 139.2 41.5477 139.286 41.5986C139.653 41.828 139.893 42.2866 139.77 42.7657C139.592 43.4485 138.986 43.5505 138.348 43.3772L136.05 42.7708L135.861 43.4944L138.236 44.1161C139.597 44.4831 140.163 43.7135 140.306 43.1632C140.474 42.5058 140.229 41.9452 139.903 41.6445V41.6292L140.581 41.7617Z" fill="#100F0F"/>
<path d="M85.5215 16.8418V35.5344C85.4552 40.1414 83.8854 43.9431 80.802 46.9498C77.7185 49.9565 72.5199 51.4548 65.2266 51.4548C57.8314 51.4548 52.7806 50.0228 50.0539 47.1587C47.3272 44.2947 45.997 40.5287 46.0582 35.8606V16.8418H60.976C60.0637 18.3655 55.6093 25.5154 55.6093 25.5154L57.7142 25.0466L64.2328 23.6095L57.7142 35.1166L65.7924 32.8233L61.5825 41.5887L59.9567 44.9776L62.6579 41.818L73.8705 28.6801L76.1946 25.9537L67.9941 28.2164L75.6595 16.8418H85.5215Z" fill="#100F0F"/>
</svg>
