<?xml version="1.0" standalone="no"?>
<!DOCTYPE svg PUBLIC "-//W3C//DTD SVG 20010904//EN"
 "http://www.w3.org/TR/2001/REC-SVG-20010904/DTD/svg10.dtd">
<svg version="1.0" xmlns="http://www.w3.org/2000/svg"
 width="700.000000pt" height="700.000000pt" viewBox="0 0 700.000000 700.000000"
 preserveAspectRatio="xMidYMid meet">
<metadata>
Created by potrace 1.14, written by Peter Selinger 2001-2017
</metadata>
<g transform="translate(0.000000,700.000000) scale(0.100000,-0.100000)"
fill="#000000" stroke="none">
<path d="M1000 6758 c-30 -3 -80 -9 -110 -13 -30 -4 -57 -8 -61 -11 -4 -2 -24
-6 -45 -10 -22 -3 -79 -19 -129 -35 -331 -111 -489 -311 -481 -607 2 -82 7
-106 30 -155 31 -65 95 -133 160 -171 71 -42 226 -87 351 -102 17 -2 44 -6 60
-9 51 -7 211 -16 395 -20 96 -2 195 -7 220 -10 76 -10 174 -44 203 -70 32 -28
44 -73 28 -103 -15 -29 -105 -70 -171 -79 -104 -14 -451 -6 -479 11 -3 2 -22
7 -41 10 -153 25 -331 82 -463 147 -44 22 -80 39 -82 39 -1 0 -8 -15 -15 -32
-46 -118 -130 -289 -189 -383 -33 -53 -46 -84 -40 -91 10 -13 164 -78 264
-112 150 -52 402 -104 573 -119 109 -10 414 -10 507 -1 138 14 164 18 276 47
349 89 504 270 513 601 7 234 -141 394 -432 465 -54 14 -118 27 -143 30 -24 3
-55 7 -69 10 -47 8 -185 16 -370 20 -325 8 -460 49 -460 140 0 85 136 125 410
119 135 -2 197 -8 275 -26 246 -55 415 -112 513 -174 29 -19 56 -34 60 -34 4
0 26 57 50 128 24 70 63 177 87 237 34 85 41 113 32 122 -34 34 -334 144 -482
178 -38 9 -88 20 -110 25 -22 6 -69 14 -105 19 -36 6 -85 13 -110 17 -63 9
-354 11 -420 2z"/>
<path d="M2484 6709 c-7 -11 -7 -1118 1 -1169 17 -125 29 -174 66 -261 31 -75
98 -176 150 -228 121 -120 294 -187 564 -218 125 -15 533 -7 587 12 7 2 28 7
46 10 79 13 101 18 157 37 76 26 190 82 235 116 62 47 151 145 197 220 48 77
97 205 115 300 6 35 11 272 12 624 l2 566 -315 -1 -315 -2 -2 -550 c-1 -590
-4 -621 -52 -685 -74 -98 -180 -136 -386 -139 -193 -3 -304 32 -379 120 -31
36 -39 57 -52 134 -1 6 -3 260 -3 566 l-2 557 -310 0 c-188 1 -312 -3 -316 -9z"/>
<path d="M4828 6515 c9 -254 9 -1231 0 -1477 -5 -141 -4 -187 5 -190 7 -2 140
-3 297 -3 l285 1 5 299 5 299 175 1 c96 0 180 -1 187 -3 10 -3 52 -65 108
-160 6 -9 47 -78 91 -152 44 -74 98 -166 119 -205 21 -38 40 -72 42 -74 6 -8
683 -6 683 2 0 4 -60 91 -132 193 -73 102 -140 195 -148 208 -8 12 -45 64 -82
117 -37 52 -68 100 -70 107 -2 7 25 22 64 36 215 76 336 206 384 413 16 69 20
199 10 273 -24 162 -131 318 -275 398 -45 26 -151 62 -227 78 -157 32 -242 36
-921 38 l-612 2 7 -201z m1272 -309 c120 -18 172 -48 184 -104 13 -60 -9 -103
-66 -130 -69 -33 -186 -44 -499 -45 l-294 -2 -3 149 -3 148 323 -5 c178 -3
339 -8 358 -11z"/>
<path d="M5631 4654 c-351 -53 -604 -223 -745 -502 -24 -47 -25 -52 -9 -53 73
-3 291 -55 434 -103 l128 -42 22 40 c73 131 181 210 320 231 78 13 216 8 268
-10 89 -29 137 -101 100 -149 -32 -40 -141 -56 -402 -59 l-137 -1 2 -218 3
-218 225 -5 c124 -2 241 -7 260 -10 112 -19 145 -43 143 -101 -2 -64 -69 -110
-196 -136 -64 -13 -279 -17 -332 -6 -128 26 -192 68 -247 166 -16 28 -31 52
-33 52 -2 0 -23 -8 -47 -19 -97 -41 -481 -152 -535 -154 -20 -1 -16 -15 23
-86 132 -241 371 -396 687 -446 154 -25 443 -28 582 -7 183 29 353 89 471 167
108 72 210 201 228 290 4 17 9 41 11 55 3 14 6 48 6 76 3 181 -112 310 -311
348 -68 13 -229 13 -252 0 -7 -4 -10 -4 -7 0 4 4 59 25 123 47 269 92 370 184
375 344 3 84 -18 148 -73 222 -110 150 -311 244 -621 292 -85 13 -365 10 -464
-5z"/>
<path d="M356 4540 c11 -255 13 -411 13 -800 0 -228 -2 -491 -5 -585 -3 -93
-6 -206 -7 -250 l-2 -80 610 2 c678 3 719 4 894 40 248 50 397 173 451 374 38
139 9 339 -66 456 -66 103 -247 205 -407 228 -23 4 -44 8 -47 10 -6 4 -107 15
-185 21 -27 2 -179 4 -337 5 -159 0 -288 4 -289 7 -1 4 -2 44 -3 90 l-1 82 30
0 c16 1 297 1 623 1 l592 0 0 253 0 252 -934 0 -935 0 5 -106z m1224 -1014
c69 -11 119 -29 140 -50 45 -48 42 -131 -6 -162 -55 -37 -131 -45 -439 -51
l-300 -5 1 133 c1 74 2 137 3 141 1 7 549 2 601 -6z"/>
<path d="M2506 4640 c-1 -3 -1 -25 -1 -50 22 -607 22 -1236 0 -1712 -1 -38 2
-48 14 -49 9 -1 212 -2 451 -3 l435 -1 16 25 c8 14 21 41 29 60 8 19 29 69 48
110 34 74 98 216 307 685 59 132 121 272 139 310 18 39 41 91 52 117 22 56 31
61 28 16 -1 -18 -5 -121 -9 -228 -3 -107 -8 -249 -10 -315 -2 -66 -7 -192 -9
-280 -3 -88 -8 -237 -11 -330 l-6 -170 323 0 323 1 -4 199 c-6 264 -6 1145 0
1409 l4 209 -458 1 c-253 1 -462 -1 -466 -4 -4 -3 -108 -234 -231 -515 -232
-530 -265 -607 -280 -640 -5 -11 -30 -67 -55 -124 -25 -58 -47 -107 -49 -108
-2 -2 -2 40 -1 94 2 54 6 204 10 333 4 129 8 280 10 335 2 55 6 199 10 320 4
121 7 237 9 258 1 21 -3 41 -8 45 -12 7 -607 9 -610 2z"/>
<path d="M5617 2564 c-1 -1 -38 -5 -82 -8 -74 -6 -94 -9 -151 -20 -461 -93
-701 -385 -707 -862 -4 -405 155 -703 458 -857 64 -32 192 -74 264 -86 31 -6
72 -13 91 -16 59 -11 391 -14 460 -4 115 16 133 19 193 35 275 71 471 215 596
437 11 21 21 41 21 46 0 4 -33 21 -72 36 -92 36 -153 63 -305 136 -66 33 -124
59 -127 59 -3 0 -12 -13 -20 -28 -23 -45 -104 -119 -165 -153 -98 -53 -211
-81 -336 -82 -165 -2 -267 33 -353 121 -164 169 -153 486 22 645 83 75 208
108 391 103 235 -7 356 -70 435 -226 12 -25 24 -46 25 -48 1 -1 76 34 166 79
90 45 200 97 244 116 44 19 83 38 88 42 23 22 -86 193 -178 279 -103 97 -251
168 -440 212 -75 18 -102 23 -200 36 -39 6 -313 13 -318 8z"/>
<path d="M398 2542 l-48 -3 7 -192 c10 -245 9 -1165 0 -1409 l-7 -187 285 0
285 0 0 334 0 335 23 1 c30 1 839 1 855 0 9 -1 12 -75 12 -336 l0 -335 285 0
285 0 -7 223 c-8 256 -9 934 -2 1310 l4 259 -230 0 c-126 -1 -254 -1 -282 -1
l-53 -1 0 -335 0 -335 -445 0 -445 0 0 335 0 335 -32 0 c-229 4 -452 4 -490 2z"/>
<path d="M2628 2542 l-56 -3 3 -57 c21 -319 22 -1166 2 -1687 l-2 -40 940 0
940 0 0 220 0 220 -643 1 c-353 1 -648 4 -655 7 -9 3 -12 34 -11 108 1 57 2
109 3 115 1 9 133 10 499 7 273 -2 529 -5 567 -6 l70 -2 0 210 0 210 -70 -2
c-251 -8 -1060 -11 -1065 -4 -4 7 -5 179 -1 240 1 11 74 12 454 7 425 -6 669
-12 815 -19 l63 -3 -5 40 c-14 105 -16 141 -17 284 l-2 152 -41 0 c-210 3
-1744 4 -1788 2z"/>
</g>
</svg>
