<?xml version="1.0" standalone="no"?>
<!DOCTYPE svg PUBLIC "-//W3C//DTD SVG 20010904//EN"
 "http://www.w3.org/TR/2001/REC-SVG-20010904/DTD/svg10.dtd">
<svg version="1.0" xmlns="http://www.w3.org/2000/svg"
 width="700.000000pt" height="700.000000pt" viewBox="0 0 700.000000 700.000000"
 preserveAspectRatio="xMidYMid meet">
<metadata>
Created by potrace 1.14, written by Peter Selinger 2001-2017
</metadata>
<g transform="translate(0.000000,700.000000) scale(0.100000,-0.100000)"
fill="#000000" stroke="none">
<path d="M3394 6985 c-199 -63 -316 -257 -275 -456 6 -30 13 -63 15 -74 3 -11
10 -42 16 -70 14 -62 67 -318 75 -365 3 -19 15 -80 25 -135 17 -89 45 -256 55
-325 4 -31 16 -110 20 -130 1 -8 6 -42 10 -75 4 -32 8 -66 10 -75 1 -8 6 -40
9 -71 4 -31 8 -66 11 -77 2 -11 6 -53 10 -94 3 -40 8 -80 10 -88 2 -8 7 -49
10 -91 3 -42 7 -85 9 -96 2 -11 7 -62 11 -114 3 -52 8 -111 10 -131 3 -33 10
-148 20 -318 2 -25 6 -153 10 -285 3 -132 8 -246 10 -252 3 -7 1 -13 -4 -13
-10 0 -158 273 -291 535 -148 294 -238 486 -357 765 -151 351 -296 736 -418
1110 -88 270 -103 312 -132 353 -38 55 -99 105 -163 135 -47 22 -69 26 -155
26 -93 1 -105 -1 -165 -31 -101 -50 -159 -112 -198 -213 -12 -30 -23 -77 -26
-103 -5 -66 18 -169 50 -225 24 -41 52 -74 189 -222 74 -81 301 -343 387 -449
21 -25 46 -55 56 -66 49 -55 404 -518 467 -609 11 -16 29 -41 40 -56 105 -146
159 -224 280 -407 77 -116 152 -231 166 -255 15 -23 68 -109 117 -191 65 -104
85 -144 69 -135 -123 65 -653 409 -894 580 -248 175 -657 487 -793 604 -14 12
-90 77 -170 144 -80 67 -166 141 -191 163 -110 100 -214 195 -253 230 -42 39
-140 93 -186 103 -14 2 -54 5 -90 5 -144 -1 -274 -82 -340 -212 -78 -152 -50
-326 72 -448 59 -59 104 -82 268 -133 270 -83 836 -286 985 -353 17 -7 65 -27
108 -44 43 -17 176 -74 295 -127 386 -170 1181 -573 1155 -586 -4 -2 -35 -4
-68 -3 -200 7 -495 18 -525 20 -19 1 -84 6 -145 9 -60 4 -128 9 -150 11 -22 2
-76 6 -120 10 -44 3 -96 8 -115 10 -19 3 -66 7 -105 10 -38 3 -77 8 -85 10 -8
2 -48 7 -88 10 -41 4 -83 8 -94 10 -11 3 -46 7 -77 11 -31 3 -63 7 -71 9 -8 1
-40 6 -70 10 -30 3 -93 13 -140 20 -47 8 -103 17 -125 20 -23 3 -52 8 -65 10
-43 9 -74 14 -115 20 -22 3 -121 22 -220 41 -183 36 -207 41 -247 48 -13 2
-77 16 -143 32 -140 32 -238 35 -312 10 -111 -37 -208 -135 -246 -250 -26 -77
-18 -205 18 -281 55 -116 163 -196 292 -218 68 -12 106 -6 383 53 80 17 156
34 170 36 61 11 247 47 265 50 11 3 36 7 55 10 19 2 46 7 60 10 56 10 67 12
115 18 28 4 75 11 105 16 30 5 69 11 85 14 36 5 142 20 239 32 27 3 58 7 69
10 11 2 54 6 96 9 42 3 83 8 91 10 8 2 49 7 90 10 41 3 91 7 110 10 19 3 69 7
110 11 41 3 95 7 120 9 45 4 202 14 315 20 33 2 166 6 295 10 129 3 241 8 248
10 39 14 -6 -16 -133 -85 -33 -18 -80 -44 -105 -58 -263 -146 -875 -436 -1198
-567 -48 -20 -98 -41 -112 -47 -50 -22 -66 -28 -157 -62 -51 -19 -120 -46
-155 -59 -35 -14 -117 -44 -183 -67 -66 -23 -129 -46 -140 -50 -11 -5 -132
-45 -270 -90 -137 -45 -268 -92 -290 -105 -52 -30 -117 -99 -146 -156 -135
-263 70 -579 366 -563 62 4 91 12 161 46 45 22 53 28 184 148 51 47 100 92
110 100 9 8 45 40 80 70 34 30 68 60 74 65 6 6 40 35 76 65 36 30 67 58 70 61
11 13 423 341 540 429 69 52 193 143 275 202 83 59 155 111 160 116 51 43 721
472 813 521 29 15 28 11 -10 -52 -18 -29 -38 -61 -45 -72 -153 -257 -586 -901
-700 -1040 -4 -5 -44 -57 -88 -115 -134 -177 -391 -497 -470 -586 -5 -6 -32
-38 -60 -70 -27 -32 -111 -125 -185 -207 -74 -82 -154 -173 -177 -203 -87
-113 -101 -281 -33 -414 29 -57 111 -134 174 -164 108 -51 245 -52 344 -1 51
27 122 92 151 140 17 29 73 179 129 350 93 281 195 570 228 642 8 17 14 36 14
42 0 6 4 19 10 29 5 9 29 67 54 127 60 153 181 432 260 605 143 310 482 967
494 955 9 -9 -8 -539 -23 -720 -2 -27 -7 -90 -10 -140 -3 -49 -8 -108 -10
-130 -2 -22 -7 -71 -10 -110 -3 -38 -10 -106 -15 -150 -5 -44 -12 -100 -14
-125 -6 -63 -35 -290 -40 -320 -3 -14 -10 -63 -17 -110 -15 -114 -16 -120 -23
-155 -3 -16 -14 -88 -26 -159 -11 -71 -22 -131 -24 -135 -2 -3 -7 -31 -11 -61
-4 -30 -9 -58 -11 -61 -2 -4 -6 -24 -10 -45 -7 -47 -55 -277 -83 -394 -54
-231 20 -406 209 -497 41 -20 75 -28 136 -31 120 -6 211 27 293 107 79 77 120
179 116 286 -3 67 -2 62 -49 277 -49 221 -136 694 -160 878 -3 19 -10 69 -15
110 -6 41 -13 98 -17 125 -3 28 -7 61 -9 74 -3 14 -7 52 -10 85 -3 34 -8 72
-10 86 -4 22 -10 78 -20 200 -2 19 -6 62 -9 95 -27 285 -62 1035 -49 1035 6 0
215 -397 322 -610 132 -265 162 -328 268 -570 35 -80 70 -158 78 -175 35 -78
217 -545 259 -665 27 -74 52 -144 57 -155 8 -20 88 -262 149 -449 32 -101 58
-150 101 -196 154 -163 413 -164 567 -2 57 60 99 156 104 234 3 56 -11 156
-23 163 -5 4 -9 13 -9 21 0 16 -54 101 -76 119 -11 9 -122 132 -271 301 -208
235 -558 671 -728 908 -11 15 -41 56 -66 89 -155 209 -579 857 -658 1005 -12
22 3 14 314 -178 224 -138 598 -395 858 -589 271 -202 310 -233 557 -436 126
-104 172 -143 224 -190 6 -5 45 -39 86 -75 41 -36 80 -69 86 -75 6 -5 53 -48
104 -95 116 -107 170 -145 231 -165 186 -62 388 25 473 204 28 60 31 75 31
166 0 88 -3 107 -27 157 -37 80 -108 152 -185 189 -35 17 -73 32 -85 34 -52
10 -528 172 -748 255 -330 123 -553 217 -905 378 -201 91 -638 309 -775 386
-36 20 -95 52 -132 72 -37 20 -65 40 -62 45 3 5 8 7 12 5 4 -2 115 -7 247 -11
132 -4 263 -8 290 -10 28 -1 104 -6 170 -9 66 -4 131 -9 145 -11 14 -2 70 -7
125 -11 55 -3 108 -8 117 -9 9 -2 48 -6 85 -10 37 -3 84 -8 103 -10 76 -10
227 -27 255 -30 33 -3 121 -16 146 -20 9 -2 40 -6 69 -10 29 -4 62 -9 74 -11
12 -2 41 -7 66 -10 25 -3 54 -8 65 -10 10 -2 37 -6 60 -10 22 -3 123 -21 225
-39 102 -19 199 -36 215 -39 35 -7 30 -6 215 -45 80 -17 164 -36 188 -43 23
-6 73 -8 113 -5 140 11 261 95 322 225 29 61 32 76 32 162 0 86 -3 101 -32
160 -85 174 -260 257 -453 216 -296 -64 -540 -113 -650 -131 -19 -3 -42 -8
-50 -10 -14 -4 -39 -8 -127 -20 -21 -3 -60 -10 -88 -15 -27 -5 -68 -11 -90
-14 -22 -3 -85 -12 -140 -20 -55 -8 -125 -17 -155 -21 -30 -3 -66 -7 -80 -10
-14 -2 -54 -7 -90 -11 -36 -3 -72 -7 -80 -9 -8 -2 -51 -6 -95 -10 -44 -4 -93
-9 -110 -10 -16 -2 -66 -6 -110 -10 -44 -3 -98 -8 -120 -10 -40 -4 -200 -15
-305 -20 -30 -2 -152 -6 -270 -10 -118 -3 -234 -8 -257 -10 -71 -5 -64 1 107
92 47 25 90 49 95 53 6 4 107 57 225 117 403 204 742 358 1134 515 239 95 580
219 851 307 137 45 268 93 290 106 58 33 122 106 153 173 24 50 27 70 27 157
0 93 -2 105 -32 165 -81 166 -252 251 -432 216 -45 -9 -129 -50 -162 -78 -28
-24 -174 -156 -219 -198 -67 -62 -255 -223 -365 -315 -33 -27 -62 -52 -65 -55
-9 -10 -242 -194 -375 -296 -366 -281 -756 -547 -1169 -799 -87 -53 -156 -92
-153 -88 12 22 202 331 243 394 244 382 526 778 793 1114 87 109 363 441 408
490 10 11 50 56 88 100 39 44 79 89 90 101 136 143 172 191 197 261 65 185
-27 395 -210 481 -50 24 -70 27 -157 27 -93 0 -105 -2 -165 -32 -36 -18 -80
-46 -98 -63 -32 -29 -102 -131 -102 -148 0 -10 -171 -531 -193 -587 -8 -22
-37 -98 -62 -170 -26 -71 -53 -143 -60 -160 -7 -16 -23 -57 -35 -90 -13 -33
-29 -73 -36 -90 -7 -16 -49 -118 -94 -225 -45 -107 -97 -228 -116 -268 -19
-40 -34 -74 -34 -76 0 -7 -149 -317 -214 -446 -137 -272 -297 -570 -306 -570
-7 0 4 449 15 605 2 28 7 95 10 150 3 55 7 116 10 135 2 19 7 71 10 115 9 116
15 187 20 215 3 22 10 87 21 200 2 19 6 51 9 70 3 19 7 58 10 85 3 28 8 61 10
75 3 14 7 45 11 70 3 25 7 54 8 65 2 11 7 43 10 70 4 28 11 73 16 100 5 28 11
64 14 80 2 17 11 73 21 125 9 52 18 109 21 125 3 17 25 129 51 250 25 121 53
261 64 310 34 169 4 288 -99 390 -70 69 -155 106 -256 110 -48 2 -98 -2 -122
-10z"/>
</g>
</svg>
