<svg width="51" height="51" viewBox="0 0 51 51" fill="none" xmlns="http://www.w3.org/2000/svg">
<path d="M48.1684 22.6651C47.9347 22.6664 47.7018 22.6943 47.4744 22.7484C40.5845 24.3309 33.5438 25.165 26.4748 25.2363C32.6326 21.7622 39.1474 18.9632 45.906 16.8878C46.1262 16.8234 46.338 16.7338 46.5375 16.6206C47.1884 16.2446 47.6637 15.6257 47.8589 14.8997C48.054 14.1738 47.9531 13.4 47.5785 12.7483C47.2024 12.0973 46.5836 11.6221 45.8576 11.427C45.1316 11.2318 44.3579 11.3326 43.7061 11.7073C43.5082 11.8236 43.3243 11.9621 43.1579 12.1202C37.9833 16.9374 32.3024 21.1803 26.2146 24.7748C29.8091 18.6869 34.052 13.0061 38.8692 7.8315C39.0265 7.66734 39.166 7.48705 39.2855 7.29365C39.6602 6.64192 39.761 5.86817 39.5658 5.14219C39.3707 4.41621 38.8955 3.79735 38.2446 3.42132C37.5928 3.04665 36.8191 2.94576 36.0931 3.14092C35.3671 3.33607 34.7483 3.81133 34.3722 4.46228C34.259 4.66169 34.1693 4.87357 34.1051 5.09373C32.0297 11.8524 29.2306 18.3672 25.7565 24.5249C25.8279 17.456 26.662 10.4153 28.2444 3.52535C28.2987 3.29799 28.3266 3.06513 28.3277 2.83138C28.3277 2.45926 28.2543 2.09079 28.1118 1.74705C27.9693 1.4033 27.7604 1.09104 27.4972 0.828075C27.2339 0.56511 26.9213 0.356668 26.5774 0.214581C26.2335 0.0724938 25.865 -0.000453902 25.4928 2.12495e-06C24.7419 2.12495e-06 24.0217 0.298355 23.4907 0.829346C22.9597 1.36034 22.6615 2.08044 22.6615 2.83138C22.6615 3.06499 22.6882 3.29783 22.7413 3.52535C24.3254 10.415 25.1596 17.4558 25.2291 24.5249C21.7548 18.3678 18.9568 11.8528 16.8841 5.09373C16.817 4.87406 16.7262 4.66237 16.6134 4.46228C16.2381 3.81157 15.6198 3.33644 14.8944 3.14126C14.169 2.94608 13.3958 3.04682 12.7446 3.42132C12.4216 3.60685 12.1384 3.85426 11.9112 4.14943C11.684 4.44461 11.5172 4.7817 11.4205 5.14143C11.3238 5.50115 11.2991 5.87644 11.3477 6.24575C11.3962 6.61506 11.5172 6.97117 11.7036 7.29365C11.8187 7.49232 11.9574 7.67642 12.1165 7.84192C16.9315 13.0175 21.1732 18.6982 24.7676 24.7852C18.6809 21.189 13.0003 16.9462 7.82434 12.1306C7.65833 11.9721 7.4743 11.8335 7.27607 11.7177C6.62487 11.3432 5.85163 11.2425 5.12622 11.4377C4.40081 11.6328 3.78257 12.108 3.40721 12.7587C3.22077 13.0812 3.09974 13.4373 3.05116 13.8066C3.00258 14.1759 3.0274 14.5512 3.1241 14.9109C3.2208 15.2706 3.38747 15.6077 3.61468 15.9029C3.84188 16.1981 4.12517 16.4455 4.44817 16.631C4.64729 16.7449 4.85923 16.8346 5.07963 16.8982C11.8384 18.9734 18.3532 21.7725 24.5108 25.2467C17.4419 25.1754 10.4012 24.3413 3.51124 22.7588C3.28389 22.7045 3.05103 22.6766 2.81727 22.6756C2.06541 22.6756 1.34442 22.9742 0.812782 23.5058C0.28114 24.0375 -0.0175781 24.7586 -0.0175781 25.5104C-0.0175784 25.8825 0.0557632 26.251 0.198272 26.5947C0.34078 26.9385 0.549664 27.2508 0.812952 27.5137C1.07624 27.7767 1.38876 27.9852 1.73268 28.1273C2.07661 28.2694 2.44515 28.3422 2.81727 28.3418C3.0509 28.3421 3.28377 28.3153 3.51124 28.262C10.4009 26.6778 17.4417 25.8437 24.5108 25.7741C18.3538 29.2487 11.8388 32.0467 5.07963 34.1192C4.85949 34.185 4.64766 34.2758 4.44817 34.3898C4.12529 34.575 3.8421 34.8221 3.61493 35.117C3.38776 35.4119 3.22107 35.7486 3.12436 36.1081C3.02765 36.4675 3.0028 36.8426 3.05133 37.2116C3.09987 37.5807 3.22086 37.9365 3.40721 38.2587C3.59241 38.5816 3.83953 38.8647 4.13439 39.0918C4.42926 39.319 4.76601 39.4858 5.12546 39.5825C5.4849 39.6792 5.85997 39.704 6.22902 39.6554C6.59806 39.6069 6.95386 39.486 7.27607 39.2996C7.47532 39.1854 7.65952 39.0467 7.82434 38.8867C13.0013 34.0733 18.6818 29.8318 24.7676 26.2356C21.1715 32.3215 16.9299 38.002 12.1165 43.1789C11.9569 43.344 11.8183 43.5282 11.7036 43.7272C11.5173 44.0494 11.3964 44.4052 11.3478 44.7742C11.2993 45.1433 11.324 45.5184 11.4208 45.8778C11.5175 46.2372 11.6843 46.574 11.9114 46.8689C12.1386 47.1637 12.4217 47.4108 12.7446 47.596C13.0668 47.7824 13.4226 47.9034 13.7916 47.9519C14.1607 48.0005 14.5358 47.9756 14.8952 47.8789C15.2546 47.7822 15.5914 47.6155 15.8863 47.3883C16.1811 47.1612 16.4282 46.878 16.6134 46.5551C16.7283 46.356 16.8192 46.1441 16.8841 45.9236C18.9566 39.1645 21.7546 32.6494 25.2291 26.4924C25.1596 33.5615 24.3254 40.6023 22.7413 47.492C22.6881 47.7195 22.6613 47.9524 22.6615 48.186C22.661 48.5581 22.7339 48.9266 22.876 49.2706C23.018 49.6145 23.2266 49.927 23.4895 50.1903C23.7525 50.4536 24.0648 50.6625 24.4085 50.805C24.7523 50.9475 25.1207 51.0208 25.4928 51.0208C26.2447 51.0208 26.9658 50.7221 27.4974 50.1905C28.0291 49.6588 28.3277 48.9378 28.3277 48.186C28.327 47.9522 28.299 47.7193 28.2444 47.492C26.662 40.6021 25.8279 33.5614 25.7565 26.4924C29.2308 32.6501 32.0299 39.1649 34.1051 45.9236C34.1681 46.1442 34.2579 46.3562 34.3722 46.5551C34.5578 46.8781 34.8052 47.1614 35.1003 47.3886C35.3955 47.6158 35.7326 47.7824 36.0923 47.8791C36.4521 47.9759 36.8274 48.0007 37.1967 47.9521C37.566 47.9035 37.9221 47.7825 38.2446 47.596C38.8953 47.2207 39.3704 46.6024 39.5656 45.877C39.7608 45.1516 39.66 44.3784 39.2855 43.7272C39.169 43.5295 39.0305 43.3455 38.8726 43.1789C34.057 38.003 29.8143 32.3223 26.2181 26.2356C32.3051 29.8301 37.9858 34.0717 43.1613 38.8867C43.3271 39.0455 43.5112 39.1841 43.7096 39.2996C44.0321 39.4861 44.3882 39.607 44.7575 39.6556C45.1268 39.7042 45.5021 39.6794 45.8618 39.5827C46.2216 39.486 46.5586 39.3193 46.8538 39.0921C47.149 38.8649 47.3964 38.5817 47.5819 38.2587C47.9564 37.6075 48.0572 36.8342 47.862 36.1088C47.6668 35.3834 47.1917 34.7652 46.541 34.3898C46.3416 34.2755 46.1298 34.1847 45.9095 34.1192C39.1504 32.0464 32.6354 29.2485 26.4783 25.7741C33.5474 25.8437 40.5882 26.6778 47.4779 28.262C47.7054 28.3151 47.9383 28.3419 48.1719 28.3418C48.9228 28.3418 49.6429 28.0435 50.1739 27.5125C50.7049 26.9815 51.0033 26.2614 51.0033 25.5104C51.0037 25.1383 50.9308 24.7698 50.7887 24.4258C50.6466 24.0819 50.4381 23.7694 50.1752 23.5061C49.9122 23.2428 49.6 23.0339 49.2562 22.8914C48.9125 22.7489 48.544 22.6756 48.1719 22.6756" fill="#8469FF"/>
</svg>
