<svg width="60" height="60" viewBox="0 0 60 60" fill="none" xmlns="http://www.w3.org/2000/svg">
<path d="M1.09424 16.5612C1.58869 15.8111 1.99588 15.1125 2.31581 14.4653C2.65029 13.8181 2.97023 13.068 3.27562 12.2149C4.30815 12.818 5.50791 13.2886 6.87491 13.6269C8.24191 13.9652 9.51439 14.1344 10.6923 14.1344C11.8994 14.1344 12.7501 14.0314 13.2446 13.8255C13.739 13.6049 13.9862 13.3695 13.9862 13.1195C13.9862 12.2223 12.6338 11.7737 9.92885 11.7737C6.96217 11.7737 4.80987 11.4648 3.47195 10.8471C2.13403 10.2146 1.46507 9.19973 1.46507 7.80244C1.46507 5.81681 2.27946 4.35333 3.90823 3.412C5.537 2.47067 7.65294 2 10.2561 2C11.7685 2 13.3173 2.19856 14.9024 2.59569C16.5021 2.9781 17.9418 3.5076 19.2216 4.18419C18.7998 5.15494 18.3563 6.33896 17.8909 7.73625C17.8037 8.03041 17.7309 8.25104 17.6728 8.39812C16.9311 7.79508 15.8113 7.295 14.3134 6.89787C12.8156 6.48604 11.4922 6.28012 10.3433 6.28012C8.96177 6.28012 8.03105 6.37573 7.55114 6.56694C7.07124 6.74344 6.83128 7.00819 6.83128 7.36119C6.83128 7.71419 7.15849 8.001 7.81291 8.22162C8.48187 8.42754 9.44168 8.5305 10.6923 8.5305C13.7754 8.5305 16.0149 8.89085 17.411 9.61156C18.8071 10.3176 19.5051 11.406 19.5051 12.8768C19.5051 14.936 18.7635 16.4215 17.2801 17.3334C15.7968 18.2306 13.55 18.6792 10.5396 18.6792C8.92541 18.6792 7.2821 18.5027 5.60971 18.1497C3.93731 17.782 2.43216 17.2525 1.09424 16.5612Z" fill="#100F0F"/>
<path d="M34.1603 2.41919H39.5701V11.2001C39.5411 13.3622 38.8067 15.1492 37.3669 16.5612C35.9418 17.9732 33.535 18.6792 30.1466 18.6792C26.7145 18.6792 24.3659 18.01 23.1007 16.6716C21.8355 15.3184 21.2174 13.546 21.2465 11.3545V2.41919H26.6563V11.0015C26.6563 11.6487 26.7 12.1782 26.7872 12.59C26.889 12.9871 27.1944 13.3622 27.7034 13.7152C28.2269 14.0682 29.0631 14.2447 30.212 14.2447C31.4627 14.2447 32.3788 14.0682 32.9605 13.7152C33.5422 13.3475 33.884 12.943 33.9858 12.5017C34.1021 12.0605 34.1603 11.4942 34.1603 10.8029V2.41919Z" fill="#100F0F"/>
<path d="M58.8301 7.78037C58.8301 9.06 58.5174 10.1411 57.8921 11.0236C57.2813 11.9061 56.227 12.5459 54.7291 12.943C54.9036 13.1783 55.0272 13.3622 55.0999 13.4946L58.6338 18.4586H52.7004C52.0605 17.2525 51.0498 15.5464 49.6683 13.3401H46.4616V18.4586H41.3135C41.4299 15.6052 41.4881 12.9356 41.4881 10.4499C41.4881 7.96423 41.4299 5.29467 41.3135 2.44125H46.4616V2.46331H50.9335C53.8711 2.46331 55.9216 2.94133 57.085 3.89737C58.2484 4.85342 58.8301 6.14775 58.8301 7.78037ZM46.4616 6.69931V9.21443H49.4065C50.6426 9.21443 51.5733 9.17766 52.1987 9.10412C52.8385 9.01587 53.2821 8.8835 53.5293 8.707C53.7765 8.5305 53.9001 8.2731 53.9001 7.93481C53.9001 7.61123 53.7838 7.36119 53.5511 7.18469C53.3184 7.00819 52.8822 6.88317 52.2423 6.80962C51.6024 6.73608 50.6572 6.69931 49.4065 6.69931H46.4616Z" fill="#100F0F"/>
<path d="M12.2314 26.0463C14.216 26.0463 15.7732 26.2541 16.9031 26.6698C18.0329 27.0711 18.8224 27.63 19.2715 28.3466C19.7205 29.0632 19.945 29.9447 19.945 30.9909C19.945 32.5101 19.3801 33.6854 18.2502 34.5166C17.1203 35.3479 15.1141 35.7635 12.2314 35.7635H8.36376V35.785H3.01855C3.13444 33.0046 3.19238 30.4033 3.19238 27.9811C3.19238 25.559 3.13444 22.9577 3.01855 20.1773H19.0324V24.4984H8.36376V26.0463H12.2314ZM11.3623 32.0443C12.3618 32.0443 13.1151 32.0085 13.6221 31.9368C14.1435 31.8652 14.5057 31.7505 14.7085 31.5929C14.9258 31.4352 15.0344 31.1987 15.0344 30.8834C15.0344 30.5681 14.9258 30.3245 14.7085 30.1525C14.4912 29.9805 14.1218 29.8587 13.6003 29.787C13.0788 29.7153 12.3328 29.6795 11.3623 29.6795H8.36376V32.0443H11.3623Z" fill="#8469FF"/>
<path d="M26.7815 20.1988L26.4122 32.2593L31.6922 20.1988H39.6883C39.5869 22.6209 39.5362 25.215 39.5362 27.9811C39.5362 30.7616 39.5869 33.3629 39.6883 35.785H34.104L34.4952 24.047L29.2369 35.785H21.4581C21.5739 33.0046 21.6319 30.4033 21.6319 27.9811C21.6319 25.5733 21.5739 22.9792 21.4581 20.1988H26.7815Z" fill="#8469FF"/>
<path d="M53.5498 27.8737C54.0713 27.7733 54.5856 27.7232 55.0926 27.7232C55.9762 27.7232 56.6932 27.8737 57.2437 28.1746C57.8086 28.4613 58.2142 28.8339 58.4605 29.2925C58.7067 29.7368 58.8299 30.2026 58.8299 30.6899C58.8299 31.8222 58.4532 32.7896 57.7 33.5922C56.9467 34.3805 55.9255 34.9824 54.6363 35.3981C53.347 35.7994 51.913 36 50.334 36C45.7566 36 42.7942 34.4235 41.4471 31.2704L42.6639 30.9694C43.562 30.7544 44.3225 30.5538 44.9454 30.3675C45.5827 30.1668 46.1404 29.9447 46.6185 29.701C46.9082 30.4176 47.321 30.9336 47.857 31.2489C48.4074 31.5499 49.1607 31.7004 50.1167 31.7004C51.1307 31.7004 51.9564 31.5857 52.5938 31.3564C53.2312 31.1271 53.5498 30.7831 53.5498 30.3245C53.5498 30.0808 53.4267 29.8945 53.1805 29.7655C52.9342 29.6365 52.5431 29.5505 52.0071 29.5075C51.4712 29.4502 50.7179 29.4215 49.7474 29.4215H48.096V25.6593H49.0955C50.1964 25.6593 51.0945 25.6163 51.7898 25.5303C52.4851 25.43 52.8328 25.2222 52.8328 24.9069C52.8328 24.5486 52.6445 24.2619 52.2679 24.047C51.9057 23.8176 51.3335 23.703 50.5513 23.703C49.5373 23.703 48.7116 23.9108 48.0743 24.3264C47.4514 24.7421 46.9661 25.344 46.6185 26.1323C45.0685 25.516 43.4171 25.0789 41.6644 24.8209C42.3597 23.273 43.4244 22.0763 44.8585 21.2307C46.307 20.3851 48.1684 19.9623 50.4427 19.9623C51.9202 19.9623 53.2456 20.1558 54.419 20.5427C55.6068 20.9154 56.5339 21.4385 57.2002 22.1121C57.8811 22.7857 58.2215 23.5382 58.2215 24.3694C58.2215 24.8567 58.1056 25.2939 57.8738 25.6808C57.642 26.0535 57.1857 26.4261 56.5049 26.7987C55.8241 27.157 54.8391 27.5154 53.5498 27.8737Z" fill="#8469FF"/>
<path d="M20.4046 53.5561C20.3076 51.1748 20.2592 48.6173 20.2592 45.8838C20.2592 43.1502 20.3076 40.5927 20.4046 38.2114H15.5238V43.9604H7.88076V38.2114H3C3.11077 40.945 3.16616 43.5024 3.16616 45.8838C3.16616 48.2651 3.11077 50.8225 3 53.5561H7.88076V47.8071H15.5238V53.5561H20.4046Z" fill="#8469FF"/>
<path d="M26.967 42.0793C32.2285 42.1074 36.0431 42.1849 38.4108 42.3118C38.3139 41.734 38.2515 41.1352 38.2239 40.5152C38.21 39.9093 38.2031 39.1413 38.2031 38.2114H22.0654C22.1762 40.945 22.2316 43.5024 22.2316 45.8838C22.2316 48.2651 22.1762 50.8225 22.0654 53.5561H38.2031V49.7305H26.967V47.7015C27.6316 47.6874 28.6147 47.6803 29.9162 47.6803C32.1177 47.6803 34.3954 47.7226 36.7492 47.8071V44.1717C34.3954 44.2563 32.1177 44.2985 29.9162 44.2985C28.6147 44.2985 27.6316 44.2915 26.967 44.2774V42.0793Z" fill="#8469FF"/>
<path d="M49.2146 38C46.0854 38 43.78 38.6764 42.2985 40.0291C40.817 41.3818 40.0762 43.3122 40.0762 45.8203C40.0762 48.3426 40.817 50.3364 42.2985 51.8018C43.78 53.2673 46.0854 54 49.2146 54C53.59 54 56.5185 52.4712 58 49.4135C56.7539 48.9767 55.2931 48.3214 53.6177 47.4478C53.2162 48.2369 52.5792 48.8217 51.7069 49.2021C50.8485 49.5826 49.9692 49.7728 49.0693 49.7728C47.74 49.7728 46.75 49.4135 46.0993 48.6948C45.4485 47.9903 45.1231 47.1167 45.1231 46.074C45.1231 44.9467 45.4693 44.0238 46.1616 43.3052C46.8677 42.6006 47.9408 42.2483 49.3808 42.2483C50.53 42.2483 51.4439 42.4386 52.1223 42.819C52.8008 43.2136 53.2992 43.8336 53.6177 44.679C54.7531 44.059 56.2069 43.3615 57.9792 42.5865C57.2869 40.8816 56.1308 39.6909 54.5108 39.0145C52.8908 38.3382 51.1254 38 49.2146 38Z" fill="#8469FF"/>
</svg>
