<svg width="105" height="113" viewBox="0 0 105 113" fill="none" xmlns="http://www.w3.org/2000/svg">
<path d="M38.3001 72.9C38.2001 72.9 38.1001 73.1 37.9001 73.2C38.0001 73.3 38.1001 73.4 38.2001 73.6C38.3001 73.5 38.4001 73.4 38.6001 73.3C38.5001 73.1 38.4001 72.9 38.3001 72.9ZM17.4001 48C17.3001 48.1 17.1001 48.2 17.1001 48.3C17.1001 48.4 17.3001 48.5 17.4001 48.7C17.5001 48.6 17.6001 48.5 17.7001 48.4C17.6001 48.3 17.5001 48.2 17.4001 48ZM31.3001 51C31.2001 51.1 31.0001 51.3 31.0001 51.3C31.2001 51.8 31.4001 51.8 31.6001 51.3C31.6001 51.3 31.4001 51.1 31.3001 51ZM102.7 68.2C100.5 68 98.9001 66.2 97.3001 66.4C91.8001 60.9 84.6001 59 78.4001 55.4C80.7001 53.7 83.3001 52.7 85.8001 52.1C85.2001 52 84.6001 51.8 84.8001 51C85.0001 50.2 85.7001 49.7 86.5001 50.7C86.5001 51.1 86.4001 51.6 86.4001 52C86.8001 51.9 87.1001 51.8 87.5001 51.8C91.3001 51.1 94.7001 49.6 98.5001 48.9C100.8 48.5 102.2 47 103.2 45.1C102.9 42.5 101.4 41.2 98.9001 41.1C97.3001 41 95.7001 41.2 94.2001 41.1C94.2001 41.4 94.2001 41.7 94.1001 42.1C93.3001 42 92.4001 42 92.5001 41C90.1001 40.7 87.6001 40.2 85.3001 40.5C83.0001 40.7 81.0001 40.7 79.0001 40.3C78.7001 40.2 78.4001 40.4 78.1001 40.4C77.7001 40.9 77.3001 41.4 76.7001 42C73.2001 39 69.5001 42.1 66.0001 41.8C66.9001 38.1 67.5001 34.6 67.4001 31.1C67.1001 24.6 68.5001 18.2 67.8001 11.8C69.6001 8.60001 67.5001 5.40001 67.6001 2.20001C67.6001 0.50001 66.4001 -0.39999 64.6001 0.20001C62.5001 2.00001 63.1001 4.60001 62.0001 6.70001C60.9001 8.80001 59.6001 11 59.7001 13.5C59.8001 15.7 57.4001 17.9 59.9001 20.8C60.5001 18.7 61.6001 17.7 62.7001 16.6C61.6001 15.6 61.0001 14.7 63.3001 14.2C63.1001 15.1 62.9001 15.8 62.8001 16.5C64.2001 17.4 64.0001 18.7 63.5001 19.9C62.3001 22.8 62.0001 26.1 62.2001 28.9C62.4001 33.5 61.4001 37.9 61.2001 42.4C61.0001 46.6 60.6001 46.6 64.4001 48.6C67.0001 48.1 69.7001 47.4 72.5001 48.2C71.3001 49.6 69.9001 49.8 68.6001 50.2C66.7001 50.7 65.6001 52.4 65.4001 54.2C65.2001 56 66.4001 57.2 68.0001 58C70.4001 59 72.4001 60.8 75.1001 60.9C76.4001 60.9 76.7001 61.9 77.4001 62.5C78.7001 63.1 80.0001 63.7 81.5001 64.5C79.9001 65 78.7001 65.2 77.5001 64.5C76.5001 64.6 75.3001 65.1 74.6001 64.7C71.4001 62.8 68.0001 65.3 64.8001 64.1C64.0001 63.8 63.5001 64.9 63.2001 65.7C61.4001 66.5 61.1001 67.5 62.6001 68.9C64.0001 72 66.0001 74.6 68.6001 76.8C69.1001 76.9 69.8001 76.7 69.3001 77.6C69.7001 78.3 70.2001 78.9 70.6001 79.6C73.3001 79.4 72.5001 81.4 72.6001 82.8C73.7001 85 74.7001 87.3 75.8001 89.6H78.6001C78.8001 88.4 79.8001 88.7 80.6001 88.6C80.7001 88.1 80.7001 87.6 80.8001 87C79.4001 80.8 75.2001 76.4 71.4001 71.7C70.6001 71.6 69.6001 71.6 69.8001 70.5C70.0001 69.7 70.7001 69.2 71.5001 70.2C75.9001 70.7 80.2001 71.2 84.6001 71.7C84.8001 70.5 84.1001 69.1 85.1001 67.9C86.0001 69.1 85.4001 70.5 85.6001 71.7C90.9001 74.1 99.4001 75.7 103.4 75.2C105.5 72.7 103.7 70.5 102.7 68.2ZM78.7001 46.8C78.9001 46 79.6001 45.5 80.4001 46.5C80.4001 47 80.3001 47.5 80.3001 48C79.5001 47.9 78.5001 47.9 78.7001 46.8ZM85.3001 66.4C84.1001 66.7 83.1001 67.2 82.5001 66C82.5001 65.9 82.5001 65.7 82.6001 65.6C82.6001 65.5 82.6001 65.5 82.6001 65.4C82.6001 65.3 82.7001 65.2 82.8001 65.1C82.8001 65 82.9001 65 83.0001 64.9C83.3001 64.7 83.7001 64.6 84.1001 64.4C84.3001 64.3 84.4001 64.3 84.6001 64.2C84.7001 64.1 84.9001 64 85.0001 63.9L85.1001 64L85.2001 64.1L85.3001 64.2C85.3001 64.3 85.4001 64.4 85.4001 64.4C85.4001 64.5 85.4001 64.5 85.4001 64.6C85.4001 65.2 85.3001 65.8 85.3001 66.4Z" fill="black"/>
<path d="M84.8 64L84.9 64.1C84.9 64.1 84.9 64 84.8 64ZM102.7 68.2C100.5 68 98.9 66.2 97.3 66.4C91.8 60.9 84.6 59 78.4 55.4C80.7 53.7 83.3 52.7 85.8 52.1C85.2 52 84.6 51.8 84.8 51C85 50.2 85.7 49.7 86.5 50.7C86.5 51.1 86.4 51.6 86.4 52C86.8 51.9 87.1 51.8 87.5 51.8C91.3 51.1 94.7 49.6 98.5 48.9C100.8 48.5 102.2 47 103.2 45.1C102.9 42.5 101.4 41.2 98.9 41.1C97.3 41 95.7 41.2 94.2 41.1C94.2 41.4 94.2 41.7 94.1 42.1C93.3 42 92.4 42 92.5 41C90.1 40.7 87.6 40.2 85.3 40.5C83 40.7 81 40.7 79 40.3C78.7 40.2 78.4 40.4 78.1 40.4C77.7 40.9 77.3 41.4 76.7 42C73.2 39 69.5 42.1 66 41.8C66.9 38.1 67.5 34.6 67.4 31.1C67.1 24.6 68.5 18.2 67.8 11.8C69.6 8.60001 67.5 5.40001 67.6 2.20001C67.6 0.50001 66.4 -0.39999 64.6 0.20001C62.5 2.00001 63.1 4.60001 62 6.70001C60.9 8.80001 59.6 11 59.7 13.5C59.8 15.7 57.4 17.9 59.9 20.8C60.5 18.7 61.6 17.7 62.7 16.6C61.6 15.6 61 14.7 63.3 14.2C63.1 15.1 62.9 15.8 62.8 16.5C64.2 17.4 64 18.7 63.5 19.9C62.3 22.8 62 26.1 62.2 28.9C62.4 33.5 61.4 37.9 61.2 42.4C61 46.6 60.6 46.6 64.4 48.6C67 48.1 69.7 47.4 72.5 48.2C71.3 49.6 69.9 49.8 68.6 50.2C66.7 50.7 65.6 52.4 65.4 54.2C65.2 56 66.4 57.2 68 58C70.4 59 72.4 60.8 75.1 60.9C76.4 60.9 76.7 61.9 77.4 62.5C78.7 63.1 80 63.7 81.5 64.5C79.9 65 78.7 65.2 77.5 64.5C76.5 64.6 75.3 65.1 74.6 64.7C71.4 62.8 68 65.3 64.8 64.1C64 63.8 63.5 64.9 63.2 65.7C63.9 65.8 64.7 65.9 65.6 66.1C64.5 67.1 62.8 67.3 62.6 69C64 72.1 66 74.7 68.6 76.9C69.1 77 69.8 76.8 69.3 77.7C69.7 78.4 70.2 79 70.6 79.7C73.3 79.5 72.5 81.5 72.6 82.9C73.7 85.1 74.7 87.4 75.8 89.7H78.6C78.8 88.5 79.8 88.8 80.6 88.7C80.7 88.2 80.7 87.7 80.8 87.1C79.4 80.9 75.2 76.5 71.4 71.8C70.6 71.7 69.6 71.7 69.8 70.6C70 69.8 70.7 69.3 71.5 70.3C75.9 70.8 80.2 71.3 84.6 71.8C84.8 70.6 84.1 69.2 85.1 68C86 69.2 85.4 70.6 85.6 71.8C90.9 74.2 99.4 75.8 103.4 75.3C105.5 72.7 103.7 70.5 102.7 68.2ZM78.7 46.8C78.9 46 79.6 45.5 80.4 46.5C80.4 47 80.3 47.5 80.3 48C79.5 47.9 78.5 47.9 78.7 46.8ZM85.3 66.4C84.1 66.7 83.1 67.2 82.5 66C82.5 65.9 82.5 65.7 82.6 65.6C82.6 65.5 82.6 65.5 82.6 65.4C82.6 65.3 82.7 65.2 82.8 65.1C82.8 65 82.9 65 83 64.9C83.3 64.7 83.7 64.6 84.1 64.4C84.3 64.3 84.4 64.3 84.6 64.2C84.7 64.1 84.9 64 85 63.9L85.1 64L85.2 64.1L85.3 64.2C85.3 64.3 85.4 64.4 85.4 64.4C85.4 64.5 85.4 64.5 85.4 64.6C85.4 65.2 85.3 65.8 85.3 66.4Z" fill="black"/>
<path d="M84.6001 94.3C83.2001 91.9 82.8001 89 80.6001 87C80.6001 87.5 80.5001 88 80.4001 88.6C80.2001 89.8 79.2001 89.6 78.4001 89.6H77.4001C76.9001 90.9 78.6001 91.8 78.2001 93.3C76.0001 94 74.7001 93.2 74.5001 90.8C73.4001 89.7 71.7001 90.8 70.6001 89.7C70.3001 90.4 69.9001 90.6 69.6001 89.7C69.4001 89 69.9001 88.6 70.5001 88.4C69.2001 84.9 65.1001 83.9 63.6001 80.6C61.1001 80.2 61.4001 76.7 58.8001 76.4C58.7001 77 58.6001 77.6 58.5001 78.2C56.3001 80 54.5001 77.5 52.5001 77.7C52.3001 77.9 51.9001 78.2 51.9001 78.3C53.2001 83 52.4001 87.9 52.6001 92.6C52.6001 93.9 53.3001 95.6 51.6001 96.5C51.6001 97.2 51.6001 97.8 51.1001 98.3C50.6001 97.8 50.6001 97.2 50.8001 96.5C50.0001 93.8 50.7001 91 49.7001 88.3C48.6001 85.4 48.3001 82.3 47.6001 79.3C46.8001 75.8 46.1001 72.1 42.9001 69.8C42.3001 69.8 41.8001 69.6 41.7001 68.9C39.9001 68.1 38.8001 68.9 37.6001 70.3C35.4001 72.8 32.9001 75 30.6001 77.3C31.0001 79.1 30.4001 80 28.5001 79.6C27.1001 80.2 25.7001 80.8 24.3001 81.4C24.1001 82.8 22.1001 82.3 21.8001 83.7C21.8001 84.2 21.7001 84.6 21.7001 85.1C20.7001 86 19.6001 85.6 18.6001 85.5C18.1001 85.3 18.1001 85.1 18.2001 84.8C18.5001 83.9 18.8001 83 19.1001 82.1C19.1001 81.7 18.9001 81.2 19.5001 81C19.6001 81.5 19.7001 82 19.8001 82.5C20.9001 81.7 22.0001 80.9 23.1001 80.1C24.8001 77 26.6001 74 29.2001 71.5C31.2001 69.6 33.2001 67.7 33.9001 64.5C32.9001 63.6 32.7001 61.6 30.5001 61.8C30.3001 61.8 30.0001 61.7 29.8001 61.6C24.6001 59.2 18.8001 58 14.3001 54C13.6001 53.4 12.8001 52.8 11.7001 52.8C10.7001 52.8 9.7001 52.8 8.7001 52.8V55C8.1001 55.9 7.3001 55.8 6.6001 55.9C7.0001 57 8.1001 56.7 8.7001 57.1C13.1001 60.5 17.8001 63.2 23.1001 64.9C24.6001 65.4 25.5001 66.7 24.7001 68.4V72.1C23.7001 72.6 22.6001 73.2 21.5001 73.7C18.3001 75.7 16.0001 78.6 14.0001 81.8C13.9001 82.5 13.9001 83.3 13.8001 83.9C13.1001 84.7 12.3001 84.5 11.6001 84.4C9.0001 85.7 7.4001 87.5 7.6001 90.6C8.1001 90.5 8.5001 90.6 8.8001 91.2H7.5001C7.2001 91.6 6.9001 91.9 6.6001 92.3C7.7001 92.4 9.2001 92.1 9.1001 94C14.7001 93.4 19.4001 90.5 24.3001 88.3C28.1001 86.6 31.8001 84.4 34.3001 80.8C35.8001 78.6 38.0001 77.5 40.5001 75.6C42.8001 83.4 44.3001 90.7 44.8001 98.3C46.1001 98.7 45.6001 99.7 45.6001 100.6C45.3001 103.7 45.1001 106.8 46.4001 109.8C47.0001 111.2 47.2001 112.7 49.0001 112.9C50.8001 113.1 52.5001 112.5 53.2001 111.1C54.8001 107.8 57.4001 104.9 56.8001 100.8C56.9001 99.5 55.7001 97.7 58.1001 97.2C57.8001 96.9 57.5001 96.5 57.2001 96.2C56.7001 96.3 56.2001 96.3 55.9001 95.9C56.3001 95.5 56.7001 95.4 57.2001 95.6C59.7001 92.6 58.0001 88.8 59.0001 85.6C60.2001 85.4 60.6001 86.4 61.3001 86.6C63.6001 86.7 63.6001 86.7 63.5001 89.6C65.2001 91.6 66.8001 93.7 69.1001 95C72.7001 97.1 75.9001 99.9 79.2001 102.4C81.0001 102 81.7001 102.7 81.4001 104.6C82.5001 105.6 83.4001 106.9 84.8001 107.4C86.8001 107 87.6001 105.6 88.5001 104.1C87.2001 100.8 86.3001 97.3 84.6001 94.3ZM38.2001 73.5C38.1001 73.4 38.0001 73.3 37.9001 73.1C38.0001 73 38.1001 72.8 38.3001 72.8C38.4001 72.8 38.5001 73 38.6001 73.1C38.5001 73.3 38.3001 73.4 38.2001 73.5ZM78.6001 95C78.6001 94.9 78.8001 94.8 78.9001 94.7C79.0001 94.8 79.2001 95 79.2001 95C79.0001 95.4 78.8001 95.4 78.6001 95ZM19.9001 82.5V82.7C20.0001 82.6 19.9001 82.5 19.9001 82.5Z" fill="black"/>
<path d="M24.9 42.7C24.6 42.6 24.2 42.5 24.1 42.3C21.8 37.9 18.5 34 18.6 28.6C19.3 26.4 18.5 24.9 16.4 24C14.9 20.2 14.7 16.1 14 12.1C15.6 11.6 14.7 10.3 14.9 9.3C15.7 8.4 16.6 7.9 17.9 8.4C18 9.3 17.6 10.4 18.6 11.1C19.3 11.1 20.1 11.1 20.9 11.1C22.6 12 24.7 14.4 25.9 16.7C25.7 17.1 24.7 17 25.3 17.9C25.6 17.5 25.8 17.2 26.1 16.9C27.4 16.6 28.2 17.2 29.1 18.1C32.2 21.1 34.6 24.7 37.9 27.5C39 28.4 40.2 29.3 40 31.1C39.8 32.9 41.9 33.4 42.7 34.5C46.5 33.3 47.7 37.5 50.5 38C50.5 39.3 50.5 40.5 50.5 41.8C50.5 42.2 50.6 42.6 50.6 42.9C49.2 42.9 47.8 42.9 46.4 42.9C43.8 43.4 43.5 40.8 42.1 39.7C39.8 38.1 38.4 35.5 35.9 34.1C35.5 33.9 35.6 32.9 35.5 32.3C35.4 29.4 35.3 29.3 32.4 29C28.6 28.2 27.1 24.7 24.9 22.2C24.5 21.7 24.1 21.2 23.4 21.1C23.5 20.8 23.6 20.6 23.6 20.3C23.8 20 24.9 20.2 24.2 19.3C24 19.6 23.7 19.9 23.5 20.3C22.9 20.1 22.4 19.9 21.8 19.7C21.4 17.2 20.2 18.1 18.8 18.8C19 20.2 19.8 20.2 20.6 20.2C20.7 21 20.5 22 21.7 22.2C21.4 24.3 22.1 26.1 23.6 27.2C23.5 28.7 22.2 28.5 21.9 29.3C21.7 29.6 21.7 29.9 22.2 30C24 30.5 26 32.1 26 33.1C26 36 29.7 37.1 28.7 40C27.2 40.4 25.1 40.1 24.9 42.7Z" fill="black"/>
<path d="M38.4999 51.8C37.0999 48.8 35.2999 46.1 32.0999 44.7C31.8999 45 31.5999 45.3 31.2999 45.7C30.6999 44.8 31.6999 44.8 31.8999 44.5C32.5999 41.9 30.2999 41.6 28.8999 40.6C28.7999 42.1 26.9999 42.5 26.7999 43.9C26.6999 44.8 26.5999 45.7 26.3999 46.9C22.4999 46.2 18.6999 45.9 14.8999 45.8C14.6999 47.2 13.6999 46.9 12.7999 46.9C11.1999 47 9.79986 45.2 7.99986 46.1V48.7C6.49986 48 7.19986 47 6.99986 46.2C4.99986 45.1 3.19986 46.2 1.39986 46.9C0.0998607 47.4 -0.000139318 48.6 0.199861 49.8C1.49986 49.7 2.29986 50.3 2.89986 51.4C2.49986 51.6 1.99986 51.8 1.59986 52C2.99986 53 3.89986 54.9 5.99986 54.9C6.49986 53.4 7.39986 52.7 8.99986 52.8C8.99986 52.3 9.09986 51.9 9.09986 51.3C10.2999 50.4 12.0999 50.9 12.9999 49.8C13.9999 50.3 13.8999 51 13.9999 51.6C15.4999 52 16.7999 51.9 17.5999 50.2C18.8999 51.7 20.5999 51.7 22.2999 51.8C24.7999 51.9 26.9999 52.4 28.8999 54C28.9999 53.2 29.4999 52.9 30.3999 53C30.5999 53.5 30.8999 54.1 31.0999 54.7C32.2999 54.9 33.5999 55.1 34.8999 55.2C34.9999 52.8 34.9999 52.8 37.9999 52.9C38.3999 52.7 38.6999 52.3 38.4999 51.8ZM17.3999 48.7C17.2999 48.6 17.0999 48.5 17.0999 48.3C17.0999 48.2 17.2999 48.1 17.3999 48C17.4999 48.1 17.5999 48.2 17.6999 48.4C17.5999 48.5 17.4999 48.6 17.3999 48.7ZM30.9999 51.3C30.9999 51.3 31.1999 51.1 31.2999 51C31.3999 51.1 31.5999 51.3 31.5999 51.4C31.3999 51.8 31.1999 51.8 30.9999 51.3Z" fill="black"/>
<path d="M50.6997 41.9C50.6997 40.6 50.6997 39.4 50.6997 38.1C52.4997 37 53.1997 35 53.4997 33.2C54.2997 28.9 56.6997 25.3 58.3997 21C60.3997 22.7 59.7997 24.7 59.1997 26.4C57.5997 31 56.2997 35.8 53.6997 40C53.5997 40.2 53.6997 40.6 53.6997 41C52.9997 41.2 52.0997 40.9 51.6997 41.9C51.2997 41.9 50.9997 41.9 50.6997 41.9Z" fill="black"/>
<path d="M58.6999 76.3C58.5999 76.9 58.4999 77.5 58.3999 78.1C56.1999 79.9 54.3999 77.4 52.3999 77.6C54.1999 73.7 54.8999 73.5 58.6999 76.3Z" fill="black"/>
<path d="M24.8 68.5C24.8 69.6 24.8 70.8 24.8 72.2C23.8 72.7 22.7 73.3 21.6 73.8C20.8 70.9 22.9 69.8 24.8 68.5Z" fill="black"/>
<path d="M77.4 89.5C76.9 90.8 78.6 91.7 78.2 93.2C76 93.9 74.8 93.1 74.5 90.7C75.2 90.6 75.4 90 75.7 89.5C76.2 89.5 76.8 89.5 77.4 89.5Z" fill="black"/>
<path d="M29 40.6C28.9 42.1 27.1 42.5 26.9 43.9C26 43.9 25.1 43.9 25 42.7C25.2 40.1 27.3 40.4 28.9 40C28.9 40.2 29 40.4 29 40.6Z" fill="black"/>
<path d="M9 52.8C9 52.3 9.1 51.9 9.1 51.3C10.3 50.4 12.1 51 13 49.8C14 50.3 13.9 51 14 51.6C13.3 51.9 12.1 51.4 12 52.8C11 52.8 10 52.8 9 52.8Z" fill="black"/>
<path d="M6 54.9C6.5 53.4 7.4 52.7 9 52.8C9 53.6 9 54.3 9 55C8.4 55.9 7.6 55.8 6.9 55.9C6.3 55.8 6.1 55.4 6 54.9Z" fill="black"/>
<path d="M16.3997 24.1C18.4997 25 19.2997 26.5 18.5997 28.7C16.8997 27.6 16.2997 26 16.3997 24.1Z" fill="black"/>
<path d="M32.6001 29.1C35.4001 29.4 35.6001 29.5 35.7001 32.4C33.8001 32.1 33.1001 30.7 32.6001 29.1Z" fill="black"/>
<path d="M63.0998 65.6C63.7998 65.7 64.5998 65.9 65.4998 66C64.3998 67.1 62.6998 67.2 62.4998 68.9C60.9998 67.4 61.3998 66.3 63.0998 65.6Z" fill="black"/>
<path d="M6.49994 92.4C7.59994 92.5 9.09994 92.3 8.99994 94.1C7.99994 93.7 5.59994 95.4 6.49994 92.4Z" fill="black"/>
<path d="M20.9998 11.2C20.1998 11.2 19.3998 11.2 18.6998 11.2C17.5998 10.4 18.0998 9.4 17.9998 8.5C19.3998 8.8 20.0998 10 20.9998 11.2Z" fill="black"/>
<path d="M14.8998 9.30002C14.6998 10.3 15.5998 11.6 13.9998 12.1C12.6998 10.3 12.7998 9.90002 14.8998 9.30002Z" fill="black"/>
<path d="M34.8999 55.2C34.9999 52.8 34.9999 52.8 37.9999 52.9C37.9999 55.1 36.2999 55 34.8999 55.2Z" fill="black"/>
<path d="M56.7998 100.9C56.8998 99.6 55.6998 97.8 58.0998 97.3C58.9998 99 57.4998 99.8 56.7998 100.9Z" fill="black"/>
<path d="M61.1997 86.7C63.4997 86.8 63.4997 86.8 63.3997 89.7C61.8997 89.3 61.5997 88 61.1997 86.7Z" fill="black"/>
<path d="M0.19986 49.9C1.49986 49.8 2.29986 50.4 2.89986 51.5C2.49986 51.7 1.99986 51.9 1.59986 52.1C0.49986 51.7 -0.40014 51.2 0.19986 49.9Z" fill="black"/>
<path d="M14.0001 81.8C13.9001 82.5 13.9001 83.3 13.8001 83.9C13.1001 84.7 12.4001 84.5 11.6001 84.4C11.9001 83.1 12.7001 82.2 14.0001 81.8Z" fill="black"/>
<path d="M21.9001 19.7C22.5001 19.9 23.0001 20.1 23.6001 20.3L23.8001 20.2L23.6001 20.4C23.6001 20.7 23.6001 21 23.4001 21.2C22.8001 21.5 22.3001 21.8 21.7001 22.1C20.5001 21.9 20.7001 20.9 20.6001 20.1C21.1001 19.9 21.5001 19.8 21.9001 19.7Z" fill="black"/>
<path d="M70.5 79.6C73.2 79.4 72.4 81.4 72.5 82.8C71.3 82.1 70.6 81 70.5 79.6Z" fill="black"/>
<path d="M86.2998 52C86.2998 52 86.2998 52.1 86.2998 52.2C86.0998 52.2 85.9998 52.2 85.7998 52.2C85.8998 52 86.0998 52 86.2998 52Z" fill="black"/>
<path d="M50.8001 43C50.8001 43.3 50.7001 43.6 50.7001 44C49.5001 43.1 47.6001 44.6 46.6001 43C48.0001 43 49.4001 43 50.8001 43Z" fill="black"/>
<path d="M79.1001 102.5C80.9001 102.1 81.6001 102.8 81.3001 104.6C80.2001 104.3 79.4001 103.6 79.1001 102.5Z" fill="black"/>
<path d="M30.7001 77.2C31.1001 79 30.5001 79.9 28.6001 79.5C28.7001 78.2 29.4001 77.5 30.7001 77.2Z" fill="black"/>
<path d="M14.9999 45.8C14.7999 47.2 13.7999 46.9 12.8999 46.9C13.0999 45.6 13.2999 44.1 14.9999 45.8Z" fill="black"/>
<path d="M44.7999 98.5C46.0999 98.9 45.5999 99.9 45.4999 100.8C44.6999 100.2 42.8999 100 44.7999 98.5Z" fill="black"/>
<path d="M70.4999 89.6C70.1999 90.3 69.7999 90.5 69.4999 89.6C69.2999 88.9 69.7999 88.5 70.3999 88.3C70.3999 88.8 70.4999 89.2 70.4999 89.6Z" fill="black"/>
<path d="M51.5998 96.5C51.5998 97.1 51.5998 97.8 51.0998 98.3C50.5998 97.8 50.5998 97.2 50.7998 96.5C51.0998 96.5 51.3998 96.5 51.5998 96.5Z" fill="black"/>
<path d="M42.9998 69.7C42.3998 69.7 41.8998 69.5 41.7998 68.9C42.4998 68.6 42.7998 69 42.9998 69.7Z" fill="black"/>
<path d="M30.7 61.8C30.5 61.8 30.3 61.7 30 61.6C30.5 60.7 30.5 61.5 30.7 61.8Z" fill="black"/>
<path d="M80.3999 88.5C80.1999 89.8 79.1999 89.5 78.3999 89.5C78.5999 88.3 79.5999 88.6 80.3999 88.5Z" fill="black"/>
<path d="M21.8998 83.6C21.8998 84.1 21.7998 84.5 21.7998 85C20.7998 85.9 19.6998 85.5 18.6998 85.4C18.1998 85.2 18.1998 85 18.2998 84.7C18.5998 83.8 18.8998 82.9 19.1998 82C19.3998 82.2 19.6998 82.3 19.8998 82.5C20.0998 83.8 20.9998 83.7 21.8998 83.6Z" fill="black"/>
<path d="M19.9999 82.7L19.8999 82.6C19.8999 82.6 19.9999 82.6 19.9999 82.5C19.8999 82.5 19.9999 82.6 19.9999 82.7Z" fill="black"/>
<path d="M20 82.7L19.9 82.6C19.7 82.4 19.4 82.3 19.2 82.1C19.2 81.7 19 81.2 19.6 81C19.7 81.5 19.8 82 19.9 82.5C19.9 82.5 20 82.6 20 82.7Z" fill="black"/>
<path d="M21.8999 19.7C21.4999 19.8 21.0999 20 20.6999 20.1C19.8999 20.1 19.0999 20.1 18.8999 18.7C20.1999 18 21.4999 17.1 21.8999 19.7Z" fill="black"/>
<path d="M23.6001 20.3C23.8001 20 24.1001 19.7 24.3001 19.3C25.0001 20.3 23.9001 20 23.6001 20.3L23.8001 20.2C23.9001 20.2 23.6001 20.3 23.6001 20.3Z" fill="black"/>
<path d="M26.2001 17C25.9001 17.3 25.7001 17.6 25.4001 18C24.8001 17.1 25.7001 17.1 26.0001 16.8L25.9001 17.1L26.2001 17Z" fill="black"/>
<path d="M51.6997 41.9C51.7997 42.6 51.3997 42.9 50.7997 43C50.7997 42.6 50.6997 42.2 50.6997 41.9C50.9997 41.9 51.2997 41.9 51.6997 41.9Z" fill="black"/>
</svg>
