<svg width="89" height="91" viewBox="0 0 89 91" fill="none" xmlns="http://www.w3.org/2000/svg">
<path d="M43.7999 63.5922C44.0999 64.3922 43.1999 65.5922 44.6999 65.6922C45.4999 65.9922 44.5999 67.3922 45.7999 67.3922C46.0999 68.9922 46.6999 70.1922 48.6999 69.5922C49.3999 69.5922 49.5999 70.1922 49.6999 70.7922C49.6999 71.1922 50.0999 71.7922 50.3999 71.3922C51.3999 70.1922 53.4999 69.4922 53.5999 67.9922C53.6999 64.9922 55.2999 62.2922 54.7999 59.1922C54.6999 58.3922 54.7999 57.5922 55.3999 56.8922C56.2999 55.5922 54.8999 54.0922 55.0999 53.1922C55.3999 52.0922 56.9999 51.3922 56.6999 49.5922C56.4999 48.4922 56.2999 47.0922 56.8999 46.1922C57.9999 44.3922 57.5999 42.5922 57.7999 40.7922C57.7999 40.1922 57.7999 39.4922 57.7999 38.8922C59.6999 38.3922 58.2999 36.7922 58.7999 35.7922C60.0999 34.6922 59.4999 33.1922 59.6999 31.7922C59.5999 30.6922 60.6999 29.8922 60.6999 29.0922C60.5999 24.8922 63.0999 21.0922 62.7999 16.8922C62.7999 16.5922 62.7999 16.1922 62.9999 15.8922C64.4999 13.3922 64.2999 10.3922 65.5999 7.6922C66.7999 5.2922 64.6999 2.8922 62.0999 2.9922C59.8999 3.0922 61.0999 4.9922 60.3999 5.7922C58.3999 7.7922 58.7999 10.5922 57.8999 12.8922C57.1999 14.6922 57.4999 17.0922 56.5999 18.4922C54.7999 21.5922 55.4999 24.7922 54.7999 27.8922C52.8999 28.3922 54.1999 29.8922 53.8999 30.8922C53.6999 31.1922 52.5999 31.0922 53.4999 31.7922C54.0999 32.2922 54.9999 32.4922 55.7999 32.4922C55.6999 33.0922 55.8999 33.9922 54.8999 33.7922C52.6999 33.5922 52.7999 34.8922 52.8999 36.3922C52.8999 37.1922 52.7999 37.9922 52.7999 38.7922C50.8999 39.6922 52.1999 41.4922 51.7999 42.7922C50.3999 43.6922 53.0999 44.7922 51.7999 45.5922C50.3999 46.3922 50.8999 47.5922 50.7999 48.7922C49.0999 51.9922 49.1999 55.3922 49.7999 58.7922C49.7999 59.3922 49.7999 60.0922 49.7999 60.6922C48.3999 60.8922 49.0999 61.9922 48.9999 62.7922C48.8999 63.0922 48.8999 63.3922 48.7999 63.6922C48.4999 63.6922 48.0999 63.7922 47.7999 63.7922C47.4999 63.6922 47.2999 63.5922 47.3999 63.1922C48.3999 62.0922 47.6999 61.3922 46.7999 60.6922C46.6999 59.0922 44.4999 58.4922 44.6999 56.7922C44.1999 55.7922 43.5999 54.7922 43.6999 53.4922C43.7999 52.7922 43.1999 52.7922 42.6999 52.8922C41.7999 52.0922 42.2999 50.7922 41.6999 49.7922C41.7999 48.5922 40.9999 48.7922 40.2999 48.7922C39.8999 47.0922 40.8999 45.3922 39.7999 43.6922C39.1999 42.8922 38.4999 41.9922 38.6999 40.7922C38.2999 38.6922 37.8999 36.5922 37.4999 34.4922C37.3999 34.1922 37.0999 34.0922 36.7999 33.7922C36.4999 32.4922 37.5999 30.8922 35.7999 29.9922C35.6999 29.8922 35.5999 29.7922 35.3999 29.7922C35.3999 28.5922 36.6999 27.1922 34.7999 26.3922C34.6999 25.5922 35.8999 25.2922 35.5999 24.4922C35.2999 23.6922 35.9999 21.9922 34.4999 22.1922C32.8999 22.3922 35.2999 22.9922 34.6999 23.5922C34.4999 23.7922 34.1999 23.8922 34.1999 23.9922C34.4999 25.3922 31.7999 26.3922 33.6999 27.8922C33.6999 28.8922 33.7999 29.8922 33.7999 30.7922C33.7999 31.0922 33.7999 31.3922 33.7999 31.7922C34.0999 33.1922 32.7999 34.7922 34.5999 35.8922C33.9999 38.7922 35.9999 41.2922 35.7999 44.0922C35.7999 44.5922 36.2999 44.5922 36.5999 44.7922C36.9999 45.6922 35.7999 47.2922 37.5999 47.6922C37.3999 49.1922 37.5999 50.4922 38.6999 51.6922C39.0999 52.9922 39.0999 54.7922 39.9999 55.5922C40.9999 56.4922 39.5999 58.4922 41.5999 58.6922C41.6999 59.2922 41.6999 59.9922 41.7999 60.5922C41.7999 61.2922 41.6999 62.0922 42.7999 62.0922C42.9999 62.2922 43.0999 62.3922 43.2999 62.5922C43.2999 62.9922 43.3999 63.3922 43.7999 63.5922ZM28.8999 5.2922C30.6999 5.5922 32.0999 3.8922 33.8999 3.9922C34.2999 3.9922 35.3999 4.3922 34.9999 3.0922C34.6999 2.0922 33.2999 1.1922 33.1999 1.2922C31.9999 2.6922 29.8999 1.6922 28.7999 3.0922C27.7999 3.4922 26.2999 2.1922 25.7999 3.9922C23.4999 4.9922 21.0999 5.6922 19.6999 7.9922C18.0999 7.7922 17.4999 9.0922 16.3999 9.8922C15.8999 10.2922 15.6999 10.5922 15.7999 11.0922C15.8999 11.7922 16.4999 11.5922 16.9999 11.5922C19.5999 11.5922 21.2999 9.8922 22.8999 8.1922C23.2999 8.0922 23.4999 7.9922 23.7999 7.9922C25.3999 7.9922 26.6999 7.6922 26.8999 5.6922C27.5999 5.7922 28.4999 7.0922 28.8999 5.2922ZM39.1999 0.192199C37.9999 -0.507801 37.6999 0.892199 36.9999 1.3922C36.5999 1.6922 36.5999 2.4922 36.9999 2.6922C37.7999 3.2922 39.0999 3.3922 39.4999 2.8922C40.3999 1.8922 40.6999 3.0922 41.2999 2.9922C41.7999 2.9922 42.3999 3.0922 42.5999 2.5922C42.7999 2.0922 42.8999 1.4922 42.2999 1.0922C41.3999 0.492199 40.3999 -0.00780089 39.1999 0.192199ZM45.8999 6.0922C45.9999 6.7922 45.5999 7.7922 46.7999 7.8922C47.4999 7.9922 47.4999 7.4922 47.5999 6.9922C47.6999 6.0922 47.3999 5.2922 46.6999 4.9922C46.0999 4.6922 45.8999 5.4922 45.8999 6.0922Z" fill="black"/>
<path d="M2 48.7922C1.4 47.6922 1.3 46.2922 0 45.7922C0 42.6922 0 39.4922 0 36.3922C1.5 36.9922 2.3 36.6922 2 34.8922C2.8 34.7922 3 35.5922 3.6 35.8922C4 37.9922 3.7 40.1922 4.7 42.2922C5.1 43.1922 4.5 44.6922 4.2 45.8922C4.1 46.2922 3.8 46.7922 4.2 46.8922C5.6 47.1922 4.5 48.1922 4.9 48.7922C3.9 48.7922 3 48.7922 2 48.7922Z" fill="black"/>
<path d="M42.2001 90.4922C40.8001 88.6922 38.8001 88.4922 36.8001 88.3922C36.6001 87.3922 36.6001 86.4922 37.4001 85.7922C37.5001 85.6922 37.6001 85.5922 37.8001 85.3922C38.4001 85.0922 39.1001 84.7922 39.7001 84.4922C40.7001 86.1922 42.4001 84.9922 43.7001 85.4922C43.7001 85.7922 43.7001 86.1922 43.7001 86.4922C43.3001 86.5922 42.8001 86.5922 43.0001 87.0922C43.0001 87.1922 43.5001 87.2922 43.8001 87.3922C44.5001 87.5922 44.7001 87.1922 44.8001 86.5922C45.1001 86.5922 45.5001 86.5922 45.8001 86.4922C46.6001 87.6922 46.8001 89.0922 46.8001 90.4922C45.2001 90.4922 43.7001 90.4922 42.2001 90.4922Z" fill="black"/>
<path d="M44.7001 86.5922C44.7001 87.1922 44.5001 87.5922 43.7001 87.3922C43.7001 87.0922 43.7001 86.7922 43.6001 86.4922C43.6001 86.1922 43.6001 85.7922 43.6001 85.4922C43.6001 85.1922 43.6001 84.8922 43.6001 84.5922C45.9001 84.5922 48.3001 84.5922 50.6001 84.5922C50.6001 84.9922 50.5001 85.2922 50.1001 85.5922C48.1001 87.3922 48.2001 87.8922 50.6001 89.4922C50.6001 89.7922 50.6001 90.0922 50.6001 90.3922C49.3001 90.3922 48.0001 90.3922 46.6001 90.3922C46.6001 88.9922 46.4001 87.5922 45.6001 86.3922C45.6001 85.9922 45.5001 85.4922 44.9001 85.6922C44.9001 85.8922 44.8001 86.2922 44.7001 86.5922Z" fill="black"/>
<path d="M2 34.8922C2.3 36.6922 1.5 36.9922 0 36.3922C0 35.1922 0 34.0922 0 32.8922C0.3 32.8922 0.6 32.8922 1 32.8922C1.2 33.5922 0.4 34.7922 2 34.8922Z" fill="black"/>
<path d="M48.7002 63.6922C48.8002 63.3922 48.8002 63.0922 48.9002 62.7922C50.3002 62.5922 49.7002 61.4922 49.7002 60.6922C49.7002 60.0922 49.7002 59.3922 49.7002 58.7922C49.8002 57.9922 51.0002 57.4922 50.7002 56.5922C49.8002 53.9922 51.3002 51.3922 50.7002 48.7922C50.7002 47.6922 50.2002 46.3922 51.7002 45.5922C53.0002 44.7922 50.3002 43.7922 51.7002 42.7922C52.4002 42.8922 52.8002 42.5922 52.7002 41.8922C52.7002 40.8922 52.7002 39.7922 52.7002 38.7922C52.7002 37.9922 52.8002 37.1922 52.8002 36.3922C54.0002 36.6922 54.7002 35.4922 55.7002 35.2922C56.4002 35.1922 56.8002 33.8922 57.7002 34.8922C57.7002 35.8922 57.7002 36.9922 57.7002 37.9922C56.3002 38.2922 56.9002 39.8922 56.1002 40.5922C56.6002 40.8922 57.1002 41.0922 57.7002 40.9922C57.6002 42.7922 58.0002 44.5922 56.8002 46.3922C56.3002 47.1922 56.4002 48.6922 56.6002 49.7922C56.9002 51.4922 55.3002 52.1922 55.0002 53.3922C54.7002 54.3922 56.2002 55.7922 55.3002 57.0922C54.8002 57.8922 54.6002 58.5922 54.7002 59.3922C55.3002 62.4922 53.6002 65.1922 53.5002 68.1922C53.5002 69.7922 51.4002 70.3922 50.3002 71.5922C50.0002 71.9922 49.6002 71.3922 49.6002 70.9922C49.5002 70.3922 49.4002 69.8922 48.6002 69.7922C48.6002 68.8922 47.7002 68.3922 47.5002 67.4922C47.2002 66.4922 46.3002 66.3922 45.7002 67.5922C44.5002 67.5922 45.5002 66.0922 44.6002 65.8922C44.5002 65.0922 45.3002 63.9922 43.7002 63.7922V63.6922C43.8002 63.2922 43.8002 62.8922 43.2002 62.7922C43.0002 62.5922 42.9002 62.4922 42.7002 62.2922C42.7002 61.7922 42.6002 61.2922 42.6002 60.8922C42.4002 60.1922 43.1002 58.9922 41.6002 58.9922C41.6002 56.4922 41.3002 54.0922 39.7002 51.9922C41.0002 51.9922 40.2002 49.8922 41.6002 49.9922C42.2002 50.8922 41.7002 52.1922 42.6002 53.0922C43.2002 54.3922 41.4002 56.9922 44.5002 56.9922C44.3002 58.7922 46.5002 59.2922 46.6002 60.8922C46.5002 61.5922 46.1002 61.7922 45.4002 62.0922C44.2002 62.5922 45.2002 62.6922 45.6002 62.8922C45.6002 63.5922 45.7002 64.1922 46.5002 63.3922C46.7002 63.3922 46.9002 63.3922 47.1002 63.3922C47.0002 63.6922 47.3002 63.8922 47.5002 63.9922C47.7002 64.1922 47.8002 64.6922 48.0002 64.6922C48.7002 64.4922 48.6002 63.9922 48.7002 63.6922Z" fill="black"/>
<path d="M82.4998 33.8922C84.5998 34.9922 85.3998 36.9922 86.2998 38.8922C87.2998 41.0922 88.1998 43.1922 86.4998 45.5922C85.8998 46.4922 87.5998 46.5922 88.1998 47.1922C87.8998 48.1922 86.5998 47.2922 86.2998 48.3922C90.4998 49.3922 87.5998 51.7922 87.3998 53.6922C86.3998 53.7922 85.3998 54.3922 84.2998 53.8922C83.2998 53.4922 83.3998 54.4922 83.2998 55.0922C82.1998 54.3922 82.7998 53.3922 82.9998 52.5922C84.0998 47.0922 83.3998 42.0922 79.8998 37.5922C78.3998 35.5922 78.0998 32.6922 75.4998 31.6922C73.4998 30.8922 71.9998 29.3922 69.8998 28.7922C68.4998 28.3922 67.1998 27.4922 65.5998 27.7922C64.8998 27.8922 64.6998 27.1922 64.6998 26.5922C64.6998 25.9922 64.5998 25.4922 65.2998 24.9922C68.2998 22.9922 70.8998 24.3922 73.5998 25.4922C74.7998 25.9922 75.7998 26.8922 76.8998 27.6922C77.3998 28.4922 77.6998 29.1922 76.8998 30.0922C76.2998 30.6922 77.0998 31.1922 77.3998 30.8922C78.7998 29.7922 79.9998 31.0922 81.1998 30.9922C81.2998 31.2922 81.2998 31.5922 81.3998 31.8922C81.5998 32.6922 80.8998 33.8922 82.4998 33.8922Z" fill="black"/>
<path d="M54.6001 27.8922C55.3001 24.7922 54.6001 21.5922 56.4001 18.4922C57.2001 17.0922 57.0001 14.6922 57.7001 12.8922C58.6001 10.5922 58.2001 7.79219 60.2001 5.79219C60.9001 5.09219 59.7001 3.09219 61.9001 2.99219C64.5001 2.89219 66.6001 5.29219 65.4001 7.69219C64.1001 10.3922 64.2001 13.3922 62.8001 15.8922C62.6001 16.1922 62.6001 16.4922 62.6001 16.8922C62.9001 21.0922 60.4001 24.8922 60.5001 29.0922C60.5001 29.8922 59.4001 30.6922 59.5001 31.7922C58.7001 31.9922 57.6001 33.1922 57.4001 31.1922C57.4001 31.0922 56.9001 30.9922 56.6001 30.8922C56.3001 30.8922 56.0001 30.7922 55.7001 30.7922C56.6001 29.3922 57.0001 28.1922 54.6001 27.8922Z" fill="black"/>
<path d="M34.6999 87.5922C31.9999 86.5922 29.2999 85.3922 26.5999 84.5922C25.8999 84.3922 25.6999 83.7922 25.2999 83.3922C23.7999 82.3922 23.0999 80.1922 20.5999 80.2922C19.9999 80.2922 19.1999 79.2922 18.7999 78.3922C18.2999 77.1922 17.2999 76.4922 15.8999 76.3922C15.8999 75.5922 16.1999 74.5922 14.8999 74.5922C15.0999 72.9922 14.4999 72.3922 12.8999 72.5922C13.6999 70.2922 13.3999 69.8922 10.8999 69.5922C8.6999 68.6922 8.3999 66.5922 7.8999 64.5922C8.3999 63.2922 7.1999 62.5922 6.8999 61.5922C7.5999 61.2922 8.1999 60.8922 8.8999 60.5922C8.9999 61.1922 9.1999 61.4922 9.7999 61.5922C10.4999 62.8922 10.5999 64.5922 11.8999 65.5922C9.8999 66.3922 11.9999 67.1922 12.0999 67.8922C12.2999 68.9922 12.9999 67.1922 13.6999 67.5922C14.7999 69.4922 17.0999 70.2922 17.7999 72.4922C17.1999 72.7922 15.7999 71.8922 16.0999 73.5922C16.1999 74.0922 16.5999 74.5922 17.0999 74.3922C17.9999 74.0922 17.5999 73.0922 17.7999 72.4922C19.1999 72.5922 19.9999 73.3922 20.8999 74.5922C22.1999 76.3922 24.3999 77.3922 25.8999 78.8922C27.5999 80.5922 29.9999 80.1922 31.6999 81.5922C32.3999 82.6922 32.8999 83.8922 33.2999 85.4922C33.0999 83.1922 34.6999 83.7922 35.6999 83.5922C35.9999 83.5922 36.2999 83.6922 36.5999 83.6922C36.5999 84.4922 37.7999 84.6922 37.6999 85.5922C37.5999 85.6922 37.4999 85.7922 37.2999 85.9922C36.5999 85.9922 35.6999 85.4922 35.7999 86.8922C35.9999 87.5922 35.1999 87.3922 34.6999 87.5922Z" fill="black"/>
<path d="M65.5001 80.4922C65.8001 80.0922 66.0001 79.6922 66.6001 79.6922C66.9001 79.6922 67.1001 79.5922 67.4001 79.5922C67.6001 79.0922 68.1001 79.1922 68.5001 79.1922C70.5001 79.7922 69.3001 78.1922 69.5001 77.6922C70.3001 77.5922 71.3001 78.0922 71.5001 76.7922C72.1001 76.1922 72.8001 75.5922 73.4001 74.9922C73.4001 74.5922 73.5001 74.0922 73.5001 73.6922C73.7001 73.4922 73.8001 73.3922 74.0001 73.1922C74.4001 73.2922 74.8001 73.8922 75.3001 73.3922C75.4001 73.2922 75.2001 72.9922 75.1001 72.7922C75.1001 72.3922 75.2001 71.9922 75.6001 71.7922C76.2001 71.5922 77.0001 72.0922 77.2001 71.1922C77.2001 71.0922 76.7001 70.8922 76.5001 70.7922C76.4001 69.8922 77.6001 69.6922 77.5001 68.7922C77.9001 65.8922 80.0001 63.7922 81.0001 61.1922C81.4001 60.0922 81.1001 58.5922 82.4001 57.8922C83.9001 57.3922 85.4001 57.1922 86.3001 55.5922C86.8001 54.7922 87.2001 55.1922 87.4001 55.8922C87.4001 56.1922 87.4001 56.5922 87.3001 56.8922C86.0001 57.1922 86.4001 58.1922 86.5001 58.9922C87.1001 61.6922 85.0001 63.6922 84.3001 66.0922C83.4001 69.2922 80.8001 71.4922 78.6001 73.7922C77.8001 73.8922 76.7001 73.3922 76.6001 74.7922C76.2001 74.8922 75.8001 74.8922 75.8001 75.3922C75.8001 75.5922 76.3001 75.6922 76.5001 75.7922C76.4001 76.0922 76.4001 76.3922 76.3001 76.7922C75.7001 76.8922 75.5001 77.1922 75.5001 77.6922H75.4001C74.8001 77.6922 74.5001 78.0922 74.5001 78.6922C73.9001 78.6922 73.5001 79.0922 73.5001 79.6922C72.9001 79.6922 72.5001 79.9922 72.5001 80.5922C71.7001 80.7922 70.9001 80.9922 70.7001 81.8922C70.4001 82.8922 69.7001 82.6922 69.0001 82.6922C67.5001 82.3922 65.0001 83.9922 65.5001 80.4922Z" fill="black"/>
<path d="M65.5002 80.4922C64.9002 84.0922 67.5002 82.4922 69.0002 82.5922C66.2002 83.0922 65.1002 86.0922 62.5002 86.9922C61.4002 87.3922 60.3002 87.8922 59.2002 88.1922C56.4002 88.8922 53.4002 88.4922 50.7002 89.6922C48.3002 87.9922 48.2002 87.4922 50.2002 85.7922C50.5002 85.4922 50.7002 85.1922 50.7002 84.7922C56.0002 84.4922 60.7002 82.2922 65.5002 80.4922Z" fill="black"/>
<path d="M2 34.8922C0.5 34.7922 1.2 33.5922 1 32.8922C1 31.8922 1.1 30.8922 1.1 29.9922C1.8 29.8922 2 29.4922 1.9 28.8922C2 28.4922 2 28.1922 2 27.8922C2.6 27.7922 3.3 28.1922 3.7 27.3922C2.1 26.9922 4.9 25.3922 3 24.9922C3 24.6922 3 24.2922 3.1 23.9922C4.7 24.1922 5.2 23.3922 5 21.9922C4.8 20.1922 6.5 19.3922 7.1 18.0922C7.8 18.1922 8.1 17.8922 8 17.0922C8.7 17.1922 9 16.8922 9 16.0922C9.9 16.1922 10.1 15.7922 9.9 14.9922C10.5 13.1922 12.5 13.1922 13.7 12.0922C14.2 11.5922 14.1 10.9922 14.5 10.5922C16 12.7922 15.7 13.3922 13.7 15.1922C11.2 17.3922 9 19.7922 7.8 23.0922C7.5 24.0922 7.1 25.3922 6 25.9922C4.2 26.4922 5.2 27.8922 5 28.8922C4.9 29.1922 4.9 29.5922 4.8 29.8922C4.2 29.9922 3.6 28.5922 3.2 29.3922C2.7 30.2922 2.6 31.4922 2.4 32.5922C2.3 32.9922 3 33.7922 3.9 33.8922C3.9 34.5922 4.4 35.3922 3.6 35.8922C3 35.6922 2.8 34.7922 2 34.8922Z" fill="black"/>
<path d="M8.90019 60.6922C8.20019 60.9922 7.60019 61.3922 6.90019 61.6922C6.60019 61.6922 6.20019 61.6922 5.90019 61.6922C5.90019 60.8922 6.20019 59.8922 4.90019 59.6922C4.90019 59.0922 4.70019 58.6922 4.00019 58.6922C3.90019 56.9922 2.80019 55.5922 2.40019 53.9922C2.00019 52.2922 1.30019 50.5922 2.00019 48.7922C2.90019 48.7922 3.90019 48.7922 4.80019 48.7922L4.90019 48.8922C5.00019 49.5922 4.50019 50.5922 5.80019 50.7922C5.80019 52.2922 7.90019 53.5922 6.00019 55.1922C5.70019 55.3922 6.40019 55.7922 6.80019 55.6922C7.50019 55.6922 8.10019 55.7922 8.00019 56.6922C7.60019 58.2922 8.30019 59.4922 8.90019 60.6922Z" fill="black"/>
<path d="M36.8 33.8922C37 34.0922 37.4 34.2922 37.5 34.5922C37.9 36.6922 38.3 38.7922 38.7 40.8922C37.4 41.8922 36.9 43.2922 36.8 44.8922C36.5 44.6922 35.9 44.6922 36 44.1922C36.1 41.3922 34.2 38.8922 34.8 35.9922C34.9 35.8922 34.9 35.8922 35 35.7922C35.6 35.8922 35.9 36.8922 36.6 36.5922C37.1 36.2922 36.8 35.5922 36.8 35.0922C36.8 34.7922 36.7 34.4922 36.7 34.1922L36.8 33.8922Z" fill="black"/>
<path d="M36.7002 44.8922C36.7002 43.2922 37.3002 41.8922 38.6002 40.8922C38.4002 42.0922 39.2002 42.9922 39.7002 43.7922C40.9002 45.3922 39.8002 47.1922 40.2002 48.8922C39.4002 48.3922 38.7002 47.5922 37.7002 47.8922C35.9002 47.3922 37.2002 45.7922 36.7002 44.8922Z" fill="black"/>
<path d="M56.6001 30.9922C56.9001 31.0922 57.4001 31.1922 57.4001 31.2922C57.6001 33.2922 58.7001 32.0922 59.5001 31.8922C59.3001 33.2922 59.9001 34.7922 58.6001 35.8922C58.5001 35.3922 58.3001 34.8922 57.6001 34.8922C56.7001 33.8922 56.3001 35.1922 55.6001 35.2922C54.6001 35.4922 53.9001 36.6922 52.7001 36.3922C52.5001 34.8922 52.5001 33.4922 54.7001 33.7922C55.7001 33.8922 55.5001 33.0922 55.6001 32.4922C55.9001 31.9922 56.8001 31.7922 56.6001 30.9922Z" fill="black"/>
<path d="M23 8.1922C21.4 9.8922 19.7 11.5922 17.1 11.5922C16.7 11.5922 16 11.7922 15.9 11.0922C15.8 10.5922 16 10.2922 16.5 9.8922C17.5 9.1922 18.2 7.7922 19.8 7.9922C20.7 8.2922 21.1 6.9922 22 7.1922C21.9 7.8922 22.4 8.0922 23 8.1922Z" fill="black"/>
<path d="M21.9002 7.19219C21.0002 6.99219 20.7002 8.29219 19.7002 7.99219C21.1002 5.69219 23.5002 4.99219 25.8002 4.09219C26.9002 4.09219 26.8002 4.89219 26.8002 5.69219C26.7002 7.69219 25.3002 7.99219 23.7002 7.99219C23.5002 7.49219 24.1002 6.59219 23.3002 6.39219C23.0002 6.29219 22.4002 6.89219 21.9002 7.19219Z" fill="black"/>
<path d="M28.7998 3.1922C29.8998 1.7922 31.9998 2.7922 33.1998 1.3922C33.2998 1.1922 34.6998 2.1922 34.9998 3.1922C35.3998 4.3922 34.1998 3.9922 33.8998 3.9922C32.0998 3.8922 30.6998 5.5922 28.8998 5.2922C28.8998 4.5922 28.7998 3.8922 28.7998 3.1922Z" fill="black"/>
<path d="M39.2002 0.192185C40.5002 -0.0078153 41.4002 0.492185 42.3002 1.19218C42.9002 1.59218 42.8002 2.19218 42.6002 2.69218C42.4002 3.19218 41.8002 3.09218 41.3002 3.09218C40.7002 3.09218 40.4002 1.89218 39.5002 2.99218C39.1002 3.49218 37.7002 3.39218 37.0002 2.79218C36.6002 2.49218 36.7002 1.69218 37.0002 1.49218C37.7002 0.892185 38.0002 -0.507815 39.2002 0.192185Z" fill="black"/>
<path d="M50.6 48.7922C51.2 51.3922 49.7 53.9922 50.6 56.5922C50.9 57.4922 49.7 57.8922 49.6 58.7922C49 55.2922 48.9 51.8922 50.6 48.7922Z" fill="black"/>
<path d="M87.3999 55.6922C87.1999 54.9922 86.7999 54.5922 86.2999 55.3922C85.3999 56.8922 83.7999 57.1922 82.3999 57.6922C82.5999 56.7922 82.1999 55.7922 83.2999 55.1922C83.3999 54.5922 83.2999 53.5922 84.2999 53.9922C85.4999 54.4922 86.3999 53.8922 87.3999 53.7922C88.6999 54.3922 88.2999 55.0922 87.3999 55.6922Z" fill="black"/>
<path d="M37.8 47.7922C38.9 47.4922 39.6 48.2922 40.3 48.7922C41 48.7922 41.8 48.5922 41.7 49.7922C40.3 49.6922 41.1 51.7922 39.8 51.7922C39.5 51.7922 39.2 51.7922 38.9 51.7922C37.8 50.5922 37.6 49.2922 37.8 47.7922Z" fill="black"/>
<path d="M38.7998 51.7922C39.0998 51.7922 39.3998 51.7922 39.6998 51.7922C41.2998 53.8922 41.5998 56.2922 41.5998 58.7922C39.5998 58.5922 40.9998 56.6922 39.9998 55.6922C39.1998 54.8922 39.1998 53.0922 38.7998 51.7922Z" fill="black"/>
<path d="M33.7 27.9922C31.8 26.4922 34.4 25.3922 34.2 24.0922C34.2 23.9922 34.5 23.7922 34.7 23.6922C35.4 23.0922 33 22.4922 34.5 22.2922C36 22.0922 35.3 23.7922 35.6 24.5922C35.9 25.3922 34.7 25.6922 34.8 26.4922C33.8 26.4922 33.9 27.3922 33.7 27.9922Z" fill="black"/>
<path d="M81.3002 30.9922C80.0002 31.0922 78.8002 29.6922 77.5002 30.8922C77.2002 31.0922 76.4002 30.6922 77.0002 30.0922C77.8002 29.1922 77.5002 28.4922 77.0002 27.6922C78.9002 28.0922 80.2002 29.3922 81.3002 30.9922Z" fill="black"/>
<path d="M34.6999 35.9922C32.8999 34.8922 34.0999 33.2922 33.8999 31.8922C34.5999 31.7922 34.7999 32.9922 35.4999 32.5922C36.0999 32.1922 35.6999 31.3922 35.6999 30.7922C35.6999 30.5922 35.6999 30.2922 35.6999 30.0922C37.4999 30.9922 36.3999 32.5922 36.6999 33.8922L36.4999 34.0922C34.7999 33.5922 34.4999 34.3922 34.7999 35.7922C34.7999 35.8922 34.6999 35.8922 34.6999 35.9922Z" fill="black"/>
<path d="M54.5999 27.8922C56.9999 28.0922 56.5999 29.3922 55.5999 30.7922C54.9999 30.7922 54.3 30.8922 53.7 30.8922C54 29.8922 52.6999 28.4922 54.5999 27.8922Z" fill="black"/>
<path d="M33.7002 27.9922C33.9002 27.2922 33.7002 26.4922 34.8002 26.3922C36.7002 27.2922 35.3002 28.6922 35.4002 29.7922C34.8002 29.9922 34.6002 30.7922 33.9002 30.8922C33.8002 29.9922 33.8002 28.9922 33.7002 27.9922Z" fill="black"/>
<path d="M3.90015 33.8922C3.00015 33.7922 2.30015 32.9922 2.40015 32.5922C2.70015 31.4922 2.80015 30.3922 3.20015 29.3922C3.60015 28.5922 4.10015 29.9922 4.80015 29.8922C3.50015 30.9922 3.70015 32.4922 3.90015 33.8922Z" fill="black"/>
<path d="M35.7998 83.4922C34.7998 83.6922 33.2998 83.1922 33.3998 85.3922C32.8998 83.7922 32.4998 82.5922 31.7998 81.4922C33.4998 81.3922 34.5998 82.6922 35.7998 83.4922Z" fill="black"/>
<path d="M28.7998 3.19219C28.7998 3.89219 28.7998 4.59219 28.7998 5.29219C28.3998 7.09219 27.4998 5.79219 26.7998 5.69219C26.7998 4.99219 26.7998 4.19219 25.7998 4.09219C26.2998 2.19219 27.8998 3.59219 28.7998 3.19219Z" fill="black"/>
<path d="M45.9002 6.0922C45.9002 5.4922 46.1002 4.6922 46.7002 4.9922C47.4002 5.2922 47.7002 6.1922 47.6002 6.9922C47.5002 7.4922 47.5002 7.9922 46.8002 7.8922C45.5002 7.7922 46.0002 6.7922 45.9002 6.0922Z" fill="black"/>
<path d="M45.7002 67.4922C46.3002 66.2922 47.1002 66.3922 47.5002 67.3922C47.8002 68.1922 48.6002 68.7922 48.6002 69.6922C46.7002 70.2922 46.1002 69.0922 45.7002 67.4922Z" fill="black"/>
<path d="M13.8 67.6922C13.1 67.2922 12.4 68.9922 12.2 67.9922C12.1 67.2922 10 66.4922 12 65.6922C13.6 65.3922 14.1 66.1922 13.8 67.6922Z" fill="black"/>
<path d="M8.89999 60.6922C8.19999 59.4922 7.59999 58.1922 7.89999 56.7922C8.89999 58.2922 10.2 59.6922 9.79999 61.6922C9.19999 61.6922 8.99999 61.2922 8.89999 60.6922Z" fill="black"/>
<path d="M73.4 74.8922C72.8 75.4922 72.1 76.0922 71.5 76.6922C71.2 76.6922 70.8 76.5922 70.5 76.5922C71.4 75.7922 71.2 74.1922 72.6 73.7922C72.6 74.2922 72.8 74.7922 73.4 74.8922Z" fill="black"/>
<path d="M53.6999 30.8922C54.2999 30.8922 54.9999 30.7922 55.5999 30.7922C55.8999 30.7922 56.1999 30.8922 56.4999 30.8922C56.6999 31.7922 55.8999 31.8922 55.4999 32.3922C54.6999 32.3922 53.7999 32.2922 53.1999 31.6922C52.4999 31.0922 53.4999 31.1922 53.6999 30.8922Z" fill="black"/>
<path d="M3.00015 24.9922C4.80015 25.3922 2.10015 26.9922 3.70016 27.4922C3.30016 28.2922 2.60016 27.8922 2.00016 27.9922C2.20016 26.8922 1.30015 25.4922 3.00015 24.9922Z" fill="black"/>
<path d="M44.6001 56.7922C41.4001 56.6922 43.2001 54.1922 42.7001 52.8922C43.2001 52.7922 43.8001 52.7922 43.7001 53.4922C43.5001 54.7922 44.1001 55.6922 44.6001 56.7922Z" fill="black"/>
<path d="M45.6998 62.6922C45.2998 62.4922 44.2998 62.3922 45.4998 61.8922C46.1998 61.5922 46.5998 61.3922 46.6998 60.6922C47.4998 61.3922 48.1998 62.0922 47.2998 63.1922C47.0998 63.1922 46.8998 63.1922 46.6998 63.1922C46.4998 62.7922 46.0998 62.6922 45.6998 62.6922Z" fill="black"/>
<path d="M43.7002 84.5922C43.7002 84.8922 43.7002 85.1922 43.7002 85.4922C42.4002 84.9922 40.7002 86.1922 39.7002 84.4922C41.0002 84.5922 42.4002 84.5922 43.7002 84.5922Z" fill="black"/>
<path d="M37.8002 85.4922C37.9002 84.5922 36.7002 84.4922 36.7002 83.5922C37.8002 83.4922 39.0002 83.2922 39.7002 84.5922C39.1002 84.8922 38.4002 85.1922 37.8002 85.4922Z" fill="black"/>
<path d="M33.7998 30.8922C34.4998 30.8922 34.6998 29.9922 35.2998 29.7922C35.4998 29.7922 35.5998 29.8922 35.6998 29.9922C35.6998 30.1922 35.6998 30.4922 35.6998 30.6922C35.6998 31.2922 36.0998 32.0922 35.4998 32.4922C34.7998 32.8922 34.5998 31.6922 33.8998 31.7922C33.7998 31.5922 33.7998 31.2922 33.7998 30.8922Z" fill="black"/>
<path d="M52.5999 38.7922C52.5999 39.7922 52.5999 40.8922 52.5999 41.8922C52.5999 42.5922 52.2999 42.8922 51.5999 42.7922C51.9999 41.4922 50.6999 39.6922 52.5999 38.7922Z" fill="black"/>
<path d="M57.6 40.8922C57 40.9922 56.5 40.8922 56 40.4922C56.9 39.7922 56.2 38.1922 57.6 37.8922C57.6 38.1922 57.6 38.5922 57.6 38.8922C57.6 39.5922 57.6 40.1922 57.6 40.8922Z" fill="black"/>
<path d="M57.6001 38.9922C57.6001 38.6922 57.6001 38.2922 57.6001 37.9922C57.6001 36.9922 57.6001 35.8922 57.6001 34.8922C58.3001 34.8922 58.5001 35.3922 58.6001 35.8922C58.2001 36.8922 59.5001 38.3922 57.6001 38.9922Z" fill="black"/>
<path d="M5.0001 21.9922C5.2001 23.4922 4.7001 24.1922 3.1001 23.9922C3.1001 22.7922 4.2001 22.4922 5.0001 21.9922Z" fill="black"/>
<path d="M5.00012 28.8922C5.30012 27.8922 4.20012 26.3922 6.00012 25.9922C5.90012 26.9922 6.20012 28.1922 5.00012 28.8922Z" fill="black"/>
<path d="M21.8999 7.19219C22.3999 6.89219 22.9999 6.19219 23.3999 6.29219C24.1999 6.49219 23.5999 7.39219 23.7999 7.89219C23.4999 7.99219 23.2999 8.09219 22.9999 8.19219C22.3999 8.09219 21.8999 7.89219 21.8999 7.19219Z" fill="black"/>
<path d="M77.4998 68.5922C77.5998 69.4922 76.3998 69.7922 76.4998 70.5922C76.1998 70.6922 75.9998 70.6922 75.6998 70.7922L75.5998 70.6922C75.2998 69.1922 76.0998 68.5922 77.4998 68.5922Z" fill="black"/>
<path d="M75.5998 71.6922C75.1998 71.8922 75.0998 72.2922 75.0998 72.6922C74.7998 72.6922 74.4998 72.6922 74.1998 72.5922C74.0998 71.5922 75.1998 71.3922 75.4998 70.6922L75.5998 70.7922C75.5998 71.0922 75.5998 71.3922 75.5998 71.6922Z" fill="black"/>
<path d="M86.5 58.8922C86.4 57.9922 86.1 57.0922 87.3 56.7922C87.3 57.5922 87.8 58.5922 86.5 58.8922Z" fill="black"/>
<path d="M41.7002 58.7922C43.2002 58.7922 42.6002 59.9922 42.7002 60.6922C42.4002 60.6922 42.1002 60.6922 41.8002 60.6922C41.8002 60.0922 41.7002 59.3922 41.7002 58.7922Z" fill="black"/>
<path d="M41.8002 60.6922C42.1002 60.6922 42.4002 60.6922 42.7002 60.6922C42.7002 61.1922 42.8002 61.6922 42.8002 62.0922C41.7002 62.1922 41.8002 61.3922 41.8002 60.6922Z" fill="black"/>
<path d="M5.80018 50.7922C4.50018 50.5922 5.00018 49.5922 4.90018 48.8922C6.20018 49.0922 5.80018 49.9922 5.80018 50.7922Z" fill="black"/>
<path d="M49.5999 60.6922C49.5999 61.4922 50.0999 62.4922 48.7999 62.7922C48.8999 61.9922 48.2999 60.8922 49.5999 60.6922Z" fill="black"/>
<path d="M43.7998 63.6922C45.3998 63.8922 44.5998 64.9922 44.6998 65.7922C43.1998 65.4922 44.0998 64.3922 43.7998 63.6922Z" fill="black"/>
<path d="M82.5001 33.8922C80.9001 33.8922 81.5001 32.6922 81.4001 31.8922C82.9001 31.9922 82.1001 33.2922 82.5001 33.8922Z" fill="black"/>
<path d="M76.5 74.5922C76.7 73.1922 77.8 73.6922 78.5 73.5922C78.6 74.3922 78.2 74.6922 77.5 74.5922C77.2 74.5922 76.9 74.5922 76.5 74.5922Z" fill="black"/>
<path d="M76.5002 74.5922C76.8002 74.5922 77.2002 74.5922 77.5002 74.5922C77.4002 74.8922 77.4002 75.1922 77.3002 75.5922C77.0002 75.5922 76.7002 75.5922 76.4002 75.5922C76.2002 75.4922 75.7002 75.3922 75.7002 75.1922C75.7002 74.6922 76.2002 74.6922 76.5002 74.5922Z" fill="black"/>
<path d="M75.5 77.4922C75.5 76.9922 75.8 76.5922 76.3 76.5922C76.4 76.5922 76.5 76.6922 76.6 76.6922C76.8 77.6922 75.9 77.2922 75.5 77.4922Z" fill="black"/>
<path d="M70.5001 76.5922C70.8001 76.5922 71.2001 76.6922 71.5001 76.6922C71.3001 77.9922 70.3001 77.5922 69.5001 77.5922C69.4001 76.7922 69.8001 76.4922 70.5001 76.5922Z" fill="black"/>
<path d="M69.5 77.5922C69.2 78.0922 70.4 79.6922 68.5 79.0922C68.6 78.3922 68.2 77.3922 69.5 77.5922Z" fill="black"/>
<path d="M74.2 72.5922C74.5 72.5922 74.8 72.5922 75.1 72.6922C75.2 72.8922 75.3 73.2922 75.3 73.2922C74.8 73.7922 74.4 73.1922 74 73.0922C74 72.8922 74.1 72.7922 74.2 72.5922Z" fill="black"/>
<path d="M76.5998 76.6922C76.4998 76.6922 76.3998 76.6922 76.2998 76.5922C76.3998 76.2922 76.3998 75.9922 76.4998 75.5922C76.7998 75.5922 77.0998 75.5922 77.3998 75.5922C77.3998 76.1922 77.3998 76.6922 76.5998 76.6922Z" fill="black"/>
<path d="M73.4001 74.8922C72.7001 74.7922 72.6001 74.2922 72.6001 73.7922C72.9001 73.6922 73.2001 73.6922 73.5001 73.5922C73.5001 73.9922 73.4001 74.4922 73.4001 74.8922Z" fill="black"/>
<path d="M74.5 78.5922C74.5 77.9922 74.8 77.5922 75.4 77.5922C75.4 78.1922 75 78.3922 74.5 78.5922Z" fill="black"/>
<path d="M67.4001 79.4922C67.1001 79.4922 66.9001 79.5922 66.6001 79.5922C66.8001 79.4922 67.0001 78.8922 67.4001 79.4922Z" fill="black"/>
<path d="M73.5 79.5922C73.5 78.9922 73.8 78.5922 74.5 78.5922C74.6 79.2922 74.2 79.5922 73.5 79.5922Z" fill="black"/>
<path d="M72.5 80.4922C72.5 79.8922 72.9 79.5922 73.5 79.5922C73.5 80.1922 73.3 80.5922 72.5 80.4922Z" fill="black"/>
<path d="M7.99979 17.0922C8.09979 17.7922 7.79979 18.0922 7.09979 18.0922C6.99979 17.3922 7.39979 17.0922 7.99979 17.0922Z" fill="black"/>
<path d="M9 16.0922C9.1 16.7922 8.7 17.0922 8 17.0922C7.9 16.2922 8.2 15.9922 9 16.0922Z" fill="black"/>
<path d="M48.7002 63.6922C48.7002 64.0922 48.7002 64.5922 48.2002 64.4922C48.0002 64.4922 47.9002 63.9922 47.7002 63.7922C48.0002 63.6922 48.3002 63.6922 48.7002 63.6922Z" fill="black"/>
<path d="M43.2998 62.5922C43.8998 62.6922 43.8998 63.0922 43.7998 63.4922C43.3998 63.3922 43.2998 62.9922 43.2998 62.5922Z" fill="black"/>
<path d="M1.89997 28.7922C1.99997 29.3922 1.79997 29.8922 1.09997 29.8922C0.899968 29.1922 1.09997 28.7922 1.89997 28.7922Z" fill="black"/>
<path d="M9.9 14.9922C10.1 15.6922 9.8 16.1922 9 16.0922C9.1 15.4922 9.5 15.2922 9.9 14.9922Z" fill="black"/>
<path d="M10.8999 69.6922C13.3999 69.9922 13.6999 70.4922 12.8999 72.6922C11.4999 72.1922 11.2999 70.7922 10.8999 69.6922Z" fill="black"/>
<path d="M34.7002 87.5922C35.2002 87.3922 36.0002 87.5922 35.9002 86.6922C35.8002 85.3922 36.7002 85.7922 37.4002 85.7922C36.6002 86.4922 36.6002 87.3922 36.8002 88.3922C36.0002 88.2922 35.0002 88.9922 34.7002 87.5922Z" fill="black"/>
<path d="M6.00014 61.6922C6.30014 61.6922 6.70014 61.6922 7.00014 61.6922C7.30014 62.6922 8.50014 63.3922 8.00014 64.6922C6.60014 64.0922 5.80014 63.2922 6.00014 61.6922Z" fill="black"/>
<path d="M12.8999 72.6922C14.4999 72.3922 15.0999 73.0922 14.8999 74.6922C13.7999 74.3922 13.2999 73.5922 12.8999 72.6922Z" fill="black"/>
<path d="M4.8999 59.6922C6.1999 59.7922 5.8999 60.7922 5.8999 61.6922C4.6999 61.4922 5.0999 60.4922 4.8999 59.6922Z" fill="black"/>
<path d="M14.8999 74.5922C16.1999 74.6922 15.8999 75.5922 15.8999 76.3922C14.3999 76.4922 15.1999 75.2922 14.8999 74.5922Z" fill="black"/>
<path d="M4.10005 58.6922C4.80005 58.6922 5.00005 59.0922 5.00005 59.6922C4.30005 59.7922 3.80005 59.4922 4.10005 58.6922Z" fill="black"/>
<path d="M44.7002 86.5922C44.8002 86.2922 44.9002 85.8922 45.0002 85.7922C45.5002 85.6922 45.6002 86.0922 45.7002 86.4922C45.4002 86.4922 45.1002 86.5922 44.7002 86.5922Z" fill="black"/>
<path d="M43.6999 86.5922C43.6999 86.8922 43.6999 87.1922 43.7999 87.4922C43.4999 87.3922 42.9999 87.3922 42.9999 87.1922C42.7999 86.5922 43.3999 86.5922 43.6999 86.5922Z" fill="black"/>
<path d="M45.7002 62.6922C46.1002 62.6922 46.5002 62.7922 46.6002 63.1922C45.8002 63.9922 45.8002 63.2922 45.7002 62.6922Z" fill="black"/>
<path d="M17.8998 72.5922C17.6998 73.2922 18.1998 74.1922 17.1998 74.4922C16.5998 74.6922 16.1998 74.1922 16.1998 73.6922C15.8998 71.9922 17.2998 72.8922 17.8998 72.5922Z" fill="black"/>
<path d="M75.6001 71.6922C75.6001 71.3922 75.7001 71.0922 75.7001 70.8922C76.0001 70.7922 76.3001 70.7922 76.5001 70.6922C76.8001 70.8922 77.2001 71.0922 77.2001 71.0922C76.9001 71.9922 76.2001 71.4922 75.6001 71.6922Z" fill="black"/>
<path d="M34.9002 35.7922C34.6002 34.3922 34.9002 33.4922 36.6002 34.0922C36.6002 34.3922 36.7002 34.6922 36.7002 34.9922C36.7002 35.4922 37.0002 36.2922 36.5002 36.4922C35.7002 36.9922 35.5002 35.8922 34.9002 35.7922Z" fill="black"/>
</svg>
