<svg width="82" height="105" viewBox="0 0 82 105" fill="none" xmlns="http://www.w3.org/2000/svg">
<path d="M31.2131 98.3767C28.8853 98.3767 26.9951 99.8594 26.9951 101.688C26.9951 103.517 28.8853 105 31.2131 105C33.5409 105 35.4311 103.517 35.4311 101.688C35.4311 99.8594 33.5473 98.3767 31.2131 98.3767Z" fill="#8469FF"/>
<path d="M33.5789 84.2714C28.8281 84.2714 24.9717 86.9118 24.9717 90.1745C24.9717 93.4317 28.8218 96.0775 33.5789 96.0775C38.3297 96.0775 42.1861 93.4371 42.1861 90.1745C42.1798 86.9172 38.3297 84.2714 33.5789 84.2714Z" fill="#8469FF"/>
<path d="M78.5748 51.0173C80.5094 48.8692 81.6701 46.191 81.6701 43.2746C81.6701 39.0976 79.3043 35.4021 75.6572 33.0809C76.4944 32.0204 76.9828 30.7435 76.9828 29.3692C76.9828 26.7396 75.1814 24.4779 72.5809 23.4066C72.657 23.201 72.7204 22.99 72.7838 22.7736C73.0122 21.989 73.1517 21.1774 73.1517 20.3333C73.1517 14.7874 67.8809 10.2911 61.3795 10.2911C58.3413 10.2911 55.5821 11.2813 53.489 12.8937C53.4192 12.9478 53.3431 13.0019 53.2733 13.0614C52.3663 12.7151 51.3895 12.4716 50.3556 12.3742C50.4571 11.8386 50.5206 11.2975 50.5206 10.7402C50.5206 9.01421 50.0195 7.3856 49.1441 5.94094C47.013 2.42401 42.6301 0 37.5558 0C30.3948 0 24.5848 4.81011 24.5848 10.7402C24.5848 10.935 24.6101 11.119 24.6165 11.3083C24.6101 11.4111 24.6038 11.5139 24.6038 11.6222C24.6038 12.3472 24.6989 13.0506 24.8512 13.7323C24.6926 13.7972 24.5467 13.873 24.3945 13.9487C24.1408 13.9325 23.8807 13.9109 23.6207 13.9109C18.0897 13.9109 13.4722 17.2547 12.3875 21.7022C11.119 20.961 9.584 20.5335 7.92852 20.5335C3.55198 20.5335 0 23.5635 0 27.2969C0 29.6072 1.35735 31.6471 3.43145 32.8645C1.49689 35.0125 0.336188 37.6908 0.336188 40.6072C0.336188 44.7842 2.70205 48.4797 6.34917 50.8008C5.51192 51.8613 5.0235 53.1382 5.0235 54.5126C5.0235 57.2125 6.91367 59.5337 9.62839 60.5671C8.51206 62.4284 7.84606 64.7117 7.84606 67.1952C7.84606 72.8115 11.2205 77.4538 15.6351 78.3033C17.4872 80.6083 20.6015 82.1233 24.1218 82.1233C27.826 82.1233 31.0544 80.446 32.8621 77.9408C33.9721 79.5532 35.5388 80.9058 37.4099 81.8744C37.4797 81.9122 37.5495 81.9447 37.6193 81.9826C37.9174 82.1287 38.2218 82.2639 38.5326 82.3938C40.2706 83.1296 42.2432 83.5679 44.3617 83.5679C49.1822 83.5679 53.3431 81.3982 55.3665 78.2384C56.6414 76.507 57.3962 74.4617 57.3962 72.265C57.3962 71.54 57.301 70.8366 57.1488 70.1548C57.3074 70.0899 57.4533 70.0142 57.6055 69.9384C57.8655 69.9546 58.1192 69.9763 58.3793 69.9763C63.9102 69.9763 68.5278 66.6325 69.6124 62.1849C70.881 62.9262 72.416 63.3536 74.0715 63.3536C78.448 63.3536 82 60.3236 82 56.5903C82.0063 54.2745 80.6489 52.2347 78.5748 51.0173Z" fill="#8469FF"/>
</svg>
