<svg width="111" height="140" viewBox="0 0 111 140" fill="none" xmlns="http://www.w3.org/2000/svg">
<path d="M25.7 113.3C24.2 113.1 23.5 112 22.9 110.8C20.7 106.7 16.8 105.6 12.7 105.9C10.1 106.1 7.2 106.1 4.7 107.6C3.3 108.4 1.6 108.5 0 108.3C0 107 0 105.7 0 104.3C8.6 101.5 10.2 99.3 11.8 89.8C12 88.8 12.5 88.5 13.3 88.2C15.3 91.5 16 94.7 13 98C12.5 98.6 10.7 100.2 12.5 101.3C13.9 102.1 15.5 104.6 16.9 103.2C19.4 100.6 20.8 102.6 22.6 103.7C24.8 105 26.4 106.8 28 108.6C28.7 109.4 29.5 109.9 30.5 109.1C30.7 110.3 33.7 113.3 29 111.5C27.5 110.8 26.3 111.8 25.7 113.3Z" fill="black"/>
<path d="M109.1 97.7C103.3 101.9 103.4 107.7 103.8 114.1C104.3 120.8 105.2 127.5 105 134.2C104.9 136.1 104.8 138 102.7 138.3C100.8 138.6 99.4001 137.5 99.0001 135.2C98.4001 132.2 97.5001 129.3 97.4001 126.1C97.2001 120.8 95.6001 115.9 93.3001 111.1C91.1001 106.3 87.4001 103.8 82.0001 104.1C80.2001 104.2 78.3001 104.5 77.1001 102.7C77.2001 101.7 77.3001 100.7 77.4001 99.7C77.7001 98.7 78.3001 98.5 79.3001 98.7C79.5001 99.1 79.7001 99.8 79.8001 99.8C80.6001 99.7 80.3001 98.9 80.4001 98.4C81.3001 97.6 82.2001 96.9 83.1001 96.2C84.5001 96.1 85.5001 97.1 86.7001 97.4C86.8001 98 84.8001 98.7 86.8001 99.3C89.6001 100.1 92.0001 101.6 93.9001 103.9C93.1001 104.1 92.3001 104.4 92.5001 105.4C92.6001 106 93.4001 106.2 94.0001 106.2C94.6001 106.2 95.2001 106.2 95.9001 106.2C96.6001 106.8 96.9001 107.8 97.9001 108C99.9001 104.6 99.6001 100.4 102 97.1C96.9001 94 93.2001 89.7 90.7001 84.5C90.1001 83.3 89.3001 83.3 88.3001 83.5C87.5001 83.5 86.7001 83.5 86.1001 82.7C84.4001 80.6 85.9001 78 85.1001 75.8C85.2001 75.1 85.3001 74.5 85.4001 73.8L85.8001 73.7C86.6001 73 86.2001 72.7 85.4001 72.6C83.6001 70.4 83.8001 68.2 85.6001 66C86.9001 65.8 88.1001 65.6 89.4001 65.4C91.6001 67.8 91.1001 71.2 92.2001 74C94.5001 79.5 96.5001 85.1 100.6 89.7C102.5 91.7 104.5 93.2 107.4 92.7C108.9 92.5 110.2 93.1 110.6 94.4C110.9 95.6 110.3 96.9 109.1 97.7Z" fill="black"/>
<path d="M38.7002 128.3C37.6002 122.9 35.5002 117.8 35.7002 112.1C35.9002 106.6 34.9002 101.1 38.3002 96.1C39.5002 94.3 38.3002 92.5 36.1002 92.4C34.0002 92.3 31.8002 92.4 29.7002 92.6C26.8002 92.9 24.6002 91.4 23.0002 89.5C20.4002 86.7 18.3002 83.5 15.9002 80.4H12.9002C9.70016 83.5 10.0002 85.2 13.9002 87.3C14.9002 87.5 15.6002 88.3 16.1002 89.1C18.6002 92.9 22.7002 94.6 26.3002 97C28.0002 98.2 29.8002 96.9 31.5002 97.4C31.2002 101.4 30.1002 105.2 30.6002 109C30.8002 110.2 33.8002 113.2 29.1002 111.4C27.4002 110.8 26.3002 111.7 25.7002 113.3C26.4002 114.9 27.5002 116.1 28.1002 117.8C28.7002 119.4 28.8002 122.2 31.9002 122.2C32.9002 122.2 32.7002 122.9 32.0002 123.4C31.1002 124.1 31.5002 124.9 31.8002 125.6C33.0002 128.5 33.7002 131.4 34.0002 134.5C34.2002 136.9 35.3002 139.3 38.6002 139C40.0002 134.3 40.0002 134.3 38.7002 128.3ZM14.2002 85L14.4002 84.7L14.5002 85H14.2002Z" fill="black"/>
<path d="M58.6002 58.6C57.0002 58.7 55.4002 58.8 53.8002 58.9C52.3002 58.4 52.5002 56.8 51.8002 55.7C50.9002 54.4 50.8002 52.2 48.3002 52.8C47.9002 52.9 47.3002 52.5 47.0002 52.2C41.8002 46.8 35.3002 47.3 28.7002 48.3C27.2002 48.5 25.8002 48.7 24.3002 48.8C23.4002 48.8 22.2002 48.9 22.0002 47.6C21.8002 46.4 22.0002 45.2 23.2002 44.6C26.2002 43.1 29.2002 40.7 32.5002 40.9C37.6002 41.3 40.2002 37.4 43.7002 35.2C46.4002 33.6 47.4002 30 48.0002 26.8C48.9002 26.8 49.8002 26.8 50.8002 26.9C51.2002 28.7 49.3002 29.5 49.1002 30.9C48.6002 35.9 46.2002 39.2 41.4002 40.9C40.4002 41.3 39.5002 42.1 38.6002 42.8C38.0002 42.8 37.1002 42.8 37.1002 43.3C37.1002 43.9 38.0002 43.8 38.6002 43.8C44.9002 45.3 50.2002 48.3 54.4002 53.3C55.8002 55.1 57.2002 56.9 58.6002 58.6Z" fill="black"/>
<path d="M71.0998 91.6C69.8998 87.1 68.7998 82.5 67.6998 78C67.0998 75.6 68.2998 72.8 66.0998 70.7C65.4998 70.7 64.5998 70.7 64.6998 70C64.7998 69.4 65.6998 69.6 66.2998 69.6C67.6998 68.6 65.8998 67.6 66.1998 66.6C65.2998 66.3 64.4998 65.7 64.4998 64.7C64.3998 63.7 65.3998 63.7 66.0998 63.6C66.0998 62.6 66.3998 61.5 65.2998 60.8C63.0998 59.8 65.7998 59.2 65.4998 58.4C65.4998 55.8 65.3998 53.3 65.3998 50.7C64.0998 51 62.7998 51.4 61.4998 51.7C61.4998 52.4 61.4998 53 61.4998 53.7C62.6998 53.7 63.9998 54.1 63.7998 55.3C63.6998 56.3 63.1998 57.8 61.4998 57.7V61.4C59.9998 61 59.9998 59 58.5998 58.6C56.9998 58.7 55.3998 58.8 53.7998 58.9C55.0998 60.5 56.2998 62.1 57.5998 63.6H58.5998C59.3998 63.6 60.3998 63.6 60.2998 64.8C60.1998 65.5 59.3998 65.6 58.6998 65.6C60.6998 69.8 62.0998 74.3 63.0998 78.8C64.1998 83.9 64.6998 89.1 66.4998 94C67.2998 96.2 68.3998 96.5 70.2998 95C71.3998 94.2 71.4998 93 71.0998 91.6ZM63.3998 75.1C63.0998 75.1 62.7998 75 62.7998 74.8C62.7998 74.7 62.9998 74.5 63.3998 74.5C63.7998 74.5 63.9998 74.6 63.9998 74.8C63.9998 75 63.6998 75.1 63.3998 75.1ZM66.7998 83.6C66.6998 83.6 66.5998 83.4 66.5998 83.1C66.5998 82.8 66.6998 82.6 66.7998 82.6C66.8998 82.6 66.9998 82.8 66.9998 83.1C66.9998 83.4 66.8998 83.6 66.7998 83.6ZM69.5998 90.5C69.3998 90.5 69.1998 90.3 69.1998 90C69.1998 89.7 69.3998 89.5 69.5998 89.5C69.7998 89.5 69.9998 89.7 69.9998 90C69.9998 90.2 69.7998 90.5 69.5998 90.5Z" fill="black"/>
<path d="M65.5002 50.7C64.2002 51 62.9002 51.4 61.6002 51.7C60.0002 50 62.8002 49.9 62.9002 48.4C63.1002 46.4 63.5002 44 64.9002 42.1C68.1002 37.7 67.9002 37.6 63.4002 35.8C63.6002 34.7 63.0002 33.3 64.5002 32.7C67.0002 32.9 69.2002 31.8 71.6002 31.3C72.9002 31 74.1002 30.8 75.4002 30.6C76.5002 30.4 77.4002 31.1 77.8002 32C78.4002 33.2 77.6002 34.3 76.6002 34.8C71.0002 37.8 68.7002 43 67.1002 48.7C66.8002 49 66.6002 49.2 66.3002 49.5C65.9002 49.7 65.4002 50 65.5002 50.7Z" fill="black"/>
<path d="M50.7002 26.9C49.8002 26.9 48.9002 26.9 47.9002 26.8C49.0002 20.4 44.9002 14.6 45.3002 8.3C43.5002 7 46.4002 5 44.8002 3.5C44.4002 3.1 47.8002 -0.200001 48.5002 -1.15298e-06C49.5002 0.299999 51.2002 1.2 49.9002 2.2C46.8002 4.8 49.0002 7.9 48.9002 10.6C48.9002 12.1 51.2002 13.4 49.2002 15.1C48.8002 15.5 49.2002 15.4 49.4002 15.7C51.6002 18.3 54.5002 24.5 54.9002 26.8C52.7002 27 53.8002 28.8 53.4002 29.9C51.3002 30.1 52.5002 27.2 50.7002 26.9Z" fill="black"/>
<path d="M86.1 82.7C86.6 83.5 87.4 83.5 88.3 83.5C88.3 84.3 88.1 85.2 88.3 85.9C89.9 90.1 88.5 93.8 86.6 97.5C85.4 97.2 84.4 96.2 83 96.3C84.6 93.6 85.3 90.6 85.4 87.5C85.5 85.9 85.4 84.2 86.1 82.7Z" fill="black"/>
<path d="M53.5 30C53.9 28.9 52.7 27.1 55 26.9C55.5 27.2 56.2 27.5 56.6 27.9C58.8 30.3 61.5 31.9 64.6 32.7C63 33.3 63.7 34.7 63.5 35.8C59.1 35.7 55.5 34.3 53.5 30Z" fill="black"/>
<path d="M15.7999 80.5C14.7999 80.5 13.7999 80.5 12.7999 80.5C12.5999 79.8 11.9999 79.5 11.2999 79.5C10.0999 79.5 8.59988 79.9 8.59988 77.9C8.59988 76.4 7.29988 74.7 9.29988 73.6C10.2999 73 10.9999 71.5 12.5999 72.3C13.8999 72.9 13.7999 74.2 13.6999 75.3C13.5999 77.4 14.8999 78.8 15.7999 80.5Z" fill="black"/>
<path d="M86.2002 63.6C86.2002 63.4 86.2002 63.3 86.2002 63.1C86.6002 61.7 86.5002 59.6 88.2002 59.8C89.7002 60 90.1002 62 89.9002 63.7C89.8002 64.4 89.6002 64.7 89.7002 64.1C89.7002 64.1 89.4002 64.1 89.2002 64C88.3002 63.2 87.2002 63.9 86.2002 63.6Z" fill="black"/>
<path d="M86.2 63.6C87.2 63.9 88.3 63.1 89.3 64C89.3 64.5 89.3 64.9 89.3 65.4C88 65.6 86.8 65.8 85.5 66C85.2 65 85 64.1 86.2 63.6Z" fill="black"/>
<path d="M77.4 99.8C77.3 100.8 77.2 101.8 77.1 102.8C74.8 101.6 75.9 100.7 77.4 99.8Z" fill="black"/>
<path d="M85.3999 73.8C85.2999 74.5 85.1999 75.1 85.0999 75.8C84.2999 75 83.4999 74.2 85.3999 73.8Z" fill="black"/>
<path d="M80.3002 98.5C80.2002 99 80.5002 99.7 79.7002 99.9C79.6002 99.9 79.4002 99.2 79.2002 98.8C79.6002 98.7 80.0002 98.6 80.3002 98.5Z" fill="black"/>
<path d="M66.3999 49.5C66.6999 49.2 66.8999 49 67.1999 48.7C67.2999 49.4 67.0999 49.7 66.3999 49.5Z" fill="black"/>
<path d="M85.2998 72.5C86.1998 72.6 86.4998 72.9 85.6998 73.6C85.5998 73.3 85.3998 72.9 85.2998 72.5Z" fill="black"/>
<path d="M14.4002 84.8L14.5002 85.1L14.2002 85L14.4002 84.8Z" fill="black"/>
</svg>
