<svg width="866" height="105" viewBox="0 0 866 105" fill="none" xmlns="http://www.w3.org/2000/svg">
<path d="M58.5905 40.7794C71.2114 40.7794 81.1147 42.1202 88.3003 44.8018C95.486 47.391 100.507 50.9974 103.363 55.6209C106.218 60.2444 107.646 65.9313 107.646 72.6816C107.646 82.4835 104.053 90.0661 96.8678 95.4293C89.6822 100.793 76.9231 103.474 58.5905 103.474H33.9936V103.613H0C0.736987 85.6737 1.10548 68.8904 1.10548 53.2629C1.10548 37.6354 0.736987 20.8521 0 2.91282H101.842V30.7926H33.9936V40.7794H58.5905ZM53.0631 79.4782C59.4196 79.4782 64.21 79.247 67.4344 78.7847C70.7508 78.3223 73.0539 77.5826 74.3436 76.5654C75.7255 75.5482 76.4164 74.0225 76.4164 71.9881C76.4164 69.9538 75.7255 68.3818 74.3436 67.2721C72.9618 66.1625 70.6126 65.3765 67.2962 64.9141C63.9797 64.4518 59.2354 64.2206 53.0631 64.2206H33.9936V79.4782H53.0631Z" fill="#100F0F"/>
<path d="M151.124 3.05152L148.775 80.8653L182.354 3.05152H233.206C232.561 18.679 232.239 35.4161 232.239 53.2629C232.239 71.2021 232.561 87.9855 233.206 103.613H197.692L200.18 27.8798L166.739 103.613H117.268C118.005 85.6737 118.374 68.8904 118.374 53.2629C118.374 37.7279 118.005 20.9908 117.268 3.05152H151.124Z" fill="#100F0F"/>
<path d="M321.36 52.5694C324.677 51.9221 327.947 51.5984 331.172 51.5984C336.791 51.5984 341.351 52.5694 344.852 54.5112C348.445 56.3606 351.024 58.7649 352.59 61.7239C354.156 64.5905 354.939 67.5958 354.939 70.7398C354.939 78.0449 352.544 84.2867 347.754 89.465C342.963 94.5509 336.469 98.4346 328.27 101.116C320.071 103.705 310.95 105 300.909 105C271.798 105 252.959 94.8283 244.391 74.4848L252.13 72.5429C257.841 71.1559 262.678 69.8613 266.639 68.6592C270.693 67.3646 274.239 65.9313 277.279 64.3593C279.122 68.9828 281.747 72.3118 285.156 74.3461C288.657 76.288 293.447 77.2589 299.527 77.2589C305.976 77.2589 311.227 76.5192 315.28 75.0396C319.334 73.5601 321.36 71.3408 321.36 68.3818C321.36 66.8098 320.577 65.6077 319.011 64.7754C317.445 63.9432 314.958 63.3884 311.549 63.111C308.141 62.7411 303.35 62.5562 297.178 62.5562H286.676V38.2827H293.032C300.034 38.2827 305.745 38.0053 310.167 37.4505C314.589 36.8032 316.8 35.4624 316.8 33.428C316.8 31.1163 315.603 29.2669 313.207 27.8798C310.904 26.4003 307.266 25.6605 302.291 25.6605C295.842 25.6605 290.591 27.0013 286.538 29.683C282.576 32.3646 279.49 36.2484 277.279 41.3342C267.422 37.358 256.92 34.5377 245.773 32.8732C250.195 22.8864 256.966 15.1651 266.086 9.70938C275.299 4.25363 287.137 1.52576 301.6 1.52576C310.997 1.52576 319.426 2.77411 326.888 5.27081C334.442 7.67504 340.338 11.0502 344.576 15.3963C348.905 19.7424 351.07 24.5971 351.07 29.9604C351.07 33.1044 350.333 35.9247 348.859 38.4214C347.385 40.8256 344.483 43.2299 340.154 45.6341C335.824 47.9458 329.559 50.2576 321.36 52.5694Z" fill="#100F0F"/>
<path d="M481.774 2.91282C481.129 18.5403 480.807 35.3236 480.807 53.2629C480.807 71.2021 481.129 87.9855 481.774 103.613H449.3V65.8851H398.448V103.613H365.975C366.712 85.6737 367.08 68.8904 367.08 53.2629C367.08 37.6354 366.712 20.8521 365.975 2.91282H398.448V40.6407H449.3V2.91282H481.774Z" fill="#100F0F"/>
<path d="M525.436 78.2299C560.443 78.0449 585.823 77.5363 601.576 76.7041C600.931 80.4954 600.517 84.4254 600.332 88.4941C600.24 92.4703 600.194 97.5099 600.194 103.613H492.824C493.561 85.6737 493.93 68.8904 493.93 53.2629C493.93 37.6354 493.561 20.8521 492.824 2.91282H600.194V28.0185H525.436V41.3342C529.858 41.4267 536.399 41.4729 545.058 41.4729C559.706 41.4729 574.86 41.1955 590.521 40.6407V64.498C574.86 63.9432 559.706 63.6658 545.058 63.6658C536.399 63.6658 529.858 63.712 525.436 63.8045V78.2299Z" fill="#100F0F"/>
<path d="M673.458 105C652.638 105 637.3 100.561 627.443 91.6843C617.585 82.8071 612.657 70.1387 612.657 53.679C612.657 37.1268 617.585 24.0423 627.443 14.4254C637.3 4.80846 652.638 0 673.458 0C702.569 0 722.053 10.033 731.911 30.0991C723.62 32.9657 713.901 37.2655 702.754 42.9987C700.082 37.8203 695.844 33.9828 690.041 31.4861C684.329 28.9894 678.479 27.7411 672.491 27.7411C663.647 27.7411 657.06 30.0991 652.731 34.8151C648.401 39.4386 646.236 45.1717 646.236 52.0145C646.236 59.4122 648.539 65.469 653.145 70.185C657.843 74.8085 664.983 77.1202 674.564 77.1202C682.21 77.1202 688.29 75.8719 692.804 73.3752C697.318 70.786 700.635 66.7173 702.754 61.1691C710.308 65.2378 719.981 69.8151 731.773 74.9009C727.166 86.0898 719.474 93.9036 708.696 98.3421C697.917 102.781 686.171 105 673.458 105Z" fill="#100F0F"/>
<path d="M830.21 103.613C828.46 98.3421 826.111 91.7305 823.163 83.7781H779.081L772.172 103.613H737.488L776.18 2.91282H827.032L866 103.613H830.21ZM815.286 62.14C811.785 52.4307 808.193 42.7213 804.508 33.0119L801.191 23.996C797.967 32.4108 793.222 45.1255 786.958 62.14H815.286Z" fill="#100F0F"/>
</svg>
