<svg width="71" height="22" viewBox="0 0 71 22" fill="none" xmlns="http://www.w3.org/2000/svg">
<path d="M4.80361 16.2981C5.83835 16.2981 6.65028 16.4076 7.2394 16.6266C7.82853 16.8381 8.24016 17.1327 8.47429 17.5103C8.70843 17.888 8.8255 18.3525 8.8255 18.9038C8.8255 19.7044 8.53094 20.3238 7.94182 20.7618C7.3527 21.1999 6.30662 21.4189 4.80361 21.4189H2.787V21.4303H0C0.0604227 19.965 0.0906345 18.5942 0.0906345 17.3177C0.0906345 16.0413 0.0604227 14.6705 0 13.2052H8.34967V15.4824H2.787V16.2981H4.80361ZM4.35044 19.459C4.87158 19.459 5.26433 19.4401 5.52868 19.4023C5.80059 19.3645 5.98941 19.3041 6.09515 19.221C6.20844 19.138 6.26509 19.0133 6.26509 18.8472C6.26509 18.681 6.20844 18.5526 6.09515 18.462C5.98185 18.3713 5.78925 18.3071 5.51735 18.2694C5.24545 18.2316 4.85648 18.2127 4.35044 18.2127H2.787V19.459H4.35044Z" fill="black"/>
<path d="M12.3901 13.2165L12.1975 19.5722L14.9505 13.2165H19.1196C19.0668 14.493 19.0403 15.86 19.0403 17.3177C19.0403 18.783 19.0668 20.1538 19.1196 21.4303H16.208L16.412 15.2445L13.6703 21.4303H9.61439C9.67481 19.965 9.70502 18.5942 9.70502 17.3177C9.70502 16.0488 9.67481 14.6818 9.61439 13.2165H12.3901Z" fill="black"/>
<path d="M26.3471 17.2611C26.619 17.2082 26.8871 17.1818 27.1515 17.1818C27.6122 17.1818 27.9861 17.2611 28.2731 17.4197C28.5676 17.5707 28.7791 17.7671 28.9075 18.0088C29.0359 18.2429 29.1001 18.4884 29.1001 18.7452C29.1001 19.3419 28.9037 19.8517 28.511 20.2747C28.1182 20.6901 27.5858 21.0073 26.9136 21.2263C26.2414 21.4378 25.4936 21.5435 24.6704 21.5435C22.2837 21.5435 20.7391 20.7127 20.0367 19.0511L20.6711 18.8925C21.1394 18.7792 21.5359 18.6735 21.8607 18.5753C22.193 18.4695 22.4838 18.3525 22.7331 18.2241C22.8841 18.6017 23.0994 18.8736 23.3788 19.0398C23.6658 19.1984 24.0586 19.2777 24.5571 19.2777C25.0858 19.2777 25.5163 19.2173 25.8486 19.0964C26.1809 18.9756 26.3471 18.7943 26.3471 18.5526C26.3471 18.4242 26.2829 18.326 26.1545 18.2581C26.0261 18.1901 25.8222 18.1448 25.5427 18.1221C25.2633 18.0919 24.8705 18.0768 24.3645 18.0768H23.5035V16.0942H24.0246C24.5986 16.0942 25.0669 16.0715 25.4294 16.0262C25.792 15.9733 25.9732 15.8638 25.9732 15.6976C25.9732 15.5088 25.875 15.3578 25.6787 15.2445C25.4898 15.1236 25.1915 15.0632 24.7837 15.0632C24.255 15.0632 23.8245 15.1727 23.4921 15.3917C23.1674 15.6108 22.9143 15.928 22.7331 16.3434C21.9249 16.0186 21.0639 15.7883 20.15 15.6523C20.5125 14.8366 21.0677 14.206 21.8154 13.7603C22.5707 13.3147 23.5412 13.0919 24.727 13.0919C25.4974 13.0919 26.1885 13.1939 26.8003 13.3978C27.4196 13.5942 27.903 13.8699 28.2504 14.2248C28.6054 14.5798 28.7829 14.9763 28.7829 15.4144C28.7829 15.6712 28.7225 15.9016 28.6016 16.1055C28.4808 16.3019 28.2429 16.4982 27.8879 16.6946C27.5329 16.8834 27.0193 17.0723 26.3471 17.2611Z" fill="black"/>
<path d="M39.4988 13.2052C39.4459 14.4816 39.4195 15.8525 39.4195 17.3177C39.4195 18.783 39.4459 20.1538 39.4988 21.4303H36.8364V18.3487H32.6672V21.4303H30.0049C30.0653 19.965 30.0955 18.5942 30.0955 17.3177C30.0955 16.0413 30.0653 14.6705 30.0049 13.2052H32.6672V16.2868H36.8364V13.2052H39.4988Z" fill="black"/>
<path d="M43.0785 19.357C45.9486 19.3419 48.0294 19.3003 49.3209 19.2324C49.268 19.542 49.2341 19.863 49.219 20.1954C49.2114 20.5201 49.2076 20.9318 49.2076 21.4303H40.4048C40.4652 19.965 40.4954 18.5942 40.4954 17.3177C40.4954 16.0413 40.4652 14.6705 40.4048 13.2052H49.2076V15.2558H43.0785V16.3434C43.441 16.351 43.9773 16.3547 44.6872 16.3547C45.8881 16.3547 47.1306 16.3321 48.4146 16.2868V18.2354C47.1306 18.1901 45.8881 18.1674 44.6872 18.1674C43.9773 18.1674 43.441 18.1712 43.0785 18.1788V19.357Z" fill="black"/>
<path d="M55.2143 21.5435C53.5073 21.5435 52.2498 21.181 51.4416 20.4559C50.6335 19.7309 50.2294 18.6961 50.2294 17.3517C50.2294 15.9998 50.6335 14.931 51.4416 14.1455C52.2498 13.36 53.5073 12.9673 55.2143 12.9673C57.601 12.9673 59.1984 13.7868 60.0065 15.4257C59.3268 15.6599 58.53 16.0111 57.6161 16.4794C57.397 16.0564 57.0496 15.743 56.5738 15.539C56.1055 15.3351 55.6259 15.2331 55.135 15.2331C54.4099 15.2331 53.8699 15.4257 53.5149 15.8109C53.1599 16.1886 52.9824 16.6569 52.9824 17.2158C52.9824 17.82 53.1712 18.3147 53.5489 18.6999C53.9341 19.0775 54.5194 19.2664 55.3049 19.2664C55.9318 19.2664 56.4303 19.1644 56.8004 18.9605C57.1704 18.749 57.4423 18.4167 57.6161 17.9635C58.2354 18.2958 59.0284 18.6697 59.9952 19.0851C59.6176 19.999 58.9869 20.6372 58.1032 20.9997C57.2195 21.3623 56.2565 21.5435 55.2143 21.5435Z" fill="black"/>
<path d="M68.0657 21.4303C67.9222 20.9997 67.7296 20.4597 67.4879 19.8102H63.8739L63.3074 21.4303H60.4638L63.636 13.2052H67.8051L71 21.4303H68.0657ZM66.8422 18.0428C66.5552 17.2497 66.2606 16.4567 65.9585 15.6637L65.6866 14.9272C65.4222 15.6146 65.0332 16.6531 64.5197 18.0428H66.8422Z" fill="black"/>
<path d="M42.8737 6.20844H43.3382V10.0944H40.6532V8.45164H35.6003V10.1284H32.9153V6.20844H33.4817C33.8065 6.14802 34.0558 6.01584 34.2295 5.81191C34.4032 5.60799 34.5316 5.28322 34.6147 4.8376C34.6826 4.46751 34.7166 3.62537 34.7166 2.31117L34.7053 0L42.8737 0.0113288V6.20844ZM37.2544 5.72128C37.2091 5.93276 37.1675 6.09515 37.1298 6.20844H40.0074V2.22054H37.4696L37.4583 2.87763C37.4583 3.45165 37.4432 3.95769 37.413 4.39576C37.3903 4.82627 37.3375 5.26811 37.2544 5.72128Z" fill="black"/>
<path d="M53.5908 8.22505H50.7245V2.22054H48.1867L48.1754 2.87763C48.1754 3.45165 48.1603 3.95769 48.13 4.39576C48.1074 4.82627 48.0545 5.26811 47.9714 5.72128C47.8204 6.54454 47.4352 7.20542 46.8159 7.7039C46.2041 8.20239 45.3468 8.45164 44.2441 8.45164V6.24243C44.5387 6.18201 44.769 6.04983 44.9352 5.8459C45.1089 5.63442 45.2411 5.29832 45.3317 4.8376C45.3997 4.46751 45.4337 3.62537 45.4337 2.31117L45.4224 0L53.5908 0.0113288V8.22505Z" fill="black"/>
<path d="M63.5976 0C63.5447 1.27643 63.5183 2.64727 63.5183 4.11252C63.5183 5.57778 63.5447 6.94862 63.5976 8.22505H60.9239V5.59666H59.2585C58.541 6.72959 58.016 7.60572 57.6837 8.22505H54.6022L56.4375 5.67596C56.4753 5.60799 56.5395 5.51358 56.6301 5.39273C55.8522 5.18881 55.3008 4.86026 54.976 4.40709C54.6588 3.95391 54.5002 3.39878 54.5002 2.74168C54.5002 1.90332 54.8023 1.23867 55.4065 0.747732C56.0108 0.256797 57.0757 0.0113288 58.6014 0.0113288H60.9239V0H63.5976ZM60.9239 3.47809V2.18655H59.3944C58.7449 2.18655 58.254 2.20543 57.9216 2.2432C57.5893 2.28096 57.3627 2.34516 57.2419 2.43579C57.121 2.52643 57.0606 2.65483 57.0606 2.82099C57.0606 2.9947 57.1248 3.12688 57.2532 3.21751C57.3816 3.30815 57.6082 3.37612 57.933 3.42144C58.2653 3.4592 58.7525 3.47809 59.3944 3.47809H60.9239Z" fill="black"/>
<path d="M8.63742 3.87228C7.89673 3.50593 6.71485 3.32472 5.08369 3.32472C4.4199 3.32472 3.91396 3.27351 3.56587 3.16321C3.21778 3.05685 3.03969 2.9111 3.03969 2.7299C3.03969 2.54869 3.16921 2.41476 3.42016 2.32022C3.67515 2.22567 4.16895 2.1784 4.89751 2.1784C5.50464 2.1784 6.20486 2.28082 6.99818 2.4896C7.79149 2.69444 8.38243 2.9505 8.77504 3.25776C8.80742 3.18291 8.84385 3.06867 8.88837 2.92292C9.13527 2.20992 9.37003 1.60721 9.59264 1.11481C8.91266 0.772092 8.15577 0.500284 7.31388 0.299383C6.472 0.0984811 5.65035 0 4.84894 0C3.47278 0 2.35161 0.240294 1.48949 0.720882C0.627367 1.19753 0.198329 1.94599 0.198329 2.95443C0.198329 3.66744 0.550464 4.17954 1.25878 4.49862C1.9671 4.8177 3.10445 4.97921 4.67489 4.97921C6.10772 4.97921 6.82413 5.20768 6.82413 5.66463C6.82413 5.79463 6.69056 5.90887 6.43152 6.01917C6.16843 6.12553 5.71916 6.18068 5.07965 6.18068C4.45633 6.18068 3.78444 6.09401 3.05993 5.92069C2.33542 5.74736 1.69996 5.50706 1.15759 5.1998C0.995692 5.63312 0.825696 6.01523 0.655699 6.34612C0.477608 6.67702 0.263089 7.03549 0 7.4176C0.708317 7.76819 1.50568 8.03606 2.38804 8.22121C3.27445 8.40241 4.14467 8.49695 4.9987 8.49695C6.59342 8.49695 7.7834 8.26848 8.56862 7.80758C9.35384 7.34669 9.74645 6.5943 9.74645 5.54252C9.7424 4.79012 9.37407 4.23469 8.63742 3.87228Z" fill="#100F0F"/>
<path d="M28.3892 5.57362C29.1825 5.37271 29.741 5.04576 30.0689 4.59668C30.3967 4.14761 30.5586 3.59611 30.5586 2.94614C30.5586 2.11496 30.251 1.45317 29.6358 0.968638C29.0206 0.480172 27.9358 0.235939 26.3816 0.235939H24.0138V0.224121H21.2898C21.3505 1.6777 21.3829 3.03674 21.3829 4.30124C21.3829 5.56574 21.3505 6.92478 21.2898 8.37836H24.0138V5.77058H25.7097C26.4423 6.89326 26.9766 7.76384 27.3166 8.37836H30.4574L28.5875 5.84936C28.547 5.78634 28.4823 5.69573 28.3892 5.57362ZM27.7537 3.41491C27.6242 3.50551 27.3894 3.57248 27.0575 3.61187C26.7216 3.65126 26.2278 3.67096 25.5721 3.67096H24.0138V2.39464H25.5721C26.2359 2.39464 26.7337 2.41434 27.0737 2.44979C27.4137 2.48919 27.6444 2.55221 27.7658 2.64282C27.8873 2.73342 27.948 2.85948 27.948 3.02492C27.952 3.19431 27.8873 3.32431 27.7537 3.41491Z" fill="#100F0F"/>
<path d="M20.3669 0.213379V4.68442C20.3507 5.78741 19.9662 6.69738 19.2053 7.41432C18.4484 8.1352 17.1694 8.49367 15.3763 8.49367C13.559 8.49367 12.3164 8.15096 11.6486 7.46553C10.9767 6.7801 10.6529 5.87801 10.665 4.76321V0.213379H14.3321C14.1094 0.579729 13.0126 2.28936 13.0126 2.28936L13.5307 2.17906L15.1335 1.83635L13.5307 4.58988L15.5139 4.04233L14.4778 6.138L14.0771 6.94949L14.7409 6.19315L17.4972 3.04964L18.0679 2.39572L16.0523 2.9354L17.9344 0.213379H20.3669Z" fill="#100F0F"/>
</svg>
