<svg width="67" height="51" viewBox="0 0 67 51" fill="none" xmlns="http://www.w3.org/2000/svg">
<path d="M43.7001 50.5C43.7001 50.1 43.7001 49.8 43.4001 49.4C43.1001 48.9 42.8001 48.3 43.7001 48C44.1001 48.5 45.0001 48.1 45.2001 49C45.2001 49.5 45.2001 50 45.2001 50.5C44.7001 50.5 44.2001 50.5 43.7001 50.5Z" fill="currentColor"/>
<path d="M45.2002 50.5C45.2002 50 45.2002 49.5 45.2002 49C45.6002 49.1 46.2002 48.8 46.2002 49.5C46.2002 49.8 46.2002 50.2 46.2002 50.5C45.9002 50.5 45.5002 50.5 45.2002 50.5Z" fill="currentColor"/>
<path d="M66.1001 21.3C65.8001 21.3 65.6001 21.1 65.6001 20.8C65.8001 20.8 65.9001 20.8 66.1001 20.8C66.1001 20.9 66.1001 21.1 66.1001 21.3Z" fill="currentColor"/>
<path d="M65.1002 20.8V22.8C64.1002 23 64.8002 23.8 64.6002 24.3H63.3002C62.8002 24.8 64.0002 25.1 63.4002 25.7C63.0002 26 62.6002 26.3 62.0002 26.2C60.6002 25.9 59.6002 26.8 58.6002 27.2C57.9002 27 58.3002 26.4 57.8002 26.1C57.1002 26.5 56.0002 26.5 56.2002 27.8C56.2002 28 55.8002 28 55.7002 28.1C53.6002 29.6 53.3002 29.9 51.8002 33.2C51.6002 33.7 51.1002 34 50.3002 34.1C50.3002 35.3 50.1002 36.5 49.5002 37.6C49.0002 38.6 48.9002 39.8 48.8002 41C48.7002 41.7 48.6002 42.2 48.3002 42.8C48.1002 43.3 49.1002 43.7 48.7002 44.3C48.0002 45.4 48.3002 46.6 48.2002 47.8C47.4002 47.6 47.1002 48 47.2002 48.8C46.9002 49 46.5002 49.1 46.2002 49.3C46.2002 48.6 45.6002 48.9 45.2002 48.8C45.0002 48 44.1002 48.3 43.7002 47.8C43.9002 47 43.0002 46.6 43.2002 45.8C43.3002 45.2 43.2002 44.5 43.2002 43.8C43.9002 43.3 43.9002 42.8 43.2002 42.3V40.3C44.2002 40.1 43.5002 39.3 43.7002 38.8C43.6002 37.8 43.9002 37 44.2002 36C44.8002 34 45.5002 31.9 46.6002 30.1C46.9002 29.6 47.0002 28.9 47.8002 28.8C48.0002 28.8 48.2002 28.6 48.2002 28.3C48.1002 27.6 48.8002 27.5 49.0002 27.2C49.6002 26 50.7002 25.8 51.7002 25.4C52.5002 25.6 52.8002 25.2 52.7002 24.4C53.0002 24.3 53.4002 24.6 53.6002 24.2C53.8002 23.9 53.7002 23.6 53.4002 23.4C53.1002 23.1 52.8002 22.8 52.4002 22.9C51.4002 23.1 50.3002 22.5 49.4002 23.4C47.4002 22.4 45.3002 23.2 43.2002 22.9C42.8002 22.9 42.2002 22.7 42.0002 22.9C41.0002 24.3 39.5002 23.8 38.2002 23.9C38.2002 23.4 38.3002 22.8 37.4002 22.9C37.2002 22.9 36.9002 22.9 36.7002 22.9V22.4C38.1002 22.4 38.1002 22.4 38.2002 21.4V20.9C38.7002 20.7 39.4002 21.4 39.7002 20.4H41.2002C41.3002 20.7 41.0002 21.3 41.6002 21.4C42.4002 21.5 42.2002 20.9 42.2002 20.4H43.7002C44.4002 20.3 45.1002 20.8 45.7002 20.8C46.3002 20.8 47.0002 20.3 47.7002 20.4H48.7002C49.7002 20.5 50.5002 20.1 51.2002 19.5C51.1002 19.1 51.4002 18.7 50.9002 18.4C50.2002 18.6 49.6002 19.2 48.7002 18.9C49.1002 17.8 47.5002 17.6 47.7002 16.6C46.4002 16.6 47.0002 15.2 46.3002 14.7C46.4002 12.6 45.0002 11 44.6002 9C44.6002 8.9 44.4002 8.8 44.3002 8.6C44.0002 8 45.4002 7.7 44.6002 6.9C44.1002 7 43.9002 6.5 43.7002 6C43.5002 5.4 43.8002 4.8 43.3002 4.2C43.1002 3.9 43.2002 3.3 43.2002 2.8C43.2002 2.38419e-06 43.2002 2.31713e-06 46.1002 0.100002C46.8002 1.3 48.0002 2.4 47.7002 4.1C47.6002 4.7 47.7002 4.7 48.7002 5.9C48.4002 6.7 48.0002 7.2 48.6002 8.2C49.7002 10 50.2002 12.1 51.2002 14C51.6002 14.7 51.6002 15.3 51.7002 16C52.2002 16.4 53.1002 16.4 53.2002 17.3C53.2002 18.4 54.9002 17.9 54.8002 19.1C54.8002 19.4 55.2002 19.3 55.5002 19.3C56.2002 19.3 57.0002 19.3 57.7002 19.3H61.7002C62.4002 19.3 63.1002 19.3 63.8002 19.3C64.8002 19.2 65.1002 19.8 65.1002 20.8Z" fill="currentColor"/>
<path d="M20.9 24.2C21 24.5 20.7 24.8 20.5 24.7C19.2 24.2 18 23.8 16.7 24.7C16.6 24.7 16.5 24.8 16.5 24.7C14.6 23.7 12.7 24.5 10.7 24.7C8.7 24.9 6.7 24.7 4.8 24.8C3.8 24.8 2.8 24.3 1.7 24.7C1.3 24.8 0.7 24.4 0.2 24.2C-0.1 23.8 0.1 23.3 0 23C0.5 22.3 1 23.4 1.4 23.1C1.9 22.6 2.5 22.9 3 22.8C4.1 22.6 5.2 23 6.3 22.4C7.1 21.9 8.3 22.6 9.3 21.9C9.8 21.6 10.8 21.8 11.5 21.8C14.7 22.1 17.8 21 21 21.3C21.4 21.3 21.9 21.1 21.9 21.8C21.8 22.8 20.7 21.9 20.4 22.5C20.1 23.2 20.6 23.7 20.9 24.2Z" fill="currentColor"/>
<path d="M24.3002 22.2C24.3002 22 24.3002 21.7 24.3002 21.4C25.1002 21 26.0002 21.3 26.8002 21.2C28.6002 21.2 30.4002 21.2 32.1002 21.2C32.3002 21.6 32.2002 22 32.5002 22.2C32.9002 22.2 33.3002 22.2 33.7002 22.2C33.7002 22.5 33.7002 22.9 33.7002 23.2C33.0002 23.2 33.3002 23.8 33.2002 24.2C32.0002 24.2 30.9002 24.2 29.7002 24.2C28.7002 24.2 27.8002 23.4 26.7002 23.7C26.7002 23.2 26.4002 23.2 26.1002 23.2C25.5002 23.3 25.8002 23.8 25.7002 24.2C25.0002 24.2 24.4002 24.2 23.7002 24.2C23.7002 23.7 23.7002 23.2 23.7002 22.7C24.2002 22.7 24.4002 22.6 24.3002 22.2Z" fill="currentColor"/>
<path d="M43.2002 23.2C45.3002 23.4 47.4002 22.7 49.4002 23.7C50.3002 22.8 51.4002 23.4 52.4002 23.2C52.9002 23.1 53.1002 23.4 53.4002 23.7C53.7002 24 53.8002 24.2 53.6002 24.5C53.4002 24.8 53.0002 24.6 52.7002 24.7C52.7002 24 52.2002 24.2 51.8002 24.2C50.8002 24.2 49.8002 24.4 48.9002 24.1C48.0002 23.8 47.2002 24.2 46.3002 24.2C45.3002 24.1 44.4002 24.2 43.5002 24.2C43.1002 23.9 43.3002 23.5 43.2002 23.2Z" fill="currentColor"/>
<path d="M33.7999 22.2C33.3999 22.2 32.9999 22.2 32.5999 22.2C32.1999 22 32.3999 21.6 32.1999 21.2C30.4999 21.2 28.6999 21.2 26.8999 21.2C26.8999 21 26.8999 20.7 26.8999 20.5C27.0999 20.3 27.2999 20.2 27.4999 20.2C29.3999 20.2 31.2999 20.2 33.0999 20.3C33.1999 20.3 33.1999 20.6 33.2999 20.7C33.2999 21 33.4999 21.2 33.7999 21.2C33.7999 21.6 33.7999 21.9 33.7999 22.2Z" fill="currentColor"/>
<path d="M33.7998 22.2C33.7998 21.9 33.7998 21.5 33.7998 21.2C33.7998 21 33.7998 20.9 33.7998 20.7C34.8998 20.7 35.9998 20.7 36.9998 20.7C37.3998 21.1 37.1998 21.4 37.2998 21.7C36.5998 21.7 36.8998 22.3 36.7998 22.7C36.7998 22.9 36.7998 23 36.7998 23.2C35.7998 23.2 34.7998 23.2 33.7998 23.2C33.7998 22.9 33.7998 22.6 33.7998 22.2Z" fill="currentColor"/>
<path d="M23.7998 22.7C23.7998 23.2 23.7998 23.7 23.7998 24.2C22.7998 24.2 21.7998 24.2 20.7998 24.2C20.5998 23.6 20.0998 23.2 20.2998 22.4C20.5998 21.8 21.6998 22.8 21.7998 21.7C22.2998 21.7 22.6998 21.7 23.1998 21.7C23.4998 21.7 23.7998 21.8 23.7998 22.2C23.7998 22.4 23.7998 22.6 23.7998 22.7Z" fill="currentColor"/>
<path d="M33.8001 23.2C34.8001 23.2 35.8001 23.2 36.8001 23.2C37.0001 23.2 37.3001 23.2 37.5001 23.2C38.4001 23.1 38.3001 23.6 38.3001 24.2C36.6001 24.2 35.0001 24.2 33.3001 24.2C33.4001 23.8 33.0001 23.3 33.8001 23.2Z" fill="currentColor"/>
<path d="M47.7002 20.8C47.0002 20.7 46.3002 21.2 45.7002 21.2C45.1002 21.2 44.4002 20.7 43.7002 20.8C43.7002 20.6 43.7002 20.3 43.7002 19.9C45.0002 19.8 46.2002 19.9 47.4002 19.8C47.8002 20.1 47.6002 20.5 47.7002 20.8Z" fill="currentColor"/>
<path d="M48.7002 19.3C49.5002 19.5 50.2002 18.9 50.9002 18.8C51.4002 19.1 51.2002 19.6 51.3002 19.9C50.6002 20.5 49.8002 20.9 48.8002 20.8C48.7002 20.3 48.7002 19.8 48.7002 19.3Z" fill="currentColor"/>
<path d="M39.7002 20.8C39.5002 21.8 38.7002 21.1 38.2002 21.3C38.2002 20.9 38.2002 20.5 38.2002 20.1C39.6002 19.7 39.6002 19.7 39.7002 20.8Z" fill="currentColor"/>
<path d="M59.6001 19.3C58.9001 19.3 58.3001 19.3 57.6001 19.3C57.6001 19.1 57.6001 18.8 57.6001 18.5C58.2001 18.1 58.8001 18.3 59.4001 18.3C59.7001 18.6 59.5001 19 59.6001 19.3Z" fill="currentColor"/>
<path d="M36.7998 22.7C36.8998 22.3 36.5998 21.8 37.2998 21.7C37.5998 21.7 37.9998 21.7 38.2998 21.7C38.1998 22.7 38.1998 22.7 36.7998 22.7Z" fill="currentColor"/>
<path d="M43.7001 39.1C43.5001 39.6 44.2001 40.4 43.2001 40.6C42.4001 40.5 42.7001 39.9 42.7001 39.5C42.8001 38.8 43.4001 39.1 43.7001 39.1Z" fill="currentColor"/>
<path d="M43.1998 42.5C43.8998 43 43.8998 43.5 43.1998 44C42.4998 43.5 42.4998 43 43.1998 42.5Z" fill="currentColor"/>
<path d="M61.5999 19.3C61.2999 19.3 60.8999 19.3 60.5999 19.3C60.5999 18.9 60.3999 18.2 61.1999 18.3C61.7999 18.4 61.4999 18.9 61.5999 19.3Z" fill="currentColor"/>
<path d="M25.7998 24.2C25.8998 23.8 25.5998 23.3 26.1998 23.2C26.4998 23.1 26.8998 23.2 26.7998 23.7C26.7998 24.5 26.1998 24.1 25.7998 24.2Z" fill="currentColor"/>
<path d="M52.6001 24.7C52.8001 25.5 52.4001 25.8 51.6001 25.7C51.5001 24.9 51.8001 24.6 52.6001 24.7Z" fill="currentColor"/>
<path d="M33.7998 20.8C33.7998 21 33.7998 21.1 33.7998 21.3C33.4998 21.3 33.2998 21.1 33.2998 20.8C33.3998 20.8 33.5998 20.8 33.7998 20.8Z" fill="currentColor"/>
<path d="M23.7998 22.7C23.7998 22.5 23.7998 22.4 23.7998 22.2C23.9998 22.2 24.0998 22.2 24.2998 22.2C24.3998 22.6 24.1998 22.7 23.7998 22.7Z" fill="currentColor"/>
<path d="M64.6001 24.2C64.8001 23.7 64.1001 22.9 65.1001 22.7C65.9001 22.8 65.6001 23.4 65.6001 23.8C65.5001 24.5 64.9001 24.2 64.6001 24.2Z" fill="currentColor"/>
<path d="M47.1999 49C46.9999 48.2 47.3999 47.9 48.1999 48C48.2999 48.8 47.9999 49.1 47.1999 49Z" fill="currentColor"/>
</svg>
