<svg width="89" height="91" viewBox="0 0 89 91" fill="none" xmlns="http://www.w3.org/2000/svg">
<path d="M43.7999 63.6C44.0999 64.4 43.1999 65.6 44.6999 65.7C45.4999 66 44.5999 67.4 45.7999 67.4C46.0999 69 46.6999 70.2 48.6999 69.6C49.3999 69.6 49.5999 70.2 49.6999 70.8C49.6999 71.2 50.0999 71.8 50.3999 71.4C51.3999 70.2 53.4999 69.5 53.5999 68C53.6999 65 55.2999 62.3 54.7999 59.2C54.6999 58.4 54.7999 57.6 55.3999 56.9C56.2999 55.6 54.8999 54.1 55.0999 53.2C55.3999 52.1 56.9999 51.4 56.6999 49.6C56.4999 48.5 56.2999 47.1 56.8999 46.2C57.9999 44.4 57.5999 42.6 57.7999 40.8C57.7999 40.2 57.7999 39.5 57.7999 38.9C59.6999 38.4 58.2999 36.8 58.7999 35.8C60.0999 34.7 59.4999 33.2 59.6999 31.8C59.5999 30.7 60.6999 29.9 60.6999 29.1C60.5999 24.9 63.0999 21.1 62.7999 16.9C62.7999 16.6 62.7999 16.2 62.9999 15.9C64.4999 13.4 64.2999 10.4 65.5999 7.70001C66.7999 5.30001 64.6999 2.90001 62.0999 3.00001C59.8999 3.10001 61.0999 5.00001 60.3999 5.80001C58.3999 7.80001 58.7999 10.6 57.8999 12.9C57.1999 14.7 57.4999 17.1 56.5999 18.5C54.7999 21.6 55.4999 24.8 54.7999 27.9C52.8999 28.4 54.1999 29.9 53.8999 30.9C53.6999 31.2 52.5999 31.1 53.4999 31.8C54.0999 32.3 54.9999 32.5 55.7999 32.5C55.6999 33.1 55.8999 34 54.8999 33.8C52.6999 33.6 52.7999 34.9 52.8999 36.4C52.8999 37.2 52.7999 38 52.7999 38.8C50.8999 39.7 52.1999 41.5 51.7999 42.8C50.3999 43.7 53.0999 44.8 51.7999 45.6C50.3999 46.4 50.8999 47.6 50.7999 48.8C49.0999 52 49.1999 55.4 49.7999 58.8C49.7999 59.4 49.7999 60.1 49.7999 60.7C48.3999 60.9 49.0999 62 48.9999 62.8C48.8999 63.1 48.8999 63.4 48.7999 63.7C48.4999 63.7 48.0999 63.8 47.7999 63.8C47.4999 63.7 47.2999 63.6 47.3999 63.2C48.3999 62.1 47.6999 61.4 46.7999 60.7C46.6999 59.1 44.4999 58.5 44.6999 56.8C44.1999 55.8 43.5999 54.8 43.6999 53.5C43.7999 52.8 43.1999 52.8 42.6999 52.9C41.7999 52.1 42.2999 50.8 41.6999 49.8C41.7999 48.6 40.9999 48.8 40.2999 48.8C39.8999 47.1 40.8999 45.4 39.7999 43.7C39.1999 42.9 38.4999 42 38.6999 40.8C38.2999 38.7 37.8999 36.6 37.4999 34.5C37.3999 34.2 37.0999 34.1 36.7999 33.8C36.4999 32.5 37.5999 30.9 35.7999 30C35.6999 29.9 35.5999 29.8 35.3999 29.8C35.3999 28.6 36.6999 27.2 34.7999 26.4C34.6999 25.6 35.8999 25.3 35.5999 24.5C35.2999 23.7 35.9999 22 34.4999 22.2C32.8999 22.4 35.2999 23 34.6999 23.6C34.4999 23.8 34.1999 23.9 34.1999 24C34.4999 25.4 31.7999 26.4 33.6999 27.9C33.6999 28.9 33.7999 29.9 33.7999 30.8C33.7999 31.1 33.7999 31.4 33.7999 31.8C34.0999 33.2 32.7999 34.8 34.5999 35.9C33.9999 38.8 35.9999 41.3 35.7999 44.1C35.7999 44.6 36.2999 44.6 36.5999 44.8C36.9999 45.7 35.7999 47.3 37.5999 47.7C37.3999 49.2 37.5999 50.5 38.6999 51.7C39.0999 53 39.0999 54.8 39.9999 55.6C40.9999 56.5 39.5999 58.5 41.5999 58.7C41.6999 59.3 41.6999 60 41.7999 60.6C41.7999 61.3 41.6999 62.1 42.7999 62.1C42.9999 62.3 43.0999 62.4 43.2999 62.6C43.2999 63 43.3999 63.4 43.7999 63.6ZM28.8999 5.30001C30.6999 5.60001 32.0999 3.90001 33.8999 4.00001C34.2999 4.00001 35.3999 4.40001 34.9999 3.10001C34.6999 2.10001 33.2999 1.20001 33.1999 1.30001C31.9999 2.70001 29.8999 1.70001 28.7999 3.10001C27.7999 3.50001 26.2999 2.20001 25.7999 4.00001C23.4999 5.00001 21.0999 5.70001 19.6999 8.00001C18.0999 7.80001 17.4999 9.10001 16.3999 9.90001C15.8999 10.3 15.6999 10.6 15.7999 11.1C15.8999 11.8 16.4999 11.6 16.9999 11.6C19.5999 11.6 21.2999 9.90001 22.8999 8.20001C23.2999 8.10001 23.4999 8.00001 23.7999 8.00001C25.3999 8.00001 26.6999 7.70001 26.8999 5.70001C27.5999 5.80001 28.4999 7.10001 28.8999 5.30001ZM39.1999 0.200012C37.9999 -0.499988 37.6999 0.900012 36.9999 1.40001C36.5999 1.70001 36.5999 2.50001 36.9999 2.70001C37.7999 3.30001 39.0999 3.40001 39.4999 2.90001C40.3999 1.90001 40.6999 3.10001 41.2999 3.00001C41.7999 3.00001 42.3999 3.10001 42.5999 2.60001C42.7999 2.10001 42.8999 1.50001 42.2999 1.10001C41.3999 0.500012 40.3999 1.1608e-05 39.1999 0.200012ZM45.8999 6.10001C45.9999 6.80001 45.5999 7.80001 46.7999 7.90001C47.4999 8.00001 47.4999 7.50001 47.5999 7.00001C47.6999 6.10001 47.3999 5.30001 46.6999 5.00001C46.0999 4.70001 45.8999 5.50001 45.8999 6.10001Z" fill="black"/>
<path d="M2 48.8C1.4 47.7 1.3 46.3 0 45.8C0 42.7 0 39.5 0 36.4C1.5 37 2.3 36.7 2 34.9C2.8 34.8 3 35.6 3.6 35.9C4 38 3.7 40.2 4.7 42.3C5.1 43.2 4.5 44.7 4.2 45.9C4.1 46.3 3.8 46.8 4.2 46.9C5.6 47.2 4.5 48.2 4.9 48.8C3.9 48.8 3 48.8 2 48.8Z" fill="black"/>
<path d="M42.2001 90.5C40.8001 88.7 38.8001 88.5 36.8001 88.4C36.6001 87.4 36.6001 86.5 37.4001 85.8C37.5001 85.7 37.6001 85.6 37.8001 85.4C38.4001 85.1 39.1001 84.8 39.7001 84.5C40.7001 86.2 42.4001 85 43.7001 85.5C43.7001 85.8 43.7001 86.2 43.7001 86.5C43.3001 86.6 42.8001 86.6 43.0001 87.1C43.0001 87.2 43.5001 87.3 43.8001 87.4C44.5001 87.6 44.7001 87.2 44.8001 86.6C45.1001 86.6 45.5001 86.6 45.8001 86.5C46.6001 87.7 46.8001 89.1 46.8001 90.5C45.2001 90.5 43.7001 90.5 42.2001 90.5Z" fill="black"/>
<path d="M44.7001 86.6C44.7001 87.2 44.5001 87.6 43.7001 87.4C43.7001 87.1 43.7001 86.8 43.6001 86.5C43.6001 86.2 43.6001 85.8 43.6001 85.5C43.6001 85.2 43.6001 84.9 43.6001 84.6C45.9001 84.6 48.3001 84.6 50.6001 84.6C50.6001 85 50.5001 85.3 50.1001 85.6C48.1001 87.4 48.2001 87.9 50.6001 89.5C50.6001 89.8 50.6001 90.1 50.6001 90.4C49.3001 90.4 48.0001 90.4 46.6001 90.4C46.6001 89 46.4001 87.6 45.6001 86.4C45.6001 86 45.5001 85.5 44.9001 85.7C44.9001 85.9 44.8001 86.3 44.7001 86.6Z" fill="black"/>
<path d="M2 34.9C2.3 36.7 1.5 37 0 36.4C0 35.2 0 34.1 0 32.9C0.3 32.9 0.6 32.9 1 32.9C1.2 33.6 0.4 34.8 2 34.9Z" fill="black"/>
<path d="M48.7002 63.7C48.8002 63.4 48.8002 63.1 48.9002 62.8C50.3002 62.6 49.7002 61.5 49.7002 60.7C49.7002 60.1 49.7002 59.4 49.7002 58.8C49.8002 58 51.0002 57.5 50.7002 56.6C49.8002 54 51.3002 51.4 50.7002 48.8C50.7002 47.7 50.2002 46.4 51.7002 45.6C53.0002 44.8 50.3002 43.8 51.7002 42.8C52.4002 42.9 52.8002 42.6 52.7002 41.9C52.7002 40.9 52.7002 39.8 52.7002 38.8C52.7002 38 52.8002 37.2 52.8002 36.4C54.0002 36.7 54.7002 35.5 55.7002 35.3C56.4002 35.2 56.8002 33.9 57.7002 34.9C57.7002 35.9 57.7002 37 57.7002 38C56.3002 38.3 56.9002 39.9 56.1002 40.6C56.6002 40.9 57.1002 41.1 57.7002 41C57.6002 42.8 58.0002 44.6 56.8002 46.4C56.3002 47.2 56.4002 48.7 56.6002 49.8C56.9002 51.5 55.3002 52.2 55.0002 53.4C54.7002 54.4 56.2002 55.8 55.3002 57.1C54.8002 57.9 54.6002 58.6 54.7002 59.4C55.3002 62.5 53.6002 65.2 53.5002 68.2C53.5002 69.8 51.4002 70.4 50.3002 71.6C50.0002 72 49.6002 71.4 49.6002 71C49.5002 70.4 49.4002 69.9 48.6002 69.8C48.6002 68.9 47.7002 68.4 47.5002 67.5C47.2002 66.5 46.3002 66.4 45.7002 67.6C44.5002 67.6 45.5002 66.1 44.6002 65.9C44.5002 65.1 45.3002 64 43.7002 63.8V63.7C43.8002 63.3 43.8002 62.9 43.2002 62.8C43.0002 62.6 42.9002 62.5 42.7002 62.3C42.7002 61.8 42.6002 61.3 42.6002 60.9C42.4002 60.2 43.1002 59 41.6002 59C41.6002 56.5 41.3002 54.1 39.7002 52C41.0002 52 40.2002 49.9 41.6002 50C42.2002 50.9 41.7002 52.2 42.6002 53.1C43.2002 54.4 41.4002 57 44.5002 57C44.3002 58.8 46.5002 59.3 46.6002 60.9C46.5002 61.6 46.1002 61.8 45.4002 62.1C44.2002 62.6 45.2002 62.7 45.6002 62.9C45.6002 63.6 45.7002 64.2 46.5002 63.4C46.7002 63.4 46.9002 63.4 47.1002 63.4C47.0002 63.7 47.3002 63.9 47.5002 64C47.7002 64.2 47.8002 64.7 48.0002 64.7C48.7002 64.5 48.6002 64 48.7002 63.7Z" fill="black"/>
<path d="M82.4998 33.9C84.5998 35 85.3998 37 86.2998 38.9C87.2998 41.1 88.1998 43.2 86.4998 45.6C85.8998 46.5 87.5998 46.6 88.1998 47.2C87.8998 48.2 86.5998 47.3 86.2998 48.4C90.4998 49.4 87.5998 51.8 87.3998 53.7C86.3998 53.8 85.3998 54.4 84.2998 53.9C83.2998 53.5 83.3998 54.5 83.2998 55.1C82.1998 54.4 82.7998 53.4 82.9998 52.6C84.0998 47.1 83.3998 42.1 79.8998 37.6C78.3998 35.6 78.0998 32.7 75.4998 31.7C73.4998 30.9 71.9998 29.4 69.8998 28.8C68.4998 28.4 67.1998 27.5 65.5998 27.8C64.8998 27.9 64.6998 27.2 64.6998 26.6C64.6998 26 64.5998 25.5 65.2998 25C68.2998 23 70.8998 24.4 73.5998 25.5C74.7998 26 75.7998 26.9 76.8998 27.7C77.3998 28.5 77.6998 29.2 76.8998 30.1C76.2998 30.7 77.0998 31.2 77.3998 30.9C78.7998 29.8 79.9998 31.1 81.1998 31C81.2998 31.3 81.2998 31.6 81.3998 31.9C81.5998 32.7 80.8998 33.9 82.4998 33.9Z" fill="black"/>
<path d="M54.6001 27.9C55.3001 24.8 54.6001 21.6 56.4001 18.5C57.2001 17.1 57.0001 14.7 57.7001 12.9C58.6001 10.6 58.2001 7.8 60.2001 5.8C60.9001 5.1 59.7001 3.1 61.9001 3C64.5001 2.9 66.6001 5.3 65.4001 7.7C64.1001 10.4 64.2001 13.4 62.8001 15.9C62.6001 16.2 62.6001 16.5 62.6001 16.9C62.9001 21.1 60.4001 24.9 60.5001 29.1C60.5001 29.9 59.4001 30.7 59.5001 31.8C58.7001 32 57.6001 33.2 57.4001 31.2C57.4001 31.1 56.9001 31 56.6001 30.9C56.3001 30.9 56.0001 30.8 55.7001 30.8C56.6001 29.4 57.0001 28.2 54.6001 27.9Z" fill="black"/>
<path d="M34.6999 87.6C31.9999 86.6 29.2999 85.4 26.5999 84.6C25.8999 84.4 25.6999 83.8 25.2999 83.4C23.7999 82.4 23.0999 80.2 20.5999 80.3C19.9999 80.3 19.1999 79.3 18.7999 78.4C18.2999 77.2 17.2999 76.5 15.8999 76.4C15.8999 75.6 16.1999 74.6 14.8999 74.6C15.0999 73 14.4999 72.4 12.8999 72.6C13.6999 70.3 13.3999 69.9 10.8999 69.6C8.6999 68.7 8.3999 66.6 7.8999 64.6C8.3999 63.3 7.1999 62.6 6.8999 61.6C7.5999 61.3 8.1999 60.9 8.8999 60.6C8.9999 61.2 9.1999 61.5 9.7999 61.6C10.4999 62.9 10.5999 64.6 11.8999 65.6C9.8999 66.4 11.9999 67.2 12.0999 67.9C12.2999 69 12.9999 67.2 13.6999 67.6C14.7999 69.5 17.0999 70.3 17.7999 72.5C17.1999 72.8 15.7999 71.9 16.0999 73.6C16.1999 74.1 16.5999 74.6 17.0999 74.4C17.9999 74.1 17.5999 73.1 17.7999 72.5C19.1999 72.6 19.9999 73.4 20.8999 74.6C22.1999 76.4 24.3999 77.4 25.8999 78.9C27.5999 80.6 29.9999 80.2 31.6999 81.6C32.3999 82.7 32.8999 83.9 33.2999 85.5C33.0999 83.2 34.6999 83.8 35.6999 83.6C35.9999 83.6 36.2999 83.7 36.5999 83.7C36.5999 84.5 37.7999 84.7 37.6999 85.6C37.5999 85.7 37.4999 85.8 37.2999 86C36.5999 86 35.6999 85.5 35.7999 86.9C35.9999 87.6 35.1999 87.4 34.6999 87.6Z" fill="black"/>
<path d="M65.5001 80.5C65.8001 80.1 66.0001 79.7 66.6001 79.7C66.9001 79.7 67.1001 79.6 67.4001 79.6C67.6001 79.1 68.1001 79.2 68.5001 79.2C70.5001 79.8 69.3001 78.2 69.5001 77.7C70.3001 77.6 71.3001 78.1 71.5001 76.8C72.1001 76.2 72.8001 75.6 73.4001 75C73.4001 74.6 73.5001 74.1 73.5001 73.7C73.7001 73.5 73.8001 73.4 74.0001 73.2C74.4001 73.3 74.8001 73.9 75.3001 73.4C75.4001 73.3 75.2001 73 75.1001 72.8C75.1001 72.4 75.2001 72 75.6001 71.8C76.2001 71.6 77.0001 72.1 77.2001 71.2C77.2001 71.1 76.7001 70.9 76.5001 70.8C76.4001 69.9 77.6001 69.7 77.5001 68.8C77.9001 65.9 80.0001 63.8 81.0001 61.2C81.4001 60.1 81.1001 58.6 82.4001 57.9C83.9001 57.4 85.4001 57.2 86.3001 55.6C86.8001 54.8 87.2001 55.2 87.4001 55.9C87.4001 56.2 87.4001 56.6 87.3001 56.9C86.0001 57.2 86.4001 58.2 86.5001 59C87.1001 61.7 85.0001 63.7 84.3001 66.1C83.4001 69.3 80.8001 71.5 78.6001 73.8C77.8001 73.9 76.7001 73.4 76.6001 74.8C76.2001 74.9 75.8001 74.9 75.8001 75.4C75.8001 75.6 76.3001 75.7 76.5001 75.8C76.4001 76.1 76.4001 76.4 76.3001 76.8C75.7001 76.9 75.5001 77.2 75.5001 77.7H75.4001C74.8001 77.7 74.5001 78.1 74.5001 78.7C73.9001 78.7 73.5001 79.1 73.5001 79.7C72.9001 79.7 72.5001 80 72.5001 80.6C71.7001 80.8 70.9001 81 70.7001 81.9C70.4001 82.9 69.7001 82.7 69.0001 82.7C67.5001 82.4 65.0001 84 65.5001 80.5Z" fill="black"/>
<path d="M65.5002 80.5C64.9002 84.1 67.5002 82.5 69.0002 82.6C66.2002 83.1 65.1002 86.1 62.5002 87C61.4002 87.4 60.3002 87.9 59.2002 88.2C56.4002 88.9 53.4002 88.5 50.7002 89.7C48.3002 88 48.2002 87.5 50.2002 85.8C50.5002 85.5 50.7002 85.2 50.7002 84.8C56.0002 84.5 60.7002 82.3 65.5002 80.5Z" fill="black"/>
<path d="M2 34.9C0.5 34.8 1.2 33.6 1 32.9C1 31.9 1.1 30.9 1.1 30C1.8 29.9 2 29.5 1.9 28.9C2 28.5 2 28.2 2 27.9C2.6 27.8 3.3 28.2 3.7 27.4C2.1 27 4.9 25.4 3 25C3 24.7 3 24.3 3.1 24C4.7 24.2 5.2 23.4 5 22C4.8 20.2 6.5 19.4 7.1 18.1C7.8 18.2 8.1 17.9 8 17.1C8.7 17.2 9 16.9 9 16.1C9.9 16.2 10.1 15.8 9.9 15C10.5 13.2 12.5 13.2 13.7 12.1C14.2 11.6 14.1 11 14.5 10.6C16 12.8 15.7 13.4 13.7 15.2C11.2 17.4 9 19.8 7.8 23.1C7.5 24.1 7.1 25.4 6 26C4.2 26.5 5.2 27.9 5 28.9C4.9 29.2 4.9 29.6 4.8 29.9C4.2 30 3.6 28.6 3.2 29.4C2.7 30.3 2.6 31.5 2.4 32.6C2.3 33 3 33.8 3.9 33.9C3.9 34.6 4.4 35.4 3.6 35.9C3 35.7 2.8 34.8 2 34.9Z" fill="black"/>
<path d="M8.90019 60.7C8.20019 61 7.60019 61.4 6.90019 61.7C6.60019 61.7 6.20019 61.7 5.90019 61.7C5.90019 60.9 6.20019 59.9 4.90019 59.7C4.90019 59.1 4.70019 58.7 4.00019 58.7C3.90019 57 2.80019 55.6 2.40019 54C2.00019 52.3 1.30019 50.6 2.00019 48.8C2.90019 48.8 3.90019 48.8 4.80019 48.8L4.90019 48.9C5.00019 49.6 4.50019 50.6 5.80019 50.8C5.80019 52.3 7.90019 53.6 6.00019 55.2C5.70019 55.4 6.40019 55.8 6.80019 55.7C7.50019 55.7 8.10019 55.8 8.00019 56.7C7.60019 58.3 8.30019 59.5 8.90019 60.7Z" fill="black"/>
<path d="M36.8 33.9C37 34.1 37.4 34.3 37.5 34.6C37.9 36.7 38.3 38.8 38.7 40.9C37.4 41.9 36.9 43.3 36.8 44.9C36.5 44.7 35.9 44.7 36 44.2C36.1 41.4 34.2 38.9 34.8 36C34.9 35.9 34.9 35.9 35 35.8C35.6 35.9 35.9 36.9 36.6 36.6C37.1 36.3 36.8 35.6 36.8 35.1C36.8 34.8 36.7 34.5 36.7 34.2L36.8 33.9Z" fill="black"/>
<path d="M36.7002 44.9C36.7002 43.3 37.3002 41.9 38.6002 40.9C38.4002 42.1 39.2002 43 39.7002 43.8C40.9002 45.4 39.8002 47.2 40.2002 48.9C39.4002 48.4 38.7002 47.6 37.7002 47.9C35.9002 47.4 37.2002 45.8 36.7002 44.9Z" fill="black"/>
<path d="M56.6001 31C56.9001 31.1 57.4001 31.2 57.4001 31.3C57.6001 33.3 58.7001 32.1 59.5001 31.9C59.3001 33.3 59.9001 34.8 58.6001 35.9C58.5001 35.4 58.3001 34.9 57.6001 34.9C56.7001 33.9 56.3001 35.2 55.6001 35.3C54.6001 35.5 53.9001 36.7 52.7001 36.4C52.5001 34.9 52.5001 33.5 54.7001 33.8C55.7001 33.9 55.5001 33.1 55.6001 32.5C55.9001 32 56.8001 31.8 56.6001 31Z" fill="black"/>
<path d="M23 8.20001C21.4 9.90001 19.7 11.6 17.1 11.6C16.7 11.6 16 11.8 15.9 11.1C15.8 10.6 16 10.3 16.5 9.90001C17.5 9.20001 18.2 7.80001 19.8 8.00001C20.7 8.30001 21.1 7.00001 22 7.20001C21.9 7.90001 22.4 8.10001 23 8.20001Z" fill="black"/>
<path d="M21.9002 7.20001C21.0002 7.00001 20.7002 8.30001 19.7002 8.00001C21.1002 5.70001 23.5002 5.00001 25.8002 4.10001C26.9002 4.10001 26.8002 4.90001 26.8002 5.70001C26.7002 7.70001 25.3002 8.00001 23.7002 8.00001C23.5002 7.50001 24.1002 6.60001 23.3002 6.40001C23.0002 6.30001 22.4002 6.90001 21.9002 7.20001Z" fill="black"/>
<path d="M28.7998 3.20001C29.8998 1.80001 31.9998 2.80001 33.1998 1.40001C33.2998 1.20001 34.6998 2.20001 34.9998 3.20001C35.3998 4.40001 34.1998 4.00001 33.8998 4.00001C32.0998 3.90001 30.6998 5.60001 28.8998 5.30001C28.8998 4.60001 28.7998 3.90001 28.7998 3.20001Z" fill="black"/>
<path d="M39.2002 0.199997C40.5002 -2.80142e-06 41.4002 0.499997 42.3002 1.2C42.9002 1.6 42.8002 2.2 42.6002 2.7C42.4002 3.2 41.8002 3.1 41.3002 3.1C40.7002 3.1 40.4002 1.9 39.5002 3C39.1002 3.5 37.7002 3.4 37.0002 2.8C36.6002 2.5 36.7002 1.7 37.0002 1.5C37.7002 0.899997 38.0002 -0.500003 39.2002 0.199997Z" fill="black"/>
<path d="M50.6 48.8C51.2 51.4 49.7 54 50.6 56.6C50.9 57.5 49.7 57.9 49.6 58.8C49 55.3 48.9 51.9 50.6 48.8Z" fill="black"/>
<path d="M87.3999 55.7C87.1999 55 86.7999 54.6 86.2999 55.4C85.3999 56.9 83.7999 57.2 82.3999 57.7C82.5999 56.8 82.1999 55.8 83.2999 55.2C83.3999 54.6 83.2999 53.6 84.2999 54C85.4999 54.5 86.3999 53.9 87.3999 53.8C88.6999 54.4 88.2999 55.1 87.3999 55.7Z" fill="black"/>
<path d="M37.8 47.8C38.9 47.5 39.6 48.3 40.3 48.8C41 48.8 41.8 48.6 41.7 49.8C40.3 49.7 41.1 51.8 39.8 51.8C39.5 51.8 39.2 51.8 38.9 51.8C37.8 50.6 37.6 49.3 37.8 47.8Z" fill="black"/>
<path d="M38.7998 51.8C39.0998 51.8 39.3998 51.8 39.6998 51.8C41.2998 53.9 41.5998 56.3 41.5998 58.8C39.5998 58.6 40.9998 56.7 39.9998 55.7C39.1998 54.9 39.1998 53.1 38.7998 51.8Z" fill="black"/>
<path d="M33.7 28C31.8 26.5 34.4 25.4 34.2 24.1C34.2 24 34.5 23.8 34.7 23.7C35.4 23.1 33 22.5 34.5 22.3C36 22.1 35.3 23.8 35.6 24.6C35.9 25.4 34.7 25.7 34.8 26.5C33.8 26.5 33.9 27.4 33.7 28Z" fill="black"/>
<path d="M81.3002 31C80.0002 31.1 78.8002 29.7 77.5002 30.9C77.2002 31.1 76.4002 30.7 77.0002 30.1C77.8002 29.2 77.5002 28.5 77.0002 27.7C78.9002 28.1 80.2002 29.4 81.3002 31Z" fill="black"/>
<path d="M34.6999 36C32.8999 34.9 34.0999 33.3 33.8999 31.9C34.5999 31.8 34.7999 33 35.4999 32.6C36.0999 32.2 35.6999 31.4 35.6999 30.8C35.6999 30.6 35.6999 30.3 35.6999 30.1C37.4999 31 36.3999 32.6 36.6999 33.9L36.4999 34.1C34.7999 33.6 34.4999 34.4 34.7999 35.8C34.7999 35.9 34.6999 35.9 34.6999 36Z" fill="black"/>
<path d="M54.5999 27.9C56.9999 28.1 56.5999 29.4 55.5999 30.8C54.9999 30.8 54.3 30.9 53.7 30.9C54 29.9 52.6999 28.5 54.5999 27.9Z" fill="black"/>
<path d="M33.7002 28C33.9002 27.3 33.7002 26.5 34.8002 26.4C36.7002 27.3 35.3002 28.7 35.4002 29.8C34.8002 30 34.6002 30.8 33.9002 30.9C33.8002 30 33.8002 29 33.7002 28Z" fill="black"/>
<path d="M3.90015 33.9C3.00015 33.8 2.30015 33 2.40015 32.6C2.70015 31.5 2.80015 30.4 3.20015 29.4C3.60015 28.6 4.10015 30 4.80015 29.9C3.50015 31 3.70015 32.5 3.90015 33.9Z" fill="black"/>
<path d="M35.7998 83.5C34.7998 83.7 33.2998 83.2 33.3998 85.4C32.8998 83.8 32.4998 82.6 31.7998 81.5C33.4998 81.4 34.5998 82.7 35.7998 83.5Z" fill="black"/>
<path d="M28.7998 3.2C28.7998 3.9 28.7998 4.6 28.7998 5.3C28.3998 7.1 27.4998 5.8 26.7998 5.7C26.7998 5 26.7998 4.2 25.7998 4.1C26.2998 2.2 27.8998 3.6 28.7998 3.2Z" fill="black"/>
<path d="M45.9002 6.10001C45.9002 5.50001 46.1002 4.70001 46.7002 5.00001C47.4002 5.30001 47.7002 6.20001 47.6002 7.00001C47.5002 7.50001 47.5002 8.00001 46.8002 7.90001C45.5002 7.80001 46.0002 6.80001 45.9002 6.10001Z" fill="black"/>
<path d="M45.7002 67.5C46.3002 66.3 47.1002 66.4 47.5002 67.4C47.8002 68.2 48.6002 68.8 48.6002 69.7C46.7002 70.3 46.1002 69.1 45.7002 67.5Z" fill="black"/>
<path d="M13.8 67.7C13.1 67.3 12.4 69 12.2 68C12.1 67.3 10 66.5 12 65.7C13.6 65.4 14.1 66.2 13.8 67.7Z" fill="black"/>
<path d="M8.89999 60.7C8.19999 59.5 7.59999 58.2 7.89999 56.8C8.89999 58.3 10.2 59.7 9.79999 61.7C9.19999 61.7 8.99999 61.3 8.89999 60.7Z" fill="black"/>
<path d="M73.4 74.9C72.8 75.5 72.1 76.1 71.5 76.7C71.2 76.7 70.8 76.6 70.5 76.6C71.4 75.8 71.2 74.2 72.6 73.8C72.6 74.3 72.8 74.8 73.4 74.9Z" fill="black"/>
<path d="M53.6999 30.9C54.2999 30.9 54.9999 30.8 55.5999 30.8C55.8999 30.8 56.1999 30.9 56.4999 30.9C56.6999 31.8 55.8999 31.9 55.4999 32.4C54.6999 32.4 53.7999 32.3 53.1999 31.7C52.4999 31.1 53.4999 31.2 53.6999 30.9Z" fill="black"/>
<path d="M3.00015 25C4.80015 25.4 2.10015 27 3.70016 27.5C3.30016 28.3 2.60016 27.9 2.00016 28C2.20016 26.9 1.30015 25.5 3.00015 25Z" fill="black"/>
<path d="M44.6001 56.8C41.4001 56.7 43.2001 54.2 42.7001 52.9C43.2001 52.8 43.8001 52.8 43.7001 53.5C43.5001 54.8 44.1001 55.7 44.6001 56.8Z" fill="black"/>
<path d="M45.6998 62.7C45.2998 62.5 44.2998 62.4 45.4998 61.9C46.1998 61.6 46.5998 61.4 46.6998 60.7C47.4998 61.4 48.1998 62.1 47.2998 63.2C47.0998 63.2 46.8998 63.2 46.6998 63.2C46.4998 62.8 46.0998 62.7 45.6998 62.7Z" fill="black"/>
<path d="M43.7002 84.6C43.7002 84.9 43.7002 85.2 43.7002 85.5C42.4002 85 40.7002 86.2 39.7002 84.5C41.0002 84.6 42.4002 84.6 43.7002 84.6Z" fill="black"/>
<path d="M37.8002 85.5C37.9002 84.6 36.7002 84.5 36.7002 83.6C37.8002 83.5 39.0002 83.3 39.7002 84.6C39.1002 84.9 38.4002 85.2 37.8002 85.5Z" fill="black"/>
<path d="M33.7998 30.9C34.4998 30.9 34.6998 30 35.2998 29.8C35.4998 29.8 35.5998 29.9 35.6998 30C35.6998 30.2 35.6998 30.5 35.6998 30.7C35.6998 31.3 36.0998 32.1 35.4998 32.5C34.7998 32.9 34.5998 31.7 33.8998 31.8C33.7998 31.6 33.7998 31.3 33.7998 30.9Z" fill="black"/>
<path d="M52.5999 38.8C52.5999 39.8 52.5999 40.9 52.5999 41.9C52.5999 42.6 52.2999 42.9 51.5999 42.8C51.9999 41.5 50.6999 39.7 52.5999 38.8Z" fill="black"/>
<path d="M57.6 40.9C57 41 56.5 40.9 56 40.5C56.9 39.8 56.2 38.2 57.6 37.9C57.6 38.2 57.6 38.6 57.6 38.9C57.6 39.6 57.6 40.2 57.6 40.9Z" fill="black"/>
<path d="M57.6001 39C57.6001 38.7 57.6001 38.3 57.6001 38C57.6001 37 57.6001 35.9 57.6001 34.9C58.3001 34.9 58.5001 35.4 58.6001 35.9C58.2001 36.9 59.5001 38.4 57.6001 39Z" fill="black"/>
<path d="M5.0001 22C5.2001 23.5 4.7001 24.2 3.1001 24C3.1001 22.8 4.2001 22.5 5.0001 22Z" fill="black"/>
<path d="M5.00012 28.9C5.30012 27.9 4.20012 26.4 6.00012 26C5.90012 27 6.20012 28.2 5.00012 28.9Z" fill="black"/>
<path d="M21.8999 7.2C22.3999 6.9 22.9999 6.2 23.3999 6.3C24.1999 6.5 23.5999 7.4 23.7999 7.9C23.4999 8 23.2999 8.1 22.9999 8.2C22.3999 8.1 21.8999 7.9 21.8999 7.2Z" fill="black"/>
<path d="M77.4998 68.6C77.5998 69.5 76.3998 69.8 76.4998 70.6C76.1998 70.7 75.9998 70.7 75.6998 70.8L75.5998 70.7C75.2998 69.2 76.0998 68.6 77.4998 68.6Z" fill="black"/>
<path d="M75.5998 71.7C75.1998 71.9 75.0998 72.3 75.0998 72.7C74.7998 72.7 74.4998 72.7 74.1998 72.6C74.0998 71.6 75.1998 71.4 75.4998 70.7L75.5998 70.8C75.5998 71.1 75.5998 71.4 75.5998 71.7Z" fill="black"/>
<path d="M86.5 58.9C86.4 58 86.1 57.1 87.3 56.8C87.3 57.6 87.8 58.6 86.5 58.9Z" fill="black"/>
<path d="M41.7002 58.8C43.2002 58.8 42.6002 60 42.7002 60.7C42.4002 60.7 42.1002 60.7 41.8002 60.7C41.8002 60.1 41.7002 59.4 41.7002 58.8Z" fill="black"/>
<path d="M41.8002 60.7C42.1002 60.7 42.4002 60.7 42.7002 60.7C42.7002 61.2 42.8002 61.7 42.8002 62.1C41.7002 62.2 41.8002 61.4 41.8002 60.7Z" fill="black"/>
<path d="M5.80018 50.8C4.50018 50.6 5.00018 49.6 4.90018 48.9C6.20018 49.1 5.80018 50 5.80018 50.8Z" fill="black"/>
<path d="M49.5999 60.7C49.5999 61.5 50.0999 62.5 48.7999 62.8C48.8999 62 48.2999 60.9 49.5999 60.7Z" fill="black"/>
<path d="M43.7998 63.7C45.3998 63.9 44.5998 65 44.6998 65.8C43.1998 65.5 44.0998 64.4 43.7998 63.7Z" fill="black"/>
<path d="M82.5001 33.9C80.9001 33.9 81.5001 32.7 81.4001 31.9C82.9001 32 82.1001 33.3 82.5001 33.9Z" fill="black"/>
<path d="M76.5 74.6C76.7 73.2 77.8 73.7 78.5 73.6C78.6 74.4 78.2 74.7 77.5 74.6C77.2 74.6 76.9 74.6 76.5 74.6Z" fill="black"/>
<path d="M76.5002 74.6C76.8002 74.6 77.2002 74.6 77.5002 74.6C77.4002 74.9 77.4002 75.2 77.3002 75.6C77.0002 75.6 76.7002 75.6 76.4002 75.6C76.2002 75.5 75.7002 75.4 75.7002 75.2C75.7002 74.7 76.2002 74.7 76.5002 74.6Z" fill="black"/>
<path d="M75.5 77.5C75.5 77 75.8 76.6 76.3 76.6C76.4 76.6 76.5 76.7 76.6 76.7C76.8 77.7 75.9 77.3 75.5 77.5Z" fill="black"/>
<path d="M70.5001 76.6C70.8001 76.6 71.2001 76.7 71.5001 76.7C71.3001 78 70.3001 77.6 69.5001 77.6C69.4001 76.8 69.8001 76.5 70.5001 76.6Z" fill="black"/>
<path d="M69.5 77.6C69.2 78.1 70.4 79.7 68.5 79.1C68.6 78.4 68.2 77.4 69.5 77.6Z" fill="black"/>
<path d="M74.2 72.6C74.5 72.6 74.8 72.6 75.1 72.7C75.2 72.9 75.3 73.3 75.3 73.3C74.8 73.8 74.4 73.2 74 73.1C74 72.9 74.1 72.8 74.2 72.6Z" fill="black"/>
<path d="M76.5998 76.7C76.4998 76.7 76.3998 76.7 76.2998 76.6C76.3998 76.3 76.3998 76 76.4998 75.6C76.7998 75.6 77.0998 75.6 77.3998 75.6C77.3998 76.2 77.3998 76.7 76.5998 76.7Z" fill="black"/>
<path d="M73.4001 74.9C72.7001 74.8 72.6001 74.3 72.6001 73.8C72.9001 73.7 73.2001 73.7 73.5001 73.6C73.5001 74 73.4001 74.5 73.4001 74.9Z" fill="black"/>
<path d="M74.5 78.6C74.5 78 74.8 77.6 75.4 77.6C75.4 78.2 75 78.4 74.5 78.6Z" fill="black"/>
<path d="M67.4001 79.5C67.1001 79.5 66.9001 79.6 66.6001 79.6C66.8001 79.5 67.0001 78.9 67.4001 79.5Z" fill="black"/>
<path d="M73.5 79.6C73.5 79 73.8 78.6 74.5 78.6C74.6 79.3 74.2 79.6 73.5 79.6Z" fill="black"/>
<path d="M72.5 80.5C72.5 79.9 72.9 79.6 73.5 79.6C73.5 80.2 73.3 80.6 72.5 80.5Z" fill="black"/>
<path d="M7.99979 17.1C8.09979 17.8 7.79979 18.1 7.09979 18.1C6.99979 17.4 7.39979 17.1 7.99979 17.1Z" fill="black"/>
<path d="M9 16.1C9.1 16.8 8.7 17.1 8 17.1C7.9 16.3 8.2 16 9 16.1Z" fill="black"/>
<path d="M48.7002 63.7C48.7002 64.1 48.7002 64.6 48.2002 64.5C48.0002 64.5 47.9002 64 47.7002 63.8C48.0002 63.7 48.3002 63.7 48.7002 63.7Z" fill="black"/>
<path d="M43.2998 62.6C43.8998 62.7 43.8998 63.1 43.7998 63.5C43.3998 63.4 43.2998 63 43.2998 62.6Z" fill="black"/>
<path d="M1.89997 28.8C1.99997 29.4 1.79997 29.9 1.09997 29.9C0.899968 29.2 1.09997 28.8 1.89997 28.8Z" fill="black"/>
<path d="M9.9 15C10.1 15.7 9.8 16.2 9 16.1C9.1 15.5 9.5 15.3 9.9 15Z" fill="black"/>
<path d="M10.8999 69.7C13.3999 70 13.6999 70.5 12.8999 72.7C11.4999 72.2 11.2999 70.8 10.8999 69.7Z" fill="black"/>
<path d="M34.7002 87.6C35.2002 87.4 36.0002 87.6 35.9002 86.7C35.8002 85.4 36.7002 85.8 37.4002 85.8C36.6002 86.5 36.6002 87.4 36.8002 88.4C36.0002 88.3 35.0002 89 34.7002 87.6Z" fill="black"/>
<path d="M6.00014 61.7C6.30014 61.7 6.70014 61.7 7.00014 61.7C7.30014 62.7 8.50014 63.4 8.00014 64.7C6.60014 64.1 5.80014 63.3 6.00014 61.7Z" fill="black"/>
<path d="M12.8999 72.7C14.4999 72.4 15.0999 73.1 14.8999 74.7C13.7999 74.4 13.2999 73.6 12.8999 72.7Z" fill="black"/>
<path d="M4.8999 59.7C6.1999 59.8 5.8999 60.8 5.8999 61.7C4.6999 61.5 5.0999 60.5 4.8999 59.7Z" fill="black"/>
<path d="M14.8999 74.6C16.1999 74.7 15.8999 75.6 15.8999 76.4C14.3999 76.5 15.1999 75.3 14.8999 74.6Z" fill="black"/>
<path d="M4.10005 58.7C4.80005 58.7 5.00005 59.1 5.00005 59.7C4.30005 59.8 3.80005 59.5 4.10005 58.7Z" fill="black"/>
<path d="M44.7002 86.6C44.8002 86.3 44.9002 85.9 45.0002 85.8C45.5002 85.7 45.6002 86.1 45.7002 86.5C45.4002 86.5 45.1002 86.6 44.7002 86.6Z" fill="black"/>
<path d="M43.6999 86.6C43.6999 86.9 43.6999 87.2 43.7999 87.5C43.4999 87.4 42.9999 87.4 42.9999 87.2C42.7999 86.6 43.3999 86.6 43.6999 86.6Z" fill="black"/>
<path d="M45.7002 62.7C46.1002 62.7 46.5002 62.8 46.6002 63.2C45.8002 64 45.8002 63.3 45.7002 62.7Z" fill="black"/>
<path d="M17.8998 72.6C17.6998 73.3 18.1998 74.2 17.1998 74.5C16.5998 74.7 16.1998 74.2 16.1998 73.7C15.8998 72 17.2998 72.9 17.8998 72.6Z" fill="black"/>
<path d="M75.6001 71.7C75.6001 71.4 75.7001 71.1 75.7001 70.9C76.0001 70.8 76.3001 70.8 76.5001 70.7C76.8001 70.9 77.2001 71.1 77.2001 71.1C76.9001 72 76.2001 71.5 75.6001 71.7Z" fill="black"/>
<path d="M34.9002 35.8C34.6002 34.4 34.9002 33.5 36.6002 34.1C36.6002 34.4 36.7002 34.7 36.7002 35C36.7002 35.5 37.0002 36.3 36.5002 36.5C35.7002 37 35.5002 35.9 34.9002 35.8Z" fill="black"/>
</svg>
