<svg width="35" height="35" viewBox="0 0 35 35" fill="none" xmlns="http://www.w3.org/2000/svg">
<circle cx="17.5" cy="17.5" r="16.5" fill="#E8E8E8" stroke="#8469FF" stroke-width="2"/>
<path d="M19.8625 26.2018L12.4906 18.875C12.4031 18.7878 12.3413 18.6933 12.3051 18.5916C12.2684 18.4898 12.25 18.3808 12.25 18.2645C12.25 18.1482 12.2684 18.0391 12.3051 17.9374C12.3413 17.8356 12.4031 17.7411 12.4906 17.6539L19.8625 10.3053C20.0667 10.1018 20.3219 10 20.6281 10C20.9344 10 21.1969 10.109 21.4156 10.3271C21.6344 10.5451 21.7437 10.7996 21.7437 11.0903C21.7437 11.381 21.6344 11.6354 21.4156 11.8535L14.9844 18.2645L21.4156 24.6754C21.6198 24.8789 21.7219 25.1296 21.7219 25.4273C21.7219 25.7256 21.6125 25.9838 21.3938 26.2018C21.175 26.4199 20.9198 26.5289 20.6281 26.5289C20.3365 26.5289 20.0812 26.4199 19.8625 26.2018Z" fill="#8469FF"/>
</svg>
