<svg width="49" height="93" viewBox="0 0 49 93" fill="none" xmlns="http://www.w3.org/2000/svg">
<g clip-path="url(#clip0_377_987)">
<path d="M48.8002 12.5C48.4002 14.4 48.0002 16.4 47.6002 18.3C47.3002 18.6 47.0002 18.9 46.7002 19.1C43.4002 20.1 42.4002 19.6 43.3002 16.9C43.9002 15.1 43.3002 12.9 44.9002 11.4C45.6002 11.1 46.9002 11.9 46.9002 10.7C46.9002 10.2 45.6002 10.4 44.9002 10.3C44.9002 10.1 44.8002 9.99999 44.8002 9.79999C43.7002 3.49999 41.8002 2.69999 36.5002 6.09999C35.5002 5.19999 34.5002 4.39999 33.2002 4.09999C34.2002 1.99999 37.5002 2.29999 38.9002 0.599994C40.9002 0.599994 42.1002 -0.100006 44.0002 -0.100006C44.1002 0.799994 43.9002 1.19999 45.1002 1.49999C46.9002 1.99999 48.3002 3.19999 48.7002 5.29999C48.8002 7.79999 48.8002 10.2 48.8002 12.5Z" fill="black"/>
<path d="M42.4002 20.4C41.2002 23.2 40.0002 25.4 38.9002 28.2C38.9002 29 39.2002 29.8 38.2002 30.2C36.9002 32.5 36.0002 35.1 35.1002 37.6C32.3002 45.9 28.7002 53.9 26.8002 62.5C26.4002 64.4 25.9002 66.2 24.4002 67.5V67.6C23.9002 69 25.7002 69.3 25.7002 70.5C24.9002 70.8 24.2002 71 23.9002 71.9C22.4002 76.7 21.2002 81.7 21.6002 86.8C21.7002 87.8 22.0002 89 22.3002 90.1C23.0002 92 24.6002 92.7 26.5002 92.5C28.0002 92.4 28.2002 91.3 28.0002 90C26.7002 82.6 26.9002 81.4 29.7002 74.6C29.9002 74 29.6002 73.7 29.5002 73.2C29.2002 71.9 29.3002 70.8 29.8002 69.5C33.0002 60.8 34.8002 51.6 38.7002 43C41.3002 37.3 43.2002 28 46.1002 22.3C47.5002 19.6 46.0002 22 42.4002 20.4ZM27.6002 68.8C27.5002 68.7 27.3002 68.5 27.4002 68.4C27.4002 68.3 27.6002 68.2 27.7002 68.1C27.8002 68.2 27.9002 68.4 28.0002 68.5C27.8002 68.5 27.7002 68.6 27.6002 68.8Z" fill="black"/>
<path d="M19.2001 15.7H19.1001L19.2001 15.5C19.2001 15.5 19.2001 15.6 19.2001 15.7Z" fill="black"/>
<path d="M29.7998 22.6C29.0998 26.4 25.2998 30.1 26.6998 34.3C26.9998 35.2 26.1998 36.6 25.1998 36.9C23.9998 37.2 23.7998 36.1 23.5998 35C22.4998 29.6 19.3998 24.8 18.2998 19.4C18.2998 18.7 18.2998 18.1 18.2998 17.4L18.3998 17.3C19.4998 17.1 19.4998 16.5 19.2998 15.7C21.5998 16.2 21.5998 18.5 22.0998 20.2C22.4998 21.5 22.6998 22.6 23.7998 23.3C26.7998 16.8 27.6998 9.39999 33.1998 4.29999C34.4998 4.59999 35.5998 5.39999 36.4998 6.29999C33.1998 11.3 30.9998 16.6 29.7998 22.6Z" fill="black"/>
<path d="M15.2998 14.5C13.2998 11.9 11.2998 9.29999 9.2998 6.79999C9.3998 5.69999 9.4998 4.79999 10.6998 4.39999C13.9998 6.29999 16.0998 9.29999 17.8998 12.5C16.4998 12.3 15.2998 12.5 15.2998 14.5Z" fill="black"/>
<path d="M8.2 30.2C9.3 31.3 9.2 33 9.9 34.3C9.1 34.3 8.3 34.3 7.5 34.2C5.3 30.2 3.5 26.1 3.5 21.4C4.1 21.4 4.8 21.4 5.4 21.4C7.2 23.3 6.7 26 7.8 28.1C7.2 28.3 6.6 28.7 6.7 29.4C6.8 30.1 7.6 30.1 8.2 30.2Z" fill="black"/>
<path d="M7.5 34.2C8.3 34.2 9.1 34.2 9.9 34.3C11.8 38.1 13.6 41.9 14.4 46.1L14.5 46C13.6 45.5 12.1 46.1 11.6 44.7C10.5 41.1 7.7 38.2 7.5 34.2Z" fill="black"/>
<path d="M2.6998 19.3C0.999805 16.5 1.0998 13.4 0.799805 10.4C1.6998 10.4 2.5998 10.4 3.4998 10.4C4.0998 13.1 4.6998 15.8 5.1998 18.4C4.2998 18.3 3.4998 19 2.6998 19.3Z" fill="black"/>
<path d="M3.50015 10.4C2.60015 10.4 1.70015 10.4 0.80015 10.4C0.50015 8.79999 2.30015 8.99999 2.70015 7.99999C0.20015 3.89999 0.30015 3.59999 4.50015 1.79999C4.50015 2.59999 4.70015 3.39999 5.60015 3.59999C3.90015 5.49999 2.30015 7.49999 3.50015 10.4Z" fill="black"/>
<path d="M14.4001 46C16.9001 47.9 16.9001 50.9 18.0001 53.8C15.8001 52.8 13.5001 50.1 12.9001 48.5C12.3001 46.8 14.2001 46.9 14.5001 45.9L14.4001 46Z" fill="black"/>
<path d="M5.6 3.59999C4.7 3.39999 4.5 2.59999 4.5 1.79999C7.2 1.19999 9.5 1.39999 10.8 4.39999C9.6 4.69999 9.4 5.69999 9.4 6.69999C7.7 6.09999 6.7 4.79999 5.6 3.59999Z" fill="black"/>
<path d="M18.2998 17.3L18.0998 17.2C15.9998 17.5 15.2998 16.3 15.2998 14.4C15.2998 12.4 16.4998 12.2 17.9998 12.4C18.3998 13.4 18.6998 14.4 19.0998 15.4C17.8998 15.7 17.9998 16.4 18.2998 17.3Z" fill="black"/>
<path d="M19.2001 15.5L19.1001 15.7C19.1001 15.6 19.1001 15.6 19.1001 15.6C19.1001 15.5 19.1001 15.5 19.2001 15.5Z" fill="black"/>
<path d="M20.7999 61.6C18.6999 60.3 17.4999 58.6 18.2999 55.9C20.7999 57.2 20.9999 59.3 20.7999 61.6Z" fill="black"/>
<path d="M2.7002 19.3C3.5002 18.9 4.3002 18.3 5.3002 18.4C5.4002 19.4 5.4002 20.3 5.5002 21.3C4.9002 21.3 4.2002 21.3 3.6002 21.3C2.6002 21 2.8002 20.1 2.7002 19.3Z" fill="black"/>
<path d="M24.3999 67.5C22.2999 67.2 21.9999 65.5 21.3999 63.6C24.6999 63.5 23.8999 66 24.3999 67.5Z" fill="black"/>
<path d="M8.19995 30.2C7.59995 30.1 6.79995 30.1 6.69995 29.4C6.59995 28.7 7.19995 28.3 7.79995 28.1C8.49995 28.6 8.39995 29.4 8.19995 30.2Z" fill="black"/>
<path d="M18.1999 17.2L18.2999 17.4C18.2999 18.1 18.2999 18.7 18.2999 19.4C16.7999 18.7 17.4999 18 18.1999 17.2Z" fill="black"/>
<path d="M38.9001 28.2C38.9001 29 39.2001 29.8 38.2001 30.2C38.4001 29.6 37.4001 28.5 38.9001 28.2Z" fill="black"/>
<path d="M0.2 6.79999L0.3 7.09999H0L0.2 6.79999Z" fill="black"/>
<path d="M46.7002 19.2C47.0002 18.9 47.3002 18.6 47.6002 18.4C47.6002 19 47.5002 19.4 46.7002 19.2Z" fill="black"/>
<path d="M27.8998 68.4C27.7998 68.5 27.6998 68.6 27.5998 68.7C27.4998 68.6 27.2998 68.4 27.2998 68.3C27.2998 68.2 27.4998 68.1 27.5998 68C27.6998 68.2 27.7998 68.3 27.8998 68.4Z" fill="black"/>
<path d="M18.3001 17.3C18.0001 16.4 17.9001 15.7 19.1001 15.5V15.6H19.2001C19.4001 16.5 19.4001 17.1 18.3001 17.3Z" fill="black"/>
<path d="M19.2001 15.7H19.1001C19.1001 15.6 19.1001 15.6 19.1001 15.6H19.2001C19.2001 15.5 19.2001 15.6 19.2001 15.7Z" fill="black"/>
</g>
<defs>
<clipPath id="clip0_377_987">
<rect width="48.8" height="92.5" fill="white"/>
</clipPath>
</defs>
</svg>
