<svg width="159" height="78" viewBox="0 0 159 78" fill="none" xmlns="http://www.w3.org/2000/svg">
<path d="M141.092 35.7593L27.7938 73.2518C19.0353 76.1297 9.62402 71.3932 6.68127 62.6491C3.80343 53.8906 8.53987 44.4793 17.284 41.5365L130.647 4.02974C139.405 1.1519 148.816 5.88834 151.694 14.6468C154.637 23.391 149.85 32.8815 141.092 35.7593Z" fill="#FF0081"/>
<path d="M67.7995 34.5163L62.9152 36.1343L62.3926 47.0692C62.3926 47.0692 62.4069 47.1342 62.4718 47.1199L65.776 46.0534L65.7738 43.8762L70.0232 42.4658C70.0232 42.4658 70.0232 42.4658 70.0881 42.4516C70.6345 43.08 71.0369 43.6721 71.4107 44.1343C71.4107 44.1343 71.4107 44.1343 71.4756 44.1201L74.8954 42.9601C74.8954 42.9601 74.9603 42.9458 74.8811 42.8952L67.7995 34.5163C67.8644 34.502 67.8644 34.502 67.7995 34.5163ZM65.8729 41.5407C65.8586 41.4758 65.8729 41.5407 65.8729 41.5407C65.8771 39.7024 65.9163 38.3328 65.9905 37.4318L66.5655 38.1901C67.2197 38.999 67.8738 39.8079 68.528 40.6169L68.5422 40.6818L65.8729 41.5407Z" fill="white"/>
<path d="M78.5894 35.6153L79.255 37.7147C79.255 37.7147 79.255 37.7147 79.3199 37.7004L81.9386 36.9207C81.7503 37.3023 81.5477 37.619 81.1867 37.8345C80.8258 38.0499 80.4648 38.2654 80.0896 38.4159C79.1444 38.7597 78.3876 38.722 77.7827 38.4466C77.1777 38.1713 76.7897 37.6441 76.5029 36.9586C76.2953 36.3237 76.2824 35.646 76.572 35.106C76.8474 34.5011 77.4394 34.0988 78.2548 33.7834C78.7598 33.6044 79.2934 33.5551 79.8413 33.5708C80.3891 33.5865 80.8863 33.6814 81.3472 33.9203L81.6289 33.6542C82.5755 32.6976 83.2404 32.0071 83.5728 31.6618L83.5585 31.5969C82.6875 31.0398 81.7295 30.706 80.7636 30.6461C79.7977 30.5862 78.6656 30.6989 77.5257 31.0856C75.4912 31.7369 74.1409 32.7142 73.5253 33.9383C72.8448 35.1767 72.8198 36.6113 73.3713 38.1913C73.7294 39.2014 74.1746 39.9882 74.8508 40.5881C75.5271 41.1881 76.2255 41.579 77.0901 41.7972C77.9404 41.9506 78.8128 41.8949 79.7073 41.6303C80.7174 41.2721 81.5043 40.827 82.0392 40.165C82.5885 39.5679 82.8353 38.8331 82.8446 37.9464C82.8303 37.8815 82.8952 37.8673 82.9095 37.9322L83.9282 40.09C83.9282 40.09 83.9282 40.09 83.9931 40.0758L86.273 39.3025C86.273 39.3025 86.273 39.3025 86.2587 39.2375L84.4331 33.7184C84.4331 33.7184 84.4331 33.7184 84.3682 33.7327L78.5894 35.6153Z" fill="white"/>
<path d="M89.6268 35.367L89.1831 33.9674L89.1688 33.9025C89.6089 33.7377 90.2438 33.5301 91.0734 33.2797C92.473 32.836 93.9375 32.378 95.4669 31.9057C95.4669 31.9057 95.5318 31.8914 95.4526 31.8408L94.6936 29.6259C94.6936 29.6259 94.6793 29.5609 94.6287 29.6401C93.1135 30.1773 91.6633 30.7002 90.2637 31.144C89.4341 31.3944 88.7992 31.602 88.3591 31.7668L88.2942 31.781L87.8932 30.5762L87.879 30.5113L95.108 28.1057C95.108 28.1057 95.108 28.1057 95.0937 28.0408L94.3062 25.696C94.3062 25.696 94.3062 25.696 94.2412 25.7103L83.8378 29.1538C83.8378 29.1538 83.7729 29.1681 83.8521 29.2188C84.497 30.9144 85.0484 32.4944 85.5856 34.0096C86.0579 35.539 86.6094 37.1191 87.0738 38.9224C87.0738 38.9224 87.088 38.9873 87.1387 38.9081L97.5421 35.4646C97.5421 35.4646 97.5421 35.4646 97.5278 35.3996C97.3345 34.8297 97.1555 34.3246 97.0698 33.9351C96.9842 33.5457 96.8986 33.1562 96.8273 32.8316C96.8273 32.8316 96.813 32.7667 96.7481 32.781C95.3913 33.4194 92.9959 34.2862 89.6268 35.367Z" fill="white"/>
<path d="M106.939 21.558L103.7 22.6103C103.7 22.6103 103.635 22.6245 103.714 22.6752L106.329 29.9263C106.343 29.9912 106.278 30.0055 106.264 29.9406L100.655 23.6197C100.655 23.6197 100.655 23.6197 100.59 23.634L95.7061 25.252C95.7061 25.252 95.6412 25.2662 95.7204 25.3169C96.3653 27.0125 96.9167 28.5926 97.4539 30.1077C97.9262 31.6371 98.4776 33.2172 98.9421 35.0205C98.9421 35.0205 98.9563 35.0854 99.007 35.0062L102.362 33.8605C102.362 33.8605 102.427 33.8463 102.348 33.7956L99.7758 26.7392C99.7615 26.6743 99.8264 26.66 99.8407 26.7249L105.406 32.8511C105.406 32.8511 105.406 32.8511 105.471 32.8368L110.226 31.2474C110.226 31.2474 110.291 31.2331 110.211 31.1824C109.674 29.6673 109.058 28.1015 108.543 26.3774C107.912 24.7467 107.346 23.1017 106.939 21.558Z" fill="white"/>
<path d="M118.068 25.4407C117.75 25.8508 117.143 26.1883 116.444 26.4101C115.498 26.754 114.741 26.7162 114.137 26.4409C113.532 26.1655 113.144 25.6384 112.842 24.8879C112.635 24.253 112.622 23.5754 112.912 23.0353C113.187 22.4304 113.779 22.0281 114.594 21.7128C115.164 21.5194 115.763 21.4559 116.455 21.508C117.082 21.5743 117.608 21.799 118.032 22.1821C118.032 22.1821 118.032 22.1821 118.097 22.1678C118.993 21.2904 119.788 20.5713 120.481 20.0106C120.481 20.0106 120.481 20.0106 120.467 19.9457C118.884 18.32 116.636 17.9976 113.851 18.95C111.817 19.6013 110.466 20.5786 109.851 21.8027C109.17 23.0411 109.145 24.4757 109.697 26.0557C110.248 27.6358 111.103 28.7408 112.378 29.2772C113.653 29.8136 115.268 29.7308 117.302 29.0795C118.507 28.6785 119.604 28.0971 120.515 27.2846C121.439 26.537 121.903 25.5504 121.97 24.3106L121.956 24.2457C120.702 24.1131 119.592 24.0168 118.742 23.8634L118.677 23.8777C118.625 24.5696 118.4 25.0954 118.068 25.4407Z" fill="white"/>
<path d="M129.016 14.2558C128.951 14.27 129.016 14.2558 129.016 14.2558C128.935 14.8179 128.796 15.7331 128.533 17.0157C128.293 18.0893 128.154 19.0046 128.051 19.7757L127.986 19.79C127.627 19.3926 126.951 18.7927 126.008 17.911C125.066 17.0294 124.375 16.3645 123.872 15.9308L120.192 17.1479C120.192 17.1479 120.127 17.1621 120.207 17.2128C120.71 17.6465 121.451 18.2321 122.351 18.9191C123.581 19.8735 124.574 20.676 125.236 21.211C125.898 21.746 126.51 22.3602 127.107 22.9095L127.923 25.3841C127.923 25.3841 127.923 25.3841 127.988 25.3698L131.408 24.2098C131.408 24.2098 131.408 24.2098 131.393 24.1449L130.634 21.93C130.796 20.8057 131.007 19.6023 131.321 18.2405C131.634 16.8787 132.034 15.2936 132.456 13.4995L132.551 13.0023L129.016 14.2558Z" fill="white"/>
<path d="M31.9394 51.2452C30.9592 51.1204 29.5026 51.3045 27.5979 51.9273C26.8332 52.1634 26.1841 52.3061 25.7803 52.3268C25.3117 52.3618 25.0741 52.2098 25.0313 52.0151C24.9885 51.8203 25.0755 51.5971 25.3067 51.4101C25.5378 51.2232 26.0935 50.965 26.988 50.7003C27.6878 50.4785 28.5317 50.293 29.5482 50.2737C30.5505 50.1895 31.3216 50.2922 31.9122 50.5026C31.898 50.4377 31.9201 50.2287 31.8773 50.034C31.8723 49.0823 31.9101 48.3255 31.9621 47.6335L31.9479 47.5686C31.0326 47.4295 30.0667 47.3696 28.9996 47.4681C27.9324 47.5666 26.9587 47.7806 25.9992 48.0595C24.4192 48.611 23.2065 49.2858 22.3897 50.2139C21.573 51.142 21.3975 52.2013 21.7984 53.4062C22.0488 54.2358 22.6966 54.7059 23.6767 54.8307C24.6569 54.9555 26.0343 54.7208 27.8741 54.1123C29.519 53.5465 30.4706 53.5415 30.664 54.1115C30.6925 54.2413 30.6055 54.4646 30.3094 54.6658C30.0277 54.9319 29.5226 55.1109 28.8371 55.3977C28.1373 55.6196 27.2934 55.8051 26.3561 55.875C25.4837 55.9306 24.6619 55.9071 23.8765 55.7395L23.8116 55.7538C23.7959 56.3016 23.7802 56.8495 23.6711 57.2818C23.6268 57.6998 23.4671 58.2113 23.3216 58.7877L23.3358 58.8526C24.316 58.9774 25.3468 59.023 26.3997 58.8596C27.5317 58.7469 28.5704 58.5186 29.5156 58.1748C31.3553 57.5662 32.6835 56.7979 33.3847 55.9633C34.1508 55.1144 34.2614 54.0693 33.8462 52.7996C33.5815 51.905 32.9195 51.37 31.9394 51.2452Z" fill="white"/>
<path d="M55.6125 45.633C56.45 45.1086 56.985 44.4466 57.1811 43.7911C57.3773 43.1355 57.3502 42.3929 57.114 41.6282C56.7559 40.6181 56.1303 39.939 55.2372 39.5909C54.3441 39.2428 52.938 39.3477 51.1632 39.9419L48.429 40.8151L45.2546 41.8531C45.2546 41.8531 45.1897 41.8674 45.2689 41.9181C45.9138 43.6137 46.4795 45.2586 47.0024 46.7089C47.4747 48.2383 48.0261 49.8183 48.4906 51.6217C48.4906 51.6217 48.5048 51.6866 48.5555 51.6074L51.665 50.5837C51.665 50.5837 51.665 50.5837 51.6507 50.5188L50.6412 47.4742L50.627 47.4093L52.5316 46.7865C53.7907 47.8708 54.7837 48.6733 55.395 49.2875L58.9446 48.0989C58.9446 48.0989 58.9953 48.0198 58.9304 48.034L55.7852 45.7992C55.9293 45.8355 55.7709 45.7343 55.6125 45.633ZM54.0174 43.3296C53.9161 43.488 53.685 43.6749 53.3098 43.8254C52.9346 43.9759 52.3789 44.2341 51.6142 44.4703L49.8394 45.0645L49.7745 45.0788L49.3165 43.6143L49.3022 43.5494L51.077 42.9551C51.8417 42.719 52.4117 42.5257 52.8661 42.4258C53.2555 42.3402 53.5944 42.3338 53.7385 42.3701C53.8826 42.4065 54.0552 42.5727 54.098 42.7675C54.2057 42.9479 54.1836 43.157 54.0174 43.3296Z" fill="white"/>
<path d="M44.1285 42.305L45.9113 47.6294C46.3408 48.964 46.273 50.2038 45.6432 51.363C45.0133 52.5222 43.7136 53.4204 41.6285 54.1509C39.5291 54.8165 37.9141 54.8993 36.8483 54.385C35.7683 53.8058 35.0856 52.867 34.6561 51.5323L32.8591 46.143L32.8448 46.0781L37.0293 44.682C37.0293 44.682 37.0942 44.6677 37.1085 44.7326C36.9772 45.3739 36.3952 47.6795 36.3952 47.6795L36.9366 47.3563L38.6258 46.3726C38.6258 46.3726 38.6907 46.3583 38.705 46.4232L37.9682 50.1919C37.9682 50.1919 37.9825 50.2568 38.0474 50.2425L40.0041 48.9278C40.0041 48.9278 40.069 48.9135 40.0833 48.9784L39.6803 51.789L39.5191 52.9133L40.0048 51.7177L41.9336 46.8704L42.3324 45.8981L40.2601 47.3063C40.2601 47.3063 40.1952 47.3206 40.1809 47.2557L41.2423 43.4157L44.1285 42.305Z" fill="white"/>
</svg>
