<svg width="108" height="108" viewBox="0 0 108 108" fill="none" xmlns="http://www.w3.org/2000/svg">
<path d="M54.1724 0C24.4947 0 0.436768 24.0579 0.436768 53.7356C0.436768 83.4134 24.4947 107.471 54.1724 107.471C83.8501 107.471 107.908 83.4134 107.908 53.7356C107.908 24.0579 83.8501 0 54.1724 0ZM74.8382 60.6261C74.8382 60.6261 79.5905 65.3168 80.7603 67.4942C80.7939 67.539 80.8107 67.5837 80.8219 67.6061C81.2977 68.4066 81.4096 69.0279 81.1746 69.4925C80.7827 70.2649 79.4393 70.6456 78.9803 70.6791H70.5842C70.002 70.6791 68.7818 70.528 67.304 69.5093C66.1678 68.7144 65.0483 67.4102 63.9568 66.1396C62.3279 64.2477 60.9173 62.6132 59.4956 62.6132C59.315 62.6129 59.1355 62.6412 58.9638 62.6972C57.8891 63.0442 56.5121 64.5779 56.5121 68.6641C56.5121 69.9403 55.5046 70.6735 54.7937 70.6735H50.9483C49.6385 70.6735 42.8151 70.2146 36.7699 63.8391C29.37 56.0306 22.7091 40.3689 22.6531 40.2234C22.2333 39.2102 23.1009 38.6673 24.0469 38.6673H32.527C33.6577 38.6673 34.0271 39.3558 34.2846 39.9659C34.5869 40.6768 35.6952 43.5035 37.5144 46.6828C40.4642 51.8661 42.2722 53.9707 43.7219 53.9707C43.9938 53.9675 44.2608 53.8984 44.5 53.7692C46.3919 52.7169 46.0393 45.9719 45.9553 44.5726C45.9553 44.3095 45.9497 41.5555 44.9814 40.2346C44.2873 39.2774 43.1062 38.9136 42.3897 38.7792C42.6797 38.3791 43.0618 38.0546 43.5036 37.8332C44.8022 37.1839 47.142 37.0888 49.4649 37.0888H50.7579C53.2768 37.1224 53.9261 37.2847 54.8385 37.5142C56.6857 37.9564 56.7248 39.1486 56.5625 43.2292C56.5121 44.3879 56.4618 45.6977 56.4618 47.2426C56.4618 47.5784 56.445 47.9367 56.445 48.3173C56.389 50.3939 56.3218 52.7505 57.7884 53.7188C57.9796 53.8388 58.2007 53.9028 58.4265 53.9036C58.9358 53.9036 60.4695 53.9036 64.6229 46.778C65.9038 44.4845 67.0168 42.1012 67.9533 39.6468C68.0373 39.5013 68.2836 39.0535 68.5747 38.88C68.7895 38.7705 69.0277 38.7148 69.2687 38.7176H79.2378C80.3237 38.7176 81.0682 38.88 81.2081 39.2998C81.4544 39.9659 81.1634 41.9978 76.6126 48.1606L74.5807 50.8417C70.4554 56.2489 70.4554 56.5232 74.8382 60.6261Z" fill="#100F0F"/>
</svg>
