<svg width="70" height="70" viewBox="0 0 70 70" fill="none" xmlns="http://www.w3.org/2000/svg">
<path d="M66.1106 31.0963C65.7899 31.0981 65.4705 31.1364 65.1585 31.2106C55.7056 33.3817 46.0459 34.5261 36.3473 34.6239C44.7956 29.8576 53.7339 26.0173 63.0067 23.1698C63.3087 23.0816 63.5994 22.9585 63.873 22.8033C64.7661 22.2874 65.4182 21.4383 65.6859 20.4423C65.9537 19.4462 65.8153 18.3846 65.3012 17.4905C64.7853 16.5974 63.9362 15.9455 62.9402 15.6777C61.9442 15.4099 60.8826 15.5483 59.9884 16.0623C59.7169 16.2218 59.4645 16.4119 59.2362 16.6288C52.1367 23.2379 44.3427 29.0591 35.9902 33.9907C40.9218 25.6382 46.743 17.8442 53.3522 10.7447C53.568 10.5195 53.7594 10.2722 53.9234 10.0068C54.4375 9.11264 54.5758 8.05106 54.308 7.05502C54.0403 6.05899 53.3883 5.20992 52.4952 4.69401C51.6011 4.17997 50.5395 4.04156 49.5434 4.30931C48.5474 4.57706 47.6983 5.2291 47.1824 6.1222C47.027 6.39579 46.904 6.68648 46.8159 6.98854C43.9684 16.2613 40.1282 25.1996 35.3618 33.6479C35.4596 23.9494 36.604 14.2897 38.7751 4.83674C38.8496 4.5248 38.8879 4.20532 38.8894 3.88462C38.8894 3.37408 38.7888 2.86855 38.5932 2.39693C38.3977 1.92531 38.1111 1.4969 37.7499 1.13611C37.3887 0.775324 36.9599 0.489345 36.488 0.294403C36.0162 0.0994607 35.5105 -0.000622748 35 2.91541e-06C33.9697 2.91541e-06 32.9816 0.409339 32.2531 1.13785C31.5246 1.86637 31.1154 2.85434 31.1154 3.88462C31.1154 4.20513 31.1521 4.52459 31.2249 4.83674C33.3983 14.2893 34.5427 23.9492 34.6382 33.6479C29.8714 25.2004 26.0326 16.2619 23.1889 6.98854C23.0968 6.68715 22.9723 6.39672 22.8176 6.1222C22.3026 5.22943 21.4544 4.57755 20.4591 4.30977C19.4639 4.04199 18.403 4.1802 17.5095 4.69401C17.0664 4.94856 16.6778 5.28799 16.3661 5.69297C16.0544 6.09795 15.8256 6.56044 15.6929 7.05398C15.5603 7.54752 15.5263 8.0624 15.593 8.5691C15.6596 9.07579 15.8256 9.56437 16.0813 10.0068C16.2393 10.2794 16.4295 10.532 16.6478 10.759C23.254 17.8599 29.0735 25.6537 34.005 34.005C25.6541 29.071 17.8604 23.25 10.759 16.6431C10.5313 16.4255 10.2788 16.2354 10.0068 16.0766C9.11337 15.5628 8.05249 15.4246 7.05723 15.6923C6.06197 15.9601 5.21376 16.612 4.69878 17.5048C4.44298 17.9472 4.27693 18.4358 4.21028 18.9425C4.14363 19.4492 4.17768 19.9641 4.31035 20.4576C4.44302 20.9511 4.67169 21.4136 4.98341 21.8186C5.29514 22.2236 5.6838 22.563 6.12696 22.8176C6.40014 22.9738 6.69093 23.0969 6.99331 23.1841C16.2662 26.0313 25.2045 29.8716 33.6527 34.6382C23.9541 34.5404 14.2944 33.396 4.8415 31.2249C4.52958 31.1503 4.21009 31.112 3.88938 31.1106C2.85784 31.1106 1.86865 31.5203 1.13925 32.2498C0.409838 32.9792 0 33.9685 0 35C-3.83371e-07 35.5105 0.100623 36.0161 0.296143 36.4877C0.491663 36.9593 0.77825 37.3877 1.13948 37.7485C1.50071 38.1093 1.92948 38.3954 2.40134 38.5903C2.8732 38.7853 3.37884 38.8852 3.88938 38.8846C4.20992 38.885 4.52942 38.8483 4.8415 38.7751C14.294 36.6017 23.954 35.4573 33.6527 35.3618C25.2053 40.1289 16.2668 43.9677 6.99331 46.8111C6.69128 46.9014 6.40066 47.026 6.12696 47.1824C5.68397 47.4365 5.29543 47.7756 4.98376 48.1801C4.67209 48.5847 4.44338 49.0467 4.3107 49.5398C4.17801 50.033 4.14392 50.5476 4.21051 51.0539C4.2771 51.5602 4.44309 52.0484 4.69878 52.4905C4.95287 52.9335 5.2919 53.3219 5.69646 53.6336C6.10101 53.9452 6.56303 54.174 7.05618 54.3067C7.54933 54.4394 8.06393 54.4734 8.57026 54.4068C9.07658 54.3402 9.56473 54.1743 10.0068 53.9187C10.2802 53.7619 10.5329 53.5716 10.759 53.3522C17.8617 46.7482 25.6553 40.9289 34.005 35.995C29.0711 44.3447 23.2518 52.1383 16.6478 59.241C16.4289 59.4675 16.2386 59.7202 16.0813 59.9932C15.8257 60.4353 15.6598 60.9234 15.5932 61.4297C15.5266 61.9361 15.5606 62.4507 15.6933 62.9438C15.826 63.437 16.0548 63.899 16.3664 64.3035C16.6781 64.7081 17.0665 65.0471 17.5095 65.3012C17.9516 65.5569 18.4398 65.7229 18.9461 65.7895C19.4524 65.8561 19.967 65.822 20.4602 65.6893C20.9533 65.5566 21.4153 65.3279 21.8199 65.0162C22.2244 64.7046 22.5635 64.316 22.8176 63.873C22.9752 63.5999 23.0998 63.3092 23.1889 63.0067C26.0323 53.7332 29.8711 44.7947 34.6382 36.3473C34.5427 46.046 33.3983 55.706 31.2249 65.1585C31.1519 65.4706 31.1152 65.7901 31.1154 66.1106C31.1148 66.6212 31.2147 67.1268 31.4097 67.5987C31.6046 68.0705 31.8907 68.4993 32.2515 68.8605C32.6123 69.2217 33.0407 69.5083 33.5123 69.7039C33.9839 69.8994 34.4895 70 35 70C36.0315 70 37.0208 69.5902 37.7503 68.8608C38.4797 68.1313 38.8894 67.1422 38.8894 66.1106C38.8884 65.7899 38.85 65.4704 38.7751 65.1585C36.604 55.7056 35.4596 46.0459 35.3618 36.3473C40.1284 44.7955 43.9687 53.7338 46.8159 63.0067C46.9024 63.3093 47.0255 63.6002 47.1824 63.873C47.437 64.3162 47.7764 64.7049 48.1814 65.0166C48.5864 65.3283 49.0489 65.557 49.5424 65.6897C50.0359 65.8223 50.5508 65.8564 51.0575 65.7897C51.5642 65.7231 52.0528 65.557 52.4952 65.3012C53.388 64.7862 54.0399 63.938 54.3077 62.9428C54.5754 61.9475 54.4372 60.8866 53.9234 59.9932C53.7635 59.722 53.5735 59.4696 53.3569 59.241C46.75 52.1396 40.929 44.3459 35.995 35.995C44.3463 40.9265 52.1401 46.746 59.241 53.3522C59.4685 53.57 59.721 53.7602 59.9932 53.9187C60.4356 54.1744 60.9242 54.3404 61.4309 54.407C61.9376 54.4737 62.4525 54.4398 62.946 54.3071C63.4396 54.1744 63.9021 53.9456 64.307 53.6339C64.712 53.3222 65.0514 52.9336 65.306 52.4905C65.8198 51.597 65.958 50.5362 65.6902 49.5409C65.4224 48.5456 64.7706 47.6974 63.8778 47.1824C63.6043 47.0256 63.3136 46.901 63.0115 46.8111C53.7381 43.9674 44.7996 40.1286 36.3521 35.3618C46.0508 35.4573 55.7107 36.6017 65.1633 38.7751C65.4754 38.848 65.7949 38.8847 66.1154 38.8846C67.1457 38.8846 68.1336 38.4754 68.8622 37.7469C69.5907 37.0184 70 36.0303 70 35C70.0006 34.4895 69.9005 33.9838 69.7056 33.512C69.5107 33.0401 69.2247 32.6113 68.8639 32.2501C68.5031 31.8889 68.0747 31.6023 67.6031 31.4068C67.1315 31.2112 66.6259 31.1106 66.1154 31.1106" fill="#8469FF"/>
</svg>
