<svg width="70" height="99" viewBox="0 0 70 99" fill="none" xmlns="http://www.w3.org/2000/svg">
<path fill-rule="evenodd" clip-rule="evenodd" d="M8.61809 59.7758C12.8763 50.8622 27.6171 49.029 31.1166 54.0019C32.2066 56.3942 17.562 74.9687 9.85231 69.9797C6.668 67.9421 6.47565 64.3885 8.64483 59.7812L8.61809 59.7758ZM27.9964 79.7265C29.4977 79.7964 30.4701 76.3288 33.756 76.431C37.0418 76.5331 38.7354 80.2588 39.8841 79.8287C42.0533 79.0169 36.609 66.0605 34.2688 66.34C30.6197 66.7325 25.4105 79.6082 27.9964 79.7265ZM12.497 82.764C19.7418 78.3663 19.9715 83.6457 19.9769 88.382C19.9769 88.382 19.1541 92.2528 18.7267 93.5162C17.5726 96.9623 24.7053 97.6827 25.2075 96.2741C25.7097 94.8656 25.7952 89.7153 27.0241 90.5271C27.943 91.1238 27.179 94.6076 27.4408 96.6451C27.724 98.9084 32.1691 99.989 33.0667 97.7472C33.9643 95.5054 33.7774 90.1131 35.0543 90.4787C36.3312 90.1131 36.1175 95.4623 37.0418 97.7472C37.9661 100.032 42.3845 98.9084 42.6784 96.6451C42.9348 94.6076 42.1762 91.1185 43.0898 90.5271C44.324 89.7099 44.4415 94.8656 44.9117 96.2741C45.3819 97.6827 52.5412 96.9515 51.3872 93.5162C50.9704 92.2528 50.137 88.382 50.137 88.382C50.137 80.3878 49.5332 77.8825 57.5688 82.764C60.908 84.8015 64.6961 81.049 68.1101 77.3234C71.5242 73.5977 69.6435 70.8989 67.6934 65.4906C65.7433 60.0876 69.0451 52.1901 69.7183 40.1638C70.0015 -5.50618 0.288692 -20.7313 0.288692 40.1638C1.16491 52.1794 4.29581 60.0876 2.31363 65.4906C0.331455 70.8936 -1.51182 73.587 1.89688 77.3234C5.30558 81.0598 9.09895 84.8015 12.4382 82.764H12.497ZM38.9759 54.0019C42.4487 49.0236 57.2215 50.8622 61.4476 59.7758C63.6435 64.3939 63.4191 67.9367 60.2402 69.9743C52.5305 74.974 37.8753 56.3996 38.9759 54.0019Z" fill="#8469FF"/>
</svg>
