<svg width="182" height="186" viewBox="0 0 182 186" fill="none" xmlns="http://www.w3.org/2000/svg">
<path d="M20.4339 101.329C20.0116 100.721 19.774 100.074 19.7148 99.4244C18.9582 90.125 54.7345 81.4713 89.7632 78.4745C124.792 75.4777 161.473 77.9436 162.229 87.243C162.986 96.5424 127.21 105.196 92.1809 108.193C59.7018 110.951 25.7833 109.031 20.4339 101.329ZM160.164 86.0936C156.194 80.378 128.74 76.7315 89.8862 80.0416C48.1944 83.61 20.7694 92.8631 21.2847 99.2955C21.3127 99.7268 21.4846 100.148 21.7803 100.574C25.75 106.289 53.2038 109.936 92.0579 106.626C133.736 103.037 161.161 93.784 160.645 87.3516C160.597 86.9345 160.445 86.499 160.164 86.0936Z" fill="#FF0081"/>
<path d="M22.2972 95.8892C21.7904 95.1596 21.5372 94.404 21.5375 93.6226C21.5399 84.5472 56.8265 78.9677 90.9431 78.8278C125.06 78.6879 160.36 83.9451 160.378 93.0064C160.376 102.082 125.089 107.661 90.9727 107.801C59.7875 107.948 27.6324 103.571 22.2972 95.8892ZM158.272 91.4946C154.288 85.7587 128.244 80.2319 90.9424 80.3907C50.3665 80.5701 23.1054 87.3658 23.1026 93.6172C23.1202 99.8544 50.3631 106.412 90.953 106.253C131.549 106.059 158.81 99.2632 158.793 93.026C158.798 92.5118 158.624 92.0013 158.272 91.4946Z" fill="#FF0081"/>
<path d="M24.225 90.5847C23.6056 89.6929 23.3086 88.7874 23.3951 87.826C23.8293 82.7171 35.1023 80.3558 44.4544 79.2685C57.3282 77.7783 74.291 77.7447 92.1579 79.1863C125.383 81.8892 159.283 89.9518 158.521 98.8033C157.76 107.655 122.949 110.14 89.7383 107.457C71.8371 106.009 55.1353 103.248 42.7035 99.6837C35.3562 97.5758 26.8996 94.4356 24.225 90.5847ZM156.373 96.84C152.305 90.9825 127.672 83.6645 92.0335 80.7449C74.2559 79.3014 57.4027 79.319 44.6181 80.8073C32.5598 82.2118 25.2119 84.8816 24.9555 87.9441C24.699 91.0066 31.5056 94.812 43.144 98.1459C55.4928 101.677 72.0913 104.421 89.8893 105.85C129.363 109.08 156.44 104.756 156.961 98.6852C156.999 98.0881 156.81 97.4683 156.373 96.84Z" fill="#FF0081"/>
<path d="M26.1315 85.2925C25.3572 84.1777 25.0368 83.1083 25.2314 82.0418C26.7314 73.4284 61.0527 74.0177 93.3857 79.5633C125.684 85.1029 158.198 95.9912 156.698 104.605C155.198 113.218 120.877 112.629 88.5437 107.083C60.1764 102.208 31.6497 93.2376 26.1315 85.2925ZM154.472 102.095C150.235 95.9938 127.02 86.9393 93.1033 81.1115C54.7044 74.521 27.8053 76.4082 26.7807 82.3177C25.742 88.207 50.4272 98.9443 88.8058 105.549C127.191 112.119 154.09 110.232 155.128 104.343C155.254 103.655 155.021 102.885 154.472 102.095Z" fill="#FF0081"/>
<path d="M28.1128 80.282C27.1555 78.9037 26.7272 77.5487 27.0894 76.2456C28.3999 71.3994 39.6189 71.0886 48.8074 71.6773C61.4251 72.4682 77.6839 75.4173 94.5806 79.9364C126.001 88.339 157.101 102.013 154.828 110.382C152.555 118.751 118.723 115.087 87.3364 106.691C70.4398 102.172 54.8911 96.5961 43.5715 91.0277C37.5064 88.0293 30.7452 84.0721 28.1128 80.282ZM152.536 107.256C150.593 104.459 145.403 100.853 137.656 97.0396C126.44 91.4897 110.988 85.9669 94.1745 81.4804C77.3608 76.9938 61.2194 74.0833 48.7113 73.2764C36.9043 72.5233 29.4021 73.798 28.6277 76.6794C27.8533 79.5609 33.6891 84.4011 44.2889 89.6281C55.5053 95.178 70.9569 100.701 87.7706 105.187C104.55 109.668 120.691 112.578 133.199 113.385C145.006 114.138 152.509 112.864 153.283 109.982C153.531 109.209 153.254 108.29 152.536 107.256Z" fill="#FF0081"/>
<path d="M30.1507 75.4411C28.9119 73.6575 28.3883 71.948 28.9461 70.4488C30.6917 65.7512 41.9008 66.4688 50.9873 67.9096C63.4808 69.8684 79.4009 74.2846 95.7882 80.3292C126.283 91.5684 155.996 108.068 152.97 116.178C151.224 120.876 140.015 120.158 130.929 118.718C118.435 116.759 102.515 112.343 86.1279 106.298C69.7061 100.247 54.7513 93.2677 44.0112 86.6659C38.6693 83.4055 32.7972 79.2515 30.1507 75.4411ZM150.511 112.117C148.512 109.239 143.855 105.443 137.111 101.294C126.433 94.7389 111.575 87.8122 95.2711 81.8001C78.9667 75.788 63.1499 71.3901 50.7597 69.4498C39.0784 67.6179 31.4889 68.2021 30.4453 71C29.4017 73.798 34.7865 79.1618 44.8397 85.3393C55.5172 91.8945 70.3751 98.8211 86.6795 104.833C102.984 110.845 118.801 115.243 131.191 117.184C142.872 119.015 150.462 118.431 151.505 115.633C151.833 114.715 151.483 113.516 150.511 112.117Z" fill="#FF0081"/>
<path d="M32.3614 71.0226C30.7144 68.6512 29.9829 66.4251 30.8179 64.6734C32.9985 60.1243 44.1774 61.8844 53.1681 64.1429C65.5234 67.2493 81.0844 73.1468 97.0109 80.7433C126.559 94.8333 154.878 114.104 151.093 121.99C147.308 129.877 114.462 120.031 84.914 105.941C69.0016 98.3644 54.6202 89.9951 44.4252 82.3537C39.8768 78.9327 34.9657 74.7722 32.3614 71.0226ZM148.322 116.524C142.973 108.822 124.145 95.398 96.3138 82.1289C80.4984 74.6054 65.0547 68.7465 52.7887 65.6383C35.6618 61.3091 32.7338 64.3042 32.2434 65.3358C31.7531 66.3674 31.2473 70.5045 45.371 81.0657C55.4753 88.62 69.7597 96.9364 85.5892 104.48C120.695 121.23 147.089 126.694 149.674 121.294C150.217 120.165 149.73 118.551 148.322 116.524Z" fill="#FF0081"/>
<path d="M34.8364 67.1993C32.4151 63.7132 31.5352 60.8391 32.6896 58.8956C35.3052 54.4949 46.4602 57.2632 55.3488 60.3738C67.5799 64.648 82.8022 72.0126 98.2194 81.1348C126.841 98.0613 153.76 120.137 149.222 127.765C146.606 132.166 135.451 129.398 126.563 126.287C114.332 122.013 99.1094 114.648 83.6922 105.526L84.0994 104.853L83.6922 105.526C62.3385 92.8958 41.9314 77.4145 34.8364 67.1993ZM145.917 120.356C139.962 111.783 122.697 97.3943 97.4253 82.4675C82.0848 73.4123 66.9658 66.0661 54.8316 61.8446C43.4017 57.8552 35.6234 57.0381 34.0556 59.6895C30.9324 64.9233 50.4615 84.049 84.5067 104.179C99.8472 113.235 114.966 120.581 127.1 124.802C138.53 128.792 146.309 129.609 147.876 126.957C148.656 125.604 147.972 123.316 145.917 120.356Z" fill="#FF0081"/>
<path d="M37.7969 64.5131C34.2916 59.4663 32.9318 55.4233 34.5808 53.1061C39.8773 45.7018 71.7174 61.7452 99.4271 81.5287C127.137 101.312 152.641 126.173 147.35 133.543C142.04 140.927 110.214 124.904 82.5041 105.12C63.4546 91.5506 45.4831 75.5796 37.7969 64.5131ZM142.949 123.079C136.333 113.553 120.769 98.7039 98.5016 82.8025C65.5378 59.277 39.5003 48.9382 35.8529 54.0253C32.2055 59.1125 50.4456 80.3353 83.4093 103.861C116.359 127.366 142.411 137.725 146.058 132.638C147.231 130.982 146.117 127.64 142.949 123.079Z" fill="#FF0081"/>
<path d="M41.6147 63.7529C37.11 57.2671 33.7745 50.5099 36.4523 47.3281C39.938 43.2245 51.0185 48.0576 59.6951 52.8177C71.6638 59.4074 86.168 69.7345 100.615 81.9341C115.048 94.1134 127.682 106.701 136.151 117.374C142.311 125.113 148.931 135.208 145.459 139.332C141.973 143.436 130.893 138.603 122.216 133.843C110.261 127.273 95.7228 116.94 81.2898 104.761C66.8569 92.5813 54.2225 79.9941 45.7536 69.321C44.3567 67.5271 42.9379 65.6581 41.6147 63.7529ZM138.972 123.737C137.79 122.035 136.447 120.233 134.932 118.311C126.519 107.719 113.975 95.2189 99.605 83.0863C85.2487 70.9739 70.8071 60.6935 58.9495 54.1768C47.7365 48.0236 39.7835 45.8256 37.6773 48.31C35.5711 50.7944 39.0424 58.2684 47.0124 68.2665C55.425 78.8584 67.9687 91.3584 82.339 103.491C96.6953 115.603 111.137 125.884 122.995 132.401C134.208 138.554 142.161 140.752 144.267 138.267C145.963 136.278 144.012 130.993 138.972 123.737Z" fill="#FF0081"/>
</svg>
